<svg width="50" height="38" viewBox="0 0 50 38" fill="none" xmlns="http://www.w3.org/2000/svg">
<g id="Clip path group">
<mask id="mask0_202_20" style="mask-type:luminance" maskUnits="userSpaceOnUse" x="0" y="0" width="50" height="38">
<g id="clippath-144">
<path id="Vector" d="M13.75 20.6849L11.1 17.1949C10.95 17.0049 10.85 16.915 10.8 16.825V15.0449L13.04 17.865C13.57 18.625 14.68 19.9249 15.18 20.6849H13.76H13.75ZM25.59 20.575L22.94 17.085C22.79 16.895 22.69 16.805 22.64 16.715V14.9349L24.88 17.755C25.41 18.515 26.52 19.815 27.02 20.575H25.6H25.59ZM24.26 20.0349C24.03 19.7349 23.81 19.445 23.58 19.145L22.9 18.265C22.81 18.155 22.71 18.025 22.63 17.895V17.205C22.76 17.315 22.83 17.475 22.95 17.595L23.61 18.455C23.79 18.735 24.96 20.195 25.17 20.575H24.67C24.59 20.495 24.49 20.3349 24.26 20.0349ZM19.87 28.635L17.22 25.145C17.07 24.955 16.97 24.865 16.92 24.775V22.995L19.16 25.8149C19.69 26.5749 20.8 27.875 21.3 28.635H19.88H19.87ZM18.54 28.095C18.31 27.795 18.09 27.505 17.86 27.205L17.18 26.325C17.09 26.205 16.99 26.0849 16.91 25.9449V25.255C17.04 25.365 17.11 25.525 17.23 25.645L17.89 26.505C18.07 26.785 19.24 28.245 19.45 28.625H18.95C18.87 28.545 18.77 28.385 18.54 28.085V28.095ZM31.34 28.6649L28.69 25.1749C28.54 24.9849 28.44 24.8949 28.39 24.8049V23.025L30.63 25.845C31.16 26.605 32.27 27.9049 32.77 28.6649H31.35H31.34ZM30.01 28.125C29.78 27.825 29.56 27.535 29.33 27.235L28.65 26.355C28.56 26.235 28.46 26.115 28.38 25.975V25.2849C28.51 25.3949 28.58 25.5549 28.7 25.6749L29.36 26.5349C29.54 26.8149 30.71 28.2749 30.92 28.6549H30.42C30.34 28.5749 30.24 28.415 30.01 28.115V28.125ZM10.56 13.245L16.07 13.265L16.04 20.9049L10.57 20.9349V13.245H10.56ZM16.61 13.245L21.84 13.275L21.87 20.775H16.6L16.61 13.245ZM22.39 13.245H27.64L27.66 13.585V17.735V20.775H26.06H22.83H22.4V13.245H22.39ZM28.18 13.245H28.37H32.76H32.95H33.14H33.43L33.45 20.615V20.765H28.18V13.235V13.245ZM39.47 20.975H34.5L33.96 20.6749L33.98 13.245H39.48V20.975H39.47ZM33.26 28.765H28.2V21.6549H33.24L33.26 28.765ZM16.76 27.4149V21.6549H21.84L21.87 28.745C20.17 28.785 18.49 28.755 16.79 28.745L16.75 27.4249L16.76 27.4149ZM22.4 21.645H27.64V28.755L22.41 28.775V21.6549L22.4 21.645ZM45.34 30.4049V31.865H4.69V30.205C4.69 30.095 4.77999 29.995 4.89999 29.995H45.13C45.24 29.995 45.34 30.085 45.34 30.205V30.4149V30.4049ZM47.21 33.215V34.6749H2.81999V33.015C2.81999 32.905 2.91 32.8049 3.03 32.8049H47C47.11 32.8049 47.21 32.895 47.21 33.015V33.225V33.215ZM22.07 1.755C22.07 1.755 22.38 1.78491 22.44 1.78491C22.46 1.78491 22.78 1.81496 22.8 1.83496L22.87 2.11499C22.92 2.28499 22.98 2.52496 23.02 2.70496C23.05 2.80496 23.07 2.905 23.1 3.005C23.15 3.205 23.21 3.40498 23.25 3.60498C23.39 4.13498 23.4 4.24501 23.52 4.63501C23.56 4.75501 23.58 4.875 23.61 4.995C23.64 5.115 23.67 5.22497 23.7 5.34497C23.75 5.56497 24.22 5.57496 24.71 5.58496H27.62C27.75 5.58496 27.84 5.60501 27.92 5.51501C27.99 5.44501 28 5.32499 27.95 5.23499C27.89 5.12499 27.79 5.125 27.69 5.125C26.47 5.125 25.46 5.125 24.11 5.125C24.09 5.075 24.08 5.00496 24.07 4.95496C24.06 4.90496 24.03 4.83502 24.03 4.77502C24.95 4.78502 25.89 4.77502 26.81 4.77502C26.96 4.77502 27.12 4.77502 27.27 4.77502C27.39 4.77502 27.62 4.795 27.7 4.745C27.75 4.71499 27.78 4.67498 27.79 4.60498C27.8 4.54498 27.82 4.48493 27.84 4.42493L28.24 2.97498C28.28 2.83498 28.33 2.725 28.22 2.625C28.18 2.585 28.14 2.55493 28.06 2.55493L27.85 2.53491L23.35 2.18494C23.34 2.12494 23.32 2.055 23.3 1.995L23.2 1.61499C23.16 1.45499 23.14 1.47495 23.13 1.44495L23.09 1.41492C23.09 1.41492 23 1.385 22.95 1.375C22.89 1.375 22.81 1.35498 22.74 1.35498C22.6 1.34498 22.46 1.32493 22.32 1.30493C22.21 1.29493 22.11 1.28501 22 1.26501C21.88 1.25501 21.8 1.26498 21.75 1.35498C21.69 1.47498 21.75 1.65496 21.89 1.70496C21.93 1.71496 21.96 1.71498 22 1.72498C22.03 1.72498 22.03 1.72499 22.04 1.73499L22.07 1.755ZM24.76 2.755L24.82 3.51501L24.29 3.495C24.11 3.495 23.94 3.47498 23.77 3.47498C23.7 3.47498 23.72 3.50493 23.67 3.30493C23.65 3.23493 23.63 3.16496 23.61 3.08496C23.59 2.98496 23.51 2.72491 23.5 2.65491L24.77 2.755H24.76ZM27.8 2.995L27.63 3.625L26.51 3.58496L26.61 2.90491L27.81 2.995H27.8ZM24.9 2.76501C25.03 2.77501 25.17 2.78492 25.3 2.79492C25.42 2.80492 26.44 2.88502 26.46 2.89502C26.46 2.94502 26.42 3.16499 26.41 3.23499C26.41 3.25499 26.37 3.55495 26.36 3.57495C26.33 3.59495 25.4 3.54491 25.27 3.53491C25.17 3.53491 25.08 3.53491 24.99 3.53491C24.96 3.53491 24.96 3.535 24.96 3.495L24.9 2.77502V2.76501ZM23.74 3.625C23.74 3.625 24.72 3.65492 24.83 3.66492C24.84 3.70492 24.84 3.78496 24.85 3.83496C24.85 3.90496 24.89 4.31496 24.89 4.33496C24.86 4.34496 23.98 4.34496 23.92 4.33496L23.74 3.63501V3.625ZM24.97 3.67493C25.06 3.67493 25.52 3.69495 25.66 3.69495C25.77 3.69495 25.88 3.70497 25.99 3.71497C26.11 3.71497 26.22 3.71498 26.34 3.72498C26.34 3.74498 26.26 4.31496 26.25 4.33496H25.05C25.05 4.33496 25.04 4.31499 25.03 4.23499C25.01 4.05499 25 3.83492 24.98 3.66492L24.97 3.67493ZM24.51 5.89502C24.32 5.91502 24.14 6.10496 24.17 6.33496C24.2 6.53496 24.38 6.69492 24.61 6.66492C24.82 6.63492 24.97 6.42498 24.94 6.22498C24.91 6.02498 24.74 5.87502 24.51 5.89502ZM27.22 5.89502C27.03 5.91502 26.85 6.10496 26.88 6.33496C26.91 6.53496 27.09 6.69492 27.32 6.66492C27.53 6.63492 27.68 6.42498 27.65 6.22498C27.62 6.02498 27.45 5.87502 27.22 5.89502ZM27.38 4.34497C27.07 4.34497 26.7 4.34497 26.39 4.34497C26.39 4.32497 26.46 3.81499 26.47 3.73499C26.53 3.72499 26.92 3.745 27.02 3.755C27.21 3.755 27.39 3.77502 27.57 3.77502C27.57 3.81502 27.45 4.22493 27.43 4.30493C27.42 4.35493 27.43 4.34497 27.37 4.34497H27.38ZM18.71 0.505005H31.35C31.54 0.505005 31.7 0.66498 31.7 0.85498V7.10498C31.7 7.29498 31.54 7.45496 31.35 7.45496H18.71C18.52 7.45496 18.36 7.29498 18.36 7.10498V0.85498C18.36 0.66498 18.52 0.505005 18.71 0.505005ZM35.38 28.835C35.38 28.835 35.45 28.9149 35.51 28.9349C35.59 28.9649 35.84 28.9449 35.95 28.9449H37.58C37.7 28.9449 37.8 28.955 37.88 28.885C37.96 28.815 37.97 28.755 37.98 28.625L38.03 28.3149C38.06 28.1749 38.07 27.995 38.1 27.845C38.1 27.795 38.12 27.7349 38.12 27.6949L38.16 27.375C37.18 27.375 36.1 27.335 35.15 27.375C35.15 27.375 35.12 27.355 35.15 27.505C35.17 27.645 35.19 27.7949 35.21 27.9349C35.23 28.0449 35.35 28.805 35.36 28.825L35.38 28.835ZM35.8 27.765C35.8 27.715 35.81 27.6849 35.85 27.6649C35.89 27.6449 35.93 27.6649 35.96 27.6849C35.99 27.7249 35.99 27.905 35.99 27.975C35.99 28.065 35.99 28.175 36 28.265C36 28.365 36 28.475 36 28.575C36 28.715 35.88 28.7049 35.84 28.6549C35.81 28.6049 35.82 28.445 35.82 28.365C35.8 28.175 35.82 27.965 35.8 27.775V27.765ZM37.49 28.465C37.49 28.465 37.49 28.585 37.49 28.625C37.46 28.725 37.32 28.715 37.32 28.605C37.32 28.555 37.32 28.4949 37.32 28.4449C37.32 28.3949 37.32 28.3349 37.32 28.2849C37.32 28.1449 37.33 27.965 37.34 27.825C37.34 27.775 37.34 27.7249 37.36 27.6949C37.39 27.6649 37.44 27.6549 37.47 27.6849C37.58 27.7549 37.45 28.235 37.48 28.475L37.49 28.465ZM36.49 28.625C36.47 28.715 36.34 28.715 36.32 28.625C36.32 28.595 36.32 28.105 36.32 28.025C36.32 27.975 36.32 27.755 36.32 27.725C36.34 27.645 36.47 27.635 36.49 27.725C36.49 27.765 36.49 28.235 36.49 28.325C36.49 28.405 36.49 28.555 36.49 28.625ZM37.7 25.7949C37.7 25.7949 37.37 26.095 37.32 26.145C37.29 26.175 37.26 26.205 37.22 26.235C37.19 26.265 37.15 26.295 37.12 26.325C37.1 26.335 37.09 26.355 37.07 26.365L36.93 26.495C36.86 26.555 36.72 26.685 36.64 26.755C36.61 26.785 36.57 26.815 36.54 26.845C36.43 26.935 36.4 26.9649 36.49 27.0549C36.52 27.0849 36.55 27.1149 36.58 27.1549C36.61 27.1749 36.64 27.235 36.69 27.225C36.72 27.225 36.93 27.015 36.98 26.965C37 26.955 37.01 26.9349 37.03 26.9249C37.16 26.8149 37.34 26.635 37.46 26.525C37.49 26.495 37.52 26.4649 37.56 26.4349L37.94 26.085C37.97 26.035 37.91 25.995 37.89 25.965L37.76 25.825C37.76 25.825 37.72 25.7949 37.69 25.8049L37.7 25.7949ZM36.66 26.9149C36.66 26.9149 36.74 26.915 36.76 26.965C36.78 27.015 36.74 27.0449 36.71 27.0649C36.63 27.0949 36.56 26.9549 36.66 26.9249V26.9149ZM35.09 27.235H36.51C36.51 27.235 36.39 27.1049 36.36 27.0649C36.31 26.9749 36.34 26.905 36.39 26.845C36.05 26.845 35.69 26.845 35.35 26.845C35.18 26.845 35.01 26.8149 34.93 26.9449C34.87 27.0349 34.9 27.155 34.99 27.215C35.01 27.235 35.05 27.245 35.09 27.245V27.235ZM36.87 27.235C36.87 27.235 38.2 27.235 38.25 27.235C38.33 27.235 38.41 27.1549 38.42 27.0649C38.44 26.9649 38.37 26.885 38.29 26.855C38.26 26.845 37.33 26.825 37.3 26.855L37.06 27.075C37.06 27.075 37.01 27.115 37 27.135C36.98 27.155 36.89 27.235 36.88 27.255L36.87 27.235ZM36.99 28.635C36.95 28.715 36.83 28.705 36.82 28.605C36.82 28.515 36.82 28.3949 36.82 28.3049C36.82 28.2249 36.82 27.745 36.82 27.705C36.86 27.625 36.98 27.645 36.99 27.735C36.99 27.825 36.99 27.9449 36.99 28.0349C36.99 28.1149 37 28.595 36.99 28.635ZM10.53 26.865H11.94V26.825H10.53V26.865ZM14.51 23.4349V24.015C14.51 24.015 14.51 24.015 14.51 24.025V24.1849C14.51 24.3249 14.51 24.465 14.51 24.605V24.855C14.51 24.985 14.52 25.0849 14.43 25.1549C14.35 25.2249 14.24 25.205 14.11 25.205C13.61 25.205 13.11 25.205 12.61 25.205C12.59 25.295 12.62 26.035 12.61 26.085C12.59 26.085 11.97 26.085 11.95 26.085C11.93 26.035 11.95 25.305 11.95 25.205C11.49 25.205 11.01 25.205 10.55 25.205V26.145C10.66 26.145 10.79 26.145 10.86 26.145H14.12C14.25 26.145 14.33 26.2149 14.37 26.3049C14.4 26.3849 14.39 26.5949 14.39 26.6949C14.78 26.6949 14.79 26.655 14.79 26.825C14.79 26.875 14.8 26.955 14.78 26.995C14.77 26.905 14.76 26.8049 14.6 26.8049H13.25H13.23H12.62V26.845C13.28 26.845 13.94 26.845 14.61 26.845C14.66 26.845 14.7 26.8749 14.72 26.9149C14.73 26.9449 14.73 27.135 14.72 27.355C14.65 27.285 14.74 27.335 13.98 27.325H13.42C13.3 27.325 13.22 27.4049 13.22 27.5349V28.9349C13.22 28.9849 13.24 29.0149 13.25 29.0549H10.54V29.355H6.73C6.66 28.875 6.70999 10.375 6.70999 9.245C6.70999 8.115 6.61 8.18494 7.36 8.18494C21.43 8.25494 34.52 8.18494 41.93 8.18494C43.69 8.18494 43.37 7.95498 43.37 9.47498C43.37 11.815 43.43 28.805 43.35 29.325C43.08 29.375 39.71 29.375 39.48 29.325V21.495L34.13 21.515L34.11 29.365L15.94 29.3049L15.9 29.1949V21.485H10.54V22.4449C11.02 22.4449 11.51 22.4449 12 22.4449H13.96C14.07 22.4449 14.18 22.4449 14.29 22.4449C14.38 22.4449 14.45 22.505 14.49 22.575C14.52 22.655 14.51 23.095 14.51 23.215V23.4049V23.4349ZM14.13 24.345C14.13 24.345 14.13 24.355 14.13 24.365V24.4149C14.13 24.4149 14.13 24.4149 14.13 24.4249C14.13 24.4549 14.13 24.485 14.13 24.505C14.13 24.855 14.17 24.8049 13.91 24.8049H11.82C11.71 24.8049 10.83 24.8049 10.53 24.8049V22.885C10.53 22.885 10.56 22.885 10.57 22.885H14.05C14.13 22.885 14.13 22.905 14.13 22.985C14.13 23.045 14.13 23.1049 14.13 23.1549C14.13 23.2449 14.13 23.3349 14.13 23.4349V24.115C14.13 24.115 14.13 24.1649 14.13 24.1949V24.345ZM13.29 28.965C13.29 29.015 13.34 29.0549 13.39 29.0649H14.54C14.65 29.0649 14.71 29.0649 14.72 28.9449C14.72 28.6149 14.72 28.225 14.72 27.895C14.72 27.835 14.72 27.545 14.72 27.515C14.77 27.345 13.65 27.4249 13.48 27.4349C13.3 27.4349 13.3 27.475 13.3 27.635V28.975L13.29 28.965ZM14.37 27.7949C14.43 27.7949 14.47 27.795 14.5 27.835C14.5 27.875 14.5 27.9049 14.46 27.9349C14.13 27.9349 13.73 27.9649 13.53 27.9349C13.48 27.8949 13.5 27.8349 13.55 27.8149C13.57 27.8149 13.71 27.8149 13.75 27.8149C14.26 27.8149 13.74 27.8149 14.38 27.8149L14.37 27.7949ZM13.47 28.2949H14.62V28.5349H13.48V28.2949H13.47ZM13.74 28.355H13.64V28.475C13.81 28.475 13.74 28.475 13.77 28.505C13.85 28.505 13.82 28.515 13.82 28.335C13.81 28.335 13.78 28.335 13.77 28.335C13.75 28.335 13.77 28.355 13.74 28.365V28.355ZM14.27 28.505C14.33 28.505 14.33 28.505 14.33 28.475H14.45V28.355H14.33C14.33 28.325 14.34 28.325 14.28 28.325C14.27 28.355 14.28 28.465 14.28 28.495L14.27 28.505ZM13.37 24.4049C13.37 24.4049 13.44 24.395 13.47 24.365C13.5 24.335 13.51 24.305 13.51 24.265C13.51 24.225 13.5 24.1849 13.47 24.1649C13.44 24.1349 13.41 24.125 13.37 24.125C13.33 24.125 13.3 24.1349 13.27 24.1649C13.24 24.1949 13.23 24.225 13.23 24.265C13.23 24.305 13.24 24.345 13.27 24.365C13.3 24.395 13.33 24.4049 13.37 24.4049ZM13.61 24.505C13.54 24.575 13.46 24.605 13.37 24.605C13.28 24.605 13.19 24.575 13.13 24.505C13.06 24.435 13.03 24.355 13.03 24.265C13.03 24.175 13.06 24.085 13.13 24.025C13.2 23.955 13.28 23.9249 13.37 23.9249C13.46 23.9249 13.55 23.955 13.61 24.025C13.68 24.095 13.71 24.175 13.71 24.265C13.71 24.355 13.68 24.445 13.61 24.505ZM12.39 23.5649C12.39 23.5649 12.45 23.605 12.49 23.605C12.53 23.605 12.56 23.5949 12.59 23.5649C12.62 23.5349 12.63 23.505 12.63 23.455C12.63 23.405 12.62 23.375 12.59 23.345C12.56 23.315 12.53 23.3049 12.49 23.3049C12.45 23.3049 12.42 23.315 12.39 23.345C12.36 23.375 12.35 23.415 12.35 23.455C12.35 23.495 12.36 23.5349 12.39 23.5649ZM12.4 24.5649C12.46 24.5149 12.51 24.455 12.55 24.365L13.05 23.355C13.09 23.275 13.12 23.215 13.14 23.145H13.44C13.44 23.145 13.36 23.245 13.32 23.325L12.79 24.4149C12.76 24.4849 12.74 24.5349 12.72 24.5649H12.41H12.4ZM12.73 23.6949C12.66 23.7649 12.58 23.7949 12.49 23.7949C12.4 23.7949 12.31 23.7649 12.25 23.6949C12.18 23.6249 12.15 23.545 12.15 23.455C12.15 23.365 12.18 23.275 12.25 23.215C12.32 23.145 12.4 23.115 12.49 23.115C12.58 23.115 12.67 23.145 12.73 23.215C12.8 23.285 12.83 23.365 12.83 23.455C12.83 23.545 12.8 23.6349 12.73 23.6949ZM10.52 26.335C10.71 26.335 11.06 26.335 11.11 26.335H13.42C13.49 26.335 14.1 26.335 14.14 26.335C14.17 26.345 14.2 26.3749 14.2 26.4249C14.2 26.5149 14.2 26.615 14.2 26.705C14.1 26.715 13.67 26.705 13.44 26.705H12.61C12.61 26.705 12.61 26.405 12.61 26.395C12.58 26.395 11.98 26.395 11.95 26.395C11.95 26.395 11.95 26.435 11.95 26.475V26.705C11.89 26.715 11.63 26.705 11.55 26.705C11.47 26.705 10.86 26.705 10.54 26.705V26.325L10.52 26.335ZM0 37.495H50V35.835C50 35.725 49.91 35.625 49.79 35.625H0.209991C0.0999915 35.625 0 35.715 0 35.835V37.495ZM12.38 20.1749C12.15 19.8749 11.93 19.5849 11.7 19.2849L11.02 18.4049C10.93 18.2849 10.83 18.165 10.75 18.025V17.335C10.88 17.445 10.95 17.605 11.07 17.725L11.73 18.585C11.91 18.865 13.08 20.325 13.29 20.705H12.79C12.71 20.625 12.61 20.4649 12.38 20.1649V20.1749Z" fill="white"/>
</g>
</mask>
<g mask="url(#mask0_202_20)">
<g id="Group">
<path id="Vector_2" d="M50.04 0.484985H0.0400391V37.465H50.04V0.484985Z" fill="url(#paint0_linear_202_20)"/>
</g>
</g>
</g>
<defs>
<linearGradient id="paint0_linear_202_20" x1="6.22004" y1="31.475" x2="47.9" y2="3.79496" gradientUnits="userSpaceOnUse">
<stop stop-color="#312E6A"/>
<stop offset="1" stop-color="#57BDDD"/>
</linearGradient>
</defs>
</svg>
