<svg width="50" height="40" viewBox="0 0 50 40" fill="none" xmlns="http://www.w3.org/2000/svg">
<g id="Clip path group">
<mask id="mask0_202_28" style="mask-type:luminance" maskUnits="userSpaceOnUse" x="0" y="0" width="50" height="40">
<g id="clippath-145">
<path id="Vector" d="M24.51 34.1277L22.12 30.9776C21.99 30.8076 21.9 30.7277 21.85 30.6477V29.0477L23.87 31.5876C24.34 32.2776 25.35 33.4477 25.8 34.1277H24.52H24.51ZM24.87 1.6577C24.71 1.6777 24.63 1.68767 24.47 1.74767C24.13 1.88767 23.89 2.0977 23.69 2.4077C23.52 2.6677 23.43 2.97772 23.39 3.29772C23.39 3.33772 23.39 3.38771 23.39 3.41771C23.39 3.45771 23.36 3.45765 23.34 3.47765C23.3 3.51765 23.28 3.5877 23.3 3.6577C23.32 3.7277 23.36 3.75771 23.41 3.78771C23.58 3.86771 23.75 3.66768 23.65 3.50768C23.64 3.48768 23.64 3.48765 23.63 3.47765C23.61 3.45765 23.6 3.45762 23.6 3.44762C23.58 3.41762 23.6 3.26765 23.6 3.22765C23.65 2.95765 23.72 2.7377 23.85 2.5277C24.08 2.1677 24.48 1.81766 25.11 1.86766C25.34 1.88766 25.6 2.0077 25.78 2.1577C25.87 2.2277 25.95 2.31769 26.02 2.39769C26.16 2.57769 26.27 2.80772 26.33 3.04772C26.35 3.11772 26.41 3.41764 26.37 3.46764C26.37 3.46764 26.35 3.47767 26.34 3.49767C26.31 3.52767 26.29 3.57767 26.29 3.62767C26.29 3.85767 26.62 3.89772 26.68 3.67772C26.7 3.59772 26.68 3.53767 26.64 3.49767C26.61 3.46767 26.6 3.47772 26.59 3.42772C26.59 3.38772 26.59 3.35761 26.59 3.31761C26.53 2.72761 26.2 2.11764 25.67 1.84764C25.45 1.73764 25.21 1.65761 24.89 1.68761L24.87 1.6577ZM26.68 3.18761C26.7 3.26761 26.69 3.29767 26.71 3.37767C26.82 3.52767 26.87 3.73768 26.6 3.88768C26.48 3.93768 26.36 3.89762 26.28 3.82762C26.18 3.73762 26.14 3.57761 26.23 3.43761C26.3 3.32761 26.27 3.40761 26.25 3.18761H23.72C23.72 3.18761 23.71 3.26761 23.7 3.31761C23.7 3.39761 23.69 3.36771 23.73 3.41771C23.77 3.47771 23.8 3.54768 23.79 3.63768C23.77 3.77768 23.65 3.8977 23.49 3.9077C23.23 3.9077 23.09 3.60771 23.24 3.41771C23.28 3.36771 23.27 3.3976 23.28 3.3076C23.28 3.2676 23.28 3.22761 23.29 3.18761H22.23V8.96764H27.72V8.19762V3.18761H26.66H26.68ZM11.8 12.9877C12.43 12.6277 13.09 12.3476 13.77 12.0776C13.99 11.9876 14.28 11.8776 14.52 11.8076C15.04 11.6476 15.53 11.5076 16.06 11.3476C16.58 11.1976 17.15 11.1076 17.68 10.9776C19.83 10.4776 22.66 10.3376 24.96 10.3276C26.8 10.3276 30.48 10.5576 32.24 10.9676C32.81 11.0976 33.34 11.1776 33.88 11.3276C35.86 11.8676 36.13 11.9677 37.88 12.7977C38.01 12.8577 38.09 12.9176 38.22 12.9776C38.22 4.91765 38.22 8.90766 38.22 4.48766C38.22 4.00766 38.29 3.94764 37.79 3.46764C37.55 3.23764 37.32 3.06762 36.99 2.82762C36.23 2.28762 34.96 1.73764 34.03 1.46764C33.65 1.35764 33.3 1.2677 32.9 1.1577C31.39 0.727701 29.55 0.577721 27.88 0.427721C26.04 0.267721 24.11 0.317681 22.29 0.387681C20.52 0.457681 18.84 0.727652 17.22 1.10765C15.54 1.49765 13.49 2.34771 12.32 3.41771C11.92 3.78771 11.77 3.90761 11.77 4.31761C11.77 5.27761 11.77 6.23762 11.77 7.19762C11.77 7.90762 11.72 12.7177 11.79 12.9877H11.8ZM38.93 17.9277V28.7977L39.46 28.9576C39.69 29.0376 39.92 29.1077 40.14 29.1677C40.28 29.2077 40.53 29.2676 40.64 29.3476C40.94 29.5576 40.91 29.8477 40.85 30.1477C40.83 30.2677 40.81 30.3977 40.79 30.5277C41.06 30.5677 41.33 30.6277 41.5 30.7777C41.68 30.9377 41.76 31.1777 41.73 31.4177V31.4476L41.33 32.9576C41.25 33.2476 41.19 33.5276 41.1 33.8176C41.06 33.9576 41.01 34.0976 40.95 34.2076H43.59L43.61 12.3577V11.9877L39.11 13.4576L38.94 13.6277V17.9576L38.93 17.9277ZM11.05 24.4077L11.03 13.4977L6.39 11.9576V24.3877C6.54 24.3877 6.68999 24.3877 6.84999 24.3977H11.06L11.05 24.4077ZM40.4 36.4476H48.83V34.9576C46.24 34.9276 43.62 34.9077 40.96 34.9077C40.94 35.1577 40.79 35.3877 40.54 35.5077C40.57 35.6077 40.58 35.7176 40.58 35.8276C40.58 36.0676 40.51 36.2776 40.39 36.4476H40.4ZM16.41 36.4476H35.53C35.39 36.2476 35.34 36.0377 35.34 35.7577C35.34 35.6477 35.36 35.5277 35.41 35.4177C35.35 35.3877 35.28 35.3477 35.22 35.2977C35.08 35.1877 34.96 35.0477 34.87 34.8977C30.11 34.8977 25.35 34.9376 20.77 34.9476H16.4C16.4 35.0476 16.4 35.1376 16.4 35.2276C16.4 35.5976 16.41 35.9676 16.4 36.3376V36.4376L16.41 36.4476ZM1.17 36.4476H3.89999V36.3276C3.89999 36.0276 3.89999 35.4676 3.92999 34.9576H1.18999L1.17 36.4476ZM16.39 38.3076H50V36.8176C46.75 36.7776 43.43 36.7677 40.08 36.7577C39.71 36.9977 39.21 37.0277 38.82 36.7577H37.09C36.72 36.9977 36.22 37.0277 35.84 36.7577C30.69 36.7577 25.53 36.7976 20.56 36.8176H16.41C16.41 37.3176 16.4 37.8076 16.41 38.3076H16.39ZM0 38.3076H3.92C3.92 37.8076 3.90999 37.3176 3.89999 36.8176C2.60999 36.8176 1.30999 36.8176 0.019989 36.8176L0 38.3076ZM25.37 11.0576L25.35 16.3577C26.45 16.3377 27.46 16.4376 28.51 16.4776C29.56 16.5176 30.52 16.7077 31.53 16.7777V12.3176C31.53 11.3776 31.7 11.5876 30.85 11.4476C30.18 11.3376 25.78 10.8877 25.37 11.0477V11.0576ZM25.35 27.9177C27.13 27.8577 28.41 28.0076 30.03 28.0576C30.53 28.0676 31.04 28.1577 31.51 28.1677C31.53 27.8877 31.55 25.3076 31.51 24.9676V23.1077C30.51 23.0177 29.55 22.8876 28.51 22.8376C27.43 22.7776 26.44 22.7376 25.35 22.7176V27.9277V27.9177ZM18.73 16.7276C18.91 16.7476 19.91 16.6076 20.13 16.5776C21.22 16.4176 23.53 16.3477 24.63 16.3677V11.0277C22.51 11.1177 20.98 11.1176 18.93 11.4776C18.73 11.5076 18.74 11.5077 18.73 11.6577C18.68 12.1577 18.78 15.7777 18.73 16.7377V16.7276ZM18.75 23.0776V28.1077C19.02 28.1277 19.84 28.0577 20.15 28.0377C20.64 27.9977 21.11 27.9776 21.6 27.9476C22.11 27.9276 24.41 27.9277 24.62 27.8877V22.7276C24.1 22.5976 19.24 22.8976 18.74 23.0776H18.75ZM25.36 22.0177C26.45 21.9677 28.88 22.1276 30.03 22.2276C30.53 22.2676 31.04 22.3677 31.53 22.3877V17.5177C30.55 17.4277 26.02 16.8676 25.35 17.0976C25.42 19.7876 25.45 17.9477 25.35 22.0177H25.36ZM18.75 17.4877V22.3276C18.95 22.3476 21.06 22.1076 21.61 22.0876C22.01 22.0776 24.47 22.0276 24.64 21.9776C24.67 21.4076 24.7 17.3376 24.62 17.0776C23.87 16.9676 19.36 17.2777 18.75 17.4877ZM4.53999 25.9376V31.8276C4.70999 31.8276 4.95999 31.8276 5.09999 31.8176L5.28999 31.4177C5.40999 31.1777 5.54 30.9577 5.67 30.7377V28.2577C5.33 27.5977 5.02999 26.8476 4.95999 26.1876C4.86999 25.3776 5.14999 24.8376 5.67999 24.5876V16.4476L4.54999 16.4576V25.9576L4.53999 25.9376ZM44.31 34.1976H45.44L45.45 16.4476L44.31 16.4277V34.1976ZM2.70999 34.1777L3.81999 34.1976L3.84 20.7777V16.4676L2.70999 16.4476V34.1876V34.1777ZM46.14 34.1777H47.25L47.26 16.4576L46.14 16.4376V34.1777ZM28.34 34.1876C28.5 34.1876 28.61 34.1677 28.63 34.1577C28.72 34.0677 28.66 29.2276 28.66 28.7076C28.44 28.6676 27.07 28.6177 26.16 28.6177C25.09 28.5777 22.08 28.6576 21.43 28.6876V34.1876H21.7V28.9277C22.26 28.8977 24.92 28.8177 25.84 28.8577C26.4 28.8177 28 28.8977 28.34 28.9277V34.1876ZM14.55 12.5477V17.6377C15.33 17.4477 17.27 16.8877 18 16.8777V11.6477C17.25 11.7177 16.14 12.0777 15.4 12.2777C15.14 12.3477 14.82 12.4877 14.56 12.5377L14.55 12.5477ZM14.57 29.3777V30.6677C14.57 30.6677 14.61 30.7377 14.63 30.7777C14.78 31.0477 14.91 31.3276 15.05 31.5976C15.08 31.6576 15.13 31.7776 15.18 31.8476C15.23 31.8476 15.3 31.8476 15.34 31.8476C15.53 31.8476 15.71 31.8477 15.9 31.8677L16.36 31.8977V32.3577C16.39 33.0977 16.4 33.1977 16 33.5277C16.03 33.5877 16.06 33.6576 16.09 33.7176C16.16 33.8776 16.22 34.0276 16.27 34.1976H18L18.02 28.9177C16.83 29.0477 15.73 29.1877 14.59 29.3777H14.57ZM32.22 16.9277C32.75 16.9777 34.05 17.2777 34.65 17.4177C34.9 17.4777 35.23 17.5977 35.46 17.6377V12.5976C35.09 12.3276 32.56 11.7776 32.24 11.7176L32.22 16.9277ZM14.56 18.3977V23.1077C15.27 23.0177 16.97 22.4776 17.99 22.4676V17.5876C17.39 17.7176 16.8 17.7876 16.22 17.9376C15.79 18.0476 14.9 18.2277 14.57 18.3977H14.56ZM14.54 23.8476C14.54 24.0576 14.54 24.2777 14.55 24.4877C14.6 24.5077 14.64 24.5177 14.69 24.5377C15.17 24.5877 15.36 25.0577 15.34 25.5277C15.32 25.9677 15.19 26.4577 15.06 26.8777C14.93 27.2977 14.78 27.7377 14.6 28.1777C14.6 28.3277 14.6 28.4677 14.62 28.6177L14.79 28.5976L17.98 28.1777V23.1577C17.36 23.2577 16.8 23.3676 16.22 23.4576C15.64 23.5576 15.06 23.7576 14.53 23.8376L14.54 23.8476ZM32.21 34.1976C33.34 34.1376 34.04 34.1477 34.57 34.1577C34.52 33.8877 34.49 33.6076 34.44 33.3376C34.41 33.1776 34.38 33.0076 34.36 32.8476C34.27 32.2676 34.17 31.6776 34.07 31.0976C34 30.6976 33.94 30.2576 33.87 29.8476H33.81C33.55 29.7876 33.12 29.7077 32.88 29.6277C32.58 29.5177 32.41 29.2376 32.41 28.9576C32.33 28.9576 32.26 28.9476 32.22 28.9376V34.1876L32.21 34.1976ZM32.21 28.2477C32.38 28.2477 32.61 28.2677 32.84 28.2877C33.03 28.2077 33.23 28.2477 33.46 28.2877C33.75 28.3477 34.04 28.4276 34.33 28.4776C34.44 28.4976 34.55 28.5177 34.66 28.5477C34.94 28.5877 35.21 28.6177 35.45 28.6377V23.8476C34.38 23.6376 33.35 23.2976 32.2 23.2076C32.21 26.0876 32.2 23.5077 32.2 28.2377L32.21 28.2477ZM32.21 22.4977C33.37 22.6277 35 23.0677 35.45 23.1077C35.41 21.9077 35.42 19.6277 35.45 18.3877C34.43 18.1377 33.33 17.7777 32.21 17.6377V22.4977ZM29.36 28.7677C29.3 28.9177 29.31 33.3076 29.34 34.1876H31.48C31.56 33.0376 31.5 30.9977 31.5 29.7577L31.48 28.8877C31.1 28.8377 29.51 28.7077 29.36 28.7677ZM18.72 28.8476L18.7 34.1777H20.69V28.7176L18.7 28.8376L18.72 28.8476ZM11.74 18.5477V18.6976C12.65 18.3276 12.72 18.2477 13.82 17.8677V12.8176C13.38 13.0476 12.42 13.3777 11.85 13.7677C11.65 13.8977 11.73 14.0977 11.73 14.6377V16.4277V18.5576L11.74 18.5477ZM36.14 17.8476L37.67 18.4376C37.87 18.5276 37.98 18.6177 38.19 18.6777V13.8076L36.16 12.8076V17.8376L36.14 17.8476ZM11.72 19.4776V24.0277C12.03 23.9177 12.4 23.7577 12.73 23.6477C13.03 23.5477 13.56 23.4176 13.79 23.3076C13.85 23.0476 13.84 18.8377 13.79 18.6277C13.46 18.7477 13.08 18.8777 12.73 19.0277C12.37 19.1677 12.01 19.4077 11.72 19.4877V19.4776ZM36.14 23.3176C36.9 23.5076 37.99 23.9677 38.17 24.0177V19.4977C37.69 19.1677 36.75 18.8477 36.15 18.6277C36.07 18.9577 36.09 22.8176 36.14 23.3176ZM13.81 24.3977V24.0576L12.8 24.4177H13.11C13.33 24.4177 13.57 24.3977 13.81 24.3977ZM38.15 28.4877L38.17 24.7877C37.35 24.4877 37.1 24.3176 36.13 24.0576V28.2677C36.28 28.0277 36.51 27.8677 36.81 27.7877C37.26 27.6677 37.76 27.9176 37.97 28.3276C38 28.3876 38.02 28.4377 38.04 28.4877C38.08 28.4877 38.12 28.4877 38.16 28.4977L38.15 28.4877ZM35.69 29.9776L36.37 30.0876C36.59 30.1276 36.83 30.1676 37.06 30.1976C37.22 30.2176 38.41 30.4077 38.44 30.3977V30.3476C38.44 30.3476 38.44 30.3177 38.43 30.2877C38.39 30.0577 38.31 29.7177 38.27 29.4877L38.17 29.0477C38.11 28.9377 37.87 28.9776 37.68 28.9776C37.68 29.0676 37.67 29.1177 37.7 29.1777C37.8 29.3477 37.68 29.5477 37.49 29.5477C37.34 29.5477 37.19 29.3776 37.29 29.1876C37.32 29.1376 37.31 29.0677 37.31 28.9877C37.23 28.9777 36.83 28.9877 36.73 28.9877C36.73 29.0577 36.73 29.1277 36.75 29.1777C36.94 29.5177 36.41 29.7177 36.32 29.3577C36.3 29.2877 36.32 29.2276 36.35 29.1876C36.39 29.1276 36.37 29.0777 36.37 28.9877C35.78 28.9877 35.92 28.8677 35.75 29.6277L35.68 29.9877L35.69 29.9776ZM40.2 30.6876C40.23 30.4676 40.27 30.2676 40.31 30.0576C40.32 29.9776 40.38 29.8077 40.31 29.7577C40.28 29.7377 39.75 29.6076 39.25 29.4376L38.73 29.2877C38.61 29.2577 38.61 29.3776 38.58 29.4576C38.56 29.5076 38.5 29.6876 38.5 29.7176C38.5 29.7676 38.54 29.9277 38.56 29.9877C38.58 30.0877 38.6 30.1777 38.62 30.2777C38.67 30.4877 38.55 30.4077 39.06 30.5077C39.19 30.5377 40.17 30.7076 40.21 30.6976L40.2 30.6876ZM35.78 35.7677C35.78 35.9977 35.81 36.1177 35.98 36.2877C36.32 36.6377 37.04 36.4276 37.04 35.8276C37.04 35.7276 37.02 35.6476 36.99 35.5676C36.85 35.2176 36.35 35.0376 35.98 35.3476C35.89 35.4276 35.77 35.6077 35.77 35.7677H35.78ZM38.76 35.7677C38.76 35.9977 38.79 36.1177 38.96 36.2877C39.3 36.6377 40.02 36.4276 40.02 35.8276C40.02 35.7276 40 35.6476 39.97 35.5676C39.83 35.2176 39.33 35.0376 38.96 35.3476C38.87 35.4276 38.75 35.6077 38.75 35.7677H38.76ZM36.92 28.2677C36.68 28.3277 36.53 28.4576 36.48 28.7076C36.45 28.8276 36.47 28.9977 36.47 29.1277C36.47 29.2377 36.41 29.1877 36.41 29.2877C36.41 29.3477 36.45 29.3977 36.5 29.4277C36.62 29.4877 36.74 29.3577 36.69 29.2377C36.65 29.1577 36.65 29.2376 36.65 29.0576C36.65 28.8676 36.62 28.6477 36.79 28.5177C36.99 28.3677 37.27 28.4177 37.38 28.6377C37.44 28.7577 37.42 28.8877 37.42 29.0477C37.42 29.1977 37.43 29.1376 37.38 29.2276C37.35 29.2876 37.36 29.3577 37.4 29.3977C37.52 29.5277 37.72 29.3576 37.63 29.2276C37.6 29.1776 37.6 29.2177 37.59 29.1477C37.59 28.9377 37.62 28.7476 37.52 28.5576C37.44 28.3976 37.19 28.2077 36.93 28.2777L36.92 28.2677ZM33.87 29.3476L34.22 29.4177C34.22 29.4177 34.24 29.4176 34.26 29.4376C34.28 29.4576 34.74 32.2677 34.82 32.7677C34.84 32.9277 34.87 33.0877 34.9 33.2477C34.96 33.5677 34.99 33.8876 35.06 34.1976C35.13 34.5076 35.28 34.7577 35.47 34.9077C35.73 35.1077 36.04 35.0676 36.42 35.0676H39.75C39.86 35.0676 40.21 35.0777 40.28 35.0477C40.43 34.9877 40.45 34.7877 40.33 34.6777C40.24 34.5977 40 34.6277 39.83 34.6277H37.05C36.68 34.6277 36.3 34.6377 35.94 34.6277C35.6 34.6177 35.46 34.1277 35.48 33.9877C35.51 33.9877 40.23 34.0077 40.37 33.9877C40.52 33.9577 40.53 33.7977 40.57 33.6477C40.65 33.3877 40.72 33.0876 40.8 32.8076L41.19 31.3376C41.2 31.2476 41.17 31.1877 41.12 31.1477C41 31.0377 40.46 30.9976 40.25 30.9576C39.94 30.9076 39.63 30.8576 39.32 30.8176C39.01 30.7776 38.7 30.7177 38.4 30.6677C38.09 30.6177 37.78 30.5777 37.48 30.5277C37.33 30.4977 37.17 30.4876 37.02 30.4576C36.95 30.4476 36.86 30.4277 36.79 30.4177L36.09 30.3076C35.94 30.2776 35.78 30.2677 35.62 30.2377C35.55 30.2277 35.46 30.2176 35.4 30.1976C35.33 30.1876 35.24 30.1677 35.16 30.1577C35.08 30.1577 35.01 30.1377 34.92 30.1277C34.78 30.1077 34.82 30.1076 34.8 29.9776L34.69 29.2977C34.69 29.2177 34.66 29.1476 34.62 29.0976C34.56 29.0276 34.32 28.9876 34.22 28.9676C33.96 28.9176 33.62 28.8277 33.34 28.7777C33.19 28.7477 33.04 28.6776 32.93 28.8076C32.84 28.9176 32.88 29.0977 33.02 29.1477C33.1 29.1777 33.77 29.3176 33.88 29.3376L33.87 29.3476ZM6.37 28.5976C6.50999 29.0576 6.75 29.4477 6.86 29.7977C6.75 29.9777 6.39999 30.3276 6.03999 30.9676C5.90999 31.2076 5.79999 31.3877 5.67999 31.6277L5.43999 32.1177C5.27999 32.3677 5.06999 32.2876 4.37999 32.3176C4.32999 33.2876 4.38999 32.9776 4.81999 33.3577C4.72999 33.5377 4.57999 33.8877 4.48999 34.1177C4.26999 34.6677 4.37 37.9777 4.37 38.4977C4.37 38.8777 4.37 38.8977 4.56 39.1077C3.68 39.1376 3.54999 39.0177 3.54999 39.3977C3.54999 39.7077 3.59999 39.6777 3.84999 39.6777H16.69L16.75 39.3877C16.82 39.0177 16.05 39.1077 15.64 39.1177C15.83 38.6677 15.85 38.9376 15.84 38.3076C15.84 37.5376 15.89 35.0277 15.79 34.5377C15.68 33.9777 15.49 33.7776 15.35 33.3376C15.91 32.8876 15.84 33.0576 15.82 32.3376C14.55 32.2576 14.99 32.5576 14.14 30.9776C14.03 30.7776 13.89 30.5376 13.75 30.3376L13.57 30.0976C13.22 29.6776 13.23 29.9277 13.52 29.2677C14.08 28.2077 15.39 24.9177 14.54 25.0177C14.21 24.8077 13.74 24.8877 13.12 24.8877H6.75999C4.48999 24.6377 5.53999 27.1276 6.37999 28.5676L6.37 28.5976ZM12.44 27.4376C12.57 27.4376 13.04 27.4077 13.12 27.4977C13.25 27.6477 12.88 29.1777 12.5 29.5477C11.32 29.6277 9.89999 29.5576 8.68999 29.5576C7.73999 29.5576 7.62 29.7676 7.33 28.9776C7.21 28.6376 6.94999 27.8776 7.01999 27.4776C7.35999 27.3876 11.44 27.4476 12.43 27.4376H12.44ZM6.15999 36.0676C6.05999 35.7576 6.08999 34.0677 6.12999 33.6777C6.20999 32.9277 6.31 32.3076 6.59 31.6976C6.75 31.3476 7.17999 30.4177 7.65999 30.3677H12.49C13.29 30.4677 14 32.6677 14.01 33.6677C14.01 34.2077 14.08 35.6176 13.98 36.0676H13.11C13 35.4376 13.25 34.4177 13.04 33.8877C12.84 33.7877 10.49 33.7877 10.24 33.8877C10.08 34.3277 10.36 35.7576 10.13 36.0776C9.78999 36.0376 9.92999 35.3777 9.92999 34.6477C9.92999 34.1177 9.94999 33.5577 9.92999 33.0377C9.49999 32.9277 7.68999 33.0077 7.09999 32.9977L7.06999 36.0676H6.15999ZM4.75 35.1876C4.75 34.8176 4.89 34.5777 5.11 34.3977C5.2 34.3277 5.35999 34.2177 5.51999 34.2877C5.69999 34.3577 5.64999 34.4676 5.64999 34.7076C5.64999 36.1076 5.85999 36.0976 4.76999 35.9576V35.1876H4.75ZM15.41 35.2677V36.0377C14.31 36.1777 14.52 36.1877 14.52 34.7877C14.52 34.5477 14.46 34.4377 14.65 34.3677C14.81 34.3077 14.97 34.4076 15.06 34.4776C15.28 34.6576 15.42 34.9077 15.42 35.2677H15.41ZM5.98 39.1477C6.37 38.2577 6.1 39.0376 6.2 38.0976C7.17 38.1276 13.64 37.9977 13.93 38.1477C14.09 38.3077 13.8 38.6677 14.17 39.1277H5.98V39.1477ZM23.24 33.6477C23.03 33.3777 22.83 33.1176 22.63 32.8476L22.01 32.0576C21.93 31.9576 21.84 31.8376 21.76 31.7176V31.0976C21.88 31.1976 21.94 31.3376 22.05 31.4576L22.65 32.2377C22.81 32.4977 23.87 33.8077 24.05 34.1477H23.6C23.53 34.0677 23.44 33.9277 23.23 33.6577L23.24 33.6477Z" fill="white"/>
</g>
</mask>
<g mask="url(#mask0_202_28)">
<g id="Group">
<path id="Vector_2" d="M49.9902 0.2677H-0.00976562V39.7377H49.9902V0.2677Z" fill="url(#paint0_linear_202_28)"/>
</g>
</g>
</g>
<defs>
<linearGradient id="paint0_linear_202_28" x1="5.45023" y1="32.1877" x2="48.7002" y2="5.21767" gradientUnits="userSpaceOnUse">
<stop stop-color="#312E6A"/>
<stop offset="1" stop-color="#57BDDD"/>
</linearGradient>
</defs>
</svg>
