<svg width="52" height="36" viewBox="0 0 52 36" fill="none" xmlns="http://www.w3.org/2000/svg">
<g id="Clip path group">
<mask id="mask0_202_36" style="mask-type:luminance" maskUnits="userSpaceOnUse" x="0" y="0" width="52" height="36">
<g id="clippath-166">
<path id="Vector" d="M7.7951 25.571H16.9651V32.4111H7.7951V25.571ZM7.48511 25.3411H17.2751V32.6511H7.48511V25.3411ZM35.8751 10.7811C42.1351 10.7811 47.2151 14.4011 47.2151 15.9011C47.2151 17.4011 47.1951 16.2211 47.1651 16.3811H24.5951C24.5651 16.2211 24.5451 17.3911 24.5451 15.9011C24.5451 14.4111 29.6251 10.7811 35.8851 10.7811H35.8751ZM43.7251 22.0911H47.3051V26.1812C47.1351 26.1812 46.9551 26.1712 46.7751 26.1812C46.3851 26.1812 45.9951 26.1812 45.6051 26.1812C45.1551 26.1812 44.4451 26.1811 44.0151 26.2911C43.9151 26.3211 43.8151 26.3511 43.7151 26.4011V22.1011L43.7251 22.0911ZM43.7251 17.2711H47.3051V21.3611H43.7251V17.2711ZM38.9351 22.0911H42.5151V27.3411C42.1051 27.3311 41.6951 27.321 41.2851 27.321C41.0051 27.321 40.7351 27.3311 40.4551 27.3411C40.4251 27.2411 40.3751 27.1612 40.3051 27.0612C40.2551 26.9912 40.2151 26.9211 40.1551 26.8611C40.0351 26.7111 39.8951 26.6011 39.7351 26.4911C39.6851 26.4611 39.6451 26.4311 39.5851 26.4011C39.5551 26.3911 39.5251 26.3711 39.4951 26.3611C39.4551 26.3411 39.4051 26.3211 39.3651 26.3011C39.2451 26.2611 39.0851 26.2311 38.9151 26.201V22.071L38.9351 22.0911ZM38.9351 17.2711H42.5151V21.3611H38.9351V17.2711ZM34.1451 22.0911H37.7251V26.1711C37.6551 26.1711 37.5851 26.1711 37.5251 26.1711C37.1651 26.1611 36.7951 26.1711 36.4351 26.1711C36.0751 26.1711 35.7051 26.171 35.3451 26.201C34.8951 26.2411 34.4951 26.3011 34.1451 26.5311V22.1011V22.0911ZM34.1451 17.2711H37.7251V21.3611H34.1451V17.2711ZM29.3551 22.0911H32.9351V27.5911C32.5751 27.6211 32.2651 27.5911 32.0251 27.9611C31.8251 28.2511 31.8351 28.651 32.0251 28.941C31.9151 28.941 31.8051 28.9412 31.6951 28.9312C31.5451 28.9312 31.4451 28.9112 31.3151 28.9312C31.0451 28.4112 30.8051 27.9411 30.2351 27.6311C30.0051 27.5011 29.7651 27.4311 29.5051 27.4211C29.4551 27.4211 29.4151 27.4211 29.3751 27.4211V22.1111L29.3551 22.0911ZM29.3551 17.2711H32.9351V21.3611H29.3551V17.2711ZM24.5651 22.0911H28.1451V27.3411C27.7351 27.3311 27.3251 27.321 26.9151 27.321C26.5051 27.321 26.0651 27.3511 25.6351 27.3611C25.3351 27.3611 24.8351 27.3911 24.5751 27.5011V22.0911H24.5651ZM24.5651 17.2711H28.1451V21.3611H24.5651V17.2711ZM0.995102 7.56116H2.6151V12.3112H22.0351V7.56116H23.7251V24.6511H0.995102V7.56116ZM12.3551 0.71106C18.6151 0.71106 23.6951 3.00105 23.6951 5.83105C23.6951 5.99105 23.6751 6.15116 23.6451 6.31116H22.0351V4.78113H2.6151V6.31116H1.0751C1.0451 6.15116 1.0251 5.99105 1.0251 5.83105C1.0251 3.00105 6.1051 0.71106 12.3651 0.71106H12.3551ZM4.7451 25.3911H6.26511V33.4611H4.7451V25.3911ZM0.995102 25.3911H2.51511L2.4951 34.9611H0.975098L0.995102 25.3911ZM3.09511 25.3911H4.15511V34.951H3.09511V25.3911ZM20.5551 25.3911H21.6151V30.9111C21.5851 30.9911 21.5551 31.0611 21.5351 31.1411C21.4451 31.4611 21.4551 31.9912 21.4551 32.3112V32.3511C21.4551 32.6111 21.4551 32.8811 21.4551 33.1411C21.4551 33.5511 21.3851 34.0311 21.6051 34.4011V34.941H20.5451V25.3811L20.5551 25.3911ZM18.4551 25.3911H19.9751V33.4611H18.4551V25.3911ZM22.2051 25.3911H23.7251V28.1111C23.5351 28.3411 23.3951 28.6111 23.2351 28.9211C22.9951 28.9011 22.5851 28.921 22.3951 28.951C22.3251 28.9611 22.2651 28.9711 22.2051 28.9911V25.3911ZM11.5251 32.3311L8.37511 28.191C8.19511 27.961 8.08511 27.8611 8.01511 27.7511V25.6411L10.6751 28.9911C11.2951 29.8911 12.6151 31.4311 13.2151 32.3411H11.5351L11.5251 32.3311ZM9.95511 31.691C9.67511 31.331 9.42511 30.9911 9.15511 30.6411L8.34511 29.6011C8.24511 29.4611 8.1251 29.3111 8.0251 29.1511V28.3311C8.1751 28.4611 8.26511 28.6511 8.40511 28.8011L9.1951 29.821C9.4051 30.161 10.8051 31.8811 11.0451 32.3411H10.4551C10.3651 32.2411 10.2451 32.0511 9.9651 31.701L9.95511 31.691ZM10.7651 15.9211H10.7951C10.7951 15.9211 10.8251 15.941 10.8351 15.941L11.1051 15.9811C11.2151 16.0011 11.3651 16.0211 11.4751 16.0411C11.5951 16.0611 11.7151 16.0811 11.8351 16.0911L13.6551 16.3711C13.6551 16.3711 13.6551 16.3911 13.6551 16.3411C13.6551 16.3311 13.6551 16.3212 13.6551 16.3112L13.4751 15.4111C13.4651 15.3311 13.3951 14.971 13.3651 14.941C13.3151 14.871 13.2551 14.8711 13.1451 14.8711C13.0451 14.8711 12.9451 14.8711 12.8451 14.8711C12.8451 14.9411 12.8351 15.021 12.8651 15.071C12.9951 15.281 12.8151 15.4511 12.6751 15.4611C12.4951 15.4611 12.3351 15.2811 12.4451 15.0811C12.4751 15.0311 12.4651 14.9511 12.4651 14.8711C12.3851 14.8611 11.9551 14.8611 11.8551 14.8711C11.8551 15.1711 11.8751 15.0211 11.9051 15.1511C11.9151 15.1911 11.9151 15.2211 11.9051 15.2611C11.8851 15.3711 11.7851 15.4611 11.6551 15.4611C11.4751 15.4611 11.3351 15.251 11.4451 15.071C11.4851 15.001 11.4651 14.9811 11.4651 14.8611C11.3751 14.8611 11.1051 14.8511 11.0351 14.8611C10.9251 14.8911 10.9251 15.0411 10.8951 15.1611C10.8551 15.2911 10.8351 15.4811 10.8051 15.6211C10.8051 15.6511 10.7851 15.6811 10.7851 15.7111C10.7751 15.7711 10.7551 15.8511 10.7451 15.9011L10.7651 15.9211ZM13.8751 16.4011L15.1051 16.6211C15.1851 16.6311 15.4751 16.6912 15.5251 16.6812C15.5551 16.5012 15.5751 16.3311 15.6151 16.1611C15.6351 16.0811 15.6551 15.9811 15.6651 15.9011C15.6851 15.7911 15.7051 15.7212 15.5951 15.6812C15.5551 15.6712 15.5151 15.6511 15.4751 15.6411L15.2351 15.5811C15.1751 15.5611 15.1851 15.5511 15.1251 15.5411L14.6451 15.4011C14.5451 15.3711 13.9651 15.201 13.9351 15.201C13.8451 15.201 13.8251 15.3811 13.7751 15.5111C13.7251 15.6611 13.7251 15.6511 13.7751 15.8911L13.8751 16.4111V16.4011ZM12.1851 22.2111C12.2351 22.0111 12.1651 21.841 12.0551 21.691C11.9151 21.491 11.5951 21.3811 11.3351 21.4611C11.2351 21.4911 11.1951 21.521 11.1251 21.571C11.0851 21.601 11.0651 21.6111 11.0351 21.6511C11.0251 21.6711 11.0151 21.681 10.9951 21.701L10.9751 21.7311C10.9751 21.7311 10.9751 21.7311 10.9651 21.7511C10.9251 21.8211 10.8951 21.8911 10.8751 21.9811C10.8551 22.0811 10.8751 22.2011 10.8951 22.2911C10.9251 22.3811 10.9551 22.4511 11.0051 22.5111C11.1651 22.7211 11.4451 22.8211 11.7251 22.7411C11.9951 22.6611 12.1351 22.4811 12.1951 22.2211L12.1851 22.2111ZM14.0151 22.191C14.0251 22.251 14.0151 22.2611 14.0451 22.3311C14.1551 22.6311 14.4251 22.7911 14.7651 22.7611C14.9851 22.7411 15.2151 22.5611 15.2751 22.3611C15.2951 22.2911 15.3351 22.2511 15.3251 22.1711C15.3251 22.1211 15.3251 22.0511 15.3251 22.0111C15.3151 21.9511 15.3151 22.011 15.3051 21.941C15.2951 21.831 15.2451 21.7411 15.1651 21.6611C15.0251 21.5211 14.8251 21.391 14.5651 21.441C14.1651 21.511 13.9251 21.8811 13.9951 22.201L14.0151 22.191ZM12.0751 14.1311C11.8251 14.1911 11.6651 14.3511 11.6051 14.5911C11.5451 14.8311 11.6351 15.0411 11.5651 15.1211C11.4951 15.2111 11.5251 15.3011 11.6051 15.3511C11.7151 15.4211 11.8651 15.3011 11.8151 15.1611C11.7751 15.0611 11.7651 15.1411 11.7651 14.9811C11.7651 14.9011 11.7651 14.8211 11.7651 14.7411C11.7651 14.6111 11.8151 14.4811 11.9051 14.4111C12.1551 14.2011 12.5551 14.3411 12.5751 14.7111C12.5751 14.7911 12.5751 14.871 12.5751 14.951C12.5751 15.071 12.5851 15.0611 12.5451 15.1411C12.5151 15.2011 12.5151 15.271 12.5551 15.321C12.6551 15.431 12.8151 15.3511 12.8251 15.2311C12.8251 15.1411 12.7651 15.151 12.7651 15.071C12.7451 14.871 12.8051 14.661 12.6951 14.441C12.6051 14.271 12.3451 14.0711 12.0751 14.1311ZM9.2251 15.3511C9.2251 15.3511 9.24511 15.3511 9.26511 15.3711C9.31511 15.4311 9.6951 18.0211 9.7851 18.5011C9.8451 18.7811 9.8751 19.0711 9.9351 19.3811L9.9951 19.7511C10.0951 20.2311 10.0751 20.871 10.6151 21.191C10.6351 21.201 10.6751 21.2211 10.7051 21.2411C10.9351 21.3411 11.2551 21.3011 11.5251 21.3011H15.0451C15.1751 21.3011 15.5151 21.3211 15.6051 21.2811C15.7451 21.2211 15.7851 21.0211 15.6551 20.9011C15.5551 20.8111 15.3251 20.8411 15.1351 20.8411H12.2051C11.8151 20.8411 11.4251 20.8411 11.0351 20.8411C10.6651 20.8411 10.5151 20.3211 10.5351 20.1711C13.2151 20.2211 13.6351 20.1711 15.5051 20.1711C15.7451 20.1711 15.8051 20.1611 15.8651 19.9611C15.9251 19.7311 16.0451 19.261 16.1051 19.071L16.5251 17.4911C16.6151 17.1811 16.4851 17.1312 16.1651 17.0612C16.0951 17.0512 15.9951 17.0311 15.9251 17.0211C15.8451 17.0111 15.7551 16.9911 15.6751 16.9811L14.6951 16.8311C14.6951 16.8311 14.6051 16.8312 14.5651 16.8112C14.5351 16.8112 14.4851 16.7911 14.4451 16.7911L13.7051 16.6812C13.2451 16.5912 12.6851 16.531 12.2351 16.451C12.0751 16.4211 11.9151 16.4011 11.7451 16.3711C11.4451 16.3111 11.0851 16.2811 10.7551 16.2211C10.5951 16.1911 10.4351 16.1711 10.2651 16.1411L9.8951 16.0811C9.8451 16.0611 9.8651 16.0511 9.8551 15.9811C9.8251 15.7911 9.75511 15.4211 9.73511 15.2511C9.70511 15.0111 9.66511 14.9812 9.48511 14.9312C9.41511 14.9112 9.3251 14.8911 9.2551 14.8811C9.2051 14.8811 9.1851 14.8611 9.1351 14.8511L8.7851 14.7711C8.6351 14.7511 8.47511 14.7011 8.31511 14.6711C8.14511 14.6411 8.00511 14.561 7.87511 14.701C7.77511 14.811 7.8151 15.011 7.9651 15.071C8.2751 15.181 8.70511 15.1711 9.23511 15.3511H9.2251ZM7.7751 9.67114C7.7751 9.67114 8.43511 10.4111 8.51511 10.5111C8.54511 10.5411 8.59511 10.6111 8.62511 10.6311C8.66511 10.5811 8.7251 10.5411 8.7751 10.4911L9.8551 9.52112C9.8551 9.52112 9.9051 9.47105 9.9351 9.45105L10.6351 8.82104C10.6351 8.82104 10.6851 8.7811 10.7151 8.7511C10.7451 8.7311 10.7751 8.70115 10.7951 8.68115L10.9051 8.58105C10.9051 8.58105 10.9851 8.52108 11.0251 8.48108C11.0551 8.45108 11.0451 8.43107 11.0451 8.35107H11.1051C11.1051 8.35107 11.0751 8.30114 11.0551 8.29114C10.9451 8.18114 10.6251 7.80107 10.5451 7.72107C10.4451 7.63107 10.5151 7.68108 10.4451 7.61108L10.3151 7.47107C10.3151 7.47107 10.3051 7.45104 10.2851 7.44104C10.2051 7.50104 10.0651 7.64106 9.9751 7.71106L9.1951 8.41113C8.9951 8.58113 8.7751 8.80107 8.5751 8.97107L7.7851 9.68115L7.7751 9.67114ZM11.9851 9.17114C11.7051 9.17114 11.4251 9.17114 11.1451 9.17114C11.0651 9.17114 11.0151 9.17114 10.9451 9.17114C10.7451 9.17114 10.5151 9.17114 10.3251 9.17114C10.2951 9.17114 10.2951 9.17106 10.2551 9.21106C10.1551 9.30106 10.1751 9.26115 10.1751 9.43115C10.1751 9.83115 10.1751 10.2411 10.1751 10.6511H11.9951V9.19104L11.9851 9.17114ZM12.1551 8.06116V9.32104H13.7651V8.20105C13.7651 8.17105 13.7851 8.04112 13.7651 8.02112C13.7551 8.02112 12.4251 8.02112 12.3151 8.02112C12.1551 8.02112 12.1551 8.00116 12.1551 8.06116ZM13.9751 9.54114C13.9751 9.54114 14.0051 9.57106 14.0251 9.59106C14.0451 9.61106 14.0551 9.62111 14.0751 9.64111C14.1051 9.67111 14.1351 9.70108 14.1751 9.73108C14.2051 9.76108 14.2351 9.79105 14.2751 9.82104C14.3051 9.85104 14.3451 9.89114 14.3651 9.92114C14.3651 9.99114 14.3251 10.1112 14.3251 10.1812L14.2851 10.441L14.5251 10.321L14.7651 10.201L15.2351 10.441L15.1751 9.8811C15.1751 9.8811 15.5151 9.55113 15.5251 9.53113C15.4851 9.52113 15.1751 9.48107 15.0951 9.47107C15.0251 9.46107 15.0051 9.47113 14.9851 9.41113L14.8151 9.08105C14.8151 9.08105 14.7751 9.00107 14.7651 8.97107C14.7451 8.98107 14.7551 8.9711 14.7451 9.0011L14.5351 9.42114C14.5351 9.42114 14.5251 9.45106 14.4951 9.46106C14.3851 9.48106 14.0451 9.51114 13.9951 9.54114H13.9751ZM15.6551 9.77112V10.201V10.2211V10.2611C15.6551 10.4011 15.6751 10.6311 15.4351 10.6311C15.2251 10.6311 14.0651 10.6411 13.9851 10.6311C13.9151 10.6111 13.8651 10.5511 13.8451 10.4811C13.8251 10.4211 13.8451 9.71109 13.8451 9.62109C13.8451 9.43109 13.8451 9.22114 13.8451 9.04114C13.8451 8.96114 13.8951 8.88107 13.9551 8.85107C13.9951 8.83107 14.0551 8.82104 14.1151 8.82104H14.6751C14.9451 8.82104 15.4551 8.82105 15.5051 8.83105C15.5851 8.85106 15.6451 8.9211 15.6551 9.0011C15.6551 9.0411 15.6651 9.70114 15.6551 9.79114V9.77112ZM14.4251 8.93115C14.6651 8.93115 15.3251 8.91115 15.4151 8.93115C15.4751 8.95115 15.5151 9.01106 15.5251 9.09106C15.5251 9.14106 15.5251 9.4211 15.5251 9.6311C15.5251 9.7611 15.5251 9.8711 15.5251 9.8811V9.97107C15.5251 9.97107 15.5251 9.97109 15.5251 9.99109V10.071C15.5251 10.071 15.5251 10.1011 15.5251 10.1311V10.2211C15.5251 10.2711 15.5251 10.3211 15.5151 10.3611C15.4651 10.5211 15.3151 10.4911 15.1351 10.4911C15.0051 10.4911 14.1651 10.4911 14.1051 10.4911C13.9351 10.4511 13.9651 10.2511 13.9651 10.1111C13.9651 9.96108 13.9651 9.17105 13.9651 9.08105C13.9851 8.97106 14.0451 8.94114 14.1051 8.92114H14.4151L14.4251 8.93115ZM11.0651 9.14111C11.1251 9.16111 11.8551 9.14111 11.9951 9.14111V8.35107C11.8451 8.35107 11.1451 8.33107 11.0651 8.35107V9.12109V9.14111ZM14.0051 8.02112V8.7511H14.2951C14.2951 8.7011 14.2851 8.69111 14.2851 8.64111C14.2851 8.49111 14.3651 8.37115 14.4451 8.30115C14.4851 8.26115 14.5451 8.22105 14.5951 8.20105C14.8051 8.12105 15.0251 8.20108 15.1551 8.36108L15.1951 8.43115C15.2451 8.53115 15.2651 8.6411 15.2451 8.7511H15.5451C15.5451 8.5211 15.5451 8.25112 15.5451 8.02112C15.4951 8.01112 14.2751 8.02112 14.0551 8.02112H14.0151H14.0051ZM14.0051 7.99109C14.3151 8.00109 14.8151 7.99109 15.1651 7.99109C15.2551 7.99109 15.5051 7.99109 15.5451 7.99109L14.7851 7.21106L14.0351 7.96106C14.0351 7.96106 14.0151 7.96109 14.0151 7.99109H14.0051ZM11.7251 6.8811L11.9451 7.03113C11.9451 7.03113 11.9551 7.03114 11.9651 7.04114C11.9651 7.04114 11.9751 7.04115 11.9851 7.05115L12.2051 7.20105C12.2051 7.20105 12.2251 7.22107 12.2351 7.22107L12.5151 6.81116L12.5651 6.73108C12.5651 6.73108 12.5651 6.72106 12.5751 6.71106C12.5551 6.71106 12.3951 6.7411 12.3551 6.7511L12.1351 6.79114C12.1351 6.79114 12.0651 6.80116 12.0251 6.81116C11.9751 6.82116 11.9051 6.83106 11.8551 6.84106L11.7451 6.86108C11.7451 6.86108 11.7151 6.86111 11.7051 6.89111L11.7251 6.8811ZM10.7051 6.98108L10.9251 6.94104C10.9251 6.94104 10.9951 6.93114 11.0351 6.92114L11.5751 6.82104V6.80115C11.5751 6.80115 11.4751 6.73106 11.4551 6.71106L11.3351 6.6311L11.2351 6.56116L11.0951 6.46106L10.9151 6.72107C10.9151 6.72107 10.8851 6.76113 10.8651 6.78113L10.7651 6.93115C10.7651 6.93115 10.7651 6.94105 10.7551 6.95105C10.7551 6.96105 10.7351 6.97108 10.7351 6.98108H10.7051ZM11.2651 7.41113C11.2651 7.41113 11.2851 7.43115 11.2951 7.43115L11.3251 7.45105L11.4051 7.5011L11.4851 7.56116C11.5851 7.63116 11.6851 7.70113 11.7951 7.78113C11.7551 7.57113 11.7251 7.39104 11.6951 7.19104C11.6951 7.14104 11.6651 7.02107 11.6551 6.97107C11.6551 6.97107 11.6551 6.92114 11.6451 6.92114C11.6451 6.92114 11.6351 6.92114 11.6251 6.92114L11.2751 7.42114L11.2651 7.41113ZM11.5851 6.26111C11.6051 6.36111 11.6151 6.47105 11.6451 6.58105L11.6651 6.70105C11.6651 6.70105 11.6651 6.72109 11.6651 6.74109H11.7051L11.9651 6.3811L12.0351 6.27112C12.0351 6.27112 12.0351 6.27111 12.0251 6.26111C11.8551 6.13111 11.6851 6.02112 11.5251 5.90112C11.5451 6.02112 11.5651 6.14111 11.5851 6.26111ZM10.9951 6.98108L11.0351 7.21106C11.0351 7.21106 11.0451 7.26114 11.0451 7.29114L11.1051 7.59106L11.5751 6.91113C11.5751 6.91113 11.5851 6.9011 11.5751 6.8811C11.5751 6.8811 11.2451 6.94105 11.2051 6.95105L10.9851 6.99109L10.9951 6.98108ZM10.9251 6.31116L11.2151 6.51111C11.2651 6.55111 11.3551 6.60111 11.4051 6.64111C11.4651 6.68111 11.5451 6.73112 11.5951 6.77112L11.6251 6.7511C11.6251 6.7511 11.5451 6.30111 11.5351 6.26111C11.5351 6.24111 11.5351 6.21104 11.5251 6.19104C11.5051 6.19104 11.4351 6.20106 11.4151 6.21106L11.3051 6.23108C11.3051 6.23108 11.2551 6.23109 11.2251 6.24109L11.0751 6.27112C11.0751 6.27112 10.9351 6.30115 10.9251 6.30115V6.31116ZM11.6851 6.92114L11.7751 7.39111C11.7751 7.45111 11.7851 7.4511 11.7951 7.5011L12.1651 7.43115C12.1651 7.43115 12.1851 7.43115 12.2051 7.43115L12.3951 7.39111C12.3951 7.39111 12.3551 7.37108 12.3551 7.36108C12.1651 7.23108 11.9751 7.10107 11.7851 6.97107C11.7851 6.97107 11.7751 6.97105 11.7651 6.95105L11.7251 6.92114C11.7251 6.92114 11.7151 6.92114 11.6951 6.92114H11.6851ZM11.8151 6.68115L11.7451 6.79114V6.82104L12.3151 6.71106L12.1951 6.11108L11.8051 6.68115H11.8151ZM11.6151 6.80115C11.5851 6.85115 11.6251 6.91112 11.6851 6.90112C11.7651 6.89112 11.7551 6.77112 11.6751 6.77112C11.6651 6.77112 11.6251 6.79115 11.6251 6.80115H11.6151ZM11.8351 7.51111L11.8651 7.62109C11.8651 7.62109 11.8851 7.70108 11.8951 7.73108C11.9051 7.77108 11.9151 7.81106 11.9251 7.84106C11.9351 7.88106 11.9451 7.91105 11.9551 7.95105L12.0051 8.12109C12.0051 8.12109 12.0151 8.16115 12.0251 8.18115L12.0651 8.32104C12.0651 8.32104 12.0851 8.3411 12.1151 8.3811C12.1151 8.3811 12.1151 8.38109 12.1151 8.37109L11.9351 7.72107C11.9151 7.65107 11.8951 7.5711 11.8751 7.5011C11.8651 7.5011 11.8551 7.5011 11.8451 7.5011L11.8351 7.51111ZM10.3751 9.1311H10.9851C10.9851 8.9111 10.9351 8.95105 10.5451 8.95105C10.5351 8.95105 10.5051 8.98108 10.4951 8.98108L10.4051 9.07104C10.4051 9.07104 10.3751 9.0911 10.3751 9.1311ZM9.0551 8.35107C9.0551 8.35107 9.0751 8.44106 9.1151 8.46106L9.56511 8.05115C9.56511 8.05115 9.5651 8.05113 9.5551 8.03113C9.5551 8.03113 9.5551 8.02111 9.5351 8.01111C9.52509 8.01111 9.5151 7.99109 9.4951 7.99109C9.3951 7.95109 9.3251 8.06112 9.2151 8.15112C9.1551 8.20112 9.0551 8.28106 9.0551 8.34106V8.35107ZM9.73511 7.90112L10.1951 7.49109C10.0551 7.34109 9.97511 7.5011 9.81511 7.6311C9.79511 7.6511 9.7151 7.72109 9.6951 7.74109C9.6551 7.80109 9.69511 7.87112 9.73511 7.90112ZM8.4951 9.0011C8.4951 9.0011 8.5351 8.97105 8.5551 8.95105L8.9451 8.60107C8.9451 8.60107 8.94511 8.60105 8.95511 8.58105C8.91511 8.52105 8.8451 8.50115 8.7751 8.55115L8.48511 8.81116C8.42511 8.87116 8.4451 8.94109 8.4951 8.99109V9.0011ZM7.87511 9.55115C7.87511 9.55115 8.3151 9.17111 8.3251 9.14111C8.3151 9.11111 8.2251 9.04108 8.1451 9.11108L7.9351 9.30115C7.9351 9.30115 7.8951 9.34108 7.8651 9.36108C7.7851 9.43108 7.84511 9.53114 7.87511 9.54114V9.55115ZM13.6051 7.98108C13.6251 7.78108 13.5451 7.82104 13.2551 7.82104C13.1851 7.82104 13.1351 7.81106 13.0951 7.84106C13.0751 7.86106 13.0351 7.94107 13.0651 7.97107C13.0851 7.99107 13.5451 7.97107 13.5951 7.97107L13.6051 7.98108ZM12.3351 7.98108H12.8651C12.8851 7.92108 12.8651 7.85105 12.8151 7.82104C12.7851 7.81104 12.4151 7.81104 12.3851 7.82104C12.3351 7.84104 12.3251 7.90108 12.3351 7.98108ZM11.2251 8.32104H11.8351C11.8351 8.24104 11.7951 8.20105 11.7051 8.20105H11.3951C11.3951 8.20105 11.2951 8.20107 11.2651 8.22107C11.2351 8.24107 11.2151 8.28104 11.2151 8.32104H11.2251ZM12.1151 10.5911H13.3851C13.4551 10.5911 13.7051 10.5911 13.7551 10.5911V10.5411C13.7551 10.1711 13.7551 9.69104 13.7551 9.32104H12.1051V10.5911H12.1151ZM35.8651 11.8811C35.8651 11.8811 35.8951 11.8611 35.9251 11.8611C36.0051 11.8511 36.1651 11.8111 36.2551 11.8011L36.3851 11.7711C36.4351 11.7711 36.5351 11.8411 36.5951 11.8811C36.6251 11.9011 36.6551 11.921 36.6851 11.941C36.7151 11.961 36.7651 11.9811 36.7651 12.0111C36.7451 12.0311 36.6651 12.0311 36.6351 12.0411C36.5951 12.0511 36.5551 12.0612 36.5051 12.0612C36.4651 12.0612 36.4151 12.0811 36.3751 12.0911C36.3051 12.1011 36.2351 12.1311 36.1751 12.0911L36.0351 12.0011L35.8951 11.9111C35.8951 11.9111 35.8651 11.8911 35.8551 11.8711L35.8651 11.8811ZM34.7351 12.1011C34.7351 12.1011 34.8251 12.081 34.8551 12.071L35.2451 11.9911C35.3051 11.9911 35.3851 12.0611 35.4451 12.1011L35.5851 12.201C35.5851 12.201 35.6151 12.2211 35.6251 12.2411C35.6051 12.2611 35.5651 12.2611 35.5251 12.2711C35.4451 12.2911 35.1651 12.3411 35.1651 12.3411C35.0451 12.3711 35.0551 12.3411 34.9351 12.2611C34.9151 12.2511 34.8951 12.2411 34.8751 12.2211L34.7651 12.1511C34.7651 12.1511 34.7251 12.1311 34.7151 12.1111L34.7351 12.1011ZM34.5051 12.451C34.5051 12.451 34.2951 12.5011 34.2451 12.5111C34.2051 12.5111 34.1551 12.5311 34.1151 12.5411C33.9651 12.5711 33.9951 12.5911 33.8751 12.5211C33.8451 12.5011 33.8251 12.4911 33.7851 12.4611C33.7651 12.4511 33.6051 12.3511 33.6051 12.3311C33.6051 12.3111 33.6951 12.3011 33.7251 12.2911L33.9851 12.2411C33.9851 12.2411 34.0751 12.2211 34.1151 12.2211C34.1751 12.2211 34.4851 12.4211 34.4951 12.4611L34.5051 12.451ZM33.6151 13.0211C33.6151 13.0211 33.6151 13.0011 33.6551 12.9711L33.8551 12.7611C33.8551 12.7611 33.9051 12.701 33.9651 12.701H34.4151C34.4151 12.701 34.4751 12.7011 34.4751 12.7211C34.4751 12.7211 34.4751 12.7211 34.4751 12.7311L34.4151 12.7911C34.4151 12.7911 34.3651 12.8411 34.3351 12.8711C34.2551 12.9511 34.2251 13.0111 34.1351 13.0111H33.6651C33.6651 13.0111 33.6451 13.0111 33.6351 13.0111L33.6151 13.0211ZM35.6151 12.7111C35.6151 12.7111 35.6151 12.7411 35.5951 12.7611L35.4851 12.8711C35.2851 13.0711 35.3651 13.0311 35.0551 13.0311C34.7151 13.0311 34.7251 13.0511 34.8251 12.951C34.8451 12.931 34.8751 12.9011 34.8951 12.8811L35.0451 12.7311C35.0951 12.7011 35.2451 12.7111 35.3251 12.7111C35.3851 12.7111 35.5751 12.7111 35.6151 12.7111ZM36.7451 12.7111H36.2851C36.2151 12.7111 36.2051 12.7111 36.1551 12.7711L35.9651 12.9611C35.9651 12.9611 35.9051 13.0011 35.9151 13.0311C35.9451 13.0411 36.1551 13.0311 36.2051 13.0311C36.5251 13.0311 36.4451 13.0611 36.6351 12.8711C36.6651 12.8411 36.6851 12.8211 36.7051 12.8011C36.7751 12.7311 36.7851 12.7211 36.7551 12.7111H36.7451ZM36.2851 12.6311C36.5051 12.6311 36.7251 12.6311 36.9451 12.6311C37.1451 12.6311 37.1251 12.6511 37.1251 12.8511V15.0311C37.1251 15.1011 37.0851 15.2511 37.0451 15.3011C36.9551 15.3911 36.8951 15.4311 36.7751 15.4611C36.7351 15.4611 34.1551 15.4611 33.8351 15.4611C33.6451 15.4611 33.4151 15.491 33.2751 15.321C33.2151 15.251 33.1851 15.171 33.1751 15.071C33.1751 14.951 33.1751 14.5311 33.1751 14.3811V12.7111C33.1751 12.6011 33.1751 12.4911 33.1751 12.3811C33.1751 12.2711 33.2451 12.2311 33.3351 12.2111L33.6151 12.1611C33.6151 12.1611 33.7151 12.1411 33.7551 12.1311C33.8851 12.1011 34.0351 12.0811 34.1751 12.0511L34.7251 11.941C34.8251 11.921 35.0251 11.8811 35.1451 11.8611C35.1951 11.8511 35.2451 11.8411 35.2851 11.8311C35.4251 11.8011 35.5651 11.7811 35.6951 11.7511L36.2551 11.6411C36.2551 11.6411 36.3551 11.6211 36.3951 11.6111C36.4351 11.6011 36.4851 11.5911 36.5351 11.5811C36.5751 11.5811 36.6351 11.5611 36.6751 11.5511C36.8051 11.5311 36.9751 11.4511 37.0451 11.6011C37.0651 11.6411 37.0651 11.7011 37.0751 11.7411C37.0851 11.7911 37.1351 11.9811 37.1051 12.0211C37.0751 12.0611 37.0351 12.061 36.9851 12.071C36.9351 12.081 36.8851 12.0911 36.8451 12.1011C36.7551 12.1211 36.6651 12.1411 36.5751 12.1611C36.1151 12.2511 35.6451 12.3412 35.1851 12.4312C35.0951 12.4512 35.0051 12.4611 34.9051 12.4911L34.0751 12.6511C34.0751 12.6511 35.2851 12.6511 35.3651 12.6511C35.4351 12.6511 36.0251 12.6511 36.2951 12.6511L36.2851 12.6311ZM34.8051 13.7611C34.8051 13.7611 34.8051 13.7012 34.8351 13.6812C34.8551 13.6612 34.8851 13.6511 34.9151 13.6611C34.9451 13.6711 35.6951 14.0411 35.7851 14.0911C35.8251 14.1111 35.9051 14.141 35.8951 14.191C35.8951 14.241 35.8051 14.2711 35.7751 14.2911C35.7151 14.3211 35.6751 14.3411 35.6351 14.3611C35.5851 14.3911 34.9551 14.7111 34.9151 14.7211C34.8451 14.7411 34.8051 14.6911 34.8051 14.6211V13.7611ZM37.8751 29.5911C37.7751 29.5411 37.7451 29.4711 37.6051 29.451C37.4751 29.421 37.0051 29.4511 36.8751 29.4711C36.7451 29.4911 36.6851 29.5011 36.6151 29.6011C36.5451 29.7111 36.5351 29.961 36.6351 30.071C36.6651 30.111 36.6851 30.1311 36.7451 30.1511C36.8751 30.1911 37.1351 30.201 37.2951 30.201H37.4251C37.4251 30.201 37.4351 30.2211 37.4551 30.2311H37.4351C37.2551 30.3311 37.0551 30.4212 36.9151 30.5612C36.8651 30.6112 36.8151 30.6611 36.7651 30.7111C36.6451 30.8411 36.5151 31.0511 36.4551 31.2711C36.4151 31.4011 36.3951 31.7211 36.3951 32.2911V32.3311C36.3951 32.6011 36.4051 32.8711 36.4051 33.1211C36.4051 33.3711 36.3451 33.9411 36.5051 34.1411C36.5451 34.1911 36.6151 34.2211 36.6851 34.2411C36.7451 34.2611 36.7151 34.2211 36.7451 34.2711C36.7451 34.4211 36.7251 34.7911 36.7451 34.9211C36.7651 35.0111 36.8051 35.0811 36.8551 35.1311C36.9951 35.2811 37.7051 35.3311 37.9351 35.2511C38.7151 34.9511 37.8751 34.1711 38.4251 34.2611H45.1051C45.1051 34.4711 45.0651 34.8211 45.1351 34.9911C45.2751 35.3511 45.6951 35.2811 46.1051 35.2811C46.7951 35.2811 46.5351 34.4411 46.5851 34.2711C46.6151 34.2211 46.6051 34.2511 46.6651 34.2311C46.9151 34.1411 46.9151 33.9011 46.9151 33.6711C46.9051 32.4411 47.0251 31.1711 46.4351 30.5811C46.3451 30.4911 46.2551 30.4311 46.1351 30.3611L45.9951 30.2811C45.9951 30.2811 45.8851 30.2511 45.8651 30.2111C46.1051 30.1311 46.7051 30.3211 46.7551 29.9111C46.8151 29.4011 46.4351 29.451 46.0651 29.441C45.9151 29.441 45.8451 29.411 45.7051 29.441C45.5751 29.471 45.5451 29.5511 45.4451 29.5811L45.3351 29.3711C45.0751 28.8911 44.8751 28.3511 44.3651 28.0811C44.2151 28.0011 44.0651 27.9412 43.8551 27.9312C43.6451 27.9212 43.4751 27.9011 43.2551 27.8911C42.5651 27.8611 41.9951 27.8511 41.3051 27.8511C40.8751 27.8511 40.4751 27.8811 40.0451 27.8911C39.8551 27.8911 39.3351 27.9211 39.1651 27.9911C38.5451 28.2411 38.3651 28.6312 38.0851 29.1812L37.9151 29.4911C37.9151 29.4911 37.8951 29.5511 37.8651 29.5911H37.8751ZM38.1051 30.1011C38.1151 30.0411 38.7551 28.8611 38.8151 28.7711C38.8951 28.6411 39.0151 28.531 39.1551 28.441C39.1951 28.421 39.2251 28.4011 39.2651 28.3811C39.3851 28.3211 39.5351 28.2911 39.6751 28.2811C39.8851 28.2811 40.1051 28.2411 40.3151 28.2411C40.8751 28.2211 41.7551 28.2111 42.3351 28.2311C42.6351 28.2311 43.3751 28.2511 43.6351 28.2911C43.8851 28.3311 43.9151 28.291 44.1551 28.441C44.3051 28.531 44.4151 28.6511 44.5051 28.7811C44.6251 28.9611 44.8651 29.4411 44.9851 29.6711C45.0251 29.7411 45.1951 30.0611 45.2151 30.1111L44.3451 30.0612C44.1251 30.0312 43.7051 30.0311 43.4551 30.0311C43.1451 30.0311 42.8651 30.0011 42.5651 30.0011H40.7251C40.4151 30.0011 40.1551 30.0311 39.8351 30.0311C39.5751 30.0311 39.1951 30.0312 38.9551 30.0612L38.0951 30.1111L38.1051 30.1011ZM37.5651 31.3411L38.5351 31.5211C38.7251 31.5711 38.8751 31.6811 38.9351 31.8811C38.9851 32.0511 39.0251 32.2911 38.8051 32.3411C38.7051 32.3611 37.7551 32.331 37.6251 32.321C37.5451 32.321 37.1551 32.3011 37.0951 32.2711C36.7751 32.1011 36.6251 31.2511 37.5651 31.3411ZM32.8651 30.5612C32.8651 30.5612 32.8251 30.5011 32.7651 30.4611C32.7651 30.3311 32.7451 29.9311 32.7951 29.8511C32.8951 29.6811 33.0751 29.7411 33.2651 29.7711C33.3151 29.7711 33.3151 29.7911 33.3851 29.8011C33.4351 29.8011 33.4851 29.801 33.5251 29.821C33.5751 29.831 33.5851 29.8411 33.6551 29.8511C33.7851 29.8711 34.2451 29.9511 34.3151 29.9911C34.5651 30.1011 34.6651 30.4611 34.5651 30.6111C34.5151 30.6811 34.4451 30.701 34.3251 30.701C34.1151 30.701 33.9151 30.6912 33.7051 30.6812C33.1351 30.6012 33.0851 30.701 32.8651 30.571V30.5612ZM43.3451 27.5311C43.4651 27.5511 43.6551 27.5312 43.7551 27.5612C43.8751 27.4012 43.9451 27.291 44.1351 27.191C44.1451 27.191 44.1551 27.1911 44.1751 27.1711L44.2551 27.1311C44.6851 26.9411 48.4351 26.6711 48.9551 27.6311L49.4151 28.4911C49.4451 28.5511 49.4851 28.6111 49.5051 28.6611C49.3651 28.6611 49.1251 28.6611 48.9951 28.6311C48.6351 28.5611 45.7051 28.571 45.3351 28.571C45.3451 28.611 45.3851 28.6711 45.4051 28.7111L45.6051 29.0811C45.8951 29.0711 46.0551 29.0611 46.3451 29.0811C46.5851 29.1011 46.7651 29.1011 46.9451 29.2811C47.1251 29.4611 47.1151 29.6111 47.1151 29.9011C47.1151 30.0411 47.0751 30.1211 47.0251 30.2111C46.9851 30.2811 46.9351 30.3311 46.8851 30.3711C46.8451 30.4011 46.8151 30.4011 46.8651 30.4611C46.8751 30.4811 46.8851 30.4811 46.8951 30.5011C47.0551 30.6911 47.1851 30.9611 47.2451 31.201C47.3251 31.541 47.2951 31.9811 47.2951 32.3511H49.4051C49.4151 32.5811 49.3551 32.901 49.4651 33.071C49.6051 33.281 49.7851 33.2511 50.0651 33.2511C50.3451 33.2511 50.5251 33.2812 50.6651 33.0612C50.7751 32.8912 50.7051 32.5811 50.7251 32.3511C50.8551 32.2811 50.9751 32.3111 51.0051 32.0111C51.0151 31.8911 51.0051 31.8411 50.9951 31.7311C50.9951 31.6511 51.0151 31.6511 51.0151 31.5811C51.0151 31.5111 50.9951 31.541 51.0051 31.451C51.0051 31.371 51.0051 31.401 51.0051 31.321C51.0051 31.251 51.0151 31.261 51.0251 31.191V30.2711C51.0251 29.7811 51.0051 29.6111 50.7851 29.2811C50.6551 29.0911 50.4351 28.931 50.2251 28.821L50.0851 28.7611C50.1951 28.7411 50.2951 28.7311 50.4051 28.7311C50.5751 28.7311 50.8451 28.7411 50.8851 28.5111C50.9551 28.0111 50.6051 28.101 50.2851 28.071C50.1151 28.051 49.9751 28.0411 49.8351 28.1211C49.7651 28.1611 49.7851 28.171 49.7351 28.191C49.6651 28.091 49.4451 27.621 49.3451 27.451C49.2751 27.331 49.2051 27.2111 49.1151 27.1211C48.9351 26.9311 48.6451 26.7411 48.3751 26.7311C48.0051 26.7111 47.7851 26.6811 47.3851 26.6711C47.1751 26.6711 46.9551 26.6611 46.8451 26.6711C46.4651 26.6711 46.0751 26.6711 45.6851 26.6711C45.3751 26.6711 44.5051 26.6911 44.2251 26.7711C44.0951 26.8011 43.9751 26.871 43.8651 26.941L43.7551 27.0211L43.7151 27.0511C43.6251 27.1311 43.4051 27.3811 43.3951 27.5111L43.3451 27.5311ZM48.7151 30.451C48.7151 30.291 48.8151 30.1111 48.9151 30.0311C48.9751 29.9911 49.0451 29.951 49.1451 29.941L50.2051 29.7511C50.3051 29.7311 50.3351 29.7111 50.4451 29.7711C50.5951 29.8611 50.5551 30.0611 50.5451 30.2911C50.5451 30.4111 50.5351 30.4711 50.4751 30.5411C50.4451 30.5811 50.4151 30.5911 50.3851 30.6111C50.2751 30.6711 50.1251 30.6311 49.9551 30.6511C49.8651 30.6511 49.7751 30.6711 49.6751 30.6711C49.4751 30.6711 49.2551 30.691 49.0651 30.691C48.9151 30.691 48.7151 30.7111 48.7151 30.4611V30.451ZM46.0751 31.2911C46.4351 31.2311 46.4151 31.5411 46.4151 31.7111C46.4151 31.9611 46.4551 32.1311 46.2451 32.2611C46.1051 32.3511 45.0151 32.3211 44.6951 32.3511C44.6351 32.3511 44.5751 32.3511 44.5151 32.3411C44.3451 32.2911 44.3351 32.111 44.3851 31.951C44.4851 31.5711 44.7351 31.5311 45.0851 31.4811L46.0951 31.3011L46.0751 31.2911ZM23.1851 31.3411L24.1551 31.5211C24.3451 31.5711 24.4951 31.6811 24.5551 31.8811C24.6051 32.0511 24.6451 32.2911 24.4251 32.3411C24.3251 32.3611 23.3751 32.331 23.2451 32.321C23.1651 32.321 22.7751 32.3011 22.7151 32.2711C22.3951 32.1011 22.2451 31.2511 23.1851 31.3411ZM31.7051 31.2911C32.0651 31.2311 32.0451 31.5411 32.0451 31.7111C32.0451 31.9611 32.0851 32.1311 31.8751 32.2611C31.7351 32.3511 30.6451 32.3211 30.3251 32.3511C30.2651 32.3511 30.2051 32.3511 30.1451 32.3411C29.9751 32.2911 29.9651 32.111 30.0151 31.951C30.1151 31.5711 30.3651 31.5311 30.7151 31.4811L31.7251 31.3011L31.7051 31.2911ZM23.7251 30.1011C23.7351 30.0411 24.3751 28.8611 24.4351 28.7711C24.5151 28.6411 24.6351 28.531 24.7751 28.441C24.8151 28.421 24.8451 28.4011 24.8851 28.3811C25.0051 28.3211 25.1551 28.2911 25.2951 28.2811C25.5051 28.2811 25.7251 28.2411 25.9351 28.2411C26.4951 28.2211 27.3751 28.2111 27.9551 28.2311C28.2551 28.2311 28.9951 28.2511 29.2551 28.2911C29.5051 28.3311 29.5351 28.291 29.7751 28.441C29.9251 28.531 30.0351 28.6511 30.1251 28.7811C30.2451 28.9611 30.4851 29.4411 30.6051 29.6711C30.6451 29.7411 30.8151 30.0611 30.8351 30.1111L29.9651 30.0612C29.7451 30.0312 29.3251 30.0311 29.0751 30.0311C28.7651 30.0311 28.4851 30.0011 28.1851 30.0011H26.3451C26.0351 30.0011 25.7751 30.0311 25.4551 30.0311C25.1951 30.0311 24.8151 30.0312 24.5751 30.0612L23.7151 30.1111L23.7251 30.1011ZM32.3051 30.9611C32.2351 30.8211 32.1551 30.6911 32.0551 30.5811C31.9651 30.4911 31.8751 30.4311 31.7551 30.3611L31.6151 30.2811C31.6151 30.2811 31.5051 30.2511 31.4851 30.2111C31.6951 30.1411 32.1751 30.2711 32.3351 30.0411C32.3251 30.2811 32.3151 30.611 32.3151 30.951L32.3051 30.9611ZM23.4951 29.5911C23.3951 29.5411 23.3651 29.4711 23.2251 29.451C23.0951 29.421 22.6251 29.4511 22.4951 29.4711C22.3651 29.4911 22.3051 29.5011 22.2351 29.6011C22.1651 29.7111 22.1551 29.961 22.2551 30.071C22.2951 30.111 22.3051 30.1311 22.3651 30.1511C22.4951 30.1911 22.7551 30.201 22.9151 30.201H23.0451C23.0451 30.201 23.0551 30.2211 23.0751 30.2311H23.0551C22.8751 30.3311 22.6751 30.4212 22.5351 30.5612C22.4851 30.6112 22.4351 30.6611 22.3851 30.7111C22.2651 30.8411 22.1351 31.0511 22.0751 31.2711C22.0351 31.4011 22.0151 31.7211 22.0151 32.2911V32.3311C22.0151 32.6011 22.0151 32.8711 22.0151 33.1211C22.0151 33.3711 21.9551 33.9411 22.1151 34.1411C22.1551 34.1911 22.2351 34.2211 22.2951 34.2411C22.3551 34.2611 22.3251 34.2211 22.3551 34.2711C22.3551 34.4211 22.3351 34.7911 22.3551 34.9211C22.3751 35.0111 22.4151 35.0811 22.4651 35.1311C22.6051 35.2811 23.3151 35.3311 23.5451 35.2511C24.3251 34.9511 23.4851 34.1711 24.0351 34.2611H30.7151C30.7151 34.4711 30.6751 34.8211 30.7451 34.9911C30.8851 35.3511 31.3051 35.2811 31.7151 35.2811C32.4051 35.2811 32.1451 34.4411 32.1951 34.2711C32.2251 34.2211 32.2151 34.2511 32.2751 34.2311C32.5251 34.1411 32.5251 33.9011 32.5251 33.6711C32.5251 33.2211 32.5251 32.7711 32.5251 32.3511C32.5651 32.3611 32.5851 32.3711 32.5951 32.3911C32.5951 32.6111 32.5551 32.9411 32.6551 33.1011C32.7951 33.3111 32.9751 33.2811 33.2551 33.2811C33.5351 33.2811 33.7051 33.3111 33.8451 33.1011C33.9551 32.9311 33.8951 32.6211 33.9051 32.3811H36.0151C36.0151 31.6811 35.9451 31.0811 36.4151 30.5311C36.4251 30.5111 36.4351 30.5011 36.4451 30.4911C36.4451 30.4911 36.4551 30.4711 36.4651 30.4711C36.4851 30.4211 36.4451 30.4311 36.3651 30.3611C36.2551 30.2511 36.1851 30.0912 36.1851 29.9312C36.1851 29.6412 36.1851 29.4812 36.3551 29.3112C36.5751 29.0912 36.8451 29.1211 37.1451 29.1011C37.3151 29.0911 37.2451 29.071 37.5251 29.071C37.6251 29.071 37.6151 29.0911 37.6951 29.1011L37.9651 28.5911C37.5551 28.5911 34.7151 28.5811 34.3051 28.6511C34.1651 28.6711 33.9451 28.6812 33.7951 28.6812L34.0151 28.2611C34.1151 28.0811 34.3751 27.561 34.4751 27.441C34.5951 27.301 34.7451 27.1811 34.9451 27.1111C34.9851 27.1011 35.0351 27.0911 35.0851 27.0911C36.4351 26.9111 36.9051 26.9911 37.8751 27.0311L38.8851 27.1011C39.0051 27.1111 39.0751 27.1511 39.1551 27.201C39.4351 27.361 39.4751 27.5612 39.5551 27.5612H39.7151C39.7851 27.5612 39.8551 27.5411 39.9351 27.5311C39.9351 27.4711 39.8851 27.4211 39.8451 27.3611C39.8151 27.3111 39.7751 27.261 39.7251 27.201C39.6451 27.101 39.5551 27.021 39.4251 26.941C39.3851 26.921 39.3751 26.9111 39.3451 26.8911C39.3151 26.8711 39.2851 26.8611 39.2551 26.8511C39.2351 26.8411 39.1951 26.8212 39.1651 26.8112C38.8551 26.6912 37.8551 26.701 37.4851 26.691C37.0351 26.681 35.7851 26.6911 35.3651 26.7211C34.8951 26.7611 34.4951 26.8011 34.1851 27.1711C34.0951 27.2811 34.0351 27.3811 33.9651 27.5011C33.8951 27.6311 33.8351 27.7511 33.7751 27.8611C33.7151 27.9711 33.6451 28.1311 33.5851 28.2211C33.4751 28.1911 33.5151 28.0511 33.0251 28.1011C32.8151 28.1211 32.5651 28.0811 32.4651 28.2311C32.4051 28.3111 32.3551 28.6311 32.5851 28.7311C32.6551 28.7611 33.0951 28.7711 33.2251 28.7911L33.0751 28.8611C32.7151 29.0411 32.4651 29.301 32.3351 29.691C32.2651 29.421 31.9551 29.451 31.6551 29.441C31.5051 29.441 31.4351 29.411 31.2951 29.441C31.1651 29.471 31.1351 29.5511 31.0351 29.5811L30.9251 29.3711C30.6651 28.8911 30.4651 28.3511 29.9551 28.0811C29.8051 28.0011 29.6551 27.9412 29.4451 27.9312C29.2351 27.9212 29.0651 27.9011 28.8451 27.8911C28.1551 27.8611 27.5851 27.8511 26.8951 27.8511C26.4651 27.8511 26.0651 27.8811 25.6351 27.8911C25.4451 27.8911 24.9251 27.9211 24.7551 27.9911C24.1351 28.2411 23.9551 28.6312 23.6751 29.1812L23.5051 29.4911C23.5051 29.4911 23.4851 29.5511 23.4551 29.5911H23.4951ZM6.7151 33.0811H18.0251V33.5211H6.7151V33.0811ZM4.7151 34.0411H20.0351V34.9211H4.7151V34.0411ZM21.2951 5.46106H21.3351V6.09106C21.3651 7.37106 21.3351 10.1811 21.3351 11.2611V11.571H3.3351H3.3051V8.47107C3.3051 7.83107 3.2251 5.97106 3.3351 5.46106H21.2951Z" fill="white"/>
</g>
</mask>
<g mask="url(#mask0_202_36)">
<g id="Group">
<path id="Vector_2" d="M50.9851 0.70105H0.975098V35.3611H50.9851V0.70105Z" fill="url(#paint0_linear_202_36)"/>
</g>
</g>
</g>
<defs>
<linearGradient id="paint0_linear_202_36" x1="7.9551" y1="30.8211" x2="47.8951" y2="2.47108" gradientUnits="userSpaceOnUse">
<stop stop-color="#312E6A"/>
<stop offset="1" stop-color="#57BDDD"/>
</linearGradient>
</defs>
</svg>
