<svg width="50" height="52" viewBox="0 0 50 52" fill="none" xmlns="http://www.w3.org/2000/svg">
<g id="Clip path group">
<mask id="mask0_202_44" style="mask-type:luminance" maskUnits="userSpaceOnUse" x="-1" y="0" width="52" height="52">
<g id="clippath-141">
<path id="Vector" d="M17.9549 10.3519H32.055V49.5118L30.495 49.4618C30.495 47.7218 30.7449 41.3918 30.2849 40.3118C29.9149 39.9418 23.4749 40.1117 22.0849 40.1117C20.7149 40.1117 20.185 39.8917 19.715 40.4917C19.225 41.1717 19.515 48.0518 19.515 49.5018H17.9549V10.3617V10.3519ZM25.4549 41.6618H28.935V49.4418C28.895 49.4618 28.8549 49.5018 28.8149 49.5118C28.5149 49.5518 27.045 49.5618 25.445 49.5518V41.6618H25.4549ZM20.8649 41.6418L25.025 41.6618V49.5518H20.905L20.855 41.6418H20.8649ZM5.42495 45.6117C4.93495 44.9417 4.62495 42.0419 6.28495 41.4819C7.24495 42.1519 7.89495 44.2918 7.05495 45.5018C6.97495 44.6418 7.15496 43.5618 6.15496 43.6618C5.28496 43.7418 5.43495 44.7817 5.42495 45.6217V45.6117ZM42.9749 45.5118C42.1149 44.3318 42.785 42.1019 43.735 41.4819C45.075 41.9819 45.325 44.6517 44.5849 45.6117C44.5849 44.7617 44.7349 43.5918 43.7549 43.6518C42.8649 43.7018 43.0449 44.6318 42.9749 45.5118ZM29.7549 22.9218C29.5349 23.0018 29.6249 23.3318 29.8649 23.2818C30.0949 23.2318 30.0049 22.8418 29.7549 22.9218ZM21.805 20.8418C21.9349 20.9518 22.6149 21.6218 22.6749 21.7218C22.6149 21.8319 21.1749 23.2418 20.9549 23.4618C20.8049 23.6118 20.545 23.9118 20.375 24.0218L19.495 23.1418L21.805 20.8418ZM20.8649 24.1019C20.9849 23.9419 21.205 23.7717 21.345 23.6117C21.605 23.3217 21.985 22.9818 22.295 22.6518L22.7549 22.1918C22.9649 22.3218 23.155 22.6418 23.415 22.7918C23.805 23.0218 24.005 22.9218 24.415 22.8418C24.325 23.0118 23.4449 23.8018 23.2049 24.0718C22.7449 24.5918 23.2649 25.5418 24.055 25.2718C24.385 25.1618 24.6849 24.7018 24.9249 24.5118C25.0249 24.5718 25.755 25.3319 25.915 25.4819C26.055 25.6219 27.315 26.8518 27.375 26.9618C27.545 27.2418 27.195 27.4718 26.965 27.2718L25.6149 25.9218C25.5649 25.8618 25.545 25.8518 25.495 25.8118C25.335 25.6618 25.1249 25.3618 24.9549 25.3818C24.8249 25.4018 24.755 25.5718 24.845 25.6818C24.895 25.7418 25.035 25.8618 25.095 25.9218L26.5649 27.3918C26.6649 27.4918 27.005 27.7418 26.905 27.9718C26.855 28.0819 26.725 28.1617 26.575 28.1117C26.415 28.0617 24.875 26.3918 24.595 26.1718C24.435 26.0518 24.065 26.1718 24.445 26.5618L25.905 28.0318C26.055 28.2818 25.7349 28.5918 25.4749 28.3218L24.745 27.5818C24.605 27.4418 23.855 26.6518 23.735 26.6218C23.575 26.5918 23.465 26.7118 23.515 26.8718C23.545 26.9518 24.5949 27.9717 24.7249 28.1117C24.9949 28.3817 24.855 28.6218 24.575 28.6318C24.555 28.3518 24.5649 28.2518 24.3949 28.0718C24.2749 27.9418 24.125 27.8618 23.875 27.8418C23.835 27.4218 23.595 27.1418 23.155 27.1418C23.125 26.7418 22.915 26.4518 22.525 26.4218C22.375 26.4218 22.3549 26.4718 22.2549 26.3818C22.1949 26.3318 22.145 26.2718 22.095 26.2118C21.665 25.7118 21.6149 25.5219 21.4249 24.8519C21.3049 24.4019 21.025 24.3518 20.855 24.0818L20.8649 24.1019ZM25.215 24.2417C25.275 24.1517 25.525 24.0018 25.405 23.8118C25.265 23.5918 25.055 23.8418 24.985 23.9118C24.845 24.0518 24.075 24.8718 23.915 24.9218C23.695 24.9918 23.5149 24.8618 23.4549 24.7118C23.3549 24.4918 23.475 24.3419 23.595 24.2218C23.715 24.1118 23.815 24.0018 23.935 23.8818C24.175 23.6418 24.395 23.4218 24.635 23.1818C24.855 22.9618 25.045 22.7318 25.495 22.6718C26.045 22.5918 26.2449 22.8919 26.7049 22.8519C27.0549 22.8219 27.3349 22.5818 27.5349 22.3218C27.6249 22.3718 29.0649 23.8118 29.1149 23.9018C28.9349 24.0518 28.765 24.2618 28.575 24.4318C28.185 24.7718 28.395 25.1618 27.915 25.8918C27.745 26.1518 27.6149 26.2618 27.4249 26.4518L26.245 25.2618C26.465 25.2418 26.8049 25.2417 26.7849 24.9917C26.7649 24.7117 26.4149 24.9018 26.195 24.8718C25.795 24.8218 25.375 24.4517 25.215 24.2417ZM28.465 20.9118C28.635 21.0918 30.425 22.8518 30.495 22.9518L29.6149 23.8318C29.4949 23.7518 29.225 23.4518 29.095 23.3318C28.905 23.1418 27.625 21.9018 27.575 21.7918L28.4549 20.9118H28.465ZM22.345 26.8418C22.735 26.6718 22.935 27.2318 22.595 27.3818C22.325 27.5018 22.075 27.2318 22.185 26.9718C22.225 26.8818 22.285 26.8518 22.3349 26.8318L22.345 26.8418ZM23.1449 27.5418C23.3149 27.5118 23.455 27.6218 23.485 27.7618C23.525 27.9318 23.415 28.0918 23.275 28.1318C22.875 28.2218 22.715 27.6318 23.155 27.5418H23.1449ZM23.605 28.6218C23.515 28.1818 24.115 28.1118 24.185 28.4618C24.225 28.6418 24.1149 28.8018 23.9749 28.8318C23.7949 28.8718 23.635 28.7618 23.605 28.6218ZM19.0349 23.0818V23.2018L20.125 24.3118C20.395 24.5818 20.385 24.5018 20.595 24.3818C20.715 24.5218 20.9549 24.6918 21.0349 24.8718C21.1149 25.0418 21.165 25.3618 21.245 25.5718C21.505 26.2518 21.885 26.5118 21.965 26.6718C21.625 26.9718 21.7349 27.7818 22.5049 27.8018C22.5049 28.0418 22.5749 28.1818 22.695 28.3118C22.985 28.6018 23.135 28.4118 23.195 28.5818L23.2249 28.7118C23.2549 28.8518 23.3549 29.0018 23.4749 29.0918C23.9449 29.4418 24.375 29.0218 24.375 29.0218C24.465 28.9818 24.9949 29.1618 25.195 28.6318C25.315 28.6918 25.4749 28.9018 25.8349 28.8118C26.0449 28.7618 26.205 28.6018 26.265 28.4218C26.445 28.4818 26.685 28.6418 27.015 28.4218C27.115 28.3518 27.185 28.2818 27.235 28.1518C27.305 27.9818 27.2749 27.9117 27.2849 27.7417C27.4549 27.6617 27.6049 27.6218 27.7249 27.3818C27.8549 27.1018 27.7549 26.9717 27.6749 26.7417C27.7449 26.6317 27.8449 26.5718 27.945 26.4618C28.6649 25.6618 28.525 24.9918 28.8349 24.6718C28.945 24.5518 29.2349 24.2418 29.3649 24.1618C29.5649 24.3218 29.5949 24.3918 29.8149 24.1618C29.9449 24.0318 30.055 23.9218 30.185 23.7918C30.315 23.6618 30.4349 23.5418 30.5649 23.4118C30.6849 23.2918 30.825 23.1718 30.935 23.0318V22.9118L28.9249 20.8818C28.3549 20.3018 28.495 20.3219 27.845 20.9819C27.675 21.1519 27.515 21.3119 27.345 21.4819C27.035 21.7919 27.005 21.7918 27.245 22.0718C27.185 22.1818 26.9849 22.3618 26.8649 22.4318C26.3549 22.7218 26.035 22.0518 25.055 22.4218C24.9349 22.4718 24.915 22.5118 24.765 22.5018C24.185 22.4318 24.1349 22.6318 23.8149 22.5918C23.5949 22.5618 23.475 22.4118 23.375 22.3118C23.285 22.2218 23.075 22.0418 23.025 21.9318C23.245 21.6918 23.065 21.6018 22.765 21.3118C21.685 20.2218 21.855 20.2517 21.375 20.7417L19.015 23.1218L19.0349 23.0818ZM20.4549 23.3519C20.5449 23.1119 20.1949 23.0118 20.1149 23.2018C20.0049 23.4618 20.3749 23.5719 20.4549 23.3519ZM22.405 48.8717C22.215 48.6317 22.0449 48.4018 21.8649 48.1618L21.3149 47.4518L21.095 47.1518V46.5918C21.195 46.6818 21.255 46.8118 21.355 46.9118L21.885 47.6019C22.025 47.8319 22.975 49.0018 23.135 49.3118H22.735C22.675 49.2418 22.595 49.1118 22.405 48.8818V48.8717ZM23.4749 49.3018L21.345 46.4917L21.105 46.1918V44.7618L22.905 47.0318C23.325 47.6418 24.225 48.6918 24.625 49.3018H23.485H23.4749ZM22.695 11.9318H24.185C24.265 11.9318 24.3349 12.0018 24.3349 12.0718V14.7518C24.3349 14.8318 24.265 14.9018 24.185 14.9018H22.695C22.615 14.9018 22.545 14.8318 22.545 14.7518V12.0718C22.545 11.9918 22.6049 11.9318 22.695 11.9318ZM28.945 11.9318H30.435C30.515 11.9318 30.5849 12.0018 30.5849 12.0718V14.7518C30.5849 14.8318 30.515 14.9018 30.435 14.9018H28.945C28.865 14.9018 28.795 14.8318 28.795 14.7518V12.0718C28.795 11.9918 28.8549 11.9318 28.945 11.9318ZM25.8149 11.9318H27.305C27.385 11.9318 27.4549 12.0018 27.4549 12.0718V14.7518C27.4549 14.8318 27.385 14.9018 27.305 14.9018H25.8149C25.7349 14.9018 25.665 14.8318 25.665 14.7518V12.0718C25.665 11.9918 25.7349 11.9318 25.8149 11.9318ZM19.5649 11.9318H21.055C21.135 11.9318 21.2049 12.0018 21.2049 12.0718V14.7518C21.2049 14.8318 21.145 14.9018 21.055 14.9018H19.5649C19.4849 14.9018 19.415 14.8318 19.415 14.7518V12.0718C19.415 11.9918 19.4849 11.9318 19.5649 11.9318ZM22.695 16.7118H24.185C24.265 16.7118 24.3349 16.7819 24.3349 16.8519V19.5318C24.3349 19.6118 24.265 19.6818 24.185 19.6818H22.695C22.615 19.6818 22.545 19.6118 22.545 19.5318V16.8519C22.545 16.7719 22.6049 16.7118 22.695 16.7118ZM28.945 16.7118H30.435C30.515 16.7118 30.5849 16.7819 30.5849 16.8519V19.5318C30.5849 19.6118 30.515 19.6818 30.435 19.6818H28.945C28.865 19.6818 28.795 19.6118 28.795 19.5318V16.8519C28.795 16.7719 28.8549 16.7118 28.945 16.7118ZM25.8149 16.7118H27.305C27.385 16.7118 27.4549 16.7819 27.4549 16.8519V19.5318C27.4549 19.6118 27.385 19.6818 27.305 19.6818H25.8149C25.7349 19.6818 25.665 19.6118 25.665 19.5318V16.8519C25.665 16.7719 25.7349 16.7118 25.8149 16.7118ZM19.5649 16.7118H21.055C21.135 16.7118 21.2049 16.7819 21.2049 16.8519V19.5318C21.2049 19.6118 21.145 19.6818 21.055 19.6818H19.5649C19.4849 19.6818 19.415 19.6118 19.415 19.5318V16.8519C19.415 16.7719 19.4849 16.7118 19.5649 16.7118ZM19.5649 26.2718H21.055C21.135 26.2718 21.2049 26.3418 21.2049 26.4218V29.1019C21.2049 29.1819 21.145 29.2518 21.055 29.2518H19.5649C19.4849 29.2518 19.415 29.1819 19.415 29.1019V26.4218C19.415 26.3418 19.4849 26.2718 19.5649 26.2718ZM28.945 26.2718H30.435C30.515 26.2718 30.5849 26.3418 30.5849 26.4218V29.1019C30.5849 29.1819 30.515 29.2518 30.435 29.2518H28.945C28.865 29.2518 28.795 29.1819 28.795 29.1019V26.4218C28.795 26.3418 28.8549 26.2718 28.945 26.2718ZM22.695 31.0518H24.185C24.265 31.0518 24.3349 31.1218 24.3349 31.2018V33.8818C24.3349 33.9618 24.265 34.0318 24.185 34.0318H22.695C22.615 34.0318 22.545 33.9618 22.545 33.8818V31.2018C22.545 31.1218 22.6049 31.0518 22.695 31.0518ZM28.945 31.0518H30.435C30.515 31.0518 30.5849 31.1218 30.5849 31.2018V33.8818C30.5849 33.9618 30.515 34.0318 30.435 34.0318H28.945C28.865 34.0318 28.795 33.9618 28.795 33.8818V31.2018C28.795 31.1218 28.8549 31.0518 28.945 31.0518ZM25.8149 31.0518H27.305C27.385 31.0518 27.4549 31.1218 27.4549 31.2018V33.8818C27.4549 33.9618 27.385 34.0318 27.305 34.0318H25.8149C25.7349 34.0318 25.665 33.9618 25.665 33.8818V31.2018C25.665 31.1218 25.7349 31.0518 25.8149 31.0518ZM19.5649 31.0518H21.055C21.135 31.0518 21.2049 31.1218 21.2049 31.2018V33.8818C21.2049 33.9618 21.145 34.0318 21.055 34.0318H19.5649C19.4849 34.0318 19.415 33.9618 19.415 33.8818V31.2018C19.415 31.1218 19.4849 31.0518 19.5649 31.0518ZM22.695 35.8318H24.185C24.265 35.8318 24.3349 35.9019 24.3349 35.9819V38.6618C24.3349 38.7418 24.265 38.8118 24.185 38.8118H22.695C22.615 38.8118 22.545 38.7418 22.545 38.6618V35.9819C22.545 35.9019 22.6049 35.8318 22.695 35.8318ZM28.945 35.8318H30.435C30.515 35.8318 30.5849 35.9019 30.5849 35.9819V38.6618C30.5849 38.7418 30.515 38.8118 30.435 38.8118H28.945C28.865 38.8118 28.795 38.7418 28.795 38.6618V35.9819C28.795 35.9019 28.8549 35.8318 28.945 35.8318ZM25.8149 35.8318H27.305C27.385 35.8318 27.4549 35.9019 27.4549 35.9819V38.6618C27.4549 38.7418 27.385 38.8118 27.305 38.8118H25.8149C25.7349 38.8118 25.665 38.7418 25.665 38.6618V35.9819C25.665 35.9019 25.7349 35.8318 25.8149 35.8318ZM19.5649 35.8318H21.055C21.135 35.8318 21.2049 35.9019 21.2049 35.9819V38.6618C21.2049 38.7418 21.145 38.8118 21.055 38.8118H19.5649C19.4849 38.8118 19.415 38.7418 19.415 38.6618V35.9819C19.415 35.9019 19.4849 35.8318 19.5649 35.8318ZM26.1149 44.9218H26.2849V46.0518H26.1149V44.9218ZM24.215 44.9218H24.385V46.0518H24.215V44.9218ZM12.4749 20.5218C12.4749 20.0018 13.675 19.2218 14.125 18.8918C15.175 18.1018 14.815 17.9418 14.845 16.3718C14.015 16.7718 13.1049 17.6617 12.3649 18.2417C11.1849 19.1717 10.8749 19.0117 10.8949 20.9917C10.9149 23.7817 10.9349 26.6418 10.8949 29.4218C10.1649 29.6918 8.86495 30.6618 8.07495 31.1618C6.28496 32.2818 5.81495 32.3519 5.81495 33.4819L5.84496 38.3118L7.39495 38.5218V33.4718C8.18495 32.9718 10.0749 31.6418 10.8949 31.3118L10.915 49.5018H7.01496C7.01496 46.3918 7.59494 48.7118 8.56495 46.2018C8.90495 45.3218 9.02495 44.3318 8.92495 43.3118C8.76495 41.6118 7.56496 39.4018 5.54496 40.0118C3.40496 40.6518 2.78495 45.0818 4.35495 47.0918C5.33495 48.3518 5.41495 47.1117 5.41495 49.4917C3.92495 49.5017 1.18495 49.2818 0.0649451 49.6918C-0.0350549 50.1218 -0.0250519 50.4717 0.114948 50.8617C1.21495 51.2917 37.965 51.0518 45.155 51.0518C48.405 51.0518 50.455 51.5518 49.915 49.7018C48.955 49.2718 45.8549 49.4919 44.5849 49.4819V48.1618C44.735 47.5918 46.725 47.0218 46.525 43.5918C46.425 41.8818 45.465 39.8618 43.7249 39.9018C41.3149 39.9618 40.3949 43.9618 41.5349 46.4018C42.5549 48.5718 42.985 46.6419 42.985 49.4819H39.075V32.6117C39.835 32.8917 42.255 34.5018 42.985 35.0418V38.3318L44.5849 38.3918C44.5849 37.3018 44.6349 36.1018 44.5849 35.0218C44.535 33.8318 43.8349 33.6918 43.0349 33.1818C42.3249 32.7318 39.385 30.9918 39.075 30.4518C39.075 29.1918 39.395 25.1517 38.775 24.4917C38.475 24.1717 35.475 21.8918 35.165 21.7718L35.195 23.6518C35.805 24.3718 36.855 24.8218 37.515 25.5518V49.4218L33.605 49.4618V10.6918C33.605 9.00182 33.8149 8.84185 32.0849 8.72185C32.0249 6.99185 32.165 7.46181 31.915 5.43181C31.285 5.20181 31.295 5.26179 30.485 5.16179C30.495 3.82179 30.585 3.03177 29.125 3.39177C28.855 4.06177 28.9249 4.31185 28.9249 5.22185L27.355 5.14177V2.32182C27.355 0.311825 25.995 0.741844 25.805 1.59184C25.6849 2.15184 25.775 4.48184 25.775 5.21184C19.635 5.27184 21.4549 4.75184 21.0349 8.71184C20.1249 8.82184 18.9049 8.75175 17.9549 8.74175C16.5349 8.73175 16.385 8.82185 16.385 10.2218V49.4618L12.465 49.4218V20.5018L12.4749 20.5218Z" fill="white"/>
</g>
</mask>
<g mask="url(#mask0_202_44)">
<g id="Group">
<path id="Vector_2" d="M50.4551 0.341797H-0.0249023V51.5618H50.4551V0.341797Z" fill="url(#paint0_linear_202_44)"/>
</g>
</g>
</g>
<defs>
<linearGradient id="paint0_linear_202_44" x1="3.1251" y1="36.7618" x2="51.5951" y2="13.0518" gradientUnits="userSpaceOnUse">
<stop stop-color="#312E6A"/>
<stop offset="1" stop-color="#57BDDD"/>
</linearGradient>
</defs>
</svg>
