<svg width="50" height="44" viewBox="0 0 50 44" fill="none" xmlns="http://www.w3.org/2000/svg">
<g id="Clip path group">
<mask id="mask0_202_52" style="mask-type:luminance" maskUnits="userSpaceOnUse" x="0" y="0" width="50" height="44">
<g id="clippath-143">
<path id="Vector" d="M31.9019 11.4066C32.2719 11.3166 37.6419 11.3366 37.8719 11.4266V23.9766C37.6019 24.0766 32.292 24.0866 31.892 23.9866V11.4066H31.9019ZM0.00195312 39.2966C0.00195312 40.0966 0.381943 40.6566 0.991943 41.0666C1.16194 41.1766 1.50195 41.2966 1.51195 41.3066C1.51195 41.5166 1.51194 41.7566 1.49194 41.9566C1.49194 42.0266 1.48195 42.1266 1.47195 42.2266C0.851954 42.2866 0.371955 42.4266 0.331955 42.7366C0.251955 43.3066 0.67194 43.4967 1.19194 43.4967C16.0619 43.4967 33.222 43.4867 48.0919 43.4967C48.632 43.4967 49.102 43.3966 49.112 42.8466C49.112 42.4766 48.4519 42.3167 47.6019 42.2467C47.5619 41.9667 47.5719 41.7766 47.5419 41.6066C47.8619 41.6866 48.9419 41.5766 49.3219 41.2866C49.7519 40.9566 49.932 40.4066 49.972 40.1666C50.012 39.9066 50.002 39.7866 49.972 39.5366C49.952 39.3566 49.802 39.0467 49.812 39.0067C49.832 38.9367 49.8819 38.8466 49.9019 38.7467C50.0619 37.9767 49.622 37.2266 48.892 37.0366L48.6819 36.9967C48.6819 36.9967 48.6119 36.9966 48.6019 36.9766C48.5819 36.9166 48.5819 36.7267 48.5519 36.6267C48.4919 36.4167 48.4219 36.2566 48.2919 36.0866C48.1319 35.8766 47.6519 35.5966 47.3819 35.5366C46.9419 35.4566 46.4719 35.6166 46.1819 35.8966C46.1019 35.9766 46.0019 36.0766 45.9319 36.1866L45.752 36.5366C45.652 36.6166 45.5819 36.6267 45.4319 36.7567C45.0619 37.0767 44.7519 37.5666 44.7719 38.2266C44.7719 38.3166 44.7719 38.3866 44.7919 38.4666C44.7919 38.5066 44.832 38.6666 44.832 38.6866C44.832 38.6866 44.742 38.8066 44.722 38.8366C44.232 39.5666 44.3419 40.5766 44.952 41.1666C45.032 41.2466 45.1119 41.3167 45.202 41.3767C45.5719 41.6267 46.062 41.7666 46.532 41.6966C46.582 41.6966 46.7219 41.6566 46.7419 41.6566C46.7619 41.6966 46.742 41.9766 46.722 42.2066C45.472 42.1766 44.152 42.2466 43.922 42.1466L43.862 37.4366C43.972 36.6966 43.8919 26.8966 43.9019 25.0466C43.9019 23.8366 43.452 24.0366 41.672 24.0366C41.172 24.0366 39.542 24.0967 39.172 23.9967C39.1119 20.7567 39.172 16.4566 39.172 13.1866C39.172 9.91659 39.4919 10.1166 37.1619 10.0766C36.9219 10.0766 36.8019 10.0766 36.5219 10.0766H32.282C31.872 10.0766 31.892 10.1567 31.892 9.74665V1.32661C31.892 0.226609 30.492 0.546579 29.532 0.546579H17.2719C16.5819 0.546579 16.4419 0.806662 16.4419 1.50666V14.3366V14.7066C15.7119 14.8066 14.2919 14.7467 13.4919 14.7467C11.6819 14.7467 11.7519 14.6867 11.7619 16.5067C11.7619 17.5067 11.8519 24.0666 11.7319 24.4166C11.4619 24.5266 6.34194 24.4566 5.13194 24.4566C4.26194 24.4566 4.36195 25.0666 4.36195 25.8466C4.36195 31.2566 4.48195 36.7366 4.36195 42.1466C4.13195 42.2466 3.22195 42.1966 2.32195 42.2066L2.21194 41.2766C2.21194 41.2766 2.34195 41.2566 2.39195 41.2467C2.78195 41.1567 3.08195 41.0166 3.33195 40.6966C3.90195 39.9666 3.69195 38.6266 3.51195 37.8066C3.35195 37.0666 2.54195 34.2466 2.15195 33.7766C2.06195 33.6666 1.95195 33.5766 1.82195 33.7366C1.68195 33.9066 1.54194 34.1966 1.44194 34.4166C1.38194 34.5566 1.17194 35.0166 1.13194 35.1666C1.09194 35.2966 1.03194 35.4166 0.991943 35.5566C0.941943 35.6866 0.891944 35.8266 0.851944 35.9566C0.671944 36.4766 0.501944 37.0166 0.351944 37.5666C0.201944 38.0966 0.00195312 38.7866 0.00195312 39.3366V39.2966ZM35.7619 23.8566L32.5219 19.5966C32.3419 19.3666 32.2219 19.2566 32.1519 19.1466V16.9766L34.8819 20.4166C35.5219 21.3466 36.8819 22.9366 37.4919 23.8566H35.7619ZM34.142 23.1966C33.852 22.8266 33.5919 22.4766 33.3219 22.1166L32.4919 21.0466C32.3819 20.9066 32.2619 20.7466 32.1619 20.5866V19.7366C32.3219 19.8666 32.4119 20.0666 32.5519 20.2166L33.362 21.2666C33.572 21.6166 35.0119 23.3866 35.2619 23.8566H34.6619C34.5719 23.7566 34.4419 23.5566 34.1619 23.1966H34.142ZM37.6819 35.8466C37.6819 35.1966 37.9019 34.6066 38.1919 34.1966C38.3319 34.0066 38.402 33.9167 38.562 33.7567C38.602 33.7067 38.6519 33.6667 38.6919 33.6267L38.862 33.4866C38.862 33.4866 38.8619 33.4866 38.8819 33.4766C38.8919 33.4766 38.912 33.4566 38.922 33.4466C38.952 33.4266 38.972 33.4166 39.002 33.3966C39.112 33.3166 39.242 33.2666 39.3419 33.2066C39.222 33.0766 39.102 32.9766 38.972 32.8566C38.822 32.7166 38.7319 32.6267 38.5919 32.5067C38.2819 32.2267 38.1219 32.3866 37.8719 32.5866L37.4819 32.9266C37.4119 32.9866 37.3619 33.0366 37.2919 33.0966C37.0919 33.2666 36.8919 33.4266 36.702 33.5966C36.532 33.7466 36.202 33.9466 36.202 34.1866C36.202 34.2766 36.2319 34.3466 36.2619 34.4166C36.3819 34.7366 36.492 35.0566 36.612 35.3666C36.632 35.4266 36.7419 35.6967 36.7419 35.7467C36.6619 35.8367 36.5819 35.9166 36.4919 36.0266C36.3619 36.1766 36.5819 36.2566 36.6219 36.3466C36.5619 36.3866 36.3419 36.6266 36.2919 36.6966C36.2519 36.7366 36.2219 36.7666 36.1819 36.8066C35.8319 37.2066 35.4519 37.5766 35.1019 37.9766L34.1219 39.0366C33.952 39.2366 33.762 39.4367 33.582 39.6267C33.522 39.6867 33.5419 39.7166 33.5419 39.8166V40.4766C33.8519 40.4766 34.7619 40.4366 34.7619 40.4366C34.7619 40.4366 34.9319 40.3466 34.9419 40.2366C34.9119 40.2166 34.8919 40.1866 34.8719 40.1566C34.8319 40.0966 34.8019 40.0667 34.7419 39.9967C34.6519 39.8767 34.7219 39.8866 34.9019 39.6866C35.0019 39.5766 35.202 39.7967 35.312 39.8767C35.382 39.7967 35.4419 39.7266 35.5119 39.6466C35.4719 39.6166 35.432 39.5866 35.392 39.5566C35.352 39.5266 35.322 39.4866 35.282 39.4566C35.162 39.3466 35.2619 39.3066 35.3519 39.2066C35.4519 39.0866 35.472 39.0365 35.5919 39.1365C35.632 39.1665 35.7919 39.3066 35.8019 39.3366C35.9219 39.2366 36.132 38.9866 36.252 38.8566C36.252 38.8166 36.2619 38.8566 36.2319 38.8166L36.1519 38.7467C36.1519 38.7467 36.0919 38.6866 36.0419 38.6466C36.0019 38.6166 35.952 38.5765 36.002 38.5165L36.202 38.2966C36.2519 38.2466 36.292 38.2866 36.332 38.3166L36.5519 38.5165C36.5519 38.5165 36.6619 38.4066 36.702 38.3666L37.6819 37.3066C37.7619 37.3466 37.7819 37.4366 37.9019 37.4566C37.9819 37.4666 38.0719 37.3766 38.1019 37.3066C37.8619 36.8666 37.7219 36.3766 37.7119 35.8566L37.6819 35.8466ZM37.8719 42.1666C37.8719 42.1666 38.0119 41.9366 38.0119 41.9066C38.0119 41.8666 37.8419 41.6166 37.8019 41.5566C37.8219 41.5366 37.8619 41.5366 37.8819 41.5266L38.142 41.4766C38.142 41.4766 38.2119 41.4666 38.2319 41.4566C38.2719 41.4466 38.272 41.4366 38.282 41.4066C38.382 41.2266 38.3619 41.2866 38.2319 41.1066C38.1919 41.0466 38.142 40.9966 38.112 40.9466L38.2619 40.6766C38.2619 40.6766 38.2719 40.6466 38.312 40.6466L38.6319 40.6267C38.7119 40.6267 38.7119 40.6266 38.7419 40.5766C38.7819 40.5066 38.832 40.4366 38.862 40.3566C38.832 40.3366 38.7619 40.2366 38.7419 40.2066C38.5519 39.9466 38.612 40.1166 38.782 39.7366L39.222 39.7066C39.222 39.7066 39.2719 39.6166 39.2919 39.5766C39.4019 39.3766 39.6719 38.8566 39.7719 38.7066C39.8019 38.7066 39.7719 38.7066 39.812 38.7166C39.902 38.7566 40.0019 38.8466 40.0719 38.7266C40.7419 37.5866 41.5519 38.8366 42.5919 37.3566V42.1866L37.862 42.1766L37.8719 42.1666ZM41.7619 33.6466C41.6219 33.5466 41.1619 33.3965 40.952 33.3865C40.5919 33.3565 40.3419 33.3566 39.9819 33.4466C39.702 33.5166 39.4419 33.6466 39.2319 33.7766C38.7819 34.0666 38.472 34.4766 38.282 34.9566C37.992 35.6966 38.0919 36.6466 38.562 37.2866L38.672 37.4366C38.672 37.4366 38.592 37.5766 38.582 37.6066C38.462 37.8366 38.322 37.9366 38.642 38.0766C38.622 38.1566 38.2719 38.7566 38.1919 38.8966C38.1419 38.9866 38.0919 39.0666 38.0419 39.1666L37.5919 39.9866C37.292 40.5266 36.992 41.0666 36.702 41.6066C36.672 41.6566 36.6319 41.6967 36.6519 41.7567C36.6719 41.8167 36.742 42.0066 36.812 42.1866H31.9019L31.952 25.4066L42.562 25.3767L42.582 32.4166C42.482 32.1766 42.3519 31.9666 42.1919 31.7966C41.8319 31.4266 41.5719 31.2767 41.0719 31.1267C40.6019 30.9867 40.0019 31.0665 39.5719 31.2666C39.4319 31.3265 39.2619 31.4265 39.1519 31.5166C39.1019 31.5566 39.0719 31.5766 39.0219 31.6166C38.9319 31.6966 38.642 31.9866 38.612 32.0966L39.0519 32.4967C39.0519 32.4967 39.0519 32.4966 39.0719 32.4766C39.1119 32.4266 39.1219 32.3866 39.202 32.2866C39.3919 32.0566 39.6619 31.8567 39.952 31.7467C40.082 31.7067 40.2719 31.6566 40.4119 31.6566C41.0819 31.6066 41.7419 32.0066 42.0219 32.6066C42.3419 33.3566 42.162 34.1866 41.502 34.6766C41.222 34.8866 40.9019 34.9967 40.4819 34.9967C40.4619 35.1666 40.4319 35.2966 40.5219 35.4766C40.5419 35.5166 40.5719 35.5566 40.5919 35.5966C40.9319 35.5966 41.3219 35.4666 41.5519 35.3466C42.0419 35.0866 42.372 34.7267 42.582 34.2467V35.0266C42.532 35.0966 42.452 35.1866 42.392 35.2467C42.312 35.3267 42.2219 35.3966 42.1219 35.4466C42.0619 35.4766 42.022 35.4966 41.972 35.5266C41.822 35.5966 41.7819 35.5566 41.7419 35.6466C41.5319 36.0466 40.9919 36.2267 40.5519 36.0067C39.8319 35.6467 39.9219 34.5866 40.7419 34.3466C41.0419 34.2566 41.152 34.3966 41.252 34.3266C41.462 34.1566 41.632 33.9566 41.752 33.6666L41.7619 33.6466ZM18.062 18.3466H19.4919C19.5719 18.3466 19.6319 18.4066 19.6319 18.4866V21.0466C19.6319 21.1266 19.5719 21.1866 19.4919 21.1866H18.062C17.982 21.1866 17.922 21.1266 17.922 21.0466V18.4866C17.922 18.4066 17.982 18.3466 18.062 18.3466ZM18.062 22.9666H19.4919C19.5719 22.9666 19.6319 23.0266 19.6319 23.1066V25.6666C19.6319 25.7466 19.5719 25.8066 19.4919 25.8066H18.062C17.982 25.8066 17.922 25.7466 17.922 25.6666V23.1066C17.922 23.0266 17.982 22.9666 18.062 22.9666ZM18.062 27.5866H19.4919C19.5719 27.5866 19.6319 27.6466 19.6319 27.7266V30.2866C19.6319 30.3666 19.5719 30.4266 19.4919 30.4266H18.062C17.982 30.4266 17.922 30.3666 17.922 30.2866V27.7266C17.922 27.6466 17.982 27.5866 18.062 27.5866ZM18.062 32.1566H19.4919C19.5719 32.1566 19.6319 32.2166 19.6319 32.2966V34.8566C19.6319 34.9366 19.5719 34.9967 19.4919 34.9967H18.062C17.982 34.9967 17.922 34.9366 17.922 34.8566V32.2966C17.922 32.2166 17.982 32.1566 18.062 32.1566ZM14.7119 18.3466H16.142C16.222 18.3466 16.282 18.4066 16.282 18.4866V21.0466C16.282 21.1266 16.222 21.1866 16.142 21.1866H14.7119C14.6319 21.1866 14.5719 21.1266 14.5719 21.0466V18.4866C14.5719 18.4066 14.6319 18.3466 14.7119 18.3466ZM14.7119 22.9666H16.142C16.222 22.9666 16.282 23.0266 16.282 23.1066V25.6666C16.282 25.7466 16.222 25.8066 16.142 25.8066H14.7119C14.6319 25.8066 14.5719 25.7466 14.5719 25.6666V23.1066C14.5719 23.0266 14.6319 22.9666 14.7119 22.9666ZM14.7119 27.5866H16.142C16.222 27.5866 16.282 27.6466 16.282 27.7266V30.2866C16.282 30.3666 16.222 30.4266 16.142 30.4266H14.7119C14.6319 30.4266 14.5719 30.3666 14.5719 30.2866V27.7266C14.5719 27.6466 14.6319 27.5866 14.7119 27.5866ZM33.672 27.3066H35.1019C35.1819 27.3066 35.2419 27.3666 35.2419 27.4466V30.0067C35.2419 30.0867 35.1819 30.1466 35.1019 30.1466H33.672C33.5919 30.1466 33.532 30.0867 33.532 30.0067V27.4466C33.532 27.3666 33.5919 27.3066 33.672 27.3066ZM33.672 31.8767H35.1019C35.1819 31.8767 35.2419 31.9366 35.2419 32.0166V34.5766C35.2419 34.6566 35.1819 34.7166 35.1019 34.7166H33.672C33.5919 34.7166 33.532 34.6566 33.532 34.5766V32.0166C33.532 31.9366 33.5919 31.8767 33.672 31.8767ZM39.6519 27.3066H41.082C41.162 27.3066 41.222 27.3666 41.222 27.4466V30.0067C41.222 30.0867 41.162 30.1466 41.082 30.1466H39.6519C39.5719 30.1466 39.5119 30.0867 39.5119 30.0067V27.4466C39.5119 27.3666 39.5719 27.3066 39.6519 27.3066ZM36.6619 27.3066H38.0919C38.172 27.3066 38.2319 27.3666 38.2319 27.4466V30.0067C38.2319 30.0867 38.172 30.1466 38.0919 30.1466H36.6619C36.5819 30.1466 36.5219 30.0867 36.5219 30.0067V27.4466C36.5219 27.3666 36.5819 27.3066 36.6619 27.3066ZM6.84195 26.9066H8.27194C8.35194 26.9066 8.41194 26.9666 8.41194 27.0466V29.6066C8.41194 29.6866 8.35194 29.7467 8.27194 29.7467H6.84195C6.76195 29.7467 6.70195 29.6866 6.70195 29.6066V27.0466C6.70195 26.9666 6.76195 26.9066 6.84195 26.9066ZM6.84195 31.5266H8.27194C8.35194 31.5266 8.41194 31.5866 8.41194 31.6666V34.2266C8.41194 34.3066 8.35194 34.3666 8.27194 34.3666H6.84195C6.76195 34.3666 6.70195 34.3066 6.70195 34.2266V31.6666C6.70195 31.5866 6.76195 31.5266 6.84195 31.5266ZM22.082 3.51655H23.5119C23.5919 3.51655 23.6519 3.57656 23.6519 3.65656V6.21662C23.6519 6.29662 23.5919 6.35664 23.5119 6.35664H22.082C22.002 6.35664 21.9419 6.29662 21.9419 6.21662V3.65656C21.9419 3.57656 22.002 3.51655 22.082 3.51655ZM28.062 3.51655H29.4919C29.5719 3.51655 29.6319 3.57656 29.6319 3.65656V6.21662C29.6319 6.29662 29.5719 6.35664 29.4919 6.35664H28.062C27.982 6.35664 27.922 6.29662 27.922 6.21662V3.65656C27.922 3.57656 27.982 3.51655 28.062 3.51655ZM25.0719 3.51655H26.502C26.582 3.51655 26.642 3.57656 26.642 3.65656V6.21662C26.642 6.29662 26.582 6.35664 26.502 6.35664H25.0719C24.9919 6.35664 24.9319 6.29662 24.9319 6.21662V3.65656C24.9319 3.57656 24.9919 3.51655 25.0719 3.51655ZM19.0919 3.51655H20.5219C20.6019 3.51655 20.6619 3.57656 20.6619 3.65656V6.21662C20.6619 6.29662 20.6019 6.35664 20.5219 6.35664H19.0919C19.0119 6.35664 18.952 6.29662 18.952 6.21662V3.65656C18.952 3.57656 19.0119 3.51655 19.0919 3.51655ZM22.082 8.99665H23.5119C23.5919 8.99665 23.6519 9.05655 23.6519 9.13655V11.6966C23.6519 11.7766 23.5919 11.8366 23.5119 11.8366H22.082C22.002 11.8366 21.9419 11.7766 21.9419 11.6966V9.13655C21.9419 9.05655 22.002 8.99665 22.082 8.99665ZM28.062 8.99665H29.4919C29.5719 8.99665 29.6319 9.05655 29.6319 9.13655V11.6966C29.6319 11.7766 29.5719 11.8366 29.4919 11.8366H28.062C27.982 11.8366 27.922 11.7766 27.922 11.6966V9.13655C27.922 9.05655 27.982 8.99665 28.062 8.99665ZM25.0719 8.99665H26.502C26.582 8.99665 26.642 9.05655 26.642 9.13655V11.6966C26.642 11.7766 26.582 11.8366 26.502 11.8366H25.0719C24.9919 11.8366 24.9319 11.7766 24.9319 11.6966V9.13655C24.9319 9.05655 24.9919 8.99665 25.0719 8.99665ZM19.0919 8.99665H20.5219C20.6019 8.99665 20.6619 9.05655 20.6619 9.13655V11.6966C20.6619 11.7766 20.6019 11.8366 20.5219 11.8366H19.0919C19.0119 11.8366 18.952 11.7766 18.952 11.6966V9.13655C18.952 9.05655 19.0119 8.99665 19.0919 8.99665ZM22.082 14.4766H23.5119C23.5919 14.4766 23.6519 14.5366 23.6519 14.6166V17.1766C23.6519 17.2566 23.5919 17.3166 23.5119 17.3166H22.082C22.002 17.3166 21.9419 17.2566 21.9419 17.1766V14.6166C21.9419 14.5366 22.002 14.4766 22.082 14.4766ZM28.062 14.4766H29.4919C29.5719 14.4766 29.6319 14.5366 29.6319 14.6166V17.1766C29.6319 17.2566 29.5719 17.3166 29.4919 17.3166H28.062C27.982 17.3166 27.922 17.2566 27.922 17.1766V14.6166C27.922 14.5366 27.982 14.4766 28.062 14.4766ZM25.0719 14.4766H26.502C26.582 14.4766 26.642 14.5366 26.642 14.6166V17.1766C26.642 17.2566 26.582 17.3166 26.502 17.3166H25.0719C24.9919 17.3166 24.9319 17.2566 24.9319 17.1766V14.6166C24.9319 14.5366 24.9919 14.4766 25.0719 14.4766ZM22.082 19.9566H23.5119C23.5919 19.9566 23.6519 20.0166 23.6519 20.0966V22.6566C23.6519 22.7366 23.5919 22.7966 23.5119 22.7966H22.082C22.002 22.7966 21.9419 22.7366 21.9419 22.6566V20.0966C21.9419 20.0166 22.002 19.9566 22.082 19.9566ZM28.062 19.9566H29.4919C29.5719 19.9566 29.6319 20.0166 29.6319 20.0966V22.6566C29.6319 22.7366 29.5719 22.7966 29.4919 22.7966H28.062C27.982 22.7966 27.922 22.7366 27.922 22.6566V20.0966C27.922 20.0166 27.982 19.9566 28.062 19.9566ZM25.0719 19.9566H26.502C26.582 19.9566 26.642 20.0166 26.642 20.0966V22.6566C26.642 22.7366 26.582 22.7966 26.502 22.7966H25.0719C24.9919 22.7966 24.9319 22.7366 24.9319 22.6566V20.0966C24.9319 20.0166 24.9919 19.9566 25.0719 19.9566ZM28.062 25.4366H29.4919C29.5719 25.4366 29.6319 25.4966 29.6319 25.5766V28.1365C29.6319 28.2165 29.5719 28.2766 29.4919 28.2766H28.062C27.982 28.2766 27.922 28.2165 27.922 28.1365V25.5766C27.922 25.4966 27.982 25.4366 28.062 25.4366ZM25.0719 25.4366H26.502C26.582 25.4366 26.642 25.4966 26.642 25.5766V28.1365C26.642 28.2165 26.582 28.2766 26.502 28.2766H25.0719C24.9919 28.2766 24.9319 28.2165 24.9319 28.1365V25.5766C24.9319 25.4966 24.9919 25.4366 25.0719 25.4366ZM28.062 30.9166H29.4919C29.5719 30.9166 29.6319 30.9766 29.6319 31.0566V33.6166C29.6319 33.6966 29.5719 33.7567 29.4919 33.7567H28.062C27.982 33.7567 27.922 33.6966 27.922 33.6166V31.0566C27.922 30.9766 27.982 30.9166 28.062 30.9166ZM25.0719 30.9166H26.502C26.582 30.9166 26.642 30.9766 26.642 31.0566V33.6166C26.642 33.6966 26.582 33.7567 26.502 33.7567H25.0719C24.9919 33.7567 24.9319 33.6966 24.9319 33.6166V31.0566C24.9319 30.9766 24.9919 30.9166 25.0719 30.9166ZM21.1019 16.0366L21.1319 42.1466C20.8719 42.1766 19.7619 42.1966 18.4419 42.1966C18.3619 41.8166 18.3819 41.6166 18.3519 41.4266C18.6319 41.4966 19.5719 41.3966 19.9119 41.1466C20.2919 40.8566 20.4519 40.3766 20.4819 40.1666C20.5119 39.9466 20.5119 39.8266 20.4819 39.6066C20.4619 39.4566 20.3419 39.1766 20.3419 39.1466C20.3619 39.0866 20.402 39.0066 20.422 38.9166C20.562 38.2466 20.1719 37.5866 19.5419 37.4166L19.362 37.3767C19.362 37.3767 19.3019 37.3766 19.2919 37.3566C19.2719 37.2966 19.272 37.1366 19.252 37.0466C19.202 36.8566 19.1419 36.7166 19.0219 36.5766C18.8819 36.3966 18.462 36.1466 18.222 36.0966C17.842 36.0266 17.422 36.1666 17.172 36.4066C17.102 36.4766 17.0119 36.5666 16.9619 36.6566L16.812 36.9666C16.722 37.0366 16.672 37.0466 16.532 37.1566C16.202 37.4366 15.9419 37.8666 15.952 38.4466C15.952 38.5266 15.952 38.5866 15.972 38.6566C15.972 38.6866 16.012 38.8366 16.002 38.8466C16.002 38.8466 15.9219 38.9466 15.9019 38.9766C15.4719 39.6166 15.5719 40.4965 16.1019 41.0165C16.1719 41.0865 16.2419 41.1466 16.3219 41.2066C16.6419 41.4266 17.0719 41.5466 17.4819 41.4866C17.5219 41.4866 17.642 41.4466 17.672 41.4466C17.702 41.4966 17.6219 42.1766 17.6219 42.1866C15.5219 42.1866 13.242 42.1566 13.082 42.0966C13.002 40.7966 13.082 39.2165 13.082 37.8865V25.0566C13.082 22.2166 13.122 19.3465 13.082 16.5166C13.082 15.8666 12.8719 16.0067 14.6619 16.0067H21.112L21.1019 16.0366Z" fill="white"/>
</g>
</mask>
<g mask="url(#mask0_202_52)">
<g id="Group">
<path id="Vector_2" d="M50.0622 0.216675H-0.0078125V43.4967H50.0622V0.216675Z" fill="url(#paint0_linear_202_52)"/>
</g>
</g>
</g>
<defs>
<linearGradient id="paint0_linear_202_52" x1="4.49219" y1="33.5967" x2="49.7822" y2="7.7267" gradientUnits="userSpaceOnUse">
<stop stop-color="#312E6A"/>
<stop offset="1" stop-color="#57BDDD"/>
</linearGradient>
</defs>
</svg>
