<svg width="50" height="50" viewBox="0 0 50 50" fill="none" xmlns="http://www.w3.org/2000/svg">
<g id="Clip path group">
<mask id="mask0_202_61" style="mask-type:luminance" maskUnits="userSpaceOnUse" x="0" y="0" width="50" height="50">
<g id="clippath-150">
<path id="Vector" d="M26.9057 30.1643L24.4856 26.9844C24.3556 26.8044 24.2657 26.7343 24.2057 26.6443V25.0243L26.2457 27.5944C26.7257 28.2844 27.7357 29.4743 28.1957 30.1643H26.9057ZM18.5057 45.3243L16.4657 42.6443C16.3557 42.4943 16.2756 42.4344 16.2356 42.3644V40.9944L17.9557 43.1543C18.3557 43.7343 19.2157 44.7343 19.5957 45.3143H18.5057V45.3243ZM17.4856 44.9043C17.3056 44.6743 17.1357 44.4544 16.9657 44.2244L16.4457 43.5543C16.3757 43.4643 16.3056 43.3644 16.2356 43.2644V42.7344C16.3356 42.8144 16.3857 42.9443 16.4757 43.0343L16.9856 43.6943C17.1156 43.9143 18.0256 45.0243 18.1756 45.3243H17.7957C17.7357 45.2643 17.6556 45.1343 17.4856 44.9043ZM24.0957 5.16431H26.4157C26.5357 5.16431 26.6457 5.2644 26.6457 5.3844V9.5343C26.6457 9.6543 26.5457 9.7644 26.4157 9.7644H24.0957C23.9757 9.7644 23.8656 9.6643 23.8656 9.5343V5.3844C23.8656 5.2644 23.9657 5.16431 24.0957 5.16431ZM19.2457 5.16431H21.5657C21.6857 5.16431 21.7957 5.2644 21.7957 5.3844V9.5343C21.7957 9.6543 21.6957 9.7644 21.5657 9.7644H19.2457C19.1257 9.7644 19.0257 9.6643 19.0257 9.5343V5.3844C19.0257 5.2644 19.1257 5.16431 19.2457 5.16431ZM9.53569 5.16431H11.8557C11.9757 5.16431 12.0857 5.2644 12.0857 5.3844V9.5343C12.0857 9.6543 11.9857 9.7644 11.8557 9.7644H9.53569C9.41569 9.7644 9.30565 9.6643 9.30565 9.5343V5.3844C9.30565 5.2644 9.40569 5.16431 9.53569 5.16431ZM14.3857 5.16431H16.7057C16.8257 5.16431 16.9357 5.2644 16.9357 5.3844V9.5343C16.9357 9.6543 16.8357 9.7644 16.7057 9.7644H14.3857C14.2657 9.7644 14.1557 9.6643 14.1557 9.5343V5.3844C14.1557 5.2644 14.2557 5.16431 14.3857 5.16431ZM19.2356 18.2144H21.5556C21.6756 18.2144 21.7857 18.3143 21.7857 18.4443V22.5944C21.7857 22.7144 21.6856 22.8243 21.5556 22.8243H19.2356C19.1156 22.8243 19.0157 22.7244 19.0157 22.5944V18.4443C19.0157 18.3243 19.1156 18.2144 19.2356 18.2144ZM9.52568 18.2144H11.8457C11.9657 18.2144 12.0757 18.3143 12.0757 18.4443V22.5944C12.0757 22.7144 11.9757 22.8243 11.8457 22.8243H9.52568C9.40568 22.8243 9.2957 22.7244 9.2957 22.5944V18.4443C9.2957 18.3243 9.39568 18.2144 9.52568 18.2144ZM14.3757 18.2144H16.6957C16.8157 18.2144 16.9256 18.3143 16.9256 18.4443V22.5944C16.9256 22.7144 16.8257 22.8243 16.6957 22.8243H14.3757C14.2557 22.8243 14.1457 22.7244 14.1457 22.5944V18.4443C14.1457 18.3243 14.2457 18.2144 14.3757 18.2144ZM9.52568 31.2644H11.8457C11.9657 31.2644 12.0757 31.3644 12.0757 31.4944V35.6443C12.0757 35.7643 11.9757 35.8744 11.8457 35.8744H9.52568C9.40568 35.8744 9.2957 35.7743 9.2957 35.6443V31.4944C9.2957 31.3744 9.39568 31.2644 9.52568 31.2644ZM14.3757 31.2644H16.6957C16.8157 31.2644 16.9256 31.3644 16.9256 31.4944V35.6443C16.9256 35.7643 16.8257 35.8744 16.6957 35.8744H14.3757C14.2557 35.8744 14.1457 35.7743 14.1457 35.6443V31.4944C14.1457 31.3744 14.2457 31.2644 14.3757 31.2644ZM24.0857 11.8143H26.4057C26.5257 11.8143 26.6357 11.9143 26.6357 12.0443V16.1943C26.6357 16.3143 26.5357 16.4243 26.4057 16.4243H24.0857C23.9657 16.4243 23.8557 16.3243 23.8557 16.1943V12.0443C23.8557 11.9243 23.9557 11.8143 24.0857 11.8143ZM19.2356 11.8143H21.5556C21.6756 11.8143 21.7857 11.9143 21.7857 12.0443V16.1943C21.7857 16.3143 21.6856 16.4243 21.5556 16.4243H19.2356C19.1156 16.4243 19.0157 16.3243 19.0157 16.1943V12.0443C19.0157 11.9243 19.1156 11.8143 19.2356 11.8143ZM9.52568 11.8143H11.8457C11.9657 11.8143 12.0757 11.9143 12.0757 12.0443V16.1943C12.0757 16.3143 11.9757 16.4243 11.8457 16.4243H9.52568C9.40568 16.4243 9.2957 16.3243 9.2957 16.1943V12.0443C9.2957 11.9243 9.39568 11.8143 9.52568 11.8143ZM14.3757 11.8143H16.6957C16.8157 11.8143 16.9256 11.9143 16.9256 12.0443V16.1943C16.9256 16.3143 16.8257 16.4243 16.6957 16.4243H14.3757C14.2557 16.4243 14.1457 16.3243 14.1457 16.1943V12.0443C14.1457 11.9243 14.2457 11.8143 14.3757 11.8143ZM19.2257 24.8644H21.4856V24.6443C21.4856 24.1543 21.4556 23.7144 21.6756 23.2544C21.9856 22.5944 22.6456 22.2043 23.3656 22.1843C23.5256 22.1843 23.6957 22.1843 23.8557 22.1843V18.4343C23.8557 18.3143 23.9557 18.2043 24.0857 18.2043H26.4057C26.5257 18.2043 26.6357 18.3043 26.6357 18.4343V22.1943H28.5757C28.5757 21.9543 28.5757 21.7144 28.5757 21.4844C28.5757 20.4544 28.5757 19.4243 28.5757 18.3943C28.5757 16.7543 28.5957 15.1144 28.5957 13.4744C28.5957 12.3144 28.8657 11.3143 29.4757 10.5243V3.07434H26.7857L26.3557 0.84436L9.73564 0.824341L9.14567 3.07434H6.45567C6.48567 34.5543 6.43569 32.6344 6.47569 46.3444H29.4757V46.0343V45.1843C29.2857 45.0643 29.1057 44.9343 28.9057 44.7743L28.8757 44.7544L28.1557 44.1044L28.1257 44.0743C28.1257 44.0743 28.0357 43.9743 27.9957 43.9243H26.7957C25.9957 43.9243 25.1957 43.9543 24.3957 43.9543C23.8957 43.9543 23.3157 43.9543 22.8357 43.8143C22.1457 43.6043 21.6956 43.1043 21.5556 42.4043C21.4756 41.9943 21.4957 41.5444 21.4957 41.1344V35.8544H19.2356C19.1156 35.8544 19.0157 35.7544 19.0157 35.6244V31.4744C19.0157 31.3544 19.1156 31.2444 19.2356 31.2444H21.4957V29.4543H19.2356C19.1156 29.4543 19.0157 29.3544 19.0157 29.2244V25.0743C19.0157 24.9543 19.1156 24.8444 19.2356 24.8444L19.2257 24.8644ZM9.51567 24.8644H11.8357C11.9557 24.8644 12.0657 24.9644 12.0657 25.0944V29.2444C12.0657 29.3644 11.9657 29.4744 11.8357 29.4744H9.51567C9.39567 29.4744 9.28569 29.3744 9.28569 29.2444V25.0944C9.28569 24.9744 9.38567 24.8644 9.51567 24.8644ZM14.3656 24.8644H16.6857C16.8057 24.8644 16.9157 24.9644 16.9157 25.0944V29.2444C16.9157 29.3644 16.8157 29.4744 16.6857 29.4744H14.3656C14.2456 29.4744 14.1357 29.3744 14.1357 29.2444V25.0944C14.1357 24.9744 14.2356 24.8644 14.3656 24.8644ZM9.51567 37.9143H11.8357C11.9557 37.9143 12.0657 38.0143 12.0657 38.1443V42.2943C12.0657 42.4143 11.9657 42.5243 11.8357 42.5243H9.51567C9.39567 42.5243 9.28569 42.4243 9.28569 42.2943V38.1443C9.28569 38.0243 9.38567 37.9143 9.51567 37.9143ZM39.1557 36.6543L39.1357 37.5443C39.7257 37.9043 40.2057 38.4544 40.4557 39.0944C40.5657 39.2944 40.6657 39.5144 40.7557 39.7244C41.2257 40.8444 41.6157 42.0344 41.8557 43.2244C41.9557 43.7044 41.8657 44.1543 42.0057 44.6443C42.0857 44.9043 42.1156 45.1143 42.1756 45.3344C42.1756 42.2743 42.1756 39.4543 42.1756 36.6543H41.6957C40.8457 36.6543 39.9957 36.6543 39.1457 36.6543H39.1557ZM41.1557 48.9243H45.8757V46.7644H42.6756C42.7056 47.0744 42.6656 47.3943 42.4856 47.7043C42.1656 48.2843 41.8257 48.5243 41.2957 48.8243C41.2457 48.8643 41.2057 48.8943 41.1557 48.9243ZM3.24565 45.7743C3.37565 45.7243 3.69564 45.7144 3.98564 45.5844C5.81564 44.8244 5.47567 42.3543 5.13566 40.7843C4.81566 39.2843 3.80564 35.8344 3.23564 34.9844C3.05564 34.7244 2.89567 34.5043 2.64567 34.8143C2.28568 35.2543 1.92566 36.2043 1.69566 36.7943C1.67566 36.8543 1.65566 36.9344 1.62566 36.9844C1.40566 37.4444 0.825663 39.2944 0.695663 39.7544C0.405663 40.7644 -0.0743203 42.2243 0.0256797 43.2743C0.28568 45.4743 1.31567 45.3544 2.20567 45.8344C2.20567 46.0344 2.20565 46.4044 2.18565 46.7644H0.76567V48.9243H35.2457L35.2157 48.8744L34.2757 48.4744C34.0357 48.3744 33.7957 48.2843 33.5657 48.1843C33.2257 48.0343 32.9257 47.8144 32.6257 47.5944C32.5057 47.5044 32.4157 47.4143 32.3157 47.3243C32.1257 47.1543 31.9457 46.9544 31.7657 46.7644H3.36565L3.25566 45.7743H3.24565ZM15.9256 38.7344L20.0257 38.7743L20.0457 45.5044L15.9357 45.5443V38.7344H15.9256ZM32.5357 42.6244C32.4657 42.3844 32.3957 42.2244 32.3157 41.9944C32.2757 41.8744 32.2457 41.8143 32.1957 41.6943C32.1757 41.6443 32.1557 41.6043 32.1457 41.5643L32.0657 41.4043L31.9457 41.1244V41.4543C31.9457 41.5143 31.8957 41.5643 31.8357 41.5643H29.9757C29.9157 41.5643 29.8656 41.5143 29.8656 41.4543V38.7943C29.8656 38.7343 29.9157 38.6843 29.9757 38.6843H30.9357L30.6857 38.0944H29.9557C29.9557 38.0944 29.8656 38.0544 29.8656 38.0044V36.5044C29.8656 36.5044 29.9057 36.4143 29.9557 36.4143H30.1657C30.2257 36.1943 30.3657 35.9843 30.5457 35.8243H29.9557C29.9557 35.8243 29.8656 35.7844 29.8656 35.7344V34.2344C29.8656 34.2344 29.9057 34.1443 29.9557 34.1443H31.8656C31.8656 34.1443 31.9557 34.1844 31.9557 34.2344V35.7344C31.9557 35.7344 31.9357 35.8043 31.9057 35.8143C32.0357 35.9043 32.1657 36.0343 32.2957 36.1943L32.7857 37.1543V36.5044C32.7857 36.5044 32.8257 36.4143 32.8757 36.4143H34.7857C34.7857 36.4143 34.8757 36.4544 34.8757 36.5044V38.0044C34.8757 38.0744 34.8757 38.1343 34.8757 38.1943C34.9557 38.2243 35.0257 38.2643 35.1057 38.3143C35.3957 37.8243 36.4157 37.7744 36.3957 38.0144V25.1643C36.3957 24.6343 36.5157 23.8443 36.1457 23.5743C35.8457 23.3543 34.9556 23.4543 34.4856 23.4543H25.2857C24.6857 23.4543 24.0457 23.4343 23.4457 23.4543C23.1757 23.4543 22.9657 23.6043 22.8757 23.7943C22.7857 23.9843 22.8056 24.3744 22.8056 24.6344V41.1244C22.8056 42.9744 22.5857 42.6244 26.8157 42.6244H28.4256C28.6956 42.5644 28.5856 42.1644 29.7356 41.8744C30.8356 41.5944 31.6957 42.5744 32.1057 42.6244C32.2257 42.6444 32.4457 42.6244 32.5757 42.6244H32.5357ZM24.1457 31.9043H26.0556C26.0556 31.9043 26.1457 31.9444 26.1457 31.9944V33.4944C26.1457 33.4944 26.1056 33.5844 26.0556 33.5844H24.1457C24.1457 33.5844 24.0556 33.5444 24.0556 33.4944V31.9944C24.0556 31.9944 24.0957 31.9043 24.1457 31.9043ZM24.1457 34.1643H26.0556C26.0556 34.1643 26.1457 34.2044 26.1457 34.2544V35.7544C26.1457 35.7544 26.1056 35.8444 26.0556 35.8444H24.1457C24.1457 35.8444 24.0556 35.8044 24.0556 35.7544V34.2544C24.0556 34.2544 24.0957 34.1643 24.1457 34.1643ZM24.1657 38.6743H26.0257C26.0857 38.6743 26.1357 38.7243 26.1357 38.7843V41.4443C26.1357 41.5043 26.0857 41.5543 26.0257 41.5543H24.1657C24.1057 41.5543 24.0556 41.5043 24.0556 41.4443V38.7843C24.0556 38.7243 24.1057 38.6743 24.1657 38.6743ZM24.1457 36.4143H26.0556C26.0556 36.4143 26.1457 36.4544 26.1457 36.5044V38.0044C26.1457 38.0044 26.1056 38.0944 26.0556 38.0944H24.1457C24.1457 38.0944 24.0556 38.0544 24.0556 38.0044V36.5044C24.0556 36.5044 24.0957 36.4143 24.1457 36.4143ZM29.9457 31.9043H31.8557C31.8557 31.9043 31.9457 31.9444 31.9457 31.9944V33.4944C31.9457 33.4944 31.9057 33.5844 31.8557 33.5844H29.9457C29.9457 33.5844 29.8557 33.5444 29.8557 33.4944V31.9944C29.8557 31.9944 29.8957 31.9043 29.9457 31.9043ZM27.0457 31.9043H28.9557C28.9557 31.9043 29.0457 31.9444 29.0457 31.9944V33.4944C29.0457 33.4944 29.0057 33.5844 28.9557 33.5844H27.0457C27.0457 33.5844 26.9557 33.5444 26.9557 33.4944V31.9944C26.9557 31.9944 26.9957 31.9043 27.0457 31.9043ZM27.0457 34.1643H28.9557C28.9557 34.1643 29.0457 34.2044 29.0457 34.2544V35.7544C29.0457 35.7544 29.0057 35.8444 28.9557 35.8444H27.0457C27.0457 35.8444 26.9557 35.8044 26.9557 35.7544V34.2544C26.9557 34.2544 26.9957 34.1643 27.0457 34.1643ZM27.0657 38.6743H28.9256C28.9856 38.6743 29.0357 38.7243 29.0357 38.7843V41.4443C29.0357 41.5043 28.9856 41.5543 28.9256 41.5543H27.0657C27.0057 41.5543 26.9557 41.5043 26.9557 41.4443V38.7843C26.9557 38.7243 27.0057 38.6743 27.0657 38.6743ZM27.0457 36.4143H28.9557C28.9557 36.4143 29.0457 36.4544 29.0457 36.5044V38.0044C29.0457 38.0044 29.0057 38.0944 28.9557 38.0944H27.0457C27.0457 38.0944 26.9557 38.0544 26.9557 38.0044V36.5044C26.9557 36.5044 26.9957 36.4143 27.0457 36.4143ZM32.8457 31.9043H34.7557C34.7557 31.9043 34.8457 31.9444 34.8457 31.9944V33.4944C34.8457 33.4944 34.8057 33.5844 34.7557 33.5844H32.8457C32.8457 33.5844 32.7557 33.5444 32.7557 33.4944V31.9944C32.7557 31.9944 32.7957 31.9043 32.8457 31.9043ZM32.8457 34.1643H34.7557C34.7557 34.1643 34.8457 34.2044 34.8457 34.2544V35.7544C34.8457 35.7544 34.8057 35.8444 34.7557 35.8444H32.8457C32.8457 35.8444 32.7557 35.8044 32.7557 35.7544V34.2544C32.7557 34.2544 32.7957 34.1643 32.8457 34.1643ZM37.3157 38.8444C38.1157 40.3544 37.0257 38.4144 36.4757 38.4844C35.7157 38.4244 35.6057 38.7644 35.2857 39.0144C35.1357 38.7444 34.6457 38.6244 34.2157 38.7144C33.7757 38.8044 33.6457 39.1243 33.5157 39.3143C33.4557 39.4043 33.4857 39.3643 33.4457 39.3943C33.2857 39.1643 32.7757 38.0443 32.5857 37.6543C32.3157 37.0843 32.1157 36.2944 31.5757 36.0944C31.3357 36.0044 31.0557 36.0944 30.8757 36.2144C30.4057 36.5344 30.5557 37.0243 30.7557 37.4443L32.5556 41.6244C33.0556 42.8844 33.4057 43.6943 31.8457 42.9443C31.1957 42.6343 30.3257 41.8244 29.3157 42.2544C29.1357 42.3344 28.8856 42.4744 28.8056 42.6344C28.6956 42.8344 28.9257 43.0443 29.0357 43.1543L29.7257 43.7743C30.0257 44.0343 30.1357 44.0643 30.5057 44.3043C30.6957 44.4243 30.8557 44.5044 31.0357 44.6244C31.3457 44.8444 31.7256 45.0343 32.0556 45.2843C32.4656 45.6043 32.6957 45.9344 33.1657 46.3544C33.2557 46.4344 33.2957 46.4843 33.3857 46.5543C34.0957 47.0843 34.0857 46.9743 34.7957 47.2943L35.7057 47.6843C36.2057 47.8843 36.2557 48.1344 36.5257 48.5944C36.8657 49.1544 36.8557 49.2343 37.1957 49.1443L38.1657 48.8444C38.6157 48.6944 39.0057 48.5244 39.4057 48.3544C39.6357 48.2644 39.4757 48.2644 39.8457 48.1344C40.0057 48.0744 39.9157 48.0844 40.0457 48.0144C40.1857 47.9444 40.2957 47.9743 40.5257 47.7743C40.6757 47.6443 41.0757 47.5743 41.3557 47.0743C41.4657 46.8743 41.2857 46.5243 41.1857 46.3143C40.8657 45.6843 41.0157 45.7944 40.7757 44.9944C40.5757 44.3044 40.6557 43.7644 40.5957 43.4844C40.3657 42.3844 39.9957 41.2344 39.5657 40.2244C39.4957 40.0544 39.3757 39.8044 39.2757 39.6344C38.8757 38.4244 37.2257 38.0344 37.3257 38.8344L37.3157 38.8444ZM39.7957 12.6443C39.3057 12.6443 38.7757 12.7744 38.3457 13.0144C37.3457 13.5844 36.9257 14.3444 36.8257 15.5844C37.0857 15.4344 39.6257 12.8844 39.7957 12.6344V12.6443ZM39.7957 18.5343C40.7557 18.4143 41.2656 18.1943 41.8056 17.6743C42.2456 17.2443 42.6657 16.5343 42.6557 15.6443L39.7957 18.5343ZM37.6156 17.5643C37.6856 17.5843 37.5556 17.6643 37.7356 17.5343L38.1257 17.1443C38.6357 16.6343 41.6657 13.6943 41.7557 13.4143C41.3857 13.5443 38.5057 16.5543 38.0257 17.0443C37.7657 17.3043 37.5657 17.4243 37.6257 17.5643H37.6156ZM37.9856 17.9543C38.1856 17.9243 38.1457 17.9044 38.2957 17.7544C38.9257 17.1044 41.9756 14.1944 42.1156 13.8344C41.8656 13.9444 40.3056 15.5444 39.9856 15.8644L38.4057 17.4443C38.1057 17.7443 38.0256 17.7344 37.9856 17.9644V17.9543ZM38.4557 18.2644C38.7457 18.2044 38.8357 18.0144 39.0157 17.8344C39.1957 17.6544 39.3257 17.5244 39.5057 17.3444C39.8557 17.0044 40.1456 16.7044 40.4856 16.3644C40.7656 16.0844 42.3157 14.6643 42.4157 14.3143C42.1557 14.4143 42.2957 14.3343 42.0957 14.5343L38.9157 17.7344C38.7257 17.9444 38.5657 18.0044 38.4657 18.2644H38.4557ZM37.7557 17.7843C38.0257 17.7243 37.9257 17.7443 38.1057 17.5643C38.2057 17.4643 38.2457 17.4143 38.3457 17.3143L40.9757 14.6843C41.2257 14.4343 41.8157 13.9043 41.9657 13.6443C41.6657 13.6843 41.8057 13.6444 41.6057 13.8544C40.6757 14.8344 39.7257 15.6744 38.7257 16.7244C38.4457 17.0244 37.8657 17.5443 37.7457 17.7943L37.7557 17.7843ZM41.5157 13.2444C41.2757 13.3244 38.7357 15.9243 38.3457 16.3143C38.2157 16.4443 37.3157 17.2544 37.4157 17.3544C37.5157 17.4544 40.7157 14.1443 41.0757 13.7843C41.1857 13.6743 41.2456 13.6244 41.3656 13.5044C41.5256 13.3444 41.5057 13.4544 41.5257 13.2444H41.5157ZM37.2356 17.0844C37.2356 17.0844 37.2657 17.0844 37.2757 17.0844L37.3957 17.0543C37.3957 17.0543 37.5057 16.9443 37.5357 16.9143C38.1757 16.2543 41.1357 13.4343 41.3056 13.0643C40.9557 13.1943 38.1757 16.0844 37.6557 16.6044C37.5057 16.7544 37.2657 16.9244 37.2457 17.0844H37.2356ZM39.0357 18.4543C39.3157 18.4343 39.7057 17.9444 40.0057 17.6344C40.3057 17.3244 40.5757 17.0644 40.8857 16.7544C41.1657 16.4744 42.5357 15.2644 42.5957 14.8844C42.2557 15.1144 39.0957 18.2443 39.0357 18.4443V18.4543ZM36.8957 16.3243C37.0857 16.2343 36.9357 16.3343 37.1057 16.2043C37.6557 15.7643 40.4657 12.7844 40.4957 12.7244C40.2357 12.7744 40.1457 12.9344 39.9757 13.1144L37.7057 15.3344C37.5557 15.5044 37.4057 15.7043 37.2857 15.8243C37.1157 15.9843 36.9657 16.0443 36.8957 16.3243ZM38.7757 18.3644C39.0457 18.3344 41.3457 15.8944 41.6357 15.6044C41.8657 15.3744 42.4557 14.8744 42.5357 14.5944C42.2857 14.7344 40.0257 17.0043 39.6457 17.3943C39.4657 17.5743 39.3357 17.7044 39.1557 17.8844C38.8757 18.1544 38.7957 18.1544 38.7857 18.3644H38.7757ZM41.0556 12.9243C40.6956 13.0143 39.2457 14.6244 39.0057 14.8644C38.9157 14.9544 37.0156 16.7544 37.1156 16.8544C37.2056 16.9344 38.0156 16.0443 38.1156 15.9343C38.6256 15.4043 40.9456 13.1643 41.0556 12.9143V12.9243ZM36.9856 16.6443C37.2856 16.4443 40.6357 13.0844 40.7757 12.8344C40.4057 12.9144 40.0157 13.5044 39.7657 13.7444C39.4257 14.0744 39.1357 14.3443 38.8056 14.6743C38.4656 15.0043 38.1857 15.2744 37.8457 15.6144C37.4857 15.9644 37.0056 16.3243 36.9856 16.6443ZM39.3957 18.5044C39.6657 18.4744 41.6057 16.4143 41.9557 16.0643C42.3257 15.6943 42.6757 15.4743 42.6357 15.1943C42.2657 15.5543 39.4457 18.2644 39.3957 18.4944V18.5044ZM40.1257 12.6443H39.9957C39.6157 13.1243 38.8657 13.7944 38.3957 14.2644L37.1657 15.4844C36.9757 15.6744 36.8356 15.6944 36.8656 15.9844L38.9357 13.9543C39.0157 13.8743 39.0957 13.7844 39.1457 13.7444C39.4157 13.4344 40.0357 12.9543 40.1357 12.6443H40.1257ZM38.1857 18.1044C38.4557 18.0744 39.0657 17.3544 39.2857 17.1244L42.2557 14.1344C42.1357 14.0644 42.3156 14.0144 42.1156 14.1244L38.1857 18.1044ZM36.0657 20.0844H43.3757C43.3857 19.3144 43.3857 18.5443 43.3857 17.7743L43.4057 16.0844C43.4057 15.6844 43.4057 15.6944 43.2857 15.5944L43.1756 15.9944C43.0356 16.8244 42.8057 17.4243 42.2157 18.0543C40.1857 20.2143 36.2857 18.9144 36.2657 15.6044H36.0556V20.0944L36.0657 20.0844ZM46.7557 35.3644C47.4757 35.3644 47.8457 35.3043 48.3857 35.0443C49.2857 34.6043 49.8357 33.7244 49.9557 32.7144C50.0057 32.2444 49.9857 23.2043 49.9757 19.1443V16.8344C49.9757 16.8344 49.9757 16.8043 49.9757 16.7943C49.9757 16.7443 49.9557 16.6943 49.9457 16.6543L49.7657 15.8644L46.0657 10.8644C46.0057 10.7944 45.9756 10.7443 45.9256 10.6743C45.8456 10.5643 45.7557 10.4343 45.6657 10.3243C45.5057 10.1243 44.9256 10.2144 44.6156 10.2144H33.8157C33.0157 10.2144 32.2757 10.1543 31.6257 10.4343C30.3257 11.0143 29.8457 12.0444 29.8457 13.4744C29.8457 14.3544 29.7957 22.5044 29.8457 23.1344H31.1057C31.1557 22.7744 31.1156 14.3044 31.1156 13.5144C31.1156 12.5244 31.3457 11.8243 32.3857 11.5343C32.7257 11.4343 37.9757 11.4944 38.7757 11.4944C40.9057 11.4944 43.1057 11.4444 45.2257 11.4944C45.2957 12.8444 45.0057 14.4044 45.5257 15.3444C46.2257 16.6044 47.5057 16.4644 48.6057 16.4744L48.6657 19.3444V31.0443C48.7357 32.3943 48.6157 33.5843 47.5057 34.0243C44.0157 34.0443 40.5257 34.0644 37.0257 34.0844L37.0457 35.3544C37.3657 35.4144 45.7857 35.3744 46.7457 35.3744L46.7557 35.3644ZM34.5257 22.0743C34.0457 22.2143 34.0556 22.8443 34.4856 22.9543C34.7056 23.0143 42.6157 22.9744 43.7257 22.9744C44.1057 22.9744 44.9657 23.0244 45.2957 22.9744C45.7757 22.8944 45.7757 22.2243 45.3257 22.0844C45.1557 22.0344 38.3457 22.0643 37.6257 22.0643C37.1657 22.0643 34.7757 22.0143 34.5357 22.0743H34.5257ZM37.0457 25.4944C37.5057 25.5544 43.5257 25.5144 44.5357 25.5144C44.9557 25.5144 45.4257 25.5943 45.5957 25.2943C45.7857 24.9543 45.5557 24.6044 45.1857 24.6044C43.9157 24.6044 37.6957 24.5544 36.9457 24.6144C37.0257 24.9344 37.0357 25.1344 37.0457 25.4944ZM37.0457 30.5443C39.2057 30.5943 41.6457 30.5443 43.8557 30.5443C44.1257 30.5443 45.2956 30.6044 45.4856 30.4744C45.6656 30.3444 45.9457 29.6443 44.9957 29.6443C43.8357 29.6443 37.4956 29.5943 37.0556 29.6643V30.5443H37.0457ZM37.0757 28.0243C38.8857 28.1843 42.9557 28.0243 45.2557 28.0243C45.5757 27.9843 45.7556 27.6844 45.6156 27.3744C45.4756 27.0744 45.0956 27.1344 44.7457 27.1344C43.5056 27.1344 37.2357 27.0943 37.0357 27.1643C37.0457 27.3243 37.0357 27.9343 37.0857 28.0243H37.0757ZM28.9757 29.1843H29.3957V29.6044H28.9757V29.1843ZM29.5657 29.1843H29.9856V29.6044H29.5657V29.1843ZM30.1557 29.1843H30.5757V29.6044H30.1557V29.1843ZM31.4457 29.6044H31.0257V27.6144L30.7157 27.7644V27.3143L31.0257 27.1443H31.4557V29.6144L31.4457 29.6044ZM33.6057 29.6344C33.4857 29.6344 33.3757 29.6143 33.2857 29.5643C33.1957 29.5243 33.1357 29.4544 33.0857 29.3744C33.0357 29.2944 33.0157 29.1943 33.0157 29.0743V28.9243H33.4457V29.0643C33.4457 29.0643 33.4457 29.1243 33.4657 29.1443C33.4757 29.1643 33.4957 29.1843 33.5257 29.1943C33.5457 29.2043 33.5756 29.2144 33.6156 29.2144C33.6656 29.2144 33.7057 29.2043 33.7257 29.1743C33.7557 29.1443 33.7657 29.1043 33.7657 29.0543V28.7043C33.7657 28.6543 33.7557 28.6043 33.7257 28.5743C33.6957 28.5443 33.6557 28.5243 33.6057 28.5243H33.4757V28.1144H33.6057C33.6057 28.1144 33.6757 28.1043 33.6957 28.0743C33.7157 28.0443 33.7257 28.0043 33.7257 27.9543V27.6443C33.7257 27.6443 33.7157 27.5743 33.6957 27.5543C33.6757 27.5343 33.6457 27.5243 33.6057 27.5243C33.5757 27.5243 33.5557 27.5243 33.5357 27.5443C33.5157 27.5543 33.5056 27.5644 33.4957 27.5844C33.4957 27.6044 33.4856 27.6243 33.4856 27.6543V27.8243H33.0657V27.6543C33.0657 27.5443 33.0857 27.4444 33.1357 27.3644C33.1757 27.2844 33.2457 27.2243 33.3257 27.1743C33.4057 27.1343 33.5057 27.1144 33.6257 27.1144C33.7957 27.1144 33.9257 27.1644 34.0157 27.2544C34.1057 27.3444 34.1557 27.4843 34.1557 27.6543V27.9844C34.1557 28.0444 34.1357 28.1043 34.0957 28.1643C34.0557 28.2243 33.9956 28.2743 33.9256 28.3143C34.0156 28.3443 34.0857 28.3843 34.1257 28.4543C34.1757 28.5143 34.1957 28.5943 34.1957 28.6843V29.0643C34.1957 29.1843 34.1757 29.2844 34.1257 29.3744C34.0757 29.4644 34.0156 29.5243 33.9256 29.5743C33.8356 29.6143 33.7356 29.6443 33.6156 29.6443L33.6057 29.6344ZM32.2657 29.2244C32.3157 29.2244 32.3557 29.2143 32.3857 29.1843C32.4157 29.1543 32.4256 29.1143 32.4256 29.0543V28.7144C32.4256 28.6644 32.4157 28.6244 32.3857 28.5944C32.3557 28.5644 32.3157 28.5543 32.2657 28.5543C32.2157 28.5543 32.1757 28.5744 32.1457 28.6044C32.1157 28.6344 32.1057 28.6744 32.1057 28.7244V29.0643C32.1057 29.1243 32.1157 29.1643 32.1457 29.1943C32.1757 29.2243 32.2157 29.2344 32.2657 29.2344V29.2244ZM32.2657 29.6344C32.1457 29.6344 32.0457 29.6143 31.9557 29.5643C31.8657 29.5143 31.8057 29.4544 31.7557 29.3644C31.7057 29.2744 31.6857 29.1743 31.6857 29.0443V28.7244C31.6857 28.6244 31.6857 28.5343 31.7157 28.4543C31.7357 28.3743 31.7657 28.2843 31.7957 28.1943C31.7957 28.1843 31.8057 28.1643 31.8157 28.1543C31.8157 28.1443 31.8257 28.1244 31.8357 28.1144L32.2257 27.1443H32.6756L32.1957 28.3744L32.0657 28.3143C32.1057 28.2643 32.1457 28.2243 32.1957 28.1943C32.2457 28.1643 32.2957 28.1543 32.3557 28.1543C32.4557 28.1543 32.5456 28.1744 32.6156 28.2144C32.6856 28.2544 32.7457 28.3143 32.7857 28.4043C32.8257 28.4843 32.8457 28.5843 32.8457 28.6943V29.0543C32.8457 29.1743 32.8257 29.2844 32.7757 29.3644C32.7257 29.4544 32.6657 29.5143 32.5757 29.5643C32.4857 29.6143 32.3857 29.6344 32.2657 29.6344ZM23.9157 28.0343V26.2344C23.9157 25.7644 23.7457 24.8143 24.2957 24.8143H34.7657C35.0257 24.8143 35.1357 24.9744 35.1357 25.2344V29.4543C35.1357 29.9243 35.2256 30.3344 34.6156 30.3344H24.4557C23.9057 30.3344 23.9157 30.0243 23.9157 29.5243V28.0243V28.0343ZM25.6557 29.6643C25.4457 29.3943 25.2457 29.1244 25.0357 28.8544L24.4157 28.0543C24.3357 27.9443 24.2457 27.8344 24.1657 27.7144V27.0844C24.2857 27.1844 24.3457 27.3243 24.4557 27.4443L25.0556 28.2244C25.2156 28.4844 26.2857 29.8043 26.4757 30.1543H26.0257C25.9557 30.0743 25.8657 29.9343 25.6557 29.6643Z" fill="white"/>
</g>
</mask>
<g mask="url(#mask0_202_61)">
<g id="Group">
<path id="Vector_2" d="M50.0456 0.824341H-0.0644531V49.2544H50.0456V0.824341Z" fill="url(#paint0_linear_202_61)"/>
</g>
</g>
</g>
<defs>
<linearGradient id="paint0_linear_202_61" x1="3.46555" y1="35.9744" x2="51.2156" y2="11.7244" gradientUnits="userSpaceOnUse">
<stop stop-color="#312E6A"/>
<stop offset="1" stop-color="#57BDDD"/>
</linearGradient>
</defs>
</svg>
