<svg width="48" height="50" viewBox="0 0 48 50" fill="none" xmlns="http://www.w3.org/2000/svg">
<g id="Clip path group">
<mask id="mask0_202_69" style="mask-type:luminance" maskUnits="userSpaceOnUse" x="0" y="0" width="48" height="50">
<g id="clippath-149">
<path id="Vector" d="M1.92108 36.9631C2.02108 36.7831 2.18108 35.943 2.29108 35.633H9.89111L17.4411 35.623V34.6731H13.5811H3.8811C3.2711 34.6731 2.53109 34.6331 1.93109 34.6731V36.9631H1.92108ZM3.08112 41.4531C3.05112 41.3331 3.62108 39.2531 3.73108 38.8331C3.77108 38.6531 3.89111 38.1131 3.95111 37.9931H9.24109C9.24109 38.1031 8.43108 41.3131 8.36108 41.4531H3.07111H3.08112ZM1.32111 42.7931C1.25111 43.0831 0.721089 45.0631 0.741089 45.1731C3.36109 45.2031 6.04108 45.1531 8.67108 45.1731C8.76108 45.1731 8.86106 45.1931 8.90106 45.1531C8.99106 45.0331 8.8711 43.8531 8.9411 43.5731L10.3411 43.4531C10.4111 43.3931 10.5311 43.0831 10.5311 42.9831C10.4611 42.9231 10.3611 42.8131 10.3011 42.7431L9.85107 42.2131C9.77107 42.1131 9.70109 42.0331 9.62109 41.9531C9.66109 41.8431 10.4511 41.093 10.5511 41.003C10.8711 40.683 11.1811 40.3631 11.5011 40.0531C11.6011 40.0931 11.7011 40.193 11.7911 40.263L12.4711 40.8431C12.4711 40.8431 12.5611 40.9131 12.6211 40.9531C12.7311 40.9131 12.9711 40.823 13.0311 40.763L13.1511 39.3631L15.8311 39.3431C15.8611 39.5731 15.9111 40.593 15.9611 40.763C15.9711 40.803 16.3111 40.9231 16.3711 40.9531C16.4911 40.8831 17.0911 40.3431 17.2611 40.2031C17.5311 39.9831 17.4511 40.1031 17.5711 39.7031C17.6711 39.3531 18.4411 36.6431 18.4611 36.4631H2.92108C1.85108 40.6531 2.1911 39.3731 1.3111 42.7931H1.32111ZM4.1311 40.6131H7.72107C7.78107 40.5231 8.17109 38.9931 8.18109 38.8231H4.60107L4.14111 40.6131H4.1311ZM5.92108 7.56309C6.11108 7.56309 6.45112 7.42309 6.58112 7.31309C7.03112 6.94309 6.18112 6.44309 6.08112 5.31309C6.00112 4.29309 6.12111 3.53309 6.57111 2.68309C6.57111 2.67309 6.59106 2.65305 6.59106 2.64305C6.68106 2.46305 6.65106 2.5631 6.65106 2.3231C5.90106 1.8331 5.70111 1.87304 5.39111 2.88304C5.19111 3.54304 5.06106 3.81309 5.09106 4.81309C5.11106 5.73309 5.42107 6.84309 5.91107 7.56309H5.92108ZM7.97107 6.45311C7.90107 5.83311 7.4411 6.02308 7.5611 4.17308C7.5911 3.76308 7.86111 3.32303 7.82111 3.12303C7.77111 2.85303 7.72109 2.94309 7.49109 2.81309C7.22109 2.66309 7.40109 2.64312 6.99109 2.71311C6.93109 2.82311 6.85109 3.0731 6.80109 3.1931C6.69109 3.4531 6.50108 4.57311 6.54108 4.95311C6.60108 5.68311 6.81106 6.36307 7.21106 6.91307C7.43106 6.86307 7.80108 6.6031 7.98108 6.4431L7.97107 6.45311ZM4.65106 8.25303C5.05106 8.26303 5.09109 8.21314 5.24109 8.11314C5.86109 7.67314 4.73107 7.13309 4.60107 5.31309C4.44107 3.08309 5.27107 2.2031 5.41107 1.6931C5.24107 1.5131 4.91106 1.26312 4.65106 1.21312C4.41106 1.44312 4.3311 1.6431 4.1911 1.9431C3.3911 3.6831 3.36107 5.78306 4.22107 7.53306C4.25107 7.60306 4.38107 7.84306 4.41107 7.90306L4.65106 8.26304V8.25303ZM1.52112 9.8231C2.47112 9.8831 3.88106 9.8531 5.15106 9.8231H7.6911C8.0011 9.8831 8.13107 10.0631 8.35107 10.3331C8.58107 10.6031 8.73106 10.7631 8.96106 11.0731C9.40106 11.6531 9.31111 11.6231 9.82111 11.6031L9.89111 9.84312H10.4011L12.0911 9.83311C12.3311 9.83311 12.5311 9.63305 12.5311 9.39305V0.483135C12.5311 0.243135 12.3311 0.0430711 12.0911 0.0430711H10.6311C9.1711 0.0130711 6.8911 0.0230711 4.9411 0.0430711H0.811096C0.571096 0.0430711 0.371094 0.243135 0.371094 0.483135V9.39305C0.371094 9.63305 0.571096 9.83311 0.811096 9.83311H1.51111L1.52112 9.8231ZM42.2911 42.6031C42.5011 42.9031 42.2711 43.2831 42.5711 43.5731C43.4811 44.4231 44.7911 45.7931 45.7111 46.7131C46.3411 47.3431 46.5911 47.3331 47.2611 46.6631C47.9811 45.9431 47.5011 45.5631 47.0311 45.0931L44.5211 42.5831C43.7411 41.8031 44.0411 42.0131 43.2811 41.9231C42.5111 41.8231 43.1111 41.5931 43.3311 41.2131L43.7711 40.2831C43.9611 39.7931 44.0511 39.343 44.1211 38.763C44.1811 38.253 44.1411 37.5131 44.0211 37.0331C43.9611 36.7831 43.9111 36.5531 43.8311 36.3131C43.7511 36.0731 43.6511 35.853 43.5611 35.643C43.4111 35.773 42.5611 37.0431 42.3511 37.3231C42.1311 37.6331 42.2611 37.723 42.2611 38.143C42.2611 39.343 41.8111 40.2631 41.1611 40.9631C38.9811 43.2931 34.6611 42.1531 34.3611 38.4131C34.1911 36.3331 35.9811 34.353 38.0411 34.263C39.9411 34.183 40.7111 35.173 40.9711 35.253L42.0911 34.0931C42.1511 34.0231 42.1911 33.9731 42.2511 33.9231C41.7811 33.3931 40.9511 32.9731 40.2811 32.7131C40.0111 32.6131 39.7211 32.5531 39.4211 32.4731C38.1611 32.1731 36.7311 32.4931 35.8011 32.9331C31.4211 35.0131 31.3311 41.3431 35.7611 43.4731C37.3511 44.2331 39.3111 44.2931 40.9711 43.4231C41.3411 43.2231 41.6411 43.0431 41.9511 42.8031C42.0811 42.7031 42.1311 42.5831 42.3211 42.6031H42.2911ZM38.5611 38.4331L37.6211 37.5231C37.4711 37.3731 37.3111 37.2331 37.1711 37.0631C36.6511 36.3831 36.5311 36.6031 35.9911 37.4531C35.7711 37.8031 35.8111 38.1231 36.1011 38.4731L36.7611 39.2231C36.9911 39.5031 37.2111 39.7331 37.4311 39.9931C37.6411 40.2431 37.8811 40.523 38.0811 40.753C38.3911 41.103 38.5011 41.2831 39.0311 40.9931C39.3111 40.8431 39.5111 40.533 39.7011 40.263L41.4611 37.763C41.6611 37.473 41.8611 37.1831 42.0411 36.9331C42.2311 36.6631 42.4011 36.4231 42.6311 36.0831L44.3911 33.5731C44.5311 33.3731 44.9311 32.9831 44.9511 32.6731C44.7311 32.5931 44.5511 32.673 44.3511 32.763C43.7711 32.983 43.5711 33.253 43.0511 33.753L38.5511 38.4431L38.5611 38.4331ZM25.3311 30.6031C26.5611 30.6531 28.0011 30.5931 29.2811 30.6031H30.3411L30.3511 24.8531C30.1911 24.8931 29.8011 25.4031 29.6811 25.5431L25.9311 29.8631C25.7511 30.0731 25.4111 30.4231 25.3211 30.6031H25.3311ZM31.6311 24.7831V30.8031C31.6311 31.1431 31.7611 32.0931 30.9511 32.0931H25.3011C25.5111 42.0931 25.0111 45.763 25.4711 47.393C25.5511 47.553 25.6711 47.7231 25.8411 47.8631C26.0011 47.9931 26.1411 48.0631 26.3811 48.1131C26.7111 48.1731 40.4811 48.133 41.6811 48.133C42.2411 48.133 42.5911 47.8731 42.8111 47.4931C42.9211 47.3031 42.9811 47.0831 43.0211 46.8431C43.0811 46.5031 42.9511 46.4331 42.7811 46.2431L41.1211 44.4231L40.2911 44.7131C39.4911 44.9831 38.2811 45.0431 37.4711 44.9131C36.5011 44.7531 35.8811 44.5431 35.0911 44.0931C34.6811 43.8631 34.7011 43.753 34.3711 43.753H28.8911C28.4911 43.753 28.2611 43.8131 28.0111 43.5631C27.5811 43.1331 27.8611 42.2931 28.5411 42.2931C29.9111 42.2931 31.6711 42.2231 33.0211 42.2931C32.9911 42.2031 31.8711 40.573 31.8511 39.393C31.4911 39.393 28.4911 39.423 28.3111 39.373C27.6611 39.183 27.6511 38.1631 28.2611 37.9531C28.5811 37.8431 31.2211 38.0331 31.7511 37.9031C31.8511 37.0631 32.0011 36.343 32.3211 35.623L32.5911 35.0431C32.4611 34.9631 29.5311 35.013 29.1111 35.013C28.4911 35.013 28.0011 35.083 27.8411 34.503C27.7111 34.013 27.9811 33.5231 28.5411 33.5231H31.8111C32.3911 33.5231 33.1211 33.5631 33.6811 33.5231C33.9011 33.5031 33.9411 33.383 34.2611 33.133C34.4311 33.003 34.6011 32.8731 34.7911 32.7431C35.5111 32.2731 36.5111 31.8531 37.5211 31.7431C38.8311 31.6031 39.6311 31.7131 40.7511 32.1031C41.3511 32.3131 42.0711 32.7231 42.5211 33.1131C42.6711 33.2331 42.9011 33.453 43.0311 33.503V26.9631C43.0311 26.1931 43.0911 25.2331 42.1611 24.8431C41.7111 24.6531 33.0811 24.8131 31.6311 24.7931V24.7831ZM31.7111 17.2231C31.5111 16.9231 30.9811 16.603 30.6611 16.253C30.3311 15.893 30.1711 15.5131 29.9511 15.0931C29.7411 14.6931 29.2911 12.3231 29.2711 11.9231C28.9911 7.74308 29.8111 2.41314 25.2111 0.493144C23.8511 -0.0768556 19.0611 -0.0869045 18.0811 0.193096C13.3511 1.5431 13.3511 6.54311 13.3011 10.8331C13.2811 12.3431 13.0711 12.9231 12.8511 14.2731C12.7611 14.7931 12.5411 15.2531 12.2911 15.7231C11.6811 16.8531 10.4211 16.9031 10.8411 17.8231C11.0511 18.2731 11.3611 18.5431 11.7811 18.7831C13.6311 19.8731 14.3611 18.7831 14.1711 20.0231C13.9011 20.1231 13.6611 20.1131 13.3711 20.2031C12.9811 20.3231 13.1311 20.3131 12.7411 20.4931C9.68109 21.8831 8.91107 23.003 8.10107 26.003L6.35107 32.0531H6.58112C7.47112 32.0531 8.3611 32.0531 9.2511 32.0531H10.5511C10.5211 26.6431 9.99109 26.273 13.1811 26.263H28.0311L29.1111 25.0231C29.4011 24.6831 29.7311 24.1931 30.1911 24.0731C31.3611 23.9131 32.7011 23.9931 33.8911 23.9831C33.0511 22.2131 31.4811 21.1831 29.5611 20.3231C28.8111 19.9831 28.6311 20.3131 28.3111 19.5631C29.1211 19.2231 31.8311 19.1431 31.7311 17.2131L31.7111 17.2231ZM14.6511 42.7331C14.7811 42.7631 14.9311 42.7731 15.0811 42.8031C15.6011 42.9431 16.0511 43.2731 16.3411 43.7131C16.4611 43.9231 16.5611 44.1731 16.6611 44.4831C16.6911 44.6231 16.7011 44.7631 16.7011 44.9031C16.7011 45.1031 16.6711 45.2931 16.6211 45.4831H16.6411C16.4811 46.0431 16.1111 46.4731 15.7611 46.7131C14.7411 47.4031 13.2811 47.1231 12.6311 46.0331C12.3211 45.2931 12.2711 44.9231 12.4111 44.3431C12.6611 43.4131 13.5111 42.7231 14.5211 42.7231C14.5711 42.7231 14.6111 42.7231 14.6611 42.7231L14.6511 42.7331ZM13.8911 39.8631L13.7811 41.1631C13.6211 41.2531 13.2211 41.2931 12.6911 41.5731C12.6011 41.6231 12.5011 41.6931 12.4011 41.7331L12.2211 41.623H12.2111L11.3611 40.893C11.2611 40.923 10.5311 41.663 10.4811 41.753C10.5311 41.843 10.6111 41.923 10.6911 42.013C11.1111 42.543 11.2911 42.663 11.3111 42.763V42.8031C11.2911 42.9331 11.0511 43.1131 10.7811 44.1031L10.6811 44.1831L9.41107 44.2931V45.5231L10.7411 45.633C10.7811 45.703 10.8811 46.123 10.9911 46.383C11.0911 46.633 11.2011 46.8031 11.3311 47.0231L10.7111 47.7831C10.6411 47.8531 10.5311 47.9731 10.4811 48.0531C10.5211 48.1431 11.2711 48.8831 11.3311 48.9231C11.5211 48.8331 12.2111 48.1431 12.3811 48.0731C12.7111 48.2631 13.2911 48.583 13.7611 48.633C13.7911 48.853 13.8311 49.8631 13.8911 49.9531C13.9311 49.9831 13.8711 49.9531 13.9411 49.9731C14.0911 50.0031 15.0311 49.9731 15.0911 49.9731C15.1411 49.8731 15.1911 48.873 15.2211 48.643C16.2611 48.373 16.5311 48.0831 16.6411 48.0431C16.6911 48.0931 16.6811 48.1031 16.7611 48.1631C16.8911 48.2531 17.0011 48.3831 17.1211 48.4831C17.2911 48.6231 17.4411 48.7731 17.6311 48.9131C17.7311 48.8731 18.1611 48.4031 18.2911 48.2731C18.3611 48.1931 18.4511 48.1431 18.5011 48.0431C18.4911 48.0331 18.0611 47.5931 17.9611 47.4431L17.7711 47.1731C17.7211 47.1131 17.7211 47.1131 17.6611 47.0631C17.6811 46.9331 17.7611 46.8531 17.8311 46.7331C17.8811 46.6231 17.9411 46.503 17.9911 46.383C18.0611 46.223 18.1711 45.723 18.2411 45.633C18.4411 45.543 19.2611 45.573 19.5611 45.503L24.4611 45.513C24.4411 44.623 24.4611 43.7331 24.4811 42.8431C24.5411 39.2531 24.5611 35.6831 24.4811 32.0931L24.4611 31.3331C24.4611 30.3131 24.3911 30.4131 25.3111 29.3231L27.1511 27.2031C22.9111 27.1731 16.2711 27.263 13.9111 27.263C11.2311 27.263 11.4711 26.5831 11.5011 32.0331C12.1411 32.0331 12.7711 32.0331 13.4111 32.0331C13.8711 32.0331 14.3411 32.0331 14.8011 32.0331C15.1111 32.0331 15.4211 32.0331 15.7411 32.0331C16.1211 32.0331 16.5211 32.023 16.7811 32.373L16.8611 32.4731L16.9011 32.5931C16.9911 32.8531 17.0111 33.453 16.9311 33.873H18.2311L18.2111 35.6631H19.3411L19.2411 36.5431C19.2211 36.7431 19.1411 37.0031 19.0811 37.1931C18.9911 37.5331 18.8911 37.8831 18.8011 38.2231C18.6411 38.7831 18.4811 39.3531 18.3211 39.9131C18.1711 40.4331 18.1711 40.4631 17.7511 40.8131C17.7211 40.8431 17.6911 40.863 17.6511 40.893C17.5611 40.923 17.0011 41.4331 16.7311 41.6531L16.5911 41.7331C15.9811 41.3931 15.9511 41.3731 15.2911 41.1931C15.2511 41.1331 15.2211 41.0631 15.2011 40.9831V40.9431L15.1011 39.8431C14.8211 39.8131 13.9811 39.8331 13.9111 39.8431L13.8711 39.8631H13.8911ZM13.2811 45.3531C13.3711 45.6031 13.5611 45.8431 13.7411 45.9631C14.2511 46.3131 14.9711 46.2831 15.4211 45.8431C16.1611 45.1131 15.8211 43.883 14.8211 43.633C13.9111 43.373 12.8011 44.2231 13.2911 45.3431L13.2811 45.3531ZM0.601074 42.1931C0.861074 41.2531 1.10107 40.4631 1.10107 39.4831V35.7131C1.10107 35.1031 1.07107 34.4331 1.10107 33.8331H15.7311C15.8011 33.8331 16.1411 33.8531 16.1811 33.8031C16.2211 33.7331 16.2211 32.9631 16.1811 32.8631C16.1311 32.8031 13.4911 32.8331 13.4411 32.8331C12.7611 32.8331 5.43109 32.8631 5.12109 32.8331C4.98109 32.5231 4.78111 31.893 4.64111 31.513C4.61111 31.443 4.51111 31.0931 4.45111 31.0731H0.601074C0.551074 31.2531 0.591064 39.8431 0.591064 40.9631C0.591064 41.4331 0.591064 41.6931 0.591064 42.1931H0.601074Z" fill="white"/>
</g>
</mask>
<g mask="url(#mask0_202_69)">
<g id="Group">
<path id="Vector_2" d="M47.9711 -0.0969238H0.371094V50.0131H47.9711V-0.0969238Z" fill="url(#paint0_linear_202_69)"/>
</g>
</g>
</g>
<defs>
<linearGradient id="paint0_linear_202_69" x1="2.93109" y1="34.8231" x2="49.6311" y2="13.1531" gradientUnits="userSpaceOnUse">
<stop stop-color="#312E6A"/>
<stop offset="1" stop-color="#57BDDD"/>
</linearGradient>
</defs>
</svg>
