<svg width="50" height="50" viewBox="0 0 50 50" fill="none" xmlns="http://www.w3.org/2000/svg">
<g id="Clip path group">
<mask id="mask0_202_77" style="mask-type:luminance" maskUnits="userSpaceOnUse" x="0" y="0" width="50" height="50">
<g id="clippath-146">
<path id="Vector" d="M14.6559 22.7749C14.6559 22.2049 14.776 22.3149 15.356 22.3149H29.7259C30.4659 22.3149 30.426 22.255 30.426 22.985C30.426 23.705 30.546 23.725 29.796 23.725H15.2859C14.6059 23.725 14.6559 23.8649 14.6559 22.7749ZM3.23596 23.735C3.13596 23.425 3.11593 14.7949 3.20593 14.0649L8.91595 14.085L8.87597 23.725H3.23596V23.735ZM3.15594 37.6549C3.10594 35.5149 3.12593 25.385 3.20593 25.125C3.65593 25.015 8.49596 25.0149 8.92596 25.1349C9.03596 26.0949 8.99592 37.7649 8.88592 38.0649H3.42596C3.16596 38.0649 3.17595 38.0249 3.16595 37.6649L3.15594 37.6549ZM16.296 25.205C16.406 25.085 16.136 25.095 16.566 25.085H21.806C21.986 25.435 21.946 37.7549 21.816 38.0349C21.326 38.1349 17.946 38.0549 16.916 38.0649C16.836 38.0649 16.606 38.0749 16.556 38.0649C16.136 38.0249 16.3759 38.0649 16.2759 37.9349L16.296 25.1849V25.205ZM20.0359 10.495C19.1659 10.645 18.216 10.2949 17.556 10.7949C16.906 11.2949 17.046 12.0349 17.046 13.0149C17.046 14.0249 16.9059 14.8049 17.5859 15.2749C18.2359 15.7249 19.806 15.375 19.996 15.575C20.186 15.785 19.7859 17.4049 20.3259 18.0349C20.8359 18.6349 21.606 18.485 22.566 18.485C23.526 18.485 24.2959 18.625 24.7659 17.995C25.2759 17.325 24.826 16.315 25.056 15.575L25.3459 15.505C25.4359 15.505 25.6059 15.505 25.7059 15.505C27.8559 15.525 28.0059 15.355 28.0159 13.005C28.0159 11.995 28.1559 11.225 27.4659 10.745C26.8059 10.295 25.8659 10.625 25.0259 10.475C24.9859 9.65498 25.1959 8.53499 24.7259 7.98499C24.2159 7.37499 23.456 7.5249 22.496 7.5249C21.536 7.5249 20.796 7.3949 20.306 8.0249C19.886 8.5649 20.0659 9.69499 20.0359 10.485V10.495ZM24.546 30.4249C24.546 31.2849 24.376 33.0849 24.796 33.4149C25.006 33.5849 25.336 33.635 25.606 33.465C26.136 33.135 26.0659 30.025 25.7159 29.705C25.4959 29.505 24.546 29.2749 24.546 30.4249ZM19.1359 30.495V32.715C19.1359 33.845 20.5259 33.9549 20.5259 32.6449V30.4249C20.5259 29.2249 19.1359 29.165 19.1359 30.495ZM43.256 42.495C43.126 42.755 42.4459 43.355 42.1959 43.615C41.7359 44.075 41.836 44.195 40.566 44.085C39.826 44.025 39.856 43.3649 39.856 42.6649V38.3949C39.856 37.8349 39.7459 36.845 40.0359 36.495L41.1959 35.495C41.5659 35.135 41.886 34.885 41.916 34.115H43.4759C43.556 35.695 45.4159 36.0149 45.5359 36.9149C45.6159 37.5249 45.5359 38.675 45.5359 39.335C45.5359 40.445 45.6459 40.135 45.0959 40.705C44.9659 40.845 44.926 40.895 44.756 40.985C44.756 40.345 44.756 39.715 44.756 39.075C44.756 38.455 44.7859 37.9149 44.2659 37.6849C43.9659 37.5549 42.8659 37.615 42.4559 37.615C40.6159 37.615 40.626 37.615 40.626 39.495C40.626 42.885 40.366 42.455 43.246 42.485L43.256 42.495ZM36.0159 38.2749C36.9559 37.9349 38.056 37.8149 38.9759 38.3049C38.6659 38.6049 38.0559 38.705 37.5159 38.705C37.1459 38.705 36.2459 38.6549 36.0259 38.2749H36.0159ZM35.936 42.2749C35.906 41.3349 35.9659 40.185 35.9659 39.205C37.2559 39.495 37.4959 39.5249 38.8259 39.2649C38.5959 40.3749 36.986 41.9749 35.936 42.2749ZM33.176 43.6549V44.755C32.616 45.015 31.8059 44.9149 31.2659 44.6849C29.4459 43.9249 29.0059 41.745 30.2159 40.255C30.8059 39.535 32.2959 38.985 33.5359 39.575C34.4659 40.0149 35.246 41.055 35.106 42.465C34.816 42.625 34.3559 42.5849 34.0159 42.575C34.3059 40.315 31.996 39.795 30.996 40.995C30.156 41.995 30.686 43.4449 31.856 43.7749C32.516 43.9649 32.676 43.7449 33.176 43.6549ZM33.246 42.345C32.936 43.545 31.076 43.085 31.416 41.835C31.736 40.695 33.556 41.125 33.246 42.345ZM45.106 42.8049C44.596 43.0349 44.9259 43.7249 45.416 43.5149C45.796 43.3549 45.596 42.5749 45.106 42.8049ZM43.816 44.0649C43.406 44.2949 43.6659 44.9549 44.1459 44.7749C44.5859 44.6149 44.316 43.7849 43.816 44.0649ZM44.9659 45.105C44.5359 45.225 44.616 45.995 45.186 45.865C45.636 45.755 45.4859 44.965 44.9659 45.105ZM46.116 43.9249C46.016 43.9949 45.9859 43.9349 45.9459 44.1449C45.8759 44.4949 46.2159 44.7549 46.5259 44.5649C46.8959 44.3549 46.606 43.5749 46.116 43.9249ZM43.4559 46.615C43.4259 46.725 43.446 46.8349 43.496 46.9349C43.576 47.0849 43.8059 47.1749 44.0159 47.0649C44.7959 46.6349 43.7259 45.845 43.4559 46.615ZM42.6359 45.2849C42.1359 45.4949 42.3659 46.1949 42.9059 46.0149C43.3259 45.8749 43.0959 45.1049 42.6359 45.2849ZM46.2759 41.5549C46.1759 41.6949 46.046 41.8149 46.116 42.0549C46.176 42.2749 46.4059 42.3749 46.6459 42.2849C46.9159 42.1849 47.0659 41.4549 46.2759 41.5649V41.5549ZM47.3959 42.6349C46.9859 42.8249 47.2259 43.565 47.7259 43.345C48.1159 43.175 47.8859 42.4049 47.3959 42.6349ZM33.9659 48.865V43.365C35.1259 43.395 36.206 43.135 37.046 42.615C38.296 41.835 38.7559 40.925 39.0159 40.705C39.0259 41.785 39.0159 42.885 39.0159 43.965C39.0159 45.115 38.976 45.8249 38.436 46.6849C37.666 47.9249 36.0059 48.835 33.9659 48.855V48.865ZM32.8959 28.705C32.6559 28.815 32.5259 28.6249 32.4659 28.4249C32.4559 28.3949 32.466 28.065 32.116 28.005C31.526 27.905 31.4759 28.375 31.5759 28.855C31.6259 29.085 31.8559 29.335 32.0359 29.475C32.4259 29.775 33.036 29.7549 33.436 29.5149L33.556 29.4249C33.756 29.2649 33.936 29.0149 33.986 28.7649C34.146 27.9449 33.526 27.9349 33.356 28.0149C32.976 28.2049 33.1759 28.6349 32.8959 28.6849V28.705ZM41.486 28.5349C41.486 28.6049 41.5159 28.745 41.5259 28.825C41.5459 28.925 41.676 29.155 41.746 29.235C42.226 29.735 42.7359 29.9249 43.4059 29.5449C43.4459 29.5249 43.4059 29.5449 43.4559 29.5149C43.4559 29.5149 43.476 29.495 43.486 29.495L43.666 29.345C43.846 29.155 43.816 29.155 43.916 28.985C44.0359 28.775 44.0959 28.3149 43.8859 28.1349C43.8759 28.1249 43.7659 28.0349 43.7659 28.0249C43.6159 27.9249 43.2859 27.965 43.1359 28.225C43.0159 28.425 43.0959 28.815 42.6959 28.725C42.4059 28.665 42.5559 28.3649 42.3459 28.1349C42.0359 27.8049 41.456 28.0349 41.496 28.5349H41.486ZM36.176 19.5449V14.0549H41.876C41.936 14.5149 41.946 18.175 41.926 20.855C41.846 20.795 41.876 20.785 41.796 20.725C40.646 19.765 38.946 19.3849 37.506 19.3949C37.066 19.3949 36.616 19.4549 36.186 19.5449H36.176ZM27.3959 38.0549H26.0759C25.3959 38.0549 23.816 38.1349 23.246 38.0249C23.116 37.7449 23.076 25.425 23.256 25.095C23.816 25.015 27.0759 25.085 28.1459 25.075C28.4859 25.095 28.7959 25.0049 28.7759 25.1949V25.585H27.8459C27.7459 25.595 27.7259 25.6149 27.6559 25.6549C27.5459 25.7049 27.576 25.6849 27.506 25.7649C27.326 25.9749 27.3859 26.395 27.3859 26.705V38.0549H27.3959ZM8.51593 37.6849C8.37593 37.7749 8.00594 37.7849 7.84594 37.7949C7.32594 37.7649 7.10596 37.835 6.92596 37.725L3.84594 33.6649C3.46594 33.1749 3.37597 33.3049 3.43597 32.5649C3.44597 32.3849 3.33594 31.2949 3.46594 31.1549L6.06598 34.4349C6.66598 35.3049 7.94594 36.8049 8.52594 37.6749L8.51593 37.6849ZM8.49597 23.4349C8.35597 23.5249 7.98592 23.5349 7.82592 23.5449C7.30592 23.5149 7.08594 23.585 6.90594 23.475L3.82592 19.4149C3.44592 18.9249 3.35595 19.0549 3.41595 18.3149C3.43595 18.1349 3.31592 17.0449 3.44592 16.9049L6.04596 20.1849C6.64596 21.0549 7.92598 22.5549 8.50598 23.4249L8.49597 23.4349ZM5.36596 37.0649C5.09596 36.7149 4.84593 36.3849 4.58593 36.0449L3.79596 35.0349C3.67596 34.8749 3.53596 34.695 3.42596 34.505C3.31596 34.325 3.38596 33.975 3.42596 33.755C3.61596 33.875 3.70595 34.095 3.85595 34.255L4.61596 35.245C4.83596 35.605 6.42597 37.5549 6.43597 37.7749C5.76597 37.7749 6.03595 37.9349 5.35595 37.0649H5.36596ZM5.34594 22.8149C5.07594 22.4649 4.82598 22.1349 4.56598 21.7949L3.77594 20.7849C3.65594 20.6249 3.51594 20.4449 3.40594 20.2649C3.29594 20.0849 3.36594 19.7349 3.40594 19.5149C3.59594 19.6349 3.68593 19.8549 3.83593 20.0149L4.59594 21.005C4.81594 21.365 6.40595 23.3149 6.41595 23.5349C5.74595 23.5349 6.01593 23.695 5.33593 22.825L5.34594 22.8149ZM13.936 1.76489H13.256C10.606 1.76489 7.94596 1.76495 7.86596 1.82495C7.70596 2.06495 7.71594 3.865 7.84594 4.125C8.01594 4.305 27.016 4.20496 29.876 4.20496C30.836 4.20496 36.906 4.325 37.246 4.125C37.376 3.865 37.3859 2.06495 37.2259 1.82495C37.1959 1.80495 17.196 1.77489 13.926 1.76489H13.936ZM37.5259 0.394897H7.58593C7.28593 0.594897 6.70594 0.714995 6.46594 1.495C6.33594 1.915 6.39593 3.16494 6.39593 3.68494C6.39593 5.95494 8.11595 5.50489 8.91595 5.63489V8.79492C7.72595 9.02492 1.96594 8.62492 1.09594 8.91492C-0.0940558 9.31492 0.00597846 10.3749 0.00597846 11.8149C0.00597846 13.2749 0.305947 13.9549 1.78595 14.0549C1.85595 14.8349 1.80597 24.9649 1.80597 26.0349C1.80597 27.3449 1.87598 37.625 1.75598 37.995C0.595978 38.085 0.0259272 38.625 0.0159272 39.755C0.0159272 40.935 0.0459712 42.0849 1.18597 42.1849H27.416V43.505C27.416 43.905 27.3759 44.115 27.6559 44.325L27.7259 44.3849C27.7759 44.4149 28.0359 44.4149 28.0959 44.4149H29.616C29.616 44.4149 29.656 44.455 29.676 44.475C30.046 44.835 29.8359 44.6949 30.3259 45.0349C31.4659 45.8349 32.236 45.595 33.186 45.585V48.8949C33.186 49.5049 33.166 49.3949 33.566 49.6349C35.856 49.6349 38.2059 48.915 39.3459 46.705C39.6659 46.095 39.8259 45.4449 39.8259 44.6449C40.3159 44.7949 40.3459 44.825 40.9059 44.845C40.7159 45.105 40.3559 45.395 40.4559 45.975C40.5359 46.385 40.966 46.7149 41.176 46.9349C41.756 47.5049 42.296 48.045 42.866 48.615C43.826 49.585 44.306 49.035 44.986 48.355C45.646 47.695 44.9859 47.4549 44.7159 47.5549C44.3859 47.6749 44.146 48.245 43.796 48.345C43.556 48.275 43.266 47.895 43.116 47.745C42.806 47.445 41.2059 45.915 41.2259 45.745C41.3159 45.555 42.3159 44.5849 42.5359 44.3849L44.866 42.0349C44.996 41.8949 45.1059 41.8349 45.2159 41.6949C45.3859 41.4949 46.4359 40.445 46.5859 40.365C46.8559 40.385 47.136 40.7549 47.306 40.9249C47.606 41.2149 49.2059 42.7749 49.2159 42.9049C49.2359 43.1349 46.186 45.915 46.006 46.225C45.866 46.475 45.976 46.765 46.236 46.835C46.566 46.915 47.0959 46.2349 47.2659 46.0649L49.1359 44.1949C49.8059 43.5149 49.536 43.8749 49.996 43.1449V42.6849C49.836 42.4249 49.8559 42.3649 49.6459 42.1349L48.4559 40.9449V29.595C48.4559 29.285 48.496 26.1549 48.426 25.9349C48.436 25.7949 48.2959 25.5449 48.0759 25.5549H44.9059C44.4259 25.5549 44.4759 25.5149 44.2759 25.6549C44.0559 25.8149 44.046 26.2249 44.256 26.3849C44.286 26.4049 44.406 26.475 44.416 26.475C44.636 26.555 47.216 26.4149 47.486 26.5349C47.526 26.8049 47.506 36.285 47.496 39.965C47.176 39.655 46.976 39.5949 46.316 39.5549C46.316 38.5549 46.5059 36.7749 46.0159 36.0549C45.8159 35.7649 45.3159 35.4249 45.0259 35.1549C44.6159 34.7649 44.296 34.645 44.246 34.105C44.656 34.065 44.9459 34.085 44.9659 33.625C45.0559 31.895 44.9659 31.495 43.7059 31.475H43.4759H42.506C41.626 31.575 40.7659 31.2149 40.4459 32.0549C40.3359 32.3449 40.3859 33.0649 40.3859 33.4149C40.3859 34.1149 40.516 34.015 41.106 34.105C41.036 34.955 39.6359 35.465 39.2159 36.245C39.0159 36.615 39.0359 36.9249 39.0359 37.3849C38.5959 37.3849 37.496 36.885 36.066 37.365C34.756 37.805 35.2559 38.535 35.1359 39.855C34.9859 39.595 34.336 39.0949 33.986 38.9049C32.446 38.0849 30.806 38.4749 29.606 39.6949C29.506 39.8049 29.496 39.845 29.366 39.975L28.936 40.7849C28.736 41.5249 28.606 42.0849 28.806 42.9149C28.846 43.0949 28.916 43.275 28.986 43.455C28.706 43.455 28.406 43.4549 28.316 43.3849C28.266 42.7349 28.316 41.9449 28.316 41.2849C28.316 40.0049 28.2859 26.8549 28.3259 26.5349C28.5159 26.4549 30.036 26.495 30.376 26.495C30.746 26.495 31.1359 26.5449 31.3459 26.4049C31.4859 26.3149 31.5259 26.2249 31.5359 26.0349C31.5359 25.4449 30.9459 25.5349 30.4459 25.5349H30.186C30.196 25.2949 30.146 25.0749 30.176 25.0549C30.746 24.9349 31.216 25.1949 31.626 24.5149C31.926 24.1249 32.556 20.8949 29.986 20.8849H14.9659C13.6559 20.8949 13.236 21.6449 13.236 22.9449C13.236 25.3049 14.4259 24.745 14.7859 25.125C14.9359 25.285 14.8759 37.715 14.7859 37.985L10.2659 37.965V5.60498C10.7559 5.49498 34.246 5.49498 34.736 5.60498L34.7159 20.0149C33.7659 20.5049 32.966 21.2549 32.496 22.2749C32.456 22.4249 32.456 22.3649 32.426 22.4349C32.396 22.4949 32.396 22.555 32.376 22.615C32.246 22.925 32.3359 22.945 32.2759 23.225C32.1759 23.735 32.2259 24.505 32.2259 25.085C32.2259 25.715 32.2259 26.335 32.2259 26.965C32.2259 27.235 32.306 27.485 32.556 27.585C32.796 27.675 33.096 27.5549 33.166 27.2949C33.3359 26.6749 32.9859 23.515 33.3459 22.715L33.4659 22.4049C33.8559 21.2349 36.116 20.375 37.356 20.345C38.636 20.315 40.1859 20.655 41.2059 21.475C41.4859 21.695 41.696 21.955 41.866 22.235L42.056 22.625C42.366 23.925 42.1359 25.4749 42.2659 26.7749C42.2859 27.1749 42.366 27.625 42.866 27.575C43.096 27.515 43.1359 27.3949 43.1959 27.1749C43.2159 27.1049 43.246 26.7449 43.246 26.1549V26.0449C43.226 22.0849 43.1959 14.8549 43.2759 14.0249C44.6959 13.9249 45.056 13.285 45.056 11.855C45.056 10.425 45.1859 9.34491 44.0159 8.90491C43.1159 8.56491 37.3959 9.00489 36.1459 8.76489V5.60498C36.8959 5.48498 37.4759 5.68489 38.0159 5.26489C38.5059 4.88489 38.666 4.43491 38.666 3.65491C38.666 2.54491 38.8759 1.48493 38.1959 0.804932C37.9359 0.554932 37.7459 0.54499 37.4759 0.36499L37.5259 0.394897ZM41.5859 25.9249C41.5859 25.9249 41.6059 25.865 41.5159 25.745C41.3959 25.585 41.4259 25.665 41.3859 25.625C41.1559 25.585 41.386 25.5449 40.916 25.5449H34.4559C34.1959 25.5449 33.9959 25.545 33.8459 25.735C33.8359 25.755 33.746 25.8949 33.746 25.9049C33.656 26.1849 33.9159 26.5049 34.1359 26.5349H41.1359C41.3259 26.5349 41.316 26.5149 41.416 26.4349C41.466 26.3949 41.446 26.415 41.486 26.365C41.596 26.215 41.5959 26.1349 41.5959 25.9249H41.5859Z" fill="white"/>
</g>
</mask>
<g mask="url(#mask0_202_77)">
<g id="Group">
<path id="Vector_2" d="M49.9758 0.414917H-0.114258V49.6749H49.9758V0.414917Z" fill="url(#paint0_linear_202_77)"/>
</g>
</g>
</g>
<defs>
<linearGradient id="paint0_linear_202_77" x1="3.24574" y1="35.8549" x2="51.3558" y2="11.8749" gradientUnits="userSpaceOnUse">
<stop stop-color="#312E6A"/>
<stop offset="1" stop-color="#57BDDD"/>
</linearGradient>
</defs>
</svg>
