<svg width="46" height="50" viewBox="0 0 46 50" fill="none" xmlns="http://www.w3.org/2000/svg">
<g id="Clip path group">
<mask id="mask0_202_85" style="mask-type:luminance" maskUnits="userSpaceOnUse" x="0" y="0" width="46" height="50">
<g id="clippath-147">
<path id="Vector" d="M31.8902 30.1519C31.6902 29.8919 31.5103 29.6519 31.3203 29.3919L30.7402 28.6419C30.6702 28.5419 30.5803 28.4319 30.5103 28.3219V27.7319C30.6203 27.8219 30.6802 27.9619 30.7802 28.0719L31.3402 28.802C31.4902 29.042 32.4902 30.2819 32.6602 30.6119H32.2402C32.1802 30.5419 32.0902 30.4019 31.8902 30.1519ZM16.1402 3.05197C15.0002 4.31197 12.9502 8.0919 14.3602 8.4819C15.4702 8.7919 15.2102 7.60188 15.9302 5.96188C17.9802 1.25188 25.0003 -0.558068 29.0703 4.39193C30.2103 5.78193 31.2702 8.4519 30.4602 10.7319C29.9802 12.0719 28.9902 13.4919 28.1502 14.5719L23.0502 19.792C22.2102 19.412 18.6602 15.5919 17.9602 14.7319C16.5702 13.0119 16.3202 12.4719 15.4502 10.5119C14.9102 9.30193 12.4403 9.93195 16.0703 14.662C16.3703 15.052 16.6203 15.3119 16.8203 15.7519C15.2603 15.7319 13.8802 15.5819 13.8302 17.3619C13.7602 19.8219 14.1102 19.8819 15.7802 20.1219V24.2319C13.7802 24.3219 3.62024 24.0219 2.74024 24.3919C1.94024 24.7319 1.76023 25.3519 1.48023 26.3419C1.24023 27.1919 0.980234 28.032 0.730234 28.912C-0.319766 32.542 -0.46979 32.2019 2.58021 32.2619V45.8519C2.10021 46.1019 0.920229 45.9819 0.850229 47.6019C0.800229 48.8219 1.05022 49.6819 2.09022 49.9019C2.90022 50.0819 21.2702 49.9419 23.0402 49.9419C24.8102 49.9419 43.2302 50.0719 43.9702 49.8819C44.9502 49.6319 45.2002 48.8219 45.1502 47.6019C45.0902 45.9819 43.8902 46.1019 43.4302 45.8419V32.2419C46.4102 32.2719 46.3502 32.4519 45.2802 28.9619C45.0202 28.1019 44.7902 27.2319 44.5402 26.3819C44.2502 25.4019 44.1302 24.7319 43.2302 24.3719C42.4802 24.0719 31.9102 24.2019 30.2002 24.2319V20.0719C32.1302 20.0719 32.2102 19.1819 32.1502 17.3519C32.0902 15.5619 30.7202 15.7519 29.1602 15.7419C29.2702 15.4719 29.3002 15.4419 29.4802 15.2219C31.6902 12.4719 32.9503 9.74194 31.6903 6.15194C30.8603 3.78194 29.1402 1.98188 27.1202 0.961878C26.7702 0.791878 26.3602 0.601878 25.9602 0.461878C22.5602 -0.678122 18.5502 0.371956 16.1402 3.04196V3.05197ZM3.21021 25.7519C3.91021 25.6219 14.6303 25.6219 15.7503 25.7119L15.7802 30.7719L1.77021 30.792C1.76021 30.362 3.03021 26.1019 3.21021 25.7519ZM42.7702 25.7519C43.0302 26.2419 44.1303 30.0619 44.2503 30.7819L30.2102 30.802C30.1402 29.352 30.2102 27.8618 30.2002 26.4318C30.1802 25.5418 30.0302 25.7019 31.6202 25.7019C33.5202 25.7019 41.8702 25.6119 42.7702 25.7519ZM19.4702 48.4519L17.2402 48.5019V20.0819C18.3202 20.0819 19.7602 19.9919 20.7902 20.0819C21.6302 20.1519 22.2302 21.5119 23.0302 21.4819C23.7502 21.4519 24.4102 20.1719 25.1802 20.0919C25.6302 20.0419 28.3803 20.0619 28.7603 20.1419C28.6503 22.4819 28.7603 25.062 28.7603 27.422V38.4519C28.7603 39.0019 28.6602 39.8019 29.0202 40.0919C29.5102 40.4819 30.1002 40.152 30.2002 39.662C30.3002 39.182 30.2102 33.3519 30.2302 32.2619H41.9802V45.9419H30.2503C30.1603 45.0319 30.2302 43.862 30.2302 42.922C30.2302 41.272 29.0002 41.5619 28.8002 42.2619C28.6302 42.8619 28.7603 47.4519 28.7603 48.4519L26.5302 48.5019C26.5302 46.6419 26.5502 44.7818 26.5302 42.9319C26.5002 40.4519 24.4002 40.8219 23.0402 40.8219C18.7202 40.8219 19.4802 41.2719 19.4802 48.4519H19.4702ZM4.03022 32.302L4.39021 32.2519H4.2002H15.1303L15.7902 32.2719V45.912L4.04023 45.9319V32.292L4.03022 32.302ZM21.2102 2.80197C20.4602 3.13197 20.8302 3.25192 20.4302 3.63192C20.2802 3.78192 19.6902 4.0619 19.4702 4.2319C17.4002 5.8519 18.4002 5.96188 17.1602 6.71188C16.8002 6.93188 16.6802 7.21195 16.6702 7.78195C16.5802 12.2619 16.8402 10.902 17.5802 11.662C17.9502 12.042 18.1202 13.072 19.8702 14.162C20.5302 14.572 20.2902 14.272 20.6702 14.922C20.8902 15.302 21.1503 15.412 21.7503 15.422C26.1903 15.542 24.9002 15.2019 25.6202 14.4919C25.8302 14.2919 27.2402 13.7919 28.1402 12.2219C28.5002 11.6019 28.2102 11.792 28.9002 11.422C29.2802 11.222 29.3802 10.9319 29.4002 10.3319C29.5302 5.84187 29.1202 7.17187 28.4602 6.45187C28.0902 6.04187 27.9502 5.08186 26.1802 3.94186C25.5302 3.52186 25.7703 3.87185 25.3803 3.18185C25.1703 2.81185 24.8802 2.71187 24.3002 2.70187C23.6902 2.69187 21.6202 2.61196 21.2002 2.79196L21.2102 2.80197ZM18.1602 8.03195C22.4802 7.98195 22.1003 8.77189 22.0003 4.22189L24.1002 4.17196C24.0302 8.71196 23.5402 8.00194 27.9002 8.02194L27.9403 10.1019C23.4903 10.2019 24.0802 9.31186 24.1002 13.9419H22.0103C22.0903 9.29186 22.5203 10.2019 18.1903 10.1019L18.1702 8.02194L18.1602 8.03195ZM20.9403 43.1319C20.9403 42.1419 20.9402 42.2819 22.5502 42.2819C25.7902 42.2819 25.0603 41.2219 25.0603 48.4619L20.9502 48.4919V43.1219L20.9403 43.1319ZM21.2503 44.9919H21.7102V46.4319H21.2503V44.9919ZM11.2402 33.292H13.7503C13.8803 33.292 13.9902 33.4019 13.9902 33.5319V38.0319C13.9902 38.1619 13.8803 38.2719 13.7503 38.2719H11.2402C11.1102 38.2719 11.0003 38.1619 11.0003 38.0319V33.5319C11.0003 33.4019 11.1102 33.292 11.2402 33.292ZM37.5402 33.292H40.0502C40.1802 33.292 40.2902 33.4019 40.2902 33.5319V38.0319C40.2902 38.1619 40.1802 38.2719 40.0502 38.2719H37.5402C37.4102 38.2719 37.3002 38.1619 37.3002 38.0319V33.5319C37.3002 33.4019 37.4102 33.292 37.5402 33.292ZM24.3203 22.172H26.8302C26.9602 22.172 27.0703 22.282 27.0703 22.412V26.912C27.0703 27.042 26.9602 27.1519 26.8302 27.1519H24.3203C24.1903 27.1519 24.0802 27.042 24.0802 26.912V22.412C24.0802 22.282 24.1903 22.172 24.3203 22.172ZM11.4202 39.4619H13.9302C14.0602 39.4619 14.1702 39.5719 14.1702 39.7019V44.2019C14.1702 44.3319 14.0602 44.4419 13.9302 44.4419H11.4202C11.2902 44.4419 11.1802 44.3319 11.1802 44.2019V39.7019C11.1802 39.5719 11.2902 39.4619 11.4202 39.4619ZM37.7202 39.4619H40.2302C40.3602 39.4619 40.4702 39.5719 40.4702 39.7019V44.2019C40.4702 44.3319 40.3602 44.4419 40.2302 44.4419H37.7202C37.5902 44.4419 37.4802 44.3319 37.4802 44.2019V39.7019C37.4802 39.5719 37.5902 39.4619 37.7202 39.4619ZM24.5003 28.3419H27.0103C27.1403 28.3419 27.2503 28.4519 27.2503 28.5819V33.0819C27.2503 33.2119 27.1403 33.3219 27.0103 33.3219H24.5003C24.3703 33.3219 24.2603 33.2119 24.2603 33.0819V28.5819C24.2603 28.4519 24.3703 28.3419 24.5003 28.3419ZM24.5003 34.5219H27.0103C27.1403 34.5219 27.2503 34.6319 27.2503 34.7619V39.2619C27.2503 39.3919 27.1403 39.5019 27.0103 39.5019H24.5003C24.3703 39.5019 24.2603 39.3919 24.2603 39.2619V34.7619C24.2603 34.6319 24.3703 34.5219 24.5003 34.5219ZM5.98023 33.302H8.49024C8.62024 33.302 8.73023 33.412 8.73023 33.542V38.042C8.73023 38.172 8.62024 38.2819 8.49024 38.2819H5.98023C5.85023 38.2819 5.74024 38.172 5.74024 38.042V33.542C5.74024 33.412 5.85023 33.302 5.98023 33.302ZM32.2802 33.302H34.7902C34.9202 33.302 35.0302 33.412 35.0302 33.542V38.042C35.0302 38.172 34.9202 38.2819 34.7902 38.2819H32.2802C32.1502 38.2819 32.0402 38.172 32.0402 38.042V33.542C32.0402 33.412 32.1502 33.302 32.2802 33.302ZM19.0603 22.1818H21.5703C21.7003 22.1818 21.8103 22.292 21.8103 22.422V26.922C21.8103 27.052 21.7003 27.162 21.5703 27.162H19.0603C18.9303 27.162 18.8203 27.052 18.8203 26.922V22.422C18.8203 22.292 18.9303 22.1818 19.0603 22.1818ZM6.16023 39.4719H8.67024C8.80024 39.4719 8.91023 39.5819 8.91023 39.7119V44.2119C8.91023 44.3419 8.80024 44.4519 8.67024 44.4519H6.16023C6.03023 44.4519 5.92024 44.3419 5.92024 44.2119V39.7119C5.92024 39.5819 6.03023 39.4719 6.16023 39.4719ZM32.4602 39.4719H34.9702C35.1002 39.4719 35.2102 39.5819 35.2102 39.7119V44.2119C35.2102 44.3419 35.1002 44.4519 34.9702 44.4519H32.4602C32.3302 44.4519 32.2202 44.3419 32.2202 44.2119V39.7119C32.2202 39.5819 32.3302 39.4719 32.4602 39.4719ZM19.2402 28.3519H21.7503C21.8803 28.3519 21.9902 28.4619 21.9902 28.5919V33.0919C21.9902 33.2219 21.8803 33.3319 21.7503 33.3319H19.2402C19.1102 33.3319 19.0003 33.2219 19.0003 33.0919V28.5919C19.0003 28.4619 19.1102 28.3519 19.2402 28.3519ZM19.2402 34.5319H21.7503C21.8803 34.5319 21.9902 34.6419 21.9902 34.7719V39.2719C21.9902 39.4019 21.8803 39.5119 21.7503 39.5119H19.2402C19.1102 39.5119 19.0003 39.4019 19.0003 39.2719V34.7719C19.0003 34.6419 19.1102 34.5319 19.2402 34.5319ZM33.0202 30.6419L30.7603 27.672C30.6303 27.512 30.5503 27.4419 30.5003 27.3619V25.8519L32.4002 28.2519C32.8502 28.9019 33.7902 30.0019 34.2202 30.6519H33.0103L33.0202 30.6419Z" fill="white"/>
</g>
</mask>
<g mask="url(#mask0_202_85)">
<g id="Group">
<path id="Vector_2" d="M46.4002 -0.678101H-0.489746V50.0819H46.4002V-0.678101Z" fill="url(#paint0_linear_202_85)"/>
</g>
</g>
</g>
<defs>
<linearGradient id="paint0_linear_202_85" x1="2.17025" y1="34.0819" x2="48.0002" y2="13.4019" gradientUnits="userSpaceOnUse">
<stop stop-color="#312E6A"/>
<stop offset="1" stop-color="#57BDDD"/>
</linearGradient>
</defs>
</svg>
