<svg width="50" height="28" viewBox="0 0 50 28" fill="none" xmlns="http://www.w3.org/2000/svg">
<g id="Clip path group">
<mask id="mask0_202_93" style="mask-type:luminance" maskUnits="userSpaceOnUse" x="-1" y="0" width="52" height="28">
<g id="clippath-148">
<path id="Vector" d="M37.3807 15.077C37.3807 14.897 37.4007 14.867 37.4707 14.747C37.8907 14.667 39.1507 14.917 39.5107 15.037C40.6407 15.4069 41.3607 16.277 42.1607 17.047L43.3307 18.177C43.4307 18.287 43.5007 18.367 43.6207 18.477C43.7107 18.567 43.8607 18.6869 43.9207 18.7669C44.2407 19.1669 43.6307 19.177 43.3707 19.177H38.7407C37.8407 19.177 37.3707 19.277 37.3707 18.257V15.067L37.3807 15.077ZM48.2007 21.977C48.0507 21.787 47.9007 21.6769 47.9207 21.5369C48.8207 21.5169 49.2707 21.3869 49.4207 22.0269C49.4707 22.2469 49.5107 22.767 49.4607 22.987C49.1407 23.117 49.0007 22.987 48.8707 22.827L48.1907 21.977H48.2007ZM42.0307 25.9069C42.2107 27.1769 43.3307 28.097 44.5607 27.967C45.7607 27.837 46.7907 26.757 46.6507 25.437C46.5207 24.197 45.4907 23.197 44.0907 23.337C42.9307 23.457 41.8308 24.5669 42.0208 25.8969L42.0307 25.9069ZM16.7907 24.507L14.5307 21.5369C14.4007 21.3769 14.3208 21.307 14.2708 21.227V19.717L16.1707 22.117C16.6207 22.767 17.5607 23.8669 17.9907 24.5169H16.7807L16.7907 24.507ZM21.9007 14.297L24.1607 17.2669C24.2907 17.4269 24.3707 17.497 24.4207 17.577V19.087L22.5208 16.687C22.0708 16.037 21.1307 14.9369 20.7007 14.287H21.9107L21.9007 14.297ZM23.0307 14.757C23.2307 15.017 23.4107 15.2569 23.6007 15.5169L24.1807 16.2669C24.2507 16.3669 24.3407 16.477 24.4107 16.587V17.177C24.3007 17.087 24.2407 16.947 24.1407 16.837L23.5807 16.107C23.4307 15.867 22.4307 14.627 22.2607 14.297H22.6807C22.7407 14.367 22.8307 14.507 23.0307 14.757ZM0.530701 26.597H38.2007C38.5007 26.597 38.7407 26.837 38.7407 27.137V27.447C38.7407 27.747 38.5007 27.987 38.2007 27.987H0.530701C0.230701 27.987 -0.00927734 27.747 -0.00927734 27.447V27.137C-0.00927734 26.837 0.230701 26.597 0.530701 26.597ZM20.6107 18.597C20.2207 18.677 20.2708 19.0069 20.2708 19.2769C20.2708 19.4669 20.2707 19.577 20.3807 19.687C20.4607 19.767 20.6007 19.837 20.7607 19.807C21.1307 19.727 21.0907 19.347 21.0907 19.117C21.0907 18.957 21.0807 18.817 20.9707 18.717C20.8907 18.637 20.7707 18.567 20.6107 18.597ZM17.8207 18.597C17.4307 18.677 17.4807 19.0069 17.4807 19.2769C17.4807 19.4669 17.4807 19.577 17.5907 19.687C17.6707 19.767 17.8107 19.837 17.9707 19.807C18.3407 19.727 18.3007 19.347 18.3007 19.117C18.3007 18.957 18.2907 18.817 18.1807 18.717C18.1007 18.637 17.9807 18.567 17.8207 18.597ZM17.6207 1.79696C17.5107 1.72696 17.4607 1.71704 17.4007 1.62704H21.2807L20.8007 1.97701C20.6307 2.08701 19.4507 2.89697 19.3407 2.93697L17.6207 1.79696ZM15.6407 2.28695C15.7907 2.31695 16.4307 2.78704 16.5707 2.87704L18.8307 4.38705C19.1908 4.63705 19.5707 4.59702 19.9207 4.35702C20.0707 4.25702 20.2007 4.16697 20.3607 4.05697C20.6007 3.89697 22.9107 2.33694 23.0507 2.27694V6.04696H15.6407V2.28695ZM27.5107 16.367V17.007C27.7907 17.007 28.1707 17.007 28.4307 17.007H29.2708V16.827H28.4307H27.8007C27.7007 16.827 27.6407 16.787 27.6407 16.697C27.6407 16.597 27.7007 16.567 27.7907 16.557C27.8907 16.557 27.9907 16.557 28.0907 16.557C28.2207 16.557 28.3607 16.557 28.4907 16.557H29.1307H29.1407H29.2708V16.357H27.5208L27.5107 16.367ZM25.2307 12.747C21.9507 12.717 18.5407 12.747 15.2607 12.747C14.6507 12.747 14.0407 12.737 13.4407 12.747C13.1107 12.747 12.9607 12.867 12.8207 13.047C12.6507 13.267 12.6807 13.487 12.6807 13.807L12.6607 24.587H4.55072C4.50072 24.377 4.51072 21.2369 4.55072 20.9069C5.36072 20.8669 7.32073 20.9069 8.25073 20.9069C8.87073 20.9069 9.49071 20.9069 10.1007 20.9069H10.5107C10.8207 20.9069 11.1807 20.637 11.2107 20.227C11.2607 19.687 11.2107 18.937 11.2107 18.377V14.667C11.1507 13.997 11.3407 12.707 10.3607 12.747H7.86072C6.78072 12.747 5.62071 12.787 4.54071 12.747V10.5269H34.1907V12.757C32.3207 12.727 30.3907 12.757 28.5107 12.757C27.5407 12.757 27.5208 13.147 27.5208 13.997V16.107H29.2708V15.217C29.2708 15.017 29.3307 14.887 29.4407 14.807C29.5907 14.687 29.6907 14.697 29.9007 14.697H33.3607C33.5707 14.697 33.6708 14.747 33.7708 14.857C33.9108 15.017 33.8607 15.097 33.8907 15.307C34.1007 15.307 34.2207 15.307 34.3507 15.427C34.4807 15.547 34.5007 15.637 34.5007 15.857V18.1569C34.5007 18.3669 34.4507 18.477 34.3407 18.567C34.1907 18.687 34.0907 18.677 33.8807 18.677H30.4207C30.1607 18.677 29.9707 18.567 29.9107 18.327C29.8907 18.237 29.9107 18.157 29.8907 18.067C29.6807 18.067 29.5607 18.067 29.4307 17.947C29.3107 17.827 29.2807 17.7369 29.2807 17.5169V17.2669C29.2807 17.2669 29.2507 17.2669 29.2407 17.2669H28.9307H27.5307V19.597C27.5307 20.307 27.4607 20.897 28.4907 20.887C33.0607 20.867 29.8807 20.887 34.2007 20.887V24.587L26.0507 24.447C26.0507 20.927 26.0507 17.907 26.0507 14.677C26.0507 13.787 26.2607 12.737 25.2507 12.727L25.2307 12.747ZM20.1207 24.577C20.0707 24.497 20.0907 24.1269 20.0907 24.0269V14.617C20.0907 14.187 20.0507 14.237 20.2807 14.237H23.8107C24.4507 14.237 24.5307 14.167 24.5407 14.377C24.5407 14.467 24.5407 14.577 24.5407 14.677C24.5407 18.047 24.5407 20.797 24.5407 24.477C24.5407 24.617 24.5407 24.617 24.4007 24.617C24.3107 24.617 24.2007 24.617 24.1007 24.617C23.7207 24.617 20.2107 24.657 20.1107 24.597L20.1207 24.577ZM34.8907 3.09701H29.1207C29.1207 3.09701 29.0407 3.10702 29.0007 3.10702C28.5307 3.12702 28.0107 3.10702 27.5307 3.10702C26.5407 3.10702 25.5507 3.10702 24.5607 3.10702C24.4907 3.96702 24.5607 5.71701 24.5607 6.72701C24.5607 7.13701 24.3807 7.35702 24.1107 7.48702C23.8407 7.61702 22.2107 7.54696 21.7607 7.54696H16.9407C16.4907 7.54696 14.8707 7.61701 14.6007 7.47701C14.3407 7.34701 14.1607 7.127 14.1607 6.717C14.1607 6.027 14.2007 3.567 14.1607 3.087C13.2607 3.117 12.3007 3.087 11.3907 3.087C10.4807 3.087 3.25073 3.04702 3.06073 3.10702V6.02694C3.30073 6.08694 9.7007 6.04696 10.2807 6.04696C10.8907 6.04696 11.9407 5.88693 11.9607 6.76693C11.9807 7.70693 10.9607 7.53695 10.3107 7.53695C9.71073 7.53695 3.34073 7.49696 3.06073 7.54696C3.06073 7.76696 3.01075 8.88703 3.08075 8.99703C3.44075 9.36703 29.0607 9.03694 35.6807 9.02694V7.54696C34.9907 7.49696 34.1007 7.54696 33.3707 7.54696H28.6607C28.2707 7.54696 27.8607 7.55696 27.4807 7.54696C26.2607 7.22696 26.7107 5.83698 28.7307 6.06698C28.9307 6.02698 33.1507 6.06698 33.6907 6.06698C34.2807 6.06698 35.1207 6.11698 35.6907 6.06698V3.13705C35.4207 3.08705 35.1507 3.12702 34.9107 3.10702L34.8907 3.09701ZM36.0007 13.917C36.1307 13.727 36.5007 13.787 37.5707 13.837C38.3007 13.877 39.0607 13.977 39.7307 14.187C41.1707 14.647 41.6207 15.267 42.6507 16.297L45.2207 18.737C45.6707 19.067 46.0507 19.197 46.2807 19.377L48.4707 20.487C49.9507 21.237 49.8507 22.247 49.9407 24.047C50.0007 25.297 50.2407 25.4369 49.2407 25.7669C48.5807 25.9869 47.9207 26.217 47.1307 26.227C47.1607 25.577 47.2107 25.297 46.9707 24.677C46.8007 24.227 46.5007 23.857 46.2107 23.607C45.5907 23.057 44.5507 22.707 43.4607 23.057C42.6407 23.327 41.9007 24.087 41.6807 24.877C41.4107 25.827 41.7007 26.8969 41.5107 27.0169H41.3707C41.1207 26.9569 41.2107 26.297 40.9807 26.067C37.1707 26.047 40.4207 26.107 36.0107 26.107V13.917H36.0007ZM26.3407 1.62704C26.9407 1.62704 27.5407 1.62704 28.1307 1.62704H35.2708C35.6008 1.62704 35.9308 1.62704 36.2708 1.62704C37.4408 1.62704 37.1607 2.70701 37.1607 3.84701C37.1607 4.41701 37.2007 9.61696 37.1407 9.92696C37.0007 10.657 36.2407 10.5069 35.6807 10.5269C35.6407 10.8269 35.6607 17.147 35.6707 20.667V23.187C35.6707 23.567 35.6507 24.117 35.6707 24.417V26.107C35.3507 26.107 35.0507 26.097 34.9107 26.097C24.1107 26.117 13.3208 26.077 2.52075 26.097C2.29075 26.097 2.15074 26.1269 1.95074 26.0169C1.80074 25.9369 1.69074 25.817 1.63074 25.687C1.45074 25.327 1.59071 24.9669 1.85071 24.7669C2.11071 24.5569 2.59074 24.607 3.01074 24.607C3.07074 24.377 3.0307 18.487 3.0307 18.087V10.5269L1.82074 10.347C1.50074 10.087 1.56073 9.70701 1.56073 9.22701V3.69698C1.56073 3.26698 1.53073 2.73698 1.56073 2.31698C1.59073 1.91698 1.87071 1.63704 2.29071 1.62704C3.19071 1.59704 4.15073 1.62704 5.06073 1.62704C7.87073 1.62704 11.9907 1.56704 14.1407 1.62704C14.2807 1.07704 14.1507 0.457038 14.3607 0.377038C14.5207 -0.212962 20.7907 0.0770476 23.3507 0.137048C23.7907 0.137048 24.1107 0.0869842 24.3907 0.446984C24.6807 0.816984 24.4707 1.18704 24.5607 1.62704C25.1507 1.62704 25.7407 1.62703 26.3307 1.61703L26.3407 1.62704ZM14.1907 24.607C14.1107 24.427 14.1607 18.407 14.1607 17.357C14.1607 16.947 14.1207 14.437 14.1807 14.257C14.2307 14.257 18.2608 14.207 18.5208 14.257H18.5707C18.5707 14.257 18.6007 14.277 18.6107 14.347C18.6107 14.387 18.6107 14.417 18.6107 14.457V24.577C18.5707 24.667 18.5707 24.637 18.3207 24.627H17.1707C16.7007 24.627 14.4507 24.657 14.1907 24.627V24.607ZM30.4307 15.637C30.4707 15.697 31.6207 16.827 31.7307 16.937C31.8007 17.007 31.8707 17.0769 31.9407 17.1569C31.9807 17.1969 32.0107 17.2269 32.0507 17.2669C32.2107 17.4269 32.2907 17.3069 32.4407 17.1469C32.5107 17.0769 32.5807 17.007 32.6507 16.927L33.7307 15.847C33.7807 15.797 33.9007 15.687 33.9407 15.627H30.4307V15.637ZM31.2607 16.917C31.2607 16.917 31.1707 16.8169 31.1307 16.7769L30.7307 16.377C30.6707 16.317 30.2307 15.867 30.1907 15.847V18.087L31.0007 17.217C31.0507 17.167 31.2407 16.957 31.2607 16.917ZM34.1907 15.847L33.6407 16.3969C33.5707 16.4669 33.1207 16.907 33.1007 16.947L33.9107 17.837C33.9107 17.837 34.1507 18.117 34.1907 18.137V15.847ZM29.8807 16.587C29.8207 16.567 29.7407 16.587 29.6607 16.587H29.5707V15.327C29.5707 14.967 29.6207 15.0269 30.2007 15.0269H32.9507C33.1007 15.0269 33.2707 15.0269 33.4107 15.0269C33.5707 15.0269 33.5807 15.177 33.5707 15.327C33.3307 15.337 33.0507 15.327 32.8107 15.327H30.5107C30.2907 15.327 30.0907 15.327 29.9607 15.547C29.8507 15.727 29.8907 16.007 29.8907 16.237V16.587H29.8807ZM29.5807 16.847H29.7407C29.7407 16.847 29.8307 16.847 29.8807 16.847V17.7869C29.5107 17.7869 29.5807 17.747 29.5807 17.167V16.857V16.847ZM32.8707 17.167C32.7007 17.287 32.5007 17.6669 32.1707 17.6469C31.9707 17.6469 31.8807 17.527 31.7807 17.437C31.7307 17.387 31.5207 17.167 31.4807 17.137L30.7708 17.917C30.7008 17.987 30.3607 18.347 30.3407 18.387H33.9807C33.9807 18.387 33.7607 18.147 33.7107 18.087L32.8707 17.167ZM15.6807 24.057C15.4807 23.797 15.3007 23.557 15.1107 23.297L14.5307 22.547C14.4607 22.447 14.3707 22.337 14.3007 22.227V21.637C14.4107 21.727 14.4707 21.867 14.5707 21.967L15.1307 22.697C15.2807 22.937 16.2807 24.177 16.4507 24.507H16.0307C15.9707 24.437 15.8807 24.297 15.6807 24.047V24.057ZM44.0907 24.5169C44.7507 24.3069 45.3707 24.817 45.5107 25.377C45.8907 26.887 43.6107 27.447 43.2107 25.937C43.0207 25.227 43.4707 24.7169 44.0907 24.5169Z" fill="white"/>
</g>
</mask>
<g mask="url(#mask0_202_93)">
<g id="Group">
<path id="Vector_2" d="M50.231 -0.203003H0.000976562V28.1071H50.231V-0.203003Z" fill="url(#paint0_linear_202_93)"/>
</g>
</g>
</g>
<defs>
<linearGradient id="paint0_linear_202_93" x1="9.70097" y1="27.4771" x2="43.621" y2="-2.30292" gradientUnits="userSpaceOnUse">
<stop stop-color="#312E6A"/>
<stop offset="1" stop-color="#57BDDD"/>
</linearGradient>
</defs>
</svg>
