<svg width="50" height="50" viewBox="0 0 50 50" fill="none" xmlns="http://www.w3.org/2000/svg">
<g id="Clip path group">
<mask id="mask0_202_102" style="mask-type:luminance" maskUnits="userSpaceOnUse" x="0" y="0" width="50" height="50">
<g id="clippath-152">
<path id="Vector" d="M1.24023 4.29808L46.0702 4.34801C46.5002 4.34801 46.9402 4.34801 47.3702 4.34801V0.0180494C45.8402 0.0180494 44.3202 0.0180494 42.8102 0.0180494H8.22021C7.58021 0.0180494 7.43025 -0.0818773 7.01025 0.218123L1.24023 4.29808ZM4.55017 32.858V33.1881C4.55017 33.6381 4.55027 35.9781 4.53027 38.6481L6.02026 38.2081C6.17026 38.1281 6.3002 38.0881 6.4502 38.0181C6.5202 37.5881 6.53026 37.208 6.64026 36.7681C6.76026 36.298 6.88021 35.988 7.09021 35.598C7.09021 35.158 6.97017 34.4581 6.92017 34.0781C6.89017 33.8781 6.75017 33.568 6.67017 33.388C6.63017 33.298 6.59017 33.208 6.55017 33.108H5.90027C5.37027 33.108 4.92016 33.058 4.54016 32.848L4.55017 32.858ZM29.0702 28.628L29.1002 11.9581C30.3502 11.8881 31.7703 11.9481 33.0303 11.9581C34.3003 11.9581 33.8303 12.0481 35.1503 10.1481C36.5303 8.14805 36.0902 8.52806 37.4302 8.52806H47.3802V5.89805C29.5802 5.86805 4.9802 5.8381 4.5802 5.9481C4.2702 7.8481 4.3502 16.0481 4.4502 23.2881C4.8902 22.6281 5.39021 22.018 5.97021 21.388C6.91021 20.368 8.17025 19.438 9.51025 18.758C9.14025 18.048 9.25028 17.358 9.66028 16.768L9.50024 16.5881L9.46021 16.5281C9.46021 16.5281 9.45019 16.508 9.44019 16.498C8.45019 15.158 8.7702 13.328 9.8302 12.138C10.5002 11.388 11.6002 11.2681 12.3802 11.7881C12.6002 11.0481 13.1202 10.1981 13.8202 9.83812C15.1602 9.16812 16.6602 10.1981 16.6202 11.6481C16.7902 11.5281 16.9703 11.428 17.1603 11.368C18.2903 11.028 19.4803 11.7281 19.6503 12.9081C19.7303 13.4781 19.6102 13.918 19.3102 14.348C20.2402 15.518 20.3403 17.238 19.5203 18.498C19.7303 18.588 19.9303 18.6881 20.1403 18.7981C20.1403 16.7281 20.1403 14.4981 20.1403 11.9681C21.7203 11.8781 25.0102 11.9681 26.9402 11.9581C27.1002 11.9581 27.2802 11.9581 27.4402 11.9581L27.8402 12.018C28.0202 12.598 27.8903 16.878 27.8903 17.888V28.5881C28.2903 28.5881 28.6902 28.5881 29.0702 28.6481V28.628ZM47.3802 46.348V15.5481L37.0902 15.5681C37.1302 17.1581 37.1703 31.4481 37.0303 31.8081H32.9902L33.0402 32.9481L33.6302 32.998V34.9181L34.4103 34.858V32.9581L37.0902 32.978V35.3281H29.0502V31.9681C28.6902 32.1681 28.2902 32.3181 27.8702 32.4181V35.3381H20.5203C20.3803 35.4881 20.2302 35.658 20.0802 35.868C19.7402 36.338 19.5102 36.7281 19.3802 37.2981C18.7902 39.8181 15.2703 41.3781 13.0303 42.0881C12.1703 42.3581 11.2503 42.7181 10.5203 43.2781L10.7502 43.5881L9.93018 44.5381C9.48018 45.0581 7.82027 45.978 7.15027 46.378C6.76027 46.618 6.04024 47.0881 5.37024 47.4581H47.3702V46.368L47.3802 46.348ZM34.9502 13.618C34.3602 14.488 34.4002 14.3381 34.8802 14.3381H47.3802V10.488H37.0702L34.9502 13.608V13.618ZM30.0103 31.2081L30.7603 34.8981L32.2202 34.868L31.1902 29.8981L30.0103 31.1981V31.2081ZM11.1702 14.768C11.1702 13.948 11.9002 13.7781 11.6202 13.3181C11.4602 13.0581 11.1302 13.1281 10.9802 13.2981C10.4502 13.8781 10.1202 14.9281 10.6802 15.6881C10.6802 15.6881 10.6902 15.7081 10.7002 15.7081L10.9802 16.0281C11.3402 16.4581 11.4202 17.128 11.1302 17.518C11.0102 17.678 10.7003 17.8581 10.8903 18.1781C11.3803 18.9981 12.9302 16.9981 11.4802 15.4381C11.3102 15.2581 11.1503 15.118 11.1603 14.768H11.1702ZM14.3302 19.1581C13.2302 19.3381 13.3602 19.2081 12.0802 19.5381C10.2102 20.0281 8.28023 21.2781 7.11023 22.5481C6.19023 23.5481 5.54028 24.4181 4.91028 25.6881C4.61028 26.2981 4.36026 26.8881 4.14026 27.5681C4.02026 27.9581 3.61026 29.368 3.64026 29.728C6.78026 29.668 10.0102 29.728 13.2102 29.728C16.4102 29.728 19.6602 29.728 22.8802 29.728C22.9202 29.178 22.2502 27.0081 22.0602 26.4481C21.6602 25.2581 21.0402 23.9881 20.3102 23.0481C19.5202 22.0381 18.7102 21.308 17.5702 20.628C17.4102 20.538 16.3602 19.9681 16.2402 19.9481C16.5102 19.9481 17.1802 20.1981 17.4402 20.3081C19.0802 20.9881 20.0702 21.7681 21.2502 23.0381C22.5402 24.4281 23.6302 26.5581 24.1802 28.4381C24.2902 28.7981 24.4302 29.3781 24.5702 29.7081H25.9202C25.9402 29.3181 25.4902 27.758 25.3502 27.368C24.8102 25.878 24.1602 24.6681 23.2102 23.4081C22.5102 22.5581 21.7002 21.738 20.8002 21.118C19.1802 19.998 17.6102 19.3481 15.2302 19.1581V18.5681L14.3202 18.5581V19.1481L14.3302 19.1581ZM14.6802 35.2681C14.0902 35.5781 13.9302 35.638 13.3202 35.728C12.9502 35.778 13.2002 35.8981 12.8002 35.7781C12.7102 35.7481 12.5902 35.748 12.4902 35.738C10.2102 35.508 10.4102 34.2981 9.69019 32.7981C9.53019 32.4581 9.40023 32.1881 8.99023 32.0581C8.55023 31.9181 8.26018 31.9881 7.81018 32.0381C7.82018 32.4481 8.38022 33.278 8.48022 34.008C8.88022 37.028 8.57017 35.7081 8.17017 37.2781C8.07017 37.6781 8.07024 37.9981 8.00024 38.3981C7.82024 39.5281 7.03021 39.488 6.72021 39.738C6.85021 40.588 7.95016 42.438 8.79016 42.868L9.40027 42.3081C10.3003 41.5381 11.4402 41.0681 12.5902 40.7081C14.2102 40.1981 17.4803 38.8481 17.9003 37.0481C18.1003 36.1981 18.4402 35.6281 18.8602 35.0481C19.6302 33.9981 20.1803 33.658 21.2803 32.998C21.5303 32.848 22.0503 32.648 22.2603 32.478C21.8703 31.098 18.7902 32.8681 18.2502 33.1481C17.0402 33.7881 15.9502 34.6081 14.6802 35.2681ZM0.700195 30.2881C1.5702 31.2181 3.5902 31.218 5.0802 31.258C5.3302 31.568 5.11018 31.6781 5.93018 31.6781H19.7302C20.0602 31.6781 23.8802 31.728 24.0902 31.638C24.2702 31.558 24.3003 31.428 24.3903 31.268C25.6503 31.188 27.9202 31.3281 28.8702 30.2881C28.4102 30.2181 27.6602 30.248 27.1702 30.248H2.43018C1.95018 30.248 1.1502 30.2181 0.700195 30.2881ZM3.87024 46.5781C4.11024 46.5481 6.00024 45.368 6.37024 45.138C6.75024 44.908 8.62027 43.798 8.78027 43.608C8.63027 43.408 8.26027 43.0781 8.03027 42.8181C7.44027 42.1381 6.48021 40.638 6.34021 39.848L4.39026 40.4181C3.93026 40.5481 4.01018 40.3981 3.81018 41.0881C3.43018 42.4481 3.37024 45.5881 3.87024 46.5581V46.5781ZM14.5002 17.5281C14.1802 17.5581 14.0602 17.5581 13.8002 17.6681C13.1402 17.9281 13.8703 18.4181 15.1603 18.2981C16.6603 18.1481 16.1202 17.3981 14.5002 17.5381V17.5281ZM14.5303 11.3381C14.1703 11.5181 13.2202 13.0081 14.2502 14.0581C14.7502 14.5681 14.9102 15.2981 14.4402 15.7881C13.9802 16.2681 14.4602 16.658 14.8202 16.488C15.1602 16.328 15.4802 15.6881 15.5002 15.2081C15.5702 13.4581 14.0902 13.628 14.7102 12.378C14.8002 12.188 15.0702 11.908 15.0902 11.738C15.1202 11.448 14.8502 11.1881 14.5502 11.3381H14.5303ZM16.8202 14.5581C16.8202 15.7081 17.7603 15.668 17.7603 16.748C17.7603 17.408 17.2602 17.4581 17.2902 17.8181C17.3202 18.1181 17.7702 18.4281 18.2002 17.7881C18.6902 17.0781 18.6302 16.058 18.0702 15.388C17.7402 14.998 17.2902 14.6981 17.8702 13.7881C17.9702 13.6281 18.1502 13.528 18.1102 13.238C18.0802 13.028 17.8602 12.8881 17.6102 12.9581C17.2802 13.0581 16.8102 14.0281 16.8102 14.5481L16.8202 14.5581ZM24.2102 16.098V13.2181H23.8702V16.0781C23.8702 16.0781 23.7802 16.108 23.7102 16.118C23.2202 16.228 22.9203 16.9581 22.4103 17.7081C22.2203 17.9881 21.7103 18.598 21.7703 18.878L23.4902 18.9081C23.6002 19.2181 23.5802 19.468 23.9902 19.478C24.4202 19.478 24.4102 19.2081 24.5602 18.9181L26.3002 18.8981C26.2802 18.6981 25.5402 17.628 25.3602 17.348C25.1902 17.088 25.0502 16.8581 24.8702 16.5681C24.5002 15.9581 24.6402 16.248 24.2202 16.108L24.2102 16.098ZM33.3402 13.8081V13.2181H33.0002V16.118C32.9102 16.078 32.7703 16.0381 32.4103 16.5781C32.2003 16.8981 30.9303 18.678 30.9103 18.888C33.1703 18.888 32.5102 18.8081 32.8602 19.268C33.0602 19.538 33.4403 19.548 33.6503 19.228C33.7703 19.038 33.7502 18.918 33.9202 18.888H35.5103C35.4503 18.588 34.3802 16.9981 34.1002 16.5381C33.8302 16.0981 33.9302 16.098 33.3502 16.108C33.3502 15.898 33.3502 15.6781 33.3502 15.4681V14.738C33.3502 14.528 33.3502 14.308 33.3502 14.098C33.3502 14.018 33.3502 13.9081 33.3502 13.7981L33.3402 13.8081ZM49.3002 48.1481H1.73022V49.998H49.3002V48.1481ZM41.7603 40.9381L42.2302 41.5281C42.5002 41.9181 42.8602 42.388 43.2502 42.888V39.7881H41.7902C41.7802 40.1381 41.7703 40.5281 41.7603 40.9281V40.9381ZM40.8402 39.7781L40.9602 39.9281V39.7781H40.8402ZM40.9702 44.748C40.7102 44.408 40.4602 44.068 40.2002 43.728L39.1102 42.3281C38.9702 42.1481 38.8102 41.938 38.6802 41.728V40.628C38.8802 40.798 39.0002 41.058 39.1802 41.248L40.2302 42.618C40.3302 42.778 40.6102 43.148 40.9602 43.608V42.8181L39.1603 40.4481C38.9303 40.1381 38.7702 40.008 38.6802 39.868V37.0481L39.8202 38.488C40.2002 38.488 40.5702 38.4881 40.9702 38.4481V32.9681C40.2402 32.9181 39.1103 32.8981 38.3903 32.9681V38.3381C38.3903 40.6781 38.3103 44.2581 38.4003 46.3281C39.9403 46.4381 44.0202 46.348 46.1102 46.348C46.1102 35.308 46.1102 25.6281 46.1102 16.0581C44.9602 16.0581 39.0003 15.928 38.4003 16.108V31.0381C38.4003 31.7481 38.2302 31.7881 38.8802 31.7881H42.5002L42.4802 32.9381L41.7803 32.9581L41.8002 38.4681L42.4003 38.4481L42.9202 35.998C43.2602 34.068 43.8702 31.8481 44.1902 29.9681L44.4302 28.9281C44.4302 28.9281 44.4502 28.898 44.4502 28.878C44.4502 28.848 44.4602 28.8381 44.4702 28.8281C44.9202 28.9181 45.3302 29.0181 45.8002 29.1481C45.6502 29.9981 45.4203 30.8581 45.2703 31.6981C45.1203 32.5381 44.9402 33.4681 44.7402 34.2981C44.5502 35.0581 44.3302 36.088 44.2002 36.868C44.0602 37.718 43.7502 38.578 43.7502 39.478V43.5181C44.4602 44.4081 45.1902 45.328 45.6202 45.998H43.3702L43.3102 45.9281H43.2502V45.848L41.7603 43.888V44.6781C42.1903 45.2381 42.5702 45.758 42.7002 46.008H41.9103C41.9103 46.008 41.8303 45.9081 41.7703 45.8381V45.9381H40.9602V44.748H40.9702ZM39.8502 18.7881L41.6302 18.768C41.8202 19.008 41.7702 19.348 42.2002 19.358C42.4302 19.358 42.5002 19.3081 42.6002 19.1781C42.7602 18.9581 42.6403 19.0081 42.7703 18.7881H44.4902C44.4202 18.4381 44.0302 18.0181 43.8602 17.6481C43.0002 17.6481 42.1403 17.6481 41.2803 17.6481C40.6103 17.6481 40.6302 17.538 40.3602 17.998C40.1902 18.278 40.0102 18.4881 39.8602 18.7881H39.8502Z" fill="white"/>
</g>
</mask>
<g mask="url(#mask0_202_102)">
<g id="Group">
<path id="Vector_2" d="M49.2603 -0.0718994H0.680176V50.0081H49.2603V-0.0718994Z" fill="url(#paint0_linear_202_102)"/>
</g>
</g>
</g>
<defs>
<linearGradient id="paint0_linear_202_102" x1="3.49018" y1="35.2281" x2="51.0202" y2="12.538" gradientUnits="userSpaceOnUse">
<stop stop-color="#312E6A"/>
<stop offset="1" stop-color="#57BDDD"/>
</linearGradient>
</defs>
</svg>
