<svg width="50" height="44" viewBox="0 0 50 44" fill="none" xmlns="http://www.w3.org/2000/svg">
<g id="Clip path group">
<mask id="mask0_202_110" style="mask-type:luminance" maskUnits="userSpaceOnUse" x="0" y="0" width="50" height="44">
<g id="clippath-154">
<path id="Vector" d="M17.02 19.3H10.08L11.74 16.1901C12.06 15.6201 13.1899 13.36 13.4399 13.08H18.12L17.03 19.3H17.02ZM0 41.59H3.58997V29.0701H5.31995V41.59H42.79V43.39H0V41.59ZM18.86 2.87C18.36 3.45 18.11 4.28006 18.33 5.06006C18.49 5.65006 18.8099 5.99003 18.8199 6.03003C18.8199 6.08003 18.42 7.90001 18.42 8.01001C18.42 8.14001 18.5399 8.24998 18.6899 8.22998C18.7899 8.21998 20.05 7.48 20.24 7.37C20.34 7.31999 20.45 7.25007 20.55 7.20007C20.75 7.09007 20.66 7.13002 20.9 7.15002C21.73 7.24002 22.55 7.13006 23.24 6.69006C23.34 6.63006 23.44 6.55999 23.52 6.48999C24.65 5.55999 24.96 4.06996 23.87 2.82996C23.82 2.76996 23.77 2.72003 23.71 2.66003C23.66 2.62003 23.57 2.54001 23.55 2.51001C23.51 2.50001 23.48 2.47006 23.45 2.44006C23.41 2.41006 23.38 2.39999 23.36 2.35999C23.31 2.35999 23.22 2.27999 23.16 2.23999C22.27 1.73999 21.4 1.65003 20.39 1.91003C19.92 2.03003 19.2 2.48999 18.87 2.85999L18.86 2.87ZM21.53 3.69006C21.47 3.77006 21.44 3.85 21.38 3.87C21.33 3.83 21.26 3.70001 21.21 3.64001C20.72 3.04001 19.74 3.30996 19.62 4.07996C19.55 4.53996 19.74 4.93997 19.99 5.21997C20.24 5.49997 21.15 6.12 21.39 6.12C21.51 6.12 21.81 5.95001 21.91 5.88C22.19 5.72001 22.56 5.45997 22.78 5.21997C23.9 4.00997 22.41 2.55004 21.53 3.67004V3.69006ZM22.99 6.23999C22.39 6.63999 21.5 6.81 20.77 6.63C20.61 6.59 20.6 6.63006 20.48 6.69006C20.12 6.88006 19.83 7.06 19.48 7.25C19.4 7.29 19.03 7.51003 18.98 7.53003C18.99 7.40003 19.0399 7.25 19.0599 7.12L19.23 6.32007C19.26 6.20007 19.2799 6.05005 19.3099 5.93005C19.3299 5.85005 19.33 5.84002 19.27 5.77002C18.99 5.44002 18.81 5.04997 18.78 4.58997C18.68 2.95997 20.53 1.94999 22.1 2.35999C22.62 2.49999 23.11 2.76003 23.46 3.16003C23.95 3.72003 24.13 4.44002 23.88 5.15002C23.72 5.61002 23.39 5.96999 22.99 6.23999ZM12.0699 35.9501L8.08997 30.71C7.86997 30.42 7.72001 30.3 7.63 30.16V27.49L10.99 31.72C11.78 32.86 13.44 34.8101 14.2 35.9501H12.0699ZM10.08 35.14C9.72996 34.69 9.40995 34.2601 9.06995 33.8101L8.04004 32.49C7.91004 32.32 7.76 32.1201 7.63 31.9301V30.89C7.82 31.05 7.92999 31.29 8.10999 31.48L9.09998 32.77C9.35998 33.2 11.1301 35.3701 11.4301 35.9501H10.6899C10.5799 35.8201 10.4199 35.58 10.0699 35.14H10.08ZM34.67 23.9501C34.67 23.9501 34.65 23.8901 34.61 23.8201H34.0599C34.0799 23.7301 34.1401 23.61 34.1801 23.51C34.2301 23.41 34.2699 23.3001 34.3199 23.1901C34.3399 23.1401 34.44 22.91 34.47 22.89C34.52 22.86 34.58 22.87 34.59 22.79C34.61 22.67 34.5199 22.73 34.5699 22.61C34.6199 22.54 34.67 22.59 34.7 22.5C34.74 22.39 34.66 22.4301 34.7 22.3201C34.77 22.2901 34.81 22.32 34.85 22.25C34.91 22.15 34.82 22.18 34.89 22.09C34.95 22.05 35.08 22.1501 35.08 21.9401C35.15 21.9201 35.12 21.91 35.17 21.92C35.2 21.92 35.21 21.9501 35.28 21.9401C35.38 21.9201 35.3201 21.8301 35.4301 21.8201C35.5201 21.8101 35.52 21.91 35.63 21.85C35.73 21.8 35.66 21.77 35.86 21.8C36.39 21.88 38.54 22.39 38.67 22.41C38.71 22.32 38.7701 22.02 38.8 21.9L36.52 21.38C36.22 21.33 36.0101 21.27 35.6801 21.27C35.6101 21.26 35.63 21.16 35.52 21.15C35.41 21.15 35.42 21.22 35.39 21.29C35.28 21.29 35.2601 21.34 35.1801 21.29C35.1501 21.27 35.21 21.29 35.13 21.26C34.99 21.21 35.0099 21.37 34.9399 21.42C34.9399 21.42 34.85 21.47 34.84 21.47C34.74 21.52 34.5999 21.4 34.5599 21.55C34.5299 21.66 34.6 21.65 34.47 21.75C34.38 21.82 34.4199 21.75 34.3199 21.78C34.2699 21.8 34.23 21.84 34.24 21.9C34.25 22 34.3 21.93 34.24 22.04C34.19 22.13 34.21 22.1 34.12 22.13C34.07 22.15 34.03 22.19 34.03 22.25C34.03 22.33 34.0999 22.3 34.0699 22.4C34.0499 22.46 33.9799 22.46 33.9399 22.48C33.8599 22.67 34 22.5801 33.89 22.8201C33.84 22.9301 33.79 23.05 33.74 23.16C33.66 23.32 33.5199 23.7201 33.4399 23.8101C32.1399 23.8101 30.85 23.8201 29.55 23.8101C29.31 23.8101 28.1 23.7901 27.99 23.8201C27.86 23.9001 27.85 24.89 27.85 25.09C27.85 25.77 27.9499 26.35 28.0699 26.99C28.1399 27.35 28.27 27.7201 28.39 28.0701C28.44 28.2401 28.54 28.2 28.9 28.27C29.58 28.41 30.3 28.75 30.84 29.15C31.14 29.37 31.33 29.56 31.58 29.83C31.81 30.08 31.98 30.3901 32.12 30.6901C32.2 30.8601 32.25 31.03 32.29 31.23C32.31 31.35 32.33 31.4 32.34 31.53C32.34 31.6 32.36 31.81 32.38 31.85C32.73 31.96 32.93 32.37 33 32.73C33.08 33.09 32.96 33.7201 32.65 33.9501C32.67 34.0401 32.71 34.12 32.72 34.22C32.78 34.69 32.4 34.83 32.36 34.92C32.36 35.32 32.36 35.63 32.25 35.97C32.06 36.54 31.92 36.58 31.84 36.75C31.85 36.75 31.84 36.75 31.88 36.76C32.01 36.78 32.16 36.76 32.29 36.76H33.59C33.79 36.76 33.79 36.65 33.74 36.49C33.63 36.11 33.54 35.56 33.51 35.16C33.5 35.01 33.46 34.86 33.46 34.71C33.46 34.55 33.4401 34.39 33.4301 34.23C33.3701 33.42 33.3901 32.59 33.4301 31.78C33.5001 30.64 33.38 30.32 34.14 28.23C34.31 27.77 34.46 27.2901 34.55 26.8101C34.72 25.9701 34.89 24.7501 34.65 23.9401L34.67 23.9501ZM34.35 24.28C34.36 24.69 34.37 25.14 34.36 25.61L34.34 25.87C33.99 25.91 33.53 25.88 33.15 25.88C33.15 25.81 33.21 25.72 33.24 25.66C33.27 25.58 33.3 25.5201 33.34 25.4401C33.55 25.0001 33.71 24.59 33.91 24.14C34.05 24.12 34.2 24.14 34.34 24.14C34.34 24.17 34.34 24.22 34.35 24.28ZM31.88 31.89C31.94 31.53 31.71 30.92 31.54 30.61C31.26 30.09 29.93 29.1201 29.41 28.9301C28.98 28.7601 28.35 28.64 27.89 28.59C27.21 28.51 26.24 28.6401 25.67 28.8201C24.83 29.0901 23.9501 29.56 23.4301 30.3C23.1801 30.66 22.92 31.17 22.9 31.62C22.9 31.67 22.9 31.72 22.9 31.78C22.89 31.91 22.85 31.89 23.24 31.89H25.73C26.12 31.89 26.59 31.91 26.97 31.89C27.31 31.87 27.78 31.89 28.16 31.89H30.65C31.03 31.89 31.52 31.92 31.89 31.89H31.88ZM30.73 30.41C30.58 30.39 30.48 30.31 30.41 30.23C30.15 29.93 30.37 29.62 30.61 29.86C30.8 30.05 30.76 30.19 30.73 30.41ZM29.8 30.41C29.64 30.39 29.53 30.3 29.46 30.21C29.21 29.89 29.51 29.5801 29.75 29.9501C29.85 30.1001 29.83 30.23 29.8 30.41ZM30.54 31.23C30.44 31.23 30.29 31.13 30.21 31.04C30.14 30.95 30.05 30.74 30.16 30.64C30.32 30.5 30.66 30.76 30.54 31.23ZM26.83 33.83C27.68 33.83 28.52 33.83 29.37 33.83C30.21 33.83 31.07 33.84 31.91 33.83C32.23 33.83 32.49 33.5201 32.54 33.2001C32.61 32.7601 32.41 32.43 32.16 32.29C32.26 32.31 28.41 32.11 27.49 32.22C26.66 32.31 25.5199 33.67 25.1899 33.29C25.0699 33.15 25.07 33.06 25.23 32.97C25.17 32.87 24.75 32.6201 24.65 32.5701C24.29 32.3801 23.96 32.22 23.55 32.22C23.32 32.22 22.83 32.19 22.64 32.28C22.53 32.33 22.43 32.43 22.37 32.51C22.07 32.98 22.22 33.6201 22.72 33.8101C23.26 33.9201 25.7799 33.77 26.8099 33.83H26.83ZM22.9399 35.6801C23.0299 36.0701 23.21 36.4901 23.6 36.6901C23.77 36.7801 23.94 36.78 24.16 36.78C26.63 36.78 27.5699 36.78 30.1899 36.78C30.8199 36.78 31.15 36.8301 31.49 36.4401C31.72 36.1701 31.91 35.68 31.89 35.21C31.53 35.18 31.09 35.21 30.73 35.21H23.27C22.97 35.12 22.93 35.27 22.91 35.33C22.91 35.37 22.94 35.6501 22.95 35.6801H22.9399ZM22.83 34.03C23.49 34.13 23.3 34.4701 24.03 34.3201C24.48 34.2301 24.65 33.95 25.03 33.97C25.25 33.98 25.49 34.05 25.67 34.16C25.71 34.18 25.74 34.21 25.78 34.23C25.85 34.28 25.91 34.34 25.99 34.37C26.06 34.4 26.15 34.42 26.26 34.41C26.42 34.39 26.5 34.33 26.6 34.26C26.6 34.26 26.67 34.2101 26.71 34.1801C26.75 34.1501 26.8 34.13 26.86 34.1C26.95 34.06 27.04 34.03 27.14 34.01C27.24 33.99 27.3399 33.99 27.4399 34C27.5399 34 27.64 34.0301 27.74 34.0601C27.84 34.0901 27.93 34.1401 28.02 34.1901C28.06 34.2101 28.08 34.23 28.1 34.24C28.19 34.3 28.26 34.35 28.34 34.37C28.42 34.4 28.52 34.4 28.66 34.37C28.71 34.37 28.76 34.3401 28.8 34.3201C28.84 34.3001 28.88 34.27 28.91 34.25L28.9399 34.23C29.0299 34.17 29.13 34.12 29.23 34.08C29.33 34.04 29.43 34.01 29.53 34C29.63 33.99 29.73 33.98 29.84 34C29.94 34.01 30.04 34.04 30.14 34.08C30.2 34.1 30.25 34.13 30.29 34.16C30.33 34.19 30.37 34.21 30.41 34.24C30.46 34.28 30.5099 34.31 30.5699 34.34C30.6299 34.37 30.7 34.39 30.78 34.4C31.01 34.43 31.15 34.34 31.29 34.24C31.29 34.24 31.39 34.17 31.45 34.14C31.48 34.12 31.51 34.11 31.54 34.09C31.57 34.08 31.6 34.0701 31.63 34.0601C31.66 34.0501 31.7 34.04 31.73 34.03C31.77 34.03 31.81 34.02 31.85 34.01C31.94 34 32.0099 34 32.0699 34.01C32.1399 34.02 32.19 34.05 32.23 34.09C32.25 34.11 32.27 34.13 32.28 34.15C32.29 34.17 32.2999 34.2 32.3099 34.22C32.3099 34.24 32.3099 34.27 32.3099 34.29C32.3099 34.31 32.3099 34.34 32.3099 34.36C32.2999 34.41 32.27 34.46 32.24 34.5C32.21 34.54 32.17 34.57 32.12 34.59C32.09 34.6 32.06 34.61 32.03 34.62C32 34.62 31.97 34.62 31.95 34.62C31.92 34.62 31.89 34.62 31.85 34.63C31.82 34.63 31.78 34.65 31.74 34.67C31.68 34.7 31.63 34.73 31.58 34.77C31.58 34.77 31.4901 34.84 31.4301 34.87C31.3701 34.91 31.3 34.93 31.23 34.96C31.16 34.98 31.09 35 31.02 35.01C30.95 35.01 30.87 35.02 30.79 35.01C30.71 35.01 30.6399 35 30.5599 34.98C30.4699 34.96 30.3899 34.93 30.3199 34.9C30.2499 34.87 30.19 34.83 30.13 34.79C30.06 34.74 29.98 34.69 29.89 34.65C29.87 34.64 29.84 34.63 29.8 34.63C29.76 34.63 29.7299 34.62 29.6899 34.62C29.6499 34.62 29.6099 34.62 29.5699 34.62C29.4199 34.64 29.38 34.64 29.24 34.74C29.05 34.87 28.82 35.02 28.35 34.99C28.09 34.97 27.94 34.86 27.78 34.76C27.69 34.7 27.6 34.63 27.48 34.61C27.42 34.6 27.35 34.6 27.26 34.6C27.09 34.6 26.98 34.68 26.86 34.76C26.7 34.87 26.52 34.99 26.15 34.99C25.77 34.99 25.59 34.86 25.42 34.75C25.31 34.67 25.2099 34.6 25.0599 34.59C24.6699 34.57 24.42 34.98 23.79 35C23.55 35.02 23.11 34.87 22.89 34.78C22.7 34.7 22.56 34.62 22.47 34.52C22.41 34.45 22.38 34.3801 22.37 34.3201C22.37 34.2701 22.37 34.22 22.39 34.17C22.41 34.13 22.45 34.0901 22.51 34.0701C22.58 34.0401 22.6899 34.02 22.8199 34.04L22.83 34.03ZM33.33 24.14C33.32 24.23 32.7701 25.46 32.6801 25.67C32.6601 25.72 32.62 25.83 32.58 25.88C32.35 25.92 31.76 25.88 31.49 25.88C31.11 25.88 28.41 25.9 28.28 25.88C28.19 25.54 28.24 24.5 28.28 24.14C30 24.14 31.5199 24.14 33.3199 24.14H33.33ZM41.78 25.08C41.86 24.87 42.17 24.64 42.5 24.78C42.77 24.9 42.83 25.13 42.83 25.49C42.82 28.95 42.83 32.44 42.83 37.85L44.75 39.4V25.09C44.75 24.31 44.61 24.11 44.37 23.35L42.58 17.64C42.54 17.51 42.5 17.37 42.45 17.25C42.4 17.11 42.3899 16.99 42.3099 16.86C42.2499 16.97 42 17.8801 41.95 18.0601C41.9 18.2701 41.84 18.44 41.78 18.66L40.9301 21.65C40.8201 22.07 40.1 24.3601 40.1 24.6901V39.3101C40.18 39.2801 40.27 39.19 40.33 39.14L41.73 37.96C41.88 36.33 41.59 26.54 41.78 25.08ZM21.58 14.28V14.39C23.17 14.36 24.77 14.39 26.34 14.39H34.7C36.02 14.39 35.6099 14.57 36.4399 13.74L38.23 11.9501H21.59V14.28H21.58ZM42.38 38.88C42.25 38.93 42.1 39.09 42.01 39.16C41.89 39.25 41.06 39.89 41.04 40H43.6899C43.6899 39.93 43.69 39.97 43.65 39.92L42.38 38.88ZM46.01 13.84H49.6899C49.7899 13.84 49.89 13.84 50 13.84V7.20996H46.01V8.52002C45.82 8.52002 45.63 8.52002 45.45 8.52002H37.28C36.63 8.52002 35.91 8.46003 35.35 8.66003C34.84 8.84003 34.46 9.10999 34 9.37C33.76 9.5 33.58 9.60999 33.36 9.73999C32.91 10.01 32.2599 10.35 31.8199 10.63C31.7499 10.68 31.65 10.74 31.58 10.79C31.62 10.82 32.23 10.83 32.26 10.83H38.62C38.88 10.83 39.51 10.79 39.72 10.86C39.99 10.96 40.2 11.29 40.04 11.6C39.95 11.77 39.1 12.58 38.91 12.78L37.1899 14.5C36.2599 15.1 34.75 17.42 37.24 17.75C37.64 17.77 37.89 17.68 38.15 17.51C38.7 17.13 39.55 16.42 40.11 16C40.33 15.84 40.49 15.69 40.75 15.5C40.86 15.41 40.97 15.33 41.08 15.24C42.37 14.19 41.7901 14.9101 43.3 14.7001C43.87 14.6201 44.47 14.1801 44.73 13.8201C45.06 13.3501 45.3899 12.94 45.7 12.49C45.83 12.31 45.93 12.18 46.01 12.1V13.84ZM41.25 16.51C41.19 16.51 40.03 17.43 39.95 17.49C39.82 17.6 39.68 17.71 39.52 17.83C38.97 18.22 38.42 18.84 37.47 18.85C36.45 18.85 35.79 18.42 35.37 17.88C34.48 16.71 35.02 15.61 34.99 15.5C31.13 15.5 27.43 15.47 23.71 15.47L22.41 19.34C22.03 20.56 21.51 21.94 21.12 23.21C20.96 23.73 20.76 24.1001 20.76 24.5701C20.76 25.4501 20.72 39.78 20.78 40C21.52 40.03 22.3199 40 23.0699 40H25.34C25.84 40 28.41 40.03 28.78 40C29.18 39.97 29.48 40 29.89 40C31.42 40 32.94 40 34.47 40C35.98 40 37.52 39.97 39.03 40C39.06 35.16 39.03 30.3001 39.03 25.4501C39.03 24.8701 38.99 24.49 39.15 23.98L39.87 21.47C40.01 20.92 41.3 16.61 41.27 16.5L41.25 16.51ZM19.3 25.75C18.88 25.43 18.5 25.0001 18.21 24.4301C17.92 23.8701 17.2 23.7201 16.77 24.1901C16.49 24.5001 16.56 24.75 15.91 25.41C14.2 27.16 11.38 26.64 10.28 24.64C10.14 24.38 10.0699 24.17 9.81995 24.03C9.57995 23.89 9.13002 23.9 8.90002 24.05C8.42002 24.37 8.41005 25.42 6.80005 26.16C1.39005 27.4 1.96005 21.42 1.80005 21.11C5.43005 21.11 12.57 21.11 20.27 21.11C20.52 20.38 20.78 19.65 21.01 18.91V18.88L22.13 15.4401H20.26L20.36 11.28L16.0699 11.3V9.52002H26.76V10.48H28.55V9.52002H30.88C30.93 9.48002 30.98 9.45004 31.04 9.42004C31.55 9.08004 32.11 8.79999 32.64 8.48999C32.86 8.35999 33.08 8.22999 33.3 8.10999C33.51 7.98999 33.71 7.87001 33.9 7.76001V0.609985H8.93005V9.53003H14.28V11.3101H7.60999L2.68994 16.89C2.27994 17.33 1.87997 17.83 1.46997 18.28C1.02997 18.77 0.619961 19.2301 0.209961 19.6901C-0.0800391 20.0101 0.0200195 20.0801 0.0200195 20.8101C0.0200195 23.3101 0.28002 26.02 2.52002 27.4C4.08002 28.36 5.43002 28.41 7.15002 27.91V30.36V34.72C7.15002 34.84 7.15002 34.93 7.15002 35.01V36.26H19.29C19.29 35.01 19.29 33.76 19.29 32.51C19.29 30.25 19.3099 27.99 19.3099 25.74L19.3 25.75Z" fill="white"/>
</g>
</mask>
<g mask="url(#mask0_202_110)">
<g id="Group">
<path id="Vector_2" d="M49.9901 0.589966H-0.0898438V43.38H49.9901V0.589966Z" fill="url(#paint0_linear_202_110)"/>
</g>
</g>
</g>
<defs>
<linearGradient id="paint0_linear_202_110" x1="4.58015" y1="33.68" x2="49.7602" y2="7.75004" gradientUnits="userSpaceOnUse">
<stop stop-color="#312E6A"/>
<stop offset="1" stop-color="#57BDDD"/>
</linearGradient>
</defs>
</svg>
