<svg width="50" height="48" viewBox="0 0 50 48" fill="none" xmlns="http://www.w3.org/2000/svg">
<g id="Clip path group">
<mask id="mask0_202_118" style="mask-type:luminance" maskUnits="userSpaceOnUse" x="0" y="0" width="50" height="48">
<g id="clippath-153">
<path id="Vector" d="M29.1849 42.5988C28.3949 42.5988 27.0149 42.3687 26.7649 43.0587C26.6049 43.4987 26.7949 43.8987 27.0549 44.0587C27.3449 44.2387 27.9249 44.1987 28.3149 44.1887C28.3749 44.7787 28.3349 45.5687 28.3349 46.1787C28.3349 46.8887 28.5149 47.2487 29.1949 47.2987H37.1149C38.4649 47.1687 37.6149 45.2487 37.9449 44.2087H38.7349C38.8249 44.8387 38.6149 46.4887 38.8749 46.9187C39.2449 47.5087 40.4949 47.3087 41.3049 47.3087C43.2049 47.3087 45.1049 47.3087 47.0149 47.3087C48.2949 47.3087 48.3349 46.9987 48.3349 45.7987C48.3349 43.2687 48.2349 44.6388 49.5049 44.1288C50.1449 43.8688 50.2748 42.6388 49.0248 42.6088C48.1148 42.5888 47.1649 42.6088 46.2449 42.6088H29.2049L29.1849 42.5988ZM48.0449 41.7087C48.1649 41.4087 48.1749 38.5987 48.0849 38.1687C47.9749 37.6287 47.5749 37.5387 46.9249 37.5387H41.6049C41.0149 37.5387 40.4249 37.5387 39.8249 37.5387C39.2049 37.5387 38.7649 37.5687 38.5849 38.0687C38.4949 38.3387 38.4749 41.2688 38.5549 41.5988C38.6749 42.1088 39.0649 42.2488 39.6749 42.2488H46.7748C47.4048 42.2488 47.8249 42.2787 48.0549 41.7087H48.0449ZM20.4749 42.2488C21.0449 42.2488 21.3849 41.8887 21.3849 41.3287V38.4788C21.3849 37.7088 20.9349 37.5587 20.1649 37.5487H17.8549C11.2749 37.5787 11.8149 36.9688 11.8149 39.8588C11.8149 40.9288 11.5049 42.2488 12.7649 42.2488H20.4749ZM28.5749 41.7087C28.8149 42.5387 30.6449 42.2488 31.5749 42.2488H35.1249C36.4349 42.2488 37.9249 42.4988 38.0649 41.6288C38.1149 41.3388 38.1149 38.3387 38.0649 38.0787C37.8849 37.2287 35.9049 37.5387 35.0549 37.5387C33.8649 37.5387 32.7049 37.5387 31.5049 37.5387C30.6449 37.5387 28.7349 37.1987 28.5849 38.1587C28.5649 38.3087 28.5649 41.6487 28.5849 41.6987L28.5749 41.7087ZM1.85491 41.7087C1.99491 42.2587 2.57493 42.2488 3.12493 42.2488H8.44488C9.84488 42.2488 11.2349 42.5187 11.3549 41.5487C11.3949 41.1887 11.3949 38.2887 11.3149 38.0587C11.1249 37.4887 10.5949 37.5387 9.98492 37.5387H4.81488C3.47487 37.5387 1.9849 37.2787 1.8449 38.1787C1.8049 38.4087 1.8149 41.5487 1.8449 41.7087H1.85491ZM7.82488 34.2787C6.69488 34.2787 6.9749 35.0387 6.9649 36.0887C7.6249 36.3387 8.02492 36.5087 8.36492 37.1487H8.98492C10.6049 37.1687 10.7249 36.9287 11.5949 37.6987C11.9249 37.4087 12.1449 37.1587 12.7649 37.1587C13.3249 37.1587 13.8949 37.1587 14.4649 37.1587C14.4649 34.6987 14.735 34.2687 13.395 34.2787H7.8449H7.82488ZM41.4449 37.1587C41.6749 37.0587 41.6149 37.0387 41.7949 36.8187C42.2549 36.2587 42.5248 36.3187 42.9048 36.0787C42.9548 34.5587 43.0349 34.2787 41.9849 34.2787H38.2848C36.0648 34.2787 35.5049 33.9887 35.5049 35.1487V37.1587C36.0649 37.1587 36.6549 37.1387 37.2149 37.1587C37.9149 37.1687 38.0049 37.4487 38.3749 37.7188C38.9049 36.9388 40.0349 37.1587 41.4449 37.1687V37.1587ZM31.4249 37.1587C31.7749 37.0287 31.6949 36.8188 32.0949 36.5088C33.3349 35.5688 34.1949 36.3087 34.8149 36.6787C34.9049 34.4387 34.9749 34.2687 33.5949 34.2787C32.3849 34.2787 31.1749 34.2787 29.9749 34.2787C27.6849 34.2887 27.3449 33.9987 27.3549 35.2987C27.3549 35.8887 27.3549 36.4887 27.3549 37.0787C27.3549 37.7087 27.5349 38.0687 28.2549 37.8987C28.4349 37.7887 28.4449 37.1587 29.5149 37.1487C30.1549 37.1487 30.8049 37.1487 31.4449 37.1487L31.4249 37.1587ZM15.1548 36.6687C15.8948 36.1287 16.8749 35.6787 17.8549 36.5387C18.8349 37.3987 17.5049 37.0787 20.4849 37.1587C21.2349 37.1787 21.3449 37.4487 21.7149 37.9287C22.6049 38.0187 22.5749 37.5288 22.5749 36.8488C22.5649 35.3188 22.8749 34.2787 21.8749 34.2787H16.5549C15.1149 34.2787 15.0049 34.1387 15.1649 36.6687H15.1548ZM22.5749 39.4788C22.9349 39.4588 23.4149 39.5587 23.6649 39.3387C23.8349 39.1887 23.9549 38.7888 23.7649 38.4888C23.5349 38.1188 22.2549 38.1087 21.7549 38.2787C21.6549 39.1087 21.8748 41.2788 21.6548 41.8488C22.8448 42.0788 22.5549 41.0888 22.5749 39.4788ZM28.145 38.2787C27.875 38.1687 27.3249 38.2188 26.9549 38.2188C25.6649 38.2188 26.0449 39.1488 26.3049 39.3488C26.5549 39.5388 26.9949 39.4488 27.3449 39.4888C27.3649 40.0188 27.3449 40.5587 27.3449 41.0887C27.3549 41.7487 27.5949 41.8788 28.2049 41.8888L28.145 38.2787ZM2.17486 13.8588C2.83486 13.8588 3.37493 14.3987 3.37493 15.0587C3.37493 15.7187 2.83486 16.2588 2.17486 16.2588C1.51486 16.2588 0.974909 15.7187 0.974909 15.0587C0.974909 14.3987 1.51486 13.8588 2.17486 13.8588ZM2.17486 17.0887C2.83486 17.0887 3.37493 17.6287 3.37493 18.2887C3.37493 18.9487 2.83486 19.4888 2.17486 19.4888C1.51486 19.4888 0.974909 18.9487 0.974909 18.2887C0.974909 17.6287 1.51486 17.0887 2.17486 17.0887ZM2.17486 17.6987C2.49486 17.6987 2.76495 17.9587 2.76495 18.2887C2.76495 18.6187 2.50486 18.8788 2.17486 18.8788C1.84486 18.8788 1.58489 18.6187 1.58489 18.2887C1.58489 17.9587 1.84486 17.6987 2.17486 17.6987ZM2.17486 14.4688C2.49486 14.4688 2.76495 14.7287 2.76495 15.0587C2.76495 15.3887 2.50486 15.6487 2.17486 15.6487C1.84486 15.6487 1.58489 15.3887 1.58489 15.0587C1.58489 14.7287 1.84486 14.4688 2.17486 14.4688ZM0.584895 13.0687H3.77484C3.86484 13.0687 3.93487 13.1388 3.93487 13.2288V20.1188C3.93487 20.2088 3.86484 20.2787 3.77484 20.2787H0.584895C0.494895 20.2787 0.424861 20.2088 0.424861 20.1188V13.2288C0.424861 13.1388 0.494895 13.0687 0.584895 13.0687ZM47.7649 13.8588C48.4249 13.8588 48.9649 14.3987 48.9649 15.0587C48.9649 15.7187 48.4249 16.2588 47.7649 16.2588C47.1049 16.2588 46.5649 15.7187 46.5649 15.0587C46.5649 14.3987 47.1049 13.8588 47.7649 13.8588ZM47.7649 17.0887C48.4249 17.0887 48.9649 17.6287 48.9649 18.2887C48.9649 18.9487 48.4249 19.4888 47.7649 19.4888C47.1049 19.4888 46.5649 18.9487 46.5649 18.2887C46.5649 17.6287 47.1049 17.0887 47.7649 17.0887ZM47.7649 17.6987C48.0849 17.6987 48.3549 17.9587 48.3549 18.2887C48.3549 18.6187 48.095 18.8788 47.7649 18.8788C47.4349 18.8788 47.1749 18.6187 47.1749 18.2887C47.1749 17.9587 47.4349 17.6987 47.7649 17.6987ZM47.7649 14.4688C48.0849 14.4688 48.3549 14.7287 48.3549 15.0587C48.3549 15.3887 48.095 15.6487 47.7649 15.6487C47.4349 15.6487 47.1749 15.3887 47.1749 15.0587C47.1749 14.7287 47.4349 14.4688 47.7649 14.4688ZM46.1749 13.0687H49.3649C49.4549 13.0687 49.5248 13.1388 49.5248 13.2288V20.1188C49.5248 20.2088 49.4549 20.2787 49.3649 20.2787H46.1749C46.0849 20.2787 46.0149 20.2088 46.0149 20.1188V13.2288C46.0149 13.1388 46.0849 13.0687 46.1749 13.0687ZM40.3249 9.2887C40.3549 9.2287 40.3449 9.18871 40.4149 9.17871C40.4849 9.16871 40.5248 9.19879 40.5348 9.25879C40.5548 9.37879 40.3548 9.50874 40.2748 9.57874C40.0448 9.79874 40.0449 9.73873 40.0549 9.94873H40.8149V9.70874L40.5149 9.68872C40.5149 9.68872 40.5948 9.61873 40.6548 9.56873C40.6748 9.54873 40.7548 9.44869 40.7748 9.40869C40.8548 9.25869 40.7849 9.07878 40.7049 8.99878C40.4849 8.79878 40.0249 8.95869 40.0849 9.27869H40.3349L40.3249 9.2887ZM39.3849 9.18872C39.3849 9.18872 39.4649 9.32877 39.4949 9.36877C39.5549 9.34877 39.5948 9.2887 39.6548 9.2887V9.93872H39.9149V8.93872C39.7149 8.93872 39.7149 8.9387 39.5849 9.0387C39.5249 9.0887 39.4249 9.14872 39.3749 9.18872H39.3849ZM40.8549 8.55872C40.7549 8.57872 40.6349 8.53875 40.6249 8.59875C40.6049 8.75875 40.7249 8.72876 40.8549 8.72876C40.8749 8.83876 40.845 8.86873 40.895 8.94873C41.045 8.97873 41.0248 8.90876 41.0248 8.72876C41.0848 8.71876 41.1749 8.73874 41.2249 8.70874C41.2849 8.66874 41.2549 8.59873 41.2149 8.56873C41.1649 8.53873 41.0948 8.56871 41.0248 8.54871C41.0248 8.44871 41.0449 8.32873 40.9449 8.31873C40.8249 8.30873 40.8649 8.44871 40.8549 8.54871V8.55872ZM7.7149 7.13879H42.6849V26.1188H7.7149V7.13879ZM24.5849 10.6987C23.0349 10.9887 22.4849 11.1387 21.2449 12.1687L20.6749 12.7588C20.4349 13.0288 20.2449 13.3088 20.0649 13.6088C19.4449 14.6988 19.0849 16.0087 19.2649 17.2887C19.5749 19.6487 21.1349 21.5288 23.1949 22.2488C24.0449 22.5488 24.8449 22.6187 25.8849 22.5587C27.2949 22.4787 28.8849 21.5188 29.7649 20.4888C30.7049 19.3788 31.345 17.7987 31.145 15.9487C30.965 14.2787 30.1149 12.9587 29.0649 12.0687C28.1649 11.2987 26.3049 10.3687 24.5849 10.6987ZM23.4449 19.3488L23.4249 13.9387C23.5649 13.9787 23.6149 14.0087 23.7249 14.0887L27.5649 16.4487C27.7649 16.5687 27.7549 16.5187 27.8349 16.6887L26.2049 17.6587C25.9949 17.7887 25.8349 17.8688 25.6349 17.9988C25.2649 18.2388 24.8848 18.4687 24.5348 18.6887L23.4649 19.3488H23.4449ZM38.4349 2.32874H41.3849V5.27869H38.4349V2.32874ZM32.5549 2.32874H35.5049V5.27869H32.5549V2.32874ZM26.6749 2.32874H29.6249V5.27869H26.6749V2.32874ZM20.7949 2.32874H23.7449V5.27869H20.7949V2.32874ZM14.9149 2.32874H17.8649V5.27869H14.9149V2.32874ZM9.03485 2.32874H11.9849V5.27869H9.03485V2.32874ZM38.4449 28.0687H41.395V31.0187H38.4449V28.0687ZM32.5649 28.0687H35.5149V31.0187H32.5649V28.0687ZM26.6849 28.0687H29.6349V31.0187H26.6849V28.0687ZM20.8049 28.0687H23.7549V31.0187H20.8049V28.0687ZM14.9249 28.0687H17.8749V31.0187H14.9249V28.0687ZM9.04486 28.0687H11.9949V31.0187H9.04486V28.0687ZM7.62493 0.658691H42.8349C44.0949 0.658691 45.1349 1.68874 45.1349 2.95874V30.3987C45.1349 31.6587 44.1049 32.6987 42.8349 32.6987H7.62493C6.36493 32.6987 5.33489 31.6687 5.33489 30.3987V2.95874C5.33489 1.69874 6.36493 0.658691 7.62493 0.658691ZM41.2149 9.00879C41.0249 8.95879 41.1448 9.21874 41.1548 9.32874C41.2248 10.0487 40.5749 10.6087 39.8749 10.4287C39.7449 10.3987 39.6348 10.3487 39.5348 10.2787C39.4948 10.2587 39.4949 10.2487 39.4649 10.2188C39.4349 10.1888 39.425 10.1887 39.395 10.1587C39.195 9.97869 39.0549 9.57877 39.1149 9.23877C39.1649 8.98877 39.3349 8.74878 39.4949 8.62878C40.1749 8.13878 40.5949 8.65871 40.6249 8.42871C40.6449 8.28871 40.0449 8.10871 39.5049 8.42871C39.0649 8.67871 38.8349 9.24869 38.9849 9.77869C39.2749 10.8187 40.8249 10.9787 41.2549 9.81873C41.3149 9.64873 41.3549 9.11879 41.2049 9.00879H41.2149ZM12.1949 25.7588L8.53485 20.9387C8.33485 20.6687 8.19492 20.5587 8.11492 20.4287V17.9688L11.2049 21.8588C11.9349 22.9088 13.4648 24.6988 14.1548 25.7488H12.1949V25.7588ZM10.3649 25.0088C10.0449 24.5888 9.74487 24.1987 9.43487 23.7787L8.49493 22.5687C8.37493 22.4087 8.23492 22.2287 8.11492 22.0487V21.0887C8.29492 21.2387 8.39487 21.4588 8.55487 21.6288L9.47491 22.8187C9.71491 23.2087 11.3449 25.2188 11.6249 25.7488H10.9449C10.8349 25.6288 10.6949 25.4088 10.3749 24.9988L10.3649 25.0088ZM1.62493 44.1887C1.98493 45.4787 0.9649 47.2787 2.7149 47.2887C4.1049 47.2987 5.49494 47.2887 6.88494 47.2887C11.4249 47.2887 11.2149 47.6487 11.2149 45.3987C11.2149 44.1787 10.9148 44.1787 12.0348 44.1887C12.3248 45.2887 11.5248 47.1787 12.9048 47.2887H20.895C22.155 47.0987 21.4549 45.2087 21.6949 44.1887C22.3349 44.1887 22.8849 44.2787 23.1749 43.7987C23.4349 43.3587 23.1949 42.7788 22.7449 42.6388C22.3849 42.5288 12.5249 42.5988 11.6649 42.5988C10.7349 42.5988 1.01489 42.5288 0.584895 42.6388C0.124895 42.7588 -0.155047 43.3187 0.144953 43.8187C0.414953 44.2787 1.02494 44.1887 1.63494 44.1987L1.62493 44.1887Z" fill="white"/>
</g>
</mask>
<g mask="url(#mask0_202_118)">
<g id="Group">
<path id="Vector_2" d="M50.2548 0.668701H-0.215332V47.6687H50.2548V0.668701Z" fill="url(#paint0_linear_202_118)"/>
</g>
</g>
</g>
<defs>
<linearGradient id="paint0_linear_202_118" x1="3.79468" y1="35.3287" x2="50.8347" y2="10.5786" gradientUnits="userSpaceOnUse">
<stop stop-color="#312E6A"/>
<stop offset="1" stop-color="#57BDDD"/>
</linearGradient>
</defs>
</svg>
