<svg width="50" height="40" viewBox="0 0 50 40" fill="none" xmlns="http://www.w3.org/2000/svg">
<g id="Clip path group">
<mask id="mask0_202_126" style="mask-type:luminance" maskUnits="userSpaceOnUse" x="0" y="0" width="50" height="40">
<g id="clippath-155">
<path id="Vector" d="M27.3 4.36499C27.26 5.36499 27.53 5.06501 28.21 5.88501C28.3 5.99501 28.41 6.11509 28.49 6.21509C28.75 6.53509 29.02 6.93503 29.25 7.28503C29.33 7.40503 29.38 7.58504 29.6 7.54504C29.75 7.52504 29.8 7.32506 29.85 7.18506C29.96 6.89506 30.09 6.59506 30.2 6.31506L32.13 1.52502C32.32 1.08502 32.42 0.815039 31.85 0.915039C31.77 0.935039 31.69 0.955098 31.61 0.975098C31.5 0.995098 31.46 0.995024 31.35 1.02502L30.3 1.19507C29.54 1.24507 29.78 1.21507 29.12 1.19507C28.72 1.19507 28.58 1.45503 28.37 1.65503C28.12 1.58503 27.68 1.34507 27.45 1.32507C27.32 1.31507 27.2 1.33501 27.11 1.38501C26.91 1.49501 26.84 1.655 26.75 1.875L26.39 2.78503C26.26 3.12503 26.06 3.405 26.21 3.745C26.31 3.985 26.4701 4.02499 26.6801 4.11499C26.8801 4.19499 27.1 4.28499 27.29 4.36499M21.42 1.43506C21.35 1.36506 21.2701 1.30502 21.1901 1.27502C20.9901 1.20502 20.12 1.27503 19.48 1.15503L18.96 1.06506C18.79 1.04506 18.0201 0.83498 17.9401 0.85498C17.7501 0.89498 17.7599 1.10501 17.8199 1.26501L18.52 3.07507C18.58 3.23507 18.6201 3.36501 18.6901 3.51501L20.17 7.375C20.3 7.695 20.5 7.60509 20.67 7.34509C20.94 6.93509 21.18 6.63501 21.47 6.26501L22.0601 5.61499C22.7601 5.00499 22.66 5.22504 22.71 4.41504L23.24 4.21509C23.45 4.13509 23.57 4.10508 23.71 3.95508C24.01 3.62508 23.78 3.24501 23.64 2.88501C23.51 2.53501 23.37 2.18508 23.24 1.83508C23.17 1.64508 23.11 1.53506 22.91 1.43506C22.88 1.42506 22.83 1.40501 22.78 1.38501C21.95 1.24501 21.7401 2.12505 21.4301 1.42505L21.42 1.43506ZM15.51 4.255C15.51 5.415 16.07 6.51505 16.95 7.17505C17.11 7.29505 18.25 8.11503 18.34 7.53503C18.39 7.24503 18.07 7.23505 17.72 7.05505C16.45 6.40505 15.72 4.86505 16.13 3.42505C16.25 2.98505 16.43 2.72502 16.46 2.64502C16.54 2.34502 16.17 2.10501 15.95 2.51501C15.7 2.98501 15.51 3.575 15.51 4.255ZM33.75 3.11499C34.1 3.97499 34.14 4.85504 33.64 5.66504C33.36 6.12504 33.38 6.17507 32.95 6.57507C32.85 6.66507 32.79 6.72506 32.67 6.81506C32.48 6.95506 32.2 7.11507 31.99 7.19507C31.88 7.23507 31.69 7.285 31.63 7.375C31.54 7.495 31.59 7.685 31.72 7.755C31.86 7.82501 32.03 7.73507 32.14 7.69507C32.61 7.52507 33.23 7.1051 33.55 6.7251C33.6 6.6651 33.62 6.63508 33.67 6.58508C33.81 6.42508 33.98 6.14505 34.09 5.92505C34.58 4.96505 34.6301 3.46502 34.05 2.52502C33.83 2.17502 33.45 2.43499 33.58 2.73499C33.61 2.80499 33.63 2.84505 33.67 2.92505C33.71 3.00505 33.72 3.04498 33.75 3.10498V3.11499ZM33.38 4.88501C33.48 4.31501 33.5 3.98507 33.33 3.44507C33.27 3.26507 33.1601 2.97501 33.0601 2.88501C32.8801 2.70501 32.58 2.88498 32.62 3.10498C32.64 3.23498 32.9901 3.64505 32.9301 4.42505C32.8201 5.98505 31.42 6.08508 31.25 6.45508C31.18 6.60508 31.26 6.91503 31.59 6.78503C32.75 6.31503 33.01 5.85502 33.38 4.89502V4.88501ZM17.71 6.44507C17.91 6.57507 18.52 6.97504 18.7 6.66504C18.9 6.33504 18.38 6.22499 18.17 6.11499C17.99 6.02499 17.8301 5.90501 17.6901 5.76501C17.6001 5.66501 17.5201 5.56508 17.4401 5.45508C17.0601 4.89508 16.94 4.155 17.2 3.495C17.25 3.375 17.39 3.14505 17.39 3.05505C17.41 2.84505 17.2201 2.72502 17.0601 2.77502C16.7601 2.88502 16.54 3.82506 16.54 4.18506C16.54 4.47506 16.62 4.895 16.74 5.255C16.9 5.715 17.28 6.17507 17.7 6.44507H17.71ZM19.15 5.4751C19.15 5.2651 18.95 5.25507 18.8 5.19507L18.61 5.08508C18.25 4.81508 18.04 4.27506 18.29 3.81506C18.35 3.70506 18.48 3.49498 18.33 3.35498C17.97 3.04498 17.6801 3.80499 17.6801 4.11499V4.39502C17.6801 5.34502 19.16 6.2151 19.16 5.4751H19.15ZM31.63 3.64502C31.63 3.64502 31.72 3.80507 31.73 3.82507C31.77 3.89507 31.78 3.93501 31.8 4.01501C31.85 4.19501 31.85 4.28509 31.8 4.46509C31.56 5.46509 30.74 5.06506 30.83 5.56506C30.94 6.13506 32.32 5.395 32.33 4.375C32.33 2.955 31.51 3.23502 31.63 3.64502ZM32.52 15.8151C32.52 15.1851 32.58 14.095 32.66 13.515C32.72 13.125 32.66 12.6951 32.71 12.3251C32.76 11.9051 33.11 12.1851 33.45 12.3151C34.47 12.6951 35.09 12.9751 35.97 13.4651C36.18 13.5851 36.57 13.785 36.74 13.925L36.1801 17.525C35.7001 17.515 33.77 16.935 32.95 16.795L32.58 16.7151C32.58 16.7151 32.54 16.7151 32.53 16.6951C32.53 16.6751 32.5 16.675 32.49 16.675L32.52 15.8151ZM13.26 13.915C13.9 13.385 15.85 12.575 16.71 12.235C16.81 12.195 16.93 12.145 16.99 12.135C16.99 12.135 17.11 12.115 17.12 12.115C17.12 12.115 17.15 12.125 17.16 12.115C17.16 12.105 17.18 12.115 17.2 12.115C17.22 12.155 17.24 12.165 17.26 12.255L17.49 16.7251C16.85 16.8051 16.25 16.985 15.66 17.105C15.31 17.175 15.11 17.2451 14.76 17.3151C14.45 17.3751 14.18 17.495 13.87 17.535C13.83 17.465 13.85 17.535 13.8 17.405C13.8 17.385 13.77 17.3351 13.77 17.3151C13.65 16.9551 13.26 14.045 13.26 13.915ZM38.24 15.0651C38.43 15.0951 38.3701 15.0651 38.5601 15.2051C38.6201 15.2551 38.7 15.335 38.78 15.405C39.31 15.915 39.45 15.965 40.01 16.615C40.97 17.735 40.6 17.125 40.27 18.915C40 18.935 39.87 18.8251 39.61 18.7251C39.31 18.6051 38.02 18.165 37.79 17.995L38.24 15.045V15.0651ZM9.70996 18.925C9.58996 18.575 9.45 17.965 9.38 17.605C9.32 17.295 9.40998 17.2751 9.59998 17.0551C10.49 16.0251 10.54 15.945 11.65 15.045C11.75 15.185 12.14 17.635 12.15 18.025C11.94 18.205 11.3501 18.355 10.9401 18.525C10.6801 18.625 9.96996 18.9551 9.70996 18.9351V18.925ZM16.96 28.765C16.86 28.205 16.69 25.0051 16.63 24.1851C16.58 23.4451 16.49 22.615 16.47 21.925C16.45 21.235 16.4099 20.2251 16.3199 19.5851C16.2499 19.0851 16.18 18.735 16.46 18.645C16.84 18.525 18.3501 18.315 19.1901 18.175V16.375C19.1901 16.375 19.18 16.375 19.17 16.375C19.12 15.625 18.86 11.975 18.97 11.525C19.33 11.365 20.94 11.115 21.41 11.045C22.2 10.925 23.33 10.7751 24.16 10.8351V11.245H25.8199V10.865C26.5099 10.655 30.33 11.285 30.99 11.505C31.13 11.765 30.8801 15.1551 30.8101 16.1951V18.165C31.2001 18.225 31.59 18.305 31.92 18.355C32.6 18.465 33.64 18.515 33.71 18.875L33.6901 19.365C33.5001 20.815 33.15 28.335 32.97 28.765L31.79 28.665C31.79 27.865 31.89 26.995 31.61 26.385C30.87 24.765 27.09 25.355 25.83 25.005C25.83 24.105 25.83 23.035 25.83 21.795H24.16V25.025C22.68 25.155 21.11 25.1151 19.71 25.4351C18.04 25.8051 18.2 26.975 18.21 28.155C18.21 28.235 18.21 28.3851 18.21 28.4551L18.17 28.605C18.17 28.605 18.16 28.635 18.15 28.675L16.97 28.745L16.96 28.765ZM34.75 28.9451C34.65 28.4251 34.83 27.065 34.89 26.515C34.97 25.745 34.93 24.8451 35.05 24.0851L35.38 19.2051C35.96 19.0651 41.2301 21.165 41.4401 21.495C41.6101 21.745 41.26 22.845 41.15 23.525C40.99 24.605 40.06 29.075 40.03 29.635C39.62 29.665 39.09 29.5151 38.7 29.4551C38.28 29.3951 37.83 29.315 37.42 29.265C36.58 29.165 35.58 29.0751 34.75 28.9351V28.9451ZM8.47998 21.495C9.40998 21.015 13.95 19.0051 14.6 19.2251L15.27 28.9351C14.36 29.0751 13.4599 29.175 12.5699 29.285L10.5699 29.5951C10.4499 29.6151 10.33 29.645 10.25 29.655L9.93005 29.605C9.93005 29.605 8.51998 22.085 8.47998 21.505V21.495ZM4.69995 30.9351C4.69995 30.9351 4.68005 30.905 4.68005 30.895L4.62 30.765C4.58 30.675 4.58005 30.6751 4.55005 30.5951C4.50005 30.4551 4.48995 30.385 4.44995 30.255L3.82996 28.235C3.72996 27.935 3.03997 25.7151 3.08997 25.5851C3.24997 25.1551 6.10002 22.7451 6.90002 22.4351L8.26001 30.005L4.69006 30.925L4.69995 30.9351ZM43.08 22.4351C43.59 22.6651 45.13 23.8651 45.62 24.3051L46.91 25.615C46.89 25.895 45.7 29.6551 45.52 30.3151L45.29 30.9551C44.73 30.8351 42.02 30.2151 41.66 29.9651L43.08 22.4551V22.4351ZM5.64001 32.3351H7.15002C7.23002 32.3351 7.30005 32.405 7.30005 32.485V35.1851C7.30005 35.2651 7.23002 35.3351 7.15002 35.3351H5.64001C5.56001 35.3351 5.48999 35.2651 5.48999 35.1851V32.485C5.48999 32.405 5.56001 32.3351 5.64001 32.3351ZM44.45 32.3351H42.9401C42.8601 32.3351 42.79 32.405 42.79 32.485V35.1851C42.79 35.2651 42.8601 35.3351 42.9401 35.3351H44.45C44.53 35.3351 44.6 35.2651 44.6 35.1851V32.485C44.6 32.405 44.53 32.3351 44.45 32.3351ZM8.83997 31.735H10.35C10.43 31.735 10.5 31.805 10.5 31.885V34.5851C10.5 34.6651 10.43 34.735 10.35 34.735H8.83997C8.75997 34.735 8.69006 34.6651 8.69006 34.5851V31.885C8.69006 31.805 8.75997 31.735 8.83997 31.735ZM41.25 31.735H39.74C39.66 31.735 39.59 31.805 39.59 31.885V34.5851C39.59 34.6651 39.66 34.735 39.74 34.735H41.25C41.33 34.735 41.4 34.6651 41.4 34.5851V31.885C41.4 31.805 41.33 31.735 41.25 31.735ZM12.04 31.135H13.55C13.63 31.135 13.7 31.205 13.7 31.285V33.985C13.7 34.065 13.63 34.135 13.55 34.135H12.04C11.96 34.135 11.89 34.065 11.89 33.985V31.285C11.89 31.205 11.96 31.135 12.04 31.135ZM38.05 31.135H36.54C36.46 31.135 36.39 31.205 36.39 31.285V33.985C36.39 34.065 36.46 34.135 36.54 34.135H38.05C38.1301 34.135 38.2 34.065 38.2 33.985V31.285C38.2 31.205 38.1301 31.135 38.05 31.135ZM15.24 30.535H16.75C16.83 30.535 16.9 30.6051 16.9 30.6851V33.385C16.9 33.465 16.83 33.535 16.75 33.535H15.24C15.16 33.535 15.09 33.465 15.09 33.385V30.6851C15.09 30.6051 15.16 30.535 15.24 30.535ZM19.87 35.4351H24L24.12 35.405C24.27 35.035 24.14 27.9451 24.16 26.8251C23.39 26.7451 20.47 26.955 19.89 27.175C19.81 27.485 19.81 34.6951 19.87 35.4351ZM21.25 15.5951H22.75C22.75 15.5951 22.84 15.4751 22.85 15.4451C22.88 15.3851 22.9101 15.345 22.9301 15.275C23.0201 15.045 23.04 14.855 23.01 14.615C23.01 14.595 22.99 14.535 22.98 14.515L22.9301 14.4351C22.9301 14.4351 22.9 14.395 22.86 14.385C22.84 14.375 22.79 14.355 22.76 14.355C22.57 14.355 22.42 14.4951 22.41 14.6851C22.41 14.8251 22.41 14.975 22.41 15.115C22.35 15.135 21.96 15.115 21.86 15.115C21.86 14.585 21.83 14.185 22.25 13.925C22.46 13.795 22.83 13.785 23.05 13.855C23.22 13.905 23.3301 13.985 23.4301 14.105C23.5101 14.205 23.59 14.3951 23.6 14.5651C23.62 14.8751 23.6 15.085 23.49 15.365C23.47 15.405 23.41 15.5451 23.38 15.5751C23.42 15.5851 24.21 15.5751 24.24 15.5751C24.24 15.3451 24.24 13.2151 24.24 13.1851C24.24 13.1851 21.45 13.1851 21.25 13.1851V15.5951ZM25.72 13.875V15.5851C25.77 15.6051 26.23 15.5851 26.34 15.5851C26.34 15.3551 26.32 14.655 26.36 14.485C26.4 14.295 26.45 14.155 26.59 14.015C26.63 13.975 26.7 13.925 26.76 13.895C27.1 13.735 27.5 13.7551 27.77 13.9451C28.03 14.1651 28.11 14.375 28.11 14.735V15.5951H28.72C28.72 14.7951 28.72 13.7151 28.72 13.1851C28.26 13.1851 25.77 13.1851 25.74 13.1851C25.71 13.1851 25.72 13.2651 25.72 13.3351V13.875ZM25.72 18.2051C25.78 18.2151 26.65 18.2051 26.78 18.2051H28.72V15.8051H28.11C28.1 16.1851 28.15 16.7351 28.04 17.0751C27.92 17.4451 27.59 17.5951 27.22 17.5951C26.79 17.5951 26.51 17.3951 26.4 17.0751C26.31 16.8251 26.33 16.435 26.33 16.135C26.33 16.045 26.33 15.885 26.33 15.795C26.27 15.795 25.75 15.795 25.72 15.795V18.1851V18.2051ZM21.86 20.005H28.1V19.505H21.86V20.005ZM27.52 15.8151C27.45 15.7951 27.04 15.8151 26.92 15.8151C26.91 16.0651 26.92 16.3451 26.92 16.5951C26.92 16.8251 26.92 17.0751 27.22 17.0751C27.5 17.0751 27.53 16.8751 27.53 16.5951C27.53 16.4851 27.53 15.8651 27.53 15.8151H27.52ZM26.92 15.5951C27.12 15.5951 27.32 15.5951 27.52 15.5951V14.7051C27.49 14.4451 27.33 14.3051 27.14 14.3451C26.87 14.3451 26.89 14.975 26.92 15.605V15.5951ZM23.05 20.0651H26.9V20.925H23.05V20.0651ZM21.67 12.645H28.3C28.82 12.645 29.25 13.0751 29.25 13.5951V17.745C29.25 18.265 28.82 18.6951 28.3 18.6951H21.67C21.15 18.6951 20.72 18.265 20.72 17.745V13.5951C20.72 13.0751 21.15 12.645 21.67 12.645ZM21.26 11.9551H28.72C29.36 11.9551 29.89 12.485 29.89 13.125V18.2251C29.89 18.8651 29.36 19.395 28.72 19.395H21.26C20.62 19.395 20.09 18.8651 20.09 18.2251V13.125C20.09 12.485 20.62 11.9551 21.26 11.9551ZM24.6901 14.8251H25.27V15.405H24.6901V14.8251ZM24.6901 15.985H25.27V16.5651H24.6901V15.985ZM21.24 18.2151H24.24V15.8151C24.2 15.8051 23.54 15.8151 23.4 15.8151C23.29 15.8151 23.25 15.7951 23.21 15.8451C23.2 15.8651 23.1901 15.875 23.1801 15.885C22.8701 16.235 22.53 16.6651 22.52 16.7151C22.51 16.7551 22.44 16.7951 22.45 17.0551H23.55V17.5851H21.87C21.87 17.4851 21.87 17.0351 21.87 16.9751C21.9 16.7551 21.9699 16.565 22.0699 16.405C22.0899 16.375 22.11 16.3451 22.13 16.3151L22.27 16.145C22.27 16.145 22.5501 15.8351 22.5601 15.8151H21.24V18.2151ZM22.66 35.255L20.26 32.105C20.13 31.935 20.04 31.855 19.99 31.775V30.165L22.01 32.7151C22.49 33.4051 23.4901 34.575 23.9401 35.265H22.66V35.255ZM21.46 34.765C21.25 34.495 21.05 34.2351 20.85 33.9651L20.23 33.175C20.15 33.0751 20.06 32.9551 19.98 32.8351V32.2051C20.1 32.3051 20.16 32.4451 20.27 32.5651L20.87 33.3451C21.03 33.6051 22.09 34.915 22.28 35.265H21.83C21.76 35.185 21.67 35.045 21.46 34.775V34.765ZM28.63 35.255L26.23 32.105C26.1 31.935 26.01 31.855 25.96 31.775V30.165L27.98 32.7151C28.34 33.2351 28.99 34.025 29.49 34.675C29.46 34.745 29.43 34.815 29.41 34.875C29.37 34.985 29.3401 35.1051 29.3101 35.2151V35.255H28.63ZM27.4301 34.765C27.2201 34.495 27.0199 34.2351 26.8199 33.9651L26.2 33.175C26.12 33.0751 26.03 32.9551 25.95 32.8351V32.2051C26.07 32.3051 26.13 32.4451 26.24 32.5651L26.84 33.3451C27 33.6051 28.06 34.915 28.25 35.265H27.8C27.73 35.185 27.6401 35.045 27.4301 34.775V34.765ZM30.87 37.775C31.07 37.915 31.25 38.025 31.49 38.115C31.9 38.265 32.31 38.2851 32.75 38.2051C32.81 38.1951 32.8901 38.175 32.9401 38.155L33.12 38.0951C33.26 38.0451 33.48 37.925 33.59 37.855C33.64 37.825 33.68 37.795 33.73 37.755C33.78 37.715 33.82 37.685 33.86 37.645C34.12 37.415 34.32 37.1351 34.46 36.8151C34.5 36.7251 34.56 36.5551 34.58 36.4551C34.58 36.4251 34.59 36.395 34.6 36.355C34.62 36.275 34.63 36.125 34.64 36.035C34.67 35.755 34.55 35.185 34.47 35.005C34.44 34.915 34.4 34.855 34.36 34.765C34.3 34.655 34.2601 34.595 34.1901 34.495C34.1901 34.485 34.17 34.4551 34.15 34.4451C34.15 34.4351 34.12 34.415 34.11 34.405C34.09 34.385 34.0899 34.375 34.0699 34.355C34.0299 34.295 33.91 34.185 33.86 34.135C33.77 34.045 33.61 33.935 33.51 33.875C33.44 33.835 33.36 33.785 33.29 33.755C33.12 33.675 33.09 33.675 32.91 33.615C32.71 33.545 32.32 33.515 32.13 33.535C32.02 33.535 31.9299 33.5551 31.8199 33.5751C31.7399 33.5851 31.62 33.625 31.54 33.645C31.38 33.705 31.33 33.715 31.17 33.795C31.07 33.845 30.99 33.8951 30.9 33.9651C30.89 33.9651 30.88 33.975 30.87 33.985C30.72 34.095 30.61 34.2051 30.48 34.3351L30.36 34.4751C30.32 34.5351 30.29 34.565 30.25 34.625C30.2 34.695 30.16 34.7751 30.13 34.8451C30.1 34.9151 30.05 35.0151 30.03 35.0851C30 35.1651 29.97 35.275 29.95 35.355C29.93 35.455 29.91 35.555 29.9 35.655C29.89 35.795 29.9 35.855 29.9 35.995C29.9 36.055 29.9 36.095 29.91 36.155C29.91 36.255 29.94 36.3551 29.96 36.4451C29.96 36.4851 29.99 36.5351 30 36.5851C30.04 36.7251 30.09 36.8251 30.15 36.9551C30.21 37.0651 30.28 37.175 30.35 37.275C30.4 37.345 30.67 37.645 30.84 37.765L30.87 37.775ZM33.61 34.135C33.61 34.135 33.54 34.105 33.52 34.105C33.44 34.075 33.25 34.015 33.16 34.005C33.12 34.005 33.13 34.0051 33.11 33.9751L33.09 33.9451C33.05 33.8851 32.9401 33.795 32.9401 33.785C32.9601 33.785 32.97 33.7851 32.99 33.8051C33.13 33.8451 33.38 33.9651 33.51 34.0551L33.58 34.105C33.58 34.105 33.59 34.105 33.6 34.115C33.6 34.115 33.61 34.115 33.62 34.135H33.61ZM30.75 34.6951C30.75 34.6951 30.7 34.755 30.67 34.785C30.62 34.835 30.54 34.9551 30.53 34.9651C30.46 34.9651 30.3999 34.9551 30.3199 34.9551C30.3199 34.9351 30.33 34.925 30.34 34.905L30.41 34.775C30.5 34.615 30.64 34.4451 30.76 34.3251C30.77 34.3151 30.78 34.305 30.79 34.295C30.87 34.215 31.07 34.065 31.17 34.005C31.22 33.975 31.34 33.915 31.39 33.895C31.39 33.915 31.39 33.895 31.39 33.915C31.3 34.045 31.2201 34.225 31.1801 34.365C31.2001 34.335 30.84 34.5851 30.76 34.6951H30.75ZM32.76 34.5651L32.55 34.5951C32.48 34.6051 32.41 34.625 32.35 34.625V34.645C32.35 34.645 32.3499 34.645 32.3199 34.625C32.3099 34.625 32.26 34.635 32.25 34.645C32.23 34.645 32.2001 34.645 32.1801 34.665C32.1301 34.675 32.08 34.6851 32.04 34.7051C31.88 34.7551 31.93 34.7651 31.83 34.6951L31.59 34.525C31.59 34.525 31.52 34.4751 31.48 34.4551L31.36 34.395C31.4 34.165 31.52 34.055 31.62 33.895C31.65 33.855 31.68 33.825 31.71 33.795C31.75 33.755 31.76 33.765 31.85 33.745C31.99 33.705 32.22 33.6851 32.37 33.6951C32.47 33.6951 32.43 33.6951 32.53 33.7251C32.69 33.7951 32.86 33.915 32.97 34.045C33 34.085 33 34.075 32.96 34.165C32.94 34.205 32.92 34.255 32.9 34.295L32.78 34.5651H32.76ZM34.0601 34.5651C34.1201 34.6351 34.17 34.7251 34.22 34.8051C34.26 34.8751 34.2899 34.935 34.3199 35.015C34.3899 35.165 34.4001 35.225 34.4401 35.395C34.4601 35.455 34.5 35.685 34.49 35.755C34.47 35.705 34.45 35.5951 34.38 35.4651C34.32 35.3451 34.2601 35.255 34.1801 35.165C34.1601 35.145 34.17 35.1251 34.16 35.0751C34.16 35.0151 34.15 34.955 34.14 34.885C34.14 34.865 34.13 34.825 34.12 34.795L34.08 34.635C34.08 34.635 34.0601 34.5851 34.0601 34.5551V34.5651ZM33.37 35.4351C33.35 35.5251 33.3399 35.5951 33.3199 35.6951C33.2899 35.8151 33.2301 35.9651 33.1801 36.0751C33.1401 36.1551 33.14 36.1851 33.09 36.1951C33.03 36.1951 32.98 36.225 32.92 36.235C32.86 36.245 32.8 36.255 32.75 36.275C32.69 36.285 32.63 36.2951 32.58 36.3151C32.49 36.3351 32.4 36.355 32.33 36.365C32.28 36.375 32.28 36.385 32.25 36.355C32.16 36.265 32.0301 36.145 31.9401 36.045C31.8901 35.985 31.84 35.935 31.79 35.885L31.7 35.775C31.7 35.775 31.7 35.7251 31.7 35.6951C31.72 35.5851 31.75 35.475 31.78 35.365C31.8 35.285 31.88 35.065 31.92 34.985C31.94 34.955 31.92 34.9451 31.97 34.9351C32.17 34.8651 32.25 34.8551 32.47 34.8051C32.53 34.7951 32.59 34.785 32.64 34.775L32.78 34.755C32.78 34.755 32.7799 34.755 32.8199 34.775C32.8599 34.805 32.8901 34.835 32.9301 34.865L33.04 34.9651C33.1 35.0351 33.17 35.1051 33.23 35.1851C33.23 35.1851 33.23 35.1851 33.23 35.1951L33.35 35.355C33.35 35.355 33.37 35.3951 33.36 35.4451L33.37 35.4351ZM31.5601 35.8451L31.72 36.035C31.72 36.035 31.76 36.075 31.78 36.105L32.14 36.4751C32.1 36.6151 32.05 36.765 32.02 36.915C32.02 36.945 32.01 36.975 32 37.005C32 37.035 31.98 37.0651 31.98 37.0951L31.96 37.1951C31.96 37.1951 31.7201 37.255 31.6901 37.265C31.6501 37.265 31.59 37.285 31.54 37.285C31.52 37.285 31.49 37.285 31.47 37.285C31.44 37.285 31.41 37.285 31.39 37.285C31.26 37.305 31.2501 37.305 31.1901 37.255C31.0101 37.125 30.69 36.8251 30.67 36.5951C30.65 36.2951 30.6899 36.1051 30.8199 35.9551C30.8299 35.9451 30.83 35.935 30.85 35.925C30.88 35.905 31.38 35.8051 31.58 35.8251L31.5601 35.8451ZM30.49 36.5651H30.22C30.18 36.5051 30.15 36.315 30.13 36.235C30.08 35.995 30.09 35.6851 30.14 35.4451C30.15 35.3951 30.21 35.125 30.24 35.115C30.27 35.115 30.47 35.115 30.48 35.125C30.48 35.125 30.5 35.325 30.51 35.355L30.53 35.4651C30.54 35.5551 30.62 35.775 30.65 35.855C30.67 35.885 30.65 35.8651 30.62 35.9351C30.61 35.9651 30.59 35.995 30.58 36.025C30.47 36.305 30.49 36.5251 30.47 36.5651H30.49ZM33.58 36.905C33.58 36.905 33.46 36.615 33.42 36.545C33.38 36.465 33.34 36.375 33.29 36.285C33.26 36.235 33.26 36.2551 33.29 36.1951C33.37 36.0451 33.46 35.795 33.49 35.635C33.5 35.565 33.52 35.495 33.53 35.415C33.58 35.395 33.73 35.3551 33.78 35.3451C33.83 35.3351 34.01 35.285 34.05 35.285C34.05 35.305 34.07 35.3151 34.08 35.3251C34.19 35.4651 34.2899 35.6651 34.3199 35.8451C34.3199 35.9051 34.3399 35.925 34.3199 35.985C34.2999 36.075 34.28 36.165 34.25 36.245C34.21 36.365 34.16 36.4751 34.09 36.5851C34.07 36.6251 34.02 36.7051 33.98 36.7251C33.88 36.7851 33.65 36.895 33.55 36.895L33.58 36.905ZM34.03 37.235L33.97 37.3051C33.91 37.3751 33.8 37.4951 33.72 37.5551L33.54 37.6951L33.39 37.795C33.28 37.855 33.24 37.875 33.14 37.915C33.1 37.935 32.89 38.015 32.86 38.005V37.675C32.86 37.675 32.91 37.645 32.95 37.625C33.02 37.585 33.1 37.545 33.17 37.495C33.22 37.455 33.25 37.435 33.3 37.395L33.42 37.275C33.42 37.275 33.51 37.175 33.55 37.115C33.57 37.085 33.6101 37.0951 33.6901 37.0751C33.7801 37.0451 33.86 37.025 33.95 36.985C33.97 36.975 34.01 36.9551 34.03 36.9451C34.05 37.0351 34.09 37.155 34.03 37.245V37.235ZM31.29 37.495C31.48 37.485 31.6301 37.4651 31.8101 37.4351C31.8401 37.4351 31.87 37.415 31.9 37.415C32.04 37.385 31.9999 37.365 32.0699 37.405C32.2399 37.515 32.51 37.6551 32.72 37.6851C32.72 37.7351 32.7201 38.0251 32.6901 38.0551H32.66C32.46 38.0951 32.34 38.0951 32.12 38.0851C31.8 38.0751 31.58 38.005 31.34 37.865C31.28 37.835 31.27 37.8451 31.27 37.7151C31.27 37.6551 31.27 37.565 31.29 37.505V37.495ZM0 38.285V39.745H50V38.285H34.1901L34.16 38.3051C34.1 38.3451 34.05 38.385 33.99 38.425C33.81 38.545 33.56 38.675 33.35 38.745L33.15 38.8051C33.06 38.8351 32.97 38.855 32.88 38.875C32.33 38.975 31.79 38.945 31.27 38.755C30.98 38.655 30.73 38.5151 30.48 38.3251C30.46 38.3151 30.44 38.295 30.42 38.275H0V38.285ZM25.83 26.8351C26.36 26.7351 29.81 26.9651 30.04 27.1851C30.18 27.3051 30.13 27.3251 30.13 27.5751C30.13 28.9051 30.17 31.7851 30.15 33.7251C30.26 33.6151 30.38 33.515 30.51 33.415C30.52 33.415 30.53 33.395 30.55 33.385C30.66 33.305 30.78 33.2351 30.9 33.175C31.05 33.095 31.19 33.045 31.35 32.985C31.47 32.945 31.62 32.905 31.75 32.885C31.87 32.865 31.99 32.8451 32.11 32.8351C32.41 32.8151 32.88 32.8551 33.16 32.9551L33.21 32.9751V30.675C33.21 30.595 33.28 30.525 33.36 30.525H34.87C34.95 30.525 35.02 30.595 35.02 30.675V33.375C35.02 33.455 34.95 33.525 34.87 33.525H34.24C34.24 33.525 34.34 33.605 34.38 33.645C34.49 33.745 34.6001 33.8451 34.6801 33.9751C34.6901 33.9851 34.7 33.995 34.71 34.005C34.74 34.035 34.77 34.075 34.79 34.115C34.87 34.225 34.94 34.3351 35 34.4551C35.05 34.5551 35.1 34.645 35.14 34.745C35.28 35.085 35.39 35.745 35.35 36.105C35.33 36.245 35.33 36.385 35.29 36.515C35.29 36.535 35.28 36.5551 35.27 36.5851C35.24 36.7451 35.17 36.9251 35.11 37.0751C35.05 37.2151 34.98 37.3451 34.91 37.4751H49.01V35.4351H45.77C45.97 34.5851 48.18 27.4351 48.47 26.4651C48.77 25.4451 48.91 25.3651 48.37 24.7051C47.86 24.0251 42.74 19.775 41.86 19.775C41.9 19.455 41.93 19.305 42.01 19.025C42.08 18.805 42.1201 18.5551 42.1901 18.3051C42.2601 18.0551 42.29 17.855 42.37 17.605C42.48 17.265 42.48 17.135 42.33 16.875C42.02 16.305 41.16 15.355 40.71 14.895C38.8 12.955 36.15 11.425 33.5 10.535L31.39 9.90503C29.99 9.48503 27.64 9.21503 25.86 9.15503V0.255005H24.27V9.14502C23.4 9.16502 22.44 9.22508 21.66 9.33508C17.85 9.84508 13.78 11.185 10.78 13.605C10.6 13.755 10.47 13.835 10.27 14.015C9.42002 14.765 8.75997 15.4051 8.08997 16.3051L7.70996 16.8451C7.37996 17.3851 8.09003 19.065 8.16003 19.785C6.86003 20.585 4.09998 22.1151 2.22998 24.0651C1.98998 24.3251 1.77006 24.5451 1.56006 24.8051C1.29006 25.1351 1.21999 25.395 1.35999 25.875C1.46999 26.255 1.59006 26.5651 1.69006 26.9451C2.09006 28.4151 2.54997 29.685 2.96997 31.175C3.16997 31.885 3.37999 32.6051 3.60999 33.3051C3.71999 33.6551 3.83005 34.025 3.93005 34.385C4.02005 34.695 4.18001 35.0951 4.26001 35.4651H1.01001V37.505H29.71C29.67 37.435 29.63 37.3651 29.6 37.3051C29.52 37.1451 29.45 36.9951 29.4 36.8251C29.38 36.7651 29.36 36.695 29.35 36.635C29.32 36.505 29.29 36.385 29.28 36.245C29.28 36.175 29.27 36.115 29.27 36.045C29.27 35.905 29.27 35.775 29.27 35.635C29.27 35.575 29.28 35.5251 29.29 35.4651H25.9C25.9 35.4651 25.85 35.4651 25.84 35.4651V26.875L25.83 26.8351Z" fill="white"/>
</g>
</mask>
<g mask="url(#mask0_202_126)">
<g id="Group">
<path id="Vector_2" d="M50 0.205078H0V39.7151H50V0.205078Z" fill="url(#paint0_linear_202_126)"/>
</g>
</g>
</g>
<defs>
<linearGradient id="paint0_linear_202_126" x1="5.43" y1="32.1251" x2="48.76" y2="5.20509" gradientUnits="userSpaceOnUse">
<stop stop-color="#312E6A"/>
<stop offset="1" stop-color="#57BDDD"/>
</linearGradient>
</defs>
</svg>
