<svg width="52" height="50" viewBox="0 0 52 50" fill="none" xmlns="http://www.w3.org/2000/svg">
<g id="Clip path group">
<mask id="mask0_202_134" style="mask-type:luminance" maskUnits="userSpaceOnUse" x="0" y="0" width="52" height="50">
<g id="clippath-151">
<path id="Vector" d="M5.32336 39.89C4.38336 38.66 3.41339 37.3101 2.47339 36.0701C2.25339 35.1101 2.87342 34.6 2.75342 34.63C3.54342 35.63 3.76347 35.9 4.55347 36.9C5.11347 37.71 6.28336 39.08 6.82336 39.89H5.32336ZM1.00342 37.02V38.42C1.19342 38.83 1.06347 39.84 1.93347 41.51C2.09347 41.81 2.32347 42.13 2.43347 42.38C2.01347 42.68 2.08337 42.6001 2.08337 43.4701C2.08337 43.8501 1.97343 44.5701 2.26343 44.7201C2.48343 44.8401 4.68342 44.78 5.13342 44.78C5.22342 47.76 4.56341 47.4601 6.99341 47.4601C7.02341 49.2901 6.77346 49.4401 7.79346 49.4301C8.72346 49.4301 9.65337 49.4301 10.5834 49.4301C11.7034 49.4301 11.5134 49.3901 11.5134 47.5701C11.5134 46.6401 11.5034 45.71 11.5134 44.78H19.6034C19.6234 46.08 19.5634 47.67 19.6034 48.89C19.6234 49.5 19.9334 49.4301 20.4934 49.4301C21.4234 49.4301 22.3534 49.4301 23.2834 49.4301C24.2634 49.4301 24.1434 49.4201 24.1134 47.4701C25.1234 47.3501 25.8734 47.7101 25.9634 47.0701C26.0434 46.5101 25.9634 45.41 25.9734 44.79C26.8134 44.71 28.5934 44.92 28.9034 44.65L29.0234 44.52V42.67C28.6934 42.26 28.6234 42.38 27.6534 42.38C27.1334 42.38 26.4634 42.4201 25.9634 42.3601C25.9634 42.0401 26.0035 40.5501 25.9235 40.3501C25.7535 39.8801 24.5734 40.1301 24.1034 40.0801C24.0134 37.7301 24.8134 38.1201 20.7434 38.1201C19.2934 38.1201 19.5834 38.22 19.5834 39.66C19.5834 40.56 19.5834 41.4501 19.5834 42.3501L16.2734 42.3701C16.5534 41.6801 16.8334 41.63 17.3234 40.13C17.6234 39.23 17.7335 38.2101 17.6835 37.2001C17.6435 36.2401 17.4234 35.35 17.1034 34.54C16.5234 33.05 16.1535 33.3001 16.1635 32.2201C16.1635 30.3801 16.3734 27.65 15.7134 26.14C15.0734 24.67 13.9234 23.5001 12.3434 22.9401C11.0034 22.4601 7.8334 22.42 6.4834 22.89C4.8834 23.45 3.69347 24.5601 3.05347 25.9701C2.29347 27.6301 2.52344 29.9701 2.52344 31.9501C2.52344 33.4601 2.37344 32.6501 1.65344 34.3701C1.10344 35.6901 1.1034 36.7301 0.983398 36.9901L1.00342 37.02ZM3.41345 27.6001C3.61345 26.1301 4.48337 25.0901 5.33337 24.4301C6.50337 23.5201 7.61342 23.42 9.38342 23.42C11.2934 23.42 12.1335 23.4901 13.4235 24.4401C14.2135 25.0101 15.1234 26.1701 15.3234 27.6001C12.9634 27.6001 14.0834 27.82 13.0934 26.52C12.1234 25.23 10.8034 25.15 9.38342 25.15C8.16342 25.15 7.45348 25.1501 6.56348 25.7101C5.98348 26.0801 5.30336 26.7901 5.07336 27.6001H3.42346H3.41345ZM5.9834 30.02C5.6934 29.65 5.61348 28.9101 5.69348 28.3501C5.78348 27.7301 6.01337 27.3901 6.33337 26.9601C7.10337 25.9401 8.21336 25.9401 9.32336 25.9401C10.8834 25.9401 11.6034 26.0201 12.3934 26.9401C12.6734 27.2601 12.9434 27.7501 13.0334 28.3201C13.1634 29.1101 12.9534 29.43 12.7834 30.04C12.2634 29.91 11.8134 29.69 11.2134 29.54C9.80338 29.19 8.08337 29.3 6.70337 29.76C6.45337 29.85 6.22339 29.97 5.97339 30.02H5.9834ZM3.34338 31.8401V28.4H4.87341C4.85341 29.46 4.9734 29.53 5.2334 30.39C5.0434 30.58 4.50342 30.8701 4.25342 31.0601C4.10342 31.1801 3.96347 31.3101 3.80347 31.4301C3.57347 31.6101 3.53338 31.7301 3.34338 31.8301V31.8401ZM13.5034 30.39C13.6634 29.7 13.9034 29.77 13.8634 28.4H15.3934V31.8501C15.2434 31.7501 15.1034 31.6201 14.9634 31.4801C14.3234 30.8701 13.8634 30.72 13.5034 30.39ZM6.9834 40.13C4.7634 40.15 5.16342 39.76 5.13342 42.41C3.80342 42.41 3.52342 42.6501 2.88342 41.6001C1.58342 39.4601 1.43348 36.5401 2.56348 34.3701C5.98348 27.7801 15.1734 29.34 16.7234 35.92C17.2034 37.95 16.7834 40.39 15.6334 41.91C15.3434 42.29 15.2034 42.42 14.5834 42.41C13.5634 42.41 12.5334 42.41 11.5134 42.41C11.5134 41.51 11.5134 40.6101 11.5134 39.7001C11.5134 37.8501 12.1435 38.17 7.68347 38.15C6.63347 38.15 7.1334 38.6801 6.9834 40.1201V40.13ZM5.93347 40.9301H6.99341V46.6801H5.93347V40.9301ZM24.1234 40.9301H25.1835C25.2435 41.4001 25.2435 46.4401 25.1635 46.6801H24.1334C24.0634 46.4601 24.0534 41.3301 24.1134 40.9301H24.1234ZM9.65344 48.14V39.3301V38.9701H9.87341H10.4734H10.7134V48.66H9.65344V48.15V48.14ZM20.4135 38.9701H21.4634L21.4734 48.65H20.4335L20.4135 38.9701ZM43.7734 19.89C45.0834 19.15 46.2534 18.25 47.4734 17.53C50.7434 15.58 52.3934 15.92 49.5834 9.75C48.7534 7.92 48.1434 7.08001 46.8634 6.01001C46.1134 5.39001 45.6734 5.2001 45.0834 4.4801C44.5434 3.8201 44.3434 3.2101 43.8434 2.6001C42.6434 1.1701 35.5534 -0.269883 36.6534 5.87012C39.0134 6.80012 42.3634 4.00001 43.1134 6.64001C43.5934 8.35001 43.5534 9.45009 43.7734 10.7201C44.1234 11.2801 44.2234 11.82 44.2034 12.38C44.3134 12.68 44.4434 13.0001 44.6034 13.3501C44.4334 13.3001 44.2734 13.23 44.1134 13.14C44.0134 13.66 43.8634 14.2101 43.7234 14.8101C43.4134 16.2301 42.9734 17.3301 43.2534 18.8101L43.4135 19.63C43.4935 19.67 43.5634 19.72 43.6434 19.78L43.7935 19.89H43.7734ZM29.6935 29.8401C28.3135 32.0401 29.9834 34.35 29.9834 34.63C29.9834 34.77 29.8634 35.2901 29.8334 35.4801C29.7834 35.8201 29.7834 36.1701 29.5734 36.4401L28.3434 34.1801C26.5434 30.8401 26.2734 29.78 25.8934 25.88C26.7734 26.02 27.1934 25.95 27.9734 25.76C28.5134 27.52 28.6235 28.6901 29.6935 29.8401ZM47.2234 28.4901L48.0034 29.6201C48.2134 30.0301 48.4134 30.59 48.5834 31.04L50.4534 34.75C50.8334 35.45 51.2634 35.9201 50.4934 36.5801C50.0134 37.0001 50.1034 36.75 49.7534 37.27C49.1634 38.16 48.3434 38.72 47.6534 39.38C47.0234 39.98 45.1235 41.33 44.3035 41.78C43.7635 42.08 42.8935 42.44 42.4135 42.76C41.9235 45.73 41.2934 45.7 37.7734 46.53C33.0134 47.65 33.0035 49.1301 32.2935 49.4601C32.2735 48.3601 32.4834 47.3201 32.7734 46.3501C33.0934 45.2901 33.3734 44.72 33.7834 43.8C33.0834 44.26 32.1835 45.85 31.9135 46.88C31.6035 46.63 31.4435 46.09 31.3135 45.65C31.1735 45.16 31.0535 44.7101 31.0435 44.1901C31.0335 43.6301 31.1934 43.1401 31.1134 42.5801C31.0434 42.1301 30.9234 41.5801 30.8334 41.1101C30.3534 38.4201 30.4334 37.3901 30.7034 34.7101C30.7534 34.1801 29.9934 33.0001 29.8934 32.0901C29.7034 30.4201 30.5834 29.5001 31.7534 28.6901C32.0934 28.4501 32.5434 28.2801 32.8834 28.0901C33.6334 27.6601 34.3634 27.1801 34.7434 26.3101C34.4534 26.5001 34.3234 26.6901 34.0134 26.9401C33.7534 27.1401 33.5534 27.2601 33.2434 27.4301C33.0234 26.5301 33.1535 25.7001 33.9235 25.2101C34.6235 24.7701 35.2235 24.65 35.4335 23.75C35.8935 21.82 35.2234 23.0601 36.3734 21.7101C36.7134 21.3101 37.3634 20.4401 37.3534 19.7201C36.9834 20.5301 34.6034 23.38 33.4034 22.63C33.1934 22.5 33.0135 22.1 32.9135 21.9C32.6635 21.43 33.0635 21.6601 32.3135 21.4601C32.2935 21.2501 32.2734 21.0301 32.2634 20.8201C31.7834 20.8401 31.8534 20.91 31.3434 20.8C31.2934 20.12 31.7835 19.82 31.5635 19.04C31.3635 18.34 30.8734 18.5201 30.7634 17.6001C30.7234 17.2701 30.7734 16.9001 30.7334 16.5901C30.6934 16.2901 30.1234 15.41 31.1234 14C31.6134 13.31 32.6934 12.4701 33.5234 11.9801C34.6534 11.3101 35.3734 10.9 36.8934 11.17C37.3234 10.4 37.2334 10.2 37.8734 9.67004C38.1834 9.41004 39.0135 8.80004 39.5635 8.79004C40.4735 8.76004 42.3334 10.24 42.7234 10.66C43.8134 11.83 43.3535 12.7201 42.9335 14.6201C42.5835 16.2001 42.1434 17.2801 42.4534 18.9401C41.4734 18.8501 41.7334 18.65 41.3434 18.05C41.0934 18.93 41.5935 19.9301 42.6735 20.2301C42.7635 20.2501 42.8435 20.27 42.9235 20.29C43.1535 20.37 42.9934 20.28 43.1434 20.39C41.8934 21.22 40.8434 20.7101 39.9634 19.9901C40.0634 20.6901 40.4135 20.93 40.8035 21.3C40.7835 21.31 40.7434 21.3001 40.7334 21.3401C40.7234 21.3701 40.6835 21.37 40.6635 21.38L40.2434 21.5901C39.7834 21.8401 39.1834 22.4301 38.9634 22.8701C40.0734 22.4001 40.4435 21.7801 41.9435 22.0901C45.0035 22.7201 45.5635 25.4301 46.5435 27.2401C46.7135 27.5501 47.1734 28.0701 47.2134 28.4701L47.2234 28.4901ZM41.6935 31.5901L41.6234 31.7001C41.0834 32.5801 40.3334 33.75 39.8934 34.78C38.6834 37.54 39.4235 35.86 37.9335 37.64C37.2935 38.41 36.3334 39.3 36.0734 40.64L41.7034 31.5901H41.6935ZM36.0635 40.64C36.6635 39.92 37.8834 37.91 39.0334 37.42C38.8034 38.26 39.1634 39.7901 39.7434 40.2101C40.1734 40.4101 40.3834 40.1701 41.0134 40.4801C41.5634 40.7501 41.5034 40.64 42.0134 40.28C43.2634 39.37 44.1534 38.2 45.0034 36.92L46.3135 34.9601C46.0635 34.1601 45.2434 32.9001 44.7634 32.2101L42.7935 29.88C42.3335 29.46 42.1834 29.24 41.5934 28.89C42.7834 30.9 42.5334 30.23 41.7234 31.53L36.0635 40.63V40.64ZM27.3334 20.0701C30.5034 21.0201 28.9734 25.43 26.1034 24.63C23.0434 23.77 24.3834 19.1801 27.3334 20.0701ZM27.3434 22.6801C27.4834 21.7501 26.7434 21.3601 26.2534 21.8601C25.7534 22.3701 26.1535 23.0601 27.0535 22.9401L27.3534 22.6801H27.3434ZM27.0134 19.2401C28.7534 19.4401 30.0534 20.82 29.8234 22.76C29.3234 26.87 23.0034 25.99 23.6234 21.9C23.8534 20.36 25.2334 19.0301 27.0134 19.2401ZM29.4734 22.76C29.7334 21.19 28.4534 19.7401 27.1334 19.6001C23.2134 19.1901 22.9234 24.6601 26.3434 25.0901C27.9434 25.2901 29.2434 24.17 29.4734 22.76ZM30.3634 2.13C30.9734 1.64 30.9834 1.50004 31.2134 0.540039C28.7134 1.47004 24.6134 -0.37999 23.2434 1.51001C20.9334 4.70001 22.4035 4.68004 22.1735 6.54004C22.0535 7.49004 22.0734 7.49012 22.3934 8.37012C22.7634 9.38012 23.4334 10.69 23.4634 11.77C23.5034 13.1 22.7534 14.2101 21.3834 14.1001C19.7034 13.9601 17.2434 10.7801 15.0134 12.9601L16.3135 15.1201C15.3135 14.5001 14.3234 12.5701 12.9934 12.1001C10.3834 11.1901 9.80338 12.9 8.34338 13.29C9.64338 10.48 9.03339 8.8201 9.85339 6.4801C10.6434 4.2201 13.6234 6.57012 16.2734 5.87012C16.5534 4.15012 15.9634 1.71008 14.2434 1.46008C8.97341 0.680083 8.7134 3.40006 7.7334 4.56006C6.6134 5.88006 4.98336 6.0201 3.32336 9.7301C0.613364 15.7601 1.97347 15.51 5.43347 17.51C7.99347 18.99 10.3034 21.37 14.3334 21.26C14.7334 20.73 14.4134 20.7301 14.7134 20.0601C15.4234 24.1901 17.0434 26.78 18.9834 29.13C19.4734 28.75 20.1434 27.31 20.1534 27.27C20.1634 27.19 20.2134 27.18 20.2434 27.14C19.8734 29.93 18.3635 32.53 17.8035 35.04C18.9335 35.14 18.7835 36.47 19.8035 36.8C20.9835 37.18 23.6634 36.6401 25.3834 37.5701C27.8234 38.8901 29.2235 41.7101 29.4335 41.7101C30.3635 41.7101 28.7934 37.57 28.9534 36.92L27.6635 34.54C26.9535 33.23 26.2534 31.8801 25.8434 30.4401C25.4234 28.9901 25.2734 27.4301 25.1334 25.9301V25.8701C23.5334 25.2101 22.5834 23.64 22.8634 21.76C23.1734 19.7 25.0234 18.1901 27.1234 18.4301C29.3834 18.6901 30.9034 20.5401 30.6234 22.8201C30.4634 24.1201 29.7835 25.1201 28.8035 25.6801C29.1335 26.8401 29.3434 28.09 30.1034 29.05C30.4434 28.67 30.8534 28.33 31.3334 28.01C31.7034 27.76 32.0834 27.62 32.4534 27.41C32.2234 26.28 32.4734 25.17 33.5234 24.52C33.8034 24.34 34.1535 24.19 34.4135 24C34.5835 23.88 34.6435 23.75 34.6935 23.55C34.7135 23.48 34.7234 23.4201 34.7434 23.3501C34.1734 23.5801 33.5734 23.64 33.0234 23.29C32.6334 23.05 32.4534 22.64 32.2534 22.26C32.2534 22.26 32.2534 22.2501 32.2434 22.2401C32.2134 22.2401 32.1734 22.2201 32.1434 22.2101C31.3934 21.8101 31.8434 21.9901 31.7134 21.3701C31.4134 21.4701 30.8934 21.2301 30.8834 20.8501C30.8534 20.4001 30.8434 20.07 30.9834 19.66C31.0434 19.49 30.8934 19.4201 30.8434 19.2401C30.8034 19.1001 30.7234 19.0601 30.6234 18.9601C30.2434 18.6001 30.0834 18.2001 30.0234 17.6901C29.9834 17.3501 30.0434 17.0001 30.0034 16.7101C29.9034 16.3201 29.8035 16.1 29.7935 15.65C29.7835 14.92 30.0435 14.25 30.4435 13.66C28.1835 11.82 31.9534 8.78002 31.5134 6.90002C31.3134 6.04002 31.1634 6.70005 31.0834 5.93005C31.0634 5.66005 31.1935 4.93001 31.1835 4.51001C31.1635 3.48001 30.6834 2.75012 30.3934 2.12012L30.3634 2.13ZM3.91345 39.3101C3.66345 38.9901 3.43348 38.6801 3.19348 38.3701C2.95348 38.0601 2.71339 37.7501 2.47339 37.4401C2.38339 37.3201 2.27347 37.18 2.18347 37.04C1.98347 36.6 2.06347 36.4301 2.18347 36.3101C2.32347 36.4201 2.39344 36.5901 2.52344 36.7301C2.75344 37.0301 2.99339 37.34 3.22339 37.64C3.41339 37.94 4.65341 39.48 4.87341 39.89V40.54C4.80341 40.45 4.15345 39.6301 3.91345 39.3101Z" fill="white"/>
</g>
</mask>
<g mask="url(#mask0_202_134)">
<g id="Group">
<path id="Vector_2" d="M52.3733 -0.379883H0.613281V49.52H52.3733V-0.379883Z" fill="url(#paint0_linear_202_134)"/>
</g>
</g>
</g>
<defs>
<linearGradient id="paint0_linear_202_134" x1="4.27328" y1="35.73" x2="52.2432" y2="11.65" gradientUnits="userSpaceOnUse">
<stop stop-color="#312E6A"/>
<stop offset="1" stop-color="#57BDDD"/>
</linearGradient>
</defs>
</svg>
