<svg width="50" height="40" viewBox="0 0 50 40" fill="none" xmlns="http://www.w3.org/2000/svg">
<g id="Clip path group">
<mask id="mask0_202_151" style="mask-type:luminance" maskUnits="userSpaceOnUse" x="0" y="0" width="50" height="40">
<g id="clippath-142">
<path id="Vector" d="M6.03999 12.6601C6.03999 12.6601 19.7 10.11 20.14 10.12V12.26L6.02 14.5501L6.03999 12.65V12.6601ZM20.14 13.87V15.8101L20.13 15.9301L6.03 17.9101L6.05 15.99L20.14 13.87ZM20.14 17.62L20.09 19.75L6.03 21.3001V19.36L20.14 17.62ZM6.03999 24.64V22.72C6.50999 22.62 7.28 22.5801 7.78 22.5401L18.34 21.51C18.8 21.47 19.74 21.32 20.14 21.36C20.14 21.49 20.2 23.39 20.1 23.48C20 23.57 18.39 23.6401 18.11 23.6701L10.06 24.33C9.34 24.39 6.51999 24.65 6.03999 24.64ZM37.31 2.70998C37.08 2.54998 36.81 2.38 36.58 2.23C36.33 2.06 36.14 1.92003 35.89 1.76003C35.57 1.56003 34.66 0.909977 34.46 0.829977C34.46 12.23 34.3 23.4701 34.46 34.6801H39.29C40.58 34.7301 43.57 34.6801 44.94 34.6801V29.73C44.92 29.44 44.94 29.3101 44.94 29.0401V7.86001C44.7 7.62001 44.06 7.26007 43.76 7.05007C39.07 3.91007 42.53 6.34 37.31 2.73V2.70998ZM35.94 8.24001C36.03 8.36001 43.09 12.29 43.41 12.46C43.41 13.04 43.45 13.8701 43.39 14.4101L36 10.8201L35.96 9.82998L35.94 8.24001ZM36.01 12.49L43.41 15.83L43.39 17.7801L36 14.77L36.02 12.48L36.01 12.49ZM36 16.49C36.35 16.56 42.92 19.04 43.41 19.22V21.1601C43 21.1001 40.35 20.17 39.66 19.96C39.21 19.82 36.13 18.9 35.99 18.71V16.49H36ZM36.02 20.47C36.58 20.58 43.3 22.56 43.42 22.64V24.5401C42.98 24.5001 36.1 22.78 36 22.73L36.02 20.47ZM36.02 24.45L43.41 26V27.9401C42.91 27.9201 42.05 27.74 41.51 27.65C40.63 27.5 36.21 26.85 35.99 26.72L36.02 24.46V24.45ZM28.97 8.57998C29.08 8.41998 29.4 8.43005 29.58 8.40004C29.97 8.33004 31.21 8.07999 31.45 8.08999V10.2901C31.44 10.3801 31.45 10.34 31.42 10.39C31.27 10.48 29.28 10.7901 28.97 10.8101V8.58999V8.57998ZM24.6 11.49C24.6 11.06 24.6 10.63 24.6 10.2C24.6 9.14997 24.51 9.3 24.92 9.23C25.53 9.13 26.52 8.88001 27.09 8.86001L27.07 11.12C26.69 11.2 24.86 11.54 24.6 11.49ZM31.47 12.14V14.46L28.98 14.7901C28.96 14.4301 28.93 12.74 29 12.49L31.47 12.14ZM27.09 12.8001L27.07 15.0501C26.81 15.1201 24.8 15.4 24.6 15.37V13.1601L27.09 12.8001ZM28.97 16.48C29.55 16.41 30.95 16.15 31.46 16.2C31.46 16.67 31.55 18.19 31.43 18.5C31.21 18.59 29.32 18.7701 28.96 18.7801V16.48H28.97ZM24.6 17.97L24.56 17.01C25.18 16.93 26.49 16.72 27.09 16.73V19L24.63 19.26L24.6 17.98V17.97ZM31.47 20.24C31.48 20.63 31.47 21.0401 31.47 21.4401V22.3201C31.47 22.5001 31.49 22.4301 31.42 22.5701L28.97 22.76V20.46L31.47 20.24ZM27.1 20.6601V22.9201C26.76 22.9701 24.76 23.17 24.65 23.09C24.55 22.94 24.58 21.21 24.62 20.89L27.1 20.6601ZM29 24.45C29.38 24.41 31.2 24.2501 31.48 24.3001V26.59L31.45 26.63L28.98 26.76L29 24.46V24.45ZM24.62 26.96C24.58 26.61 24.61 26.1 24.61 25.74C24.61 25.06 24.51 24.77 24.78 24.74C25.31 24.67 26.55 24.58 27.1 24.6V26.86C26.78 26.9 24.84 27.02 24.62 26.97V26.96ZM21.61 29.59L6.83 30.1L6.42999 30.3101V34.65H7.39L8.36 34.6801H13.06C13.06 34.4001 13.06 34.12 13.06 33.83C13.09 32.5 13.99 31.3 15.24 30.88H15.25L15.4 30.84C15.57 30.55 15.9 30.35 16.25 30.35C16.6 30.35 16.93 30.54 17.1 30.84C17.16 30.85 17.21 30.87 17.27 30.89C17.68 31.03 18.02 31.23 18.35 31.51C18.76 31.87 19.1 32.36 19.27 32.88C19.37 33.19 19.44 33.51 19.44 33.84C19.44 34.11 19.44 34.38 19.44 34.65H21.6V29.59H21.61ZM13.07 35.5501H2.35001V37.2901H5.16H12.58C12.56 37.0901 12.57 36.84 12.58 36.72C12.63 36.43 12.82 36.28 13.06 36.22C13.06 36.06 13.06 35.89 13.06 35.74V35.53L13.07 35.5501ZM33.52 35.5501H19.45C19.45 35.7801 19.45 36.01 19.45 36.24C19.55 36.26 19.64 36.3 19.72 36.36C19.98 36.57 19.95 36.84 19.95 37.13C19.95 37.2 19.95 37.2501 19.95 37.3101H47.45L47.44 35.5601H42.18L33.53 35.5501H33.52ZM34.56 38.23H19.66C19.65 38.29 19.63 38.34 19.61 38.4L19.59 38.45L19.56 38.5C19.38 38.78 19.07 39.0301 18.72 39.0501C18.24 39.1101 17.75 38.82 17.56 38.36C17.54 38.32 17.53 38.28 17.52 38.24H15.03C14.9 38.72 14.44 39.0601 13.93 39.0601C13.43 39.0601 13.01 38.71 12.88 38.25H0V39.99H3.12H43.79H50L49.98 38.24H44.15L34.56 38.23ZM18.43 7.63003C18.25 7.55003 18.07 7.47003 17.89 7.38003C17.71 7.53003 17.52 7.68999 17.34 7.83999L18.44 7.62002L18.43 7.63003ZM13.16 8.68007C12.99 8.61007 12.81 8.55 12.64 8.48C12.46 8.62 12.28 8.75003 12.1 8.89003L13.17 8.68007H13.16ZM15.79 8.15004C15.61 8.08004 15.44 8.00007 15.26 7.93007C15.08 8.08007 14.9 8.22001 14.71 8.36001L15.79 8.14004V8.15004ZM7.92 9.73C7.75 9.68 7.56999 9.62998 7.39999 9.57998C7.21999 9.70998 7.03001 9.82997 6.85001 9.94997L7.92999 9.73H7.92ZM10.54 9.19997C10.37 9.13997 10.19 9.08005 10.02 9.03005C9.84 9.16005 9.66 9.29006 9.47 9.42006L10.54 9.19997ZM10.07 7.86001C10.11 7.95001 10.15 8.03002 10.19 8.12002C10.23 8.21002 10.27 8.29003 10.31 8.38003C10.59 8.32003 10.87 8.25008 11.15 8.19008C10.92 8.36008 10.69 8.53998 10.45 8.70998C10.49 8.79998 10.53 8.89 10.57 8.98C10.6 9.04 10.63 9.11007 10.66 9.18007L11.99 8.91005C12.02 8.83005 12.06 8.75006 12.09 8.67006C12.14 8.56006 12.19 8.44998 12.23 8.32998C12.01 8.24998 11.78 8.18 11.56 8.1C11.84 8.04 12.12 7.97005 12.4 7.91005C12.45 7.80005 12.49 7.68009 12.54 7.57009C12.59 7.46009 12.63 7.34 12.68 7.23C12.72 7.32 12.76 7.42003 12.8 7.51003C12.84 7.60003 12.88 7.70006 12.92 7.79006C13.2 7.73006 13.48 7.66 13.76 7.6C13.53 7.78 13.3 7.96004 13.06 8.14004C13.1 8.24004 13.14 8.33007 13.18 8.43007C13.21 8.50007 13.24 8.57003 13.27 8.64004L14.6 8.37002L14.7 8.11001C14.75 7.99001 14.79 7.87002 14.84 7.75002C14.61 7.66002 14.39 7.58002 14.17 7.50002C14.45 7.44002 14.73 7.37008 15.01 7.31008C15.06 7.19008 15.1 7.06997 15.15 6.94997C15.2 6.82997 15.24 6.70998 15.29 6.57998C15.33 6.67998 15.37 6.78003 15.41 6.88003C15.45 6.98003 15.49 7.08008 15.53 7.19008C15.81 7.13008 16.09 7.06002 16.37 7.00002C16.14 7.19002 15.91 7.38009 15.68 7.57009C15.72 7.67009 15.76 7.78003 15.8 7.88003C15.83 7.96003 15.86 8.03001 15.89 8.11001C16.35 8.02001 16.79 7.93 17.22 7.85L17.32 7.57009C17.37 7.44009 17.41 7.32008 17.46 7.19008C17.23 7.09008 17.01 7.00005 16.79 6.91005C17.07 6.85005 17.35 6.77999 17.63 6.71999C17.68 6.58999 17.72 6.45999 17.77 6.33999C17.82 6.20999 17.86 6.07997 17.91 5.94997C17.95 6.05997 17.99 6.17005 18.03 6.28005C18.07 6.39005 18.11 6.50001 18.15 6.61001C18.43 6.55001 18.71 6.48006 18.99 6.42006C18.76 6.62006 18.53 6.82004 18.3 7.02004C18.34 7.13004 18.38 7.24 18.42 7.35C18.45 7.43 18.48 7.52 18.52 7.6C20.28 7.25 21.52 7.02005 21.59 7.03005C21.65 7.59005 21.61 28.57 21.59 28.64C21.56 28.77 21.61 28.66 21.55 28.74C21.43 28.8 13.72 29.14 13.06 29.11C12.79 29.1 12.35 29.1701 12 29.1801C10.95 29.2201 4.95001 29.53 4.57001 29.47C4.50001 28.86 4.56 13.97 4.56 12.14C4.56 10.04 4.40999 10.4401 5.14999 10.2901L6.72 9.96999L6.83 9.75002C6.88 9.65002 6.93 9.54998 6.98 9.45998C6.76 9.39998 6.54001 9.34006 6.32001 9.29006C6.60001 9.23006 6.88 9.16 7.16 9.1C7.21 9 7.26 8.90007 7.3 8.80007C7.35 8.70007 7.4 8.60002 7.44 8.50002C7.48 8.58002 7.52 8.66001 7.56 8.74001C7.6 8.82001 7.63999 8.9 7.67999 8.98C7.95999 8.92 8.24 8.85006 8.52 8.79006C8.29 8.96006 8.05001 9.12005 7.82001 9.28005C7.86001 9.36005 7.9 9.44005 7.94 9.53005C7.97 9.59005 8 9.64998 8.03 9.70998L9.36 9.44008L9.46001 9.20998C9.51001 9.09998 9.56 9.00003 9.61 8.89003C9.39 8.82003 9.16 8.76008 8.94 8.69008C9.22 8.63008 9.5 8.56002 9.78 8.50002C9.83 8.39002 9.87 8.29007 9.92 8.18007C9.97 8.07007 10.01 7.97001 10.06 7.86001H10.07ZM15.29 33.9101C15.27 34.0001 15.29 35.6 15.29 35.84C15.29 35.99 15.27 36.35 15.29 36.47H17.23C17.25 36.34 17.23 35.98 17.23 35.83C17.23 35.59 17.24 34.0101 17.23 33.9101C17.16 33.9101 16.93 33.9201 16.87 33.9101C16.86 33.7701 16.92 33.4901 16.79 33.4301C16.76 33.4201 15.77 33.4101 15.72 33.4301C15.6 33.4901 15.66 33.76 15.65 33.9C15.6 33.92 15.36 33.9 15.29 33.9V33.9101ZM15.89 33.6701H16.63V33.9C16.63 33.9 16.63 33.9001 16.63 33.9101H15.91V33.6701H15.89ZM15.04 33.9201C14.88 33.9201 14.7 33.9201 14.53 33.9201C14.29 33.9201 14.31 33.97 14.31 34.2V36.21C14.31 36.45 14.3 36.48 14.54 36.48C14.69 36.48 14.88 36.48 15.04 36.48V33.9201ZM18.21 36.21V34.0501C18.21 33.9501 18.15 33.9201 18.05 33.9201H17.48C17.48 34.7701 17.48 35.63 17.48 36.48C17.94 36.54 18.22 36.44 18.21 36.21ZM14.08 37.46C14.08 37.63 14.08 37.94 14.08 37.97C14.07 38.01 14.02 38.0601 13.96 38.0601C13.77 38.0601 13.86 37.73 13.85 37.45C13.93 37.45 14.01 37.45 14.09 37.45L14.08 37.46ZM18.71 37.46C18.71 37.74 18.79 38.0501 18.6 38.0601C18.4 38.0601 18.49 37.73 18.48 37.46C18.56 37.46 18.64 37.46 18.71 37.46ZM19.13 38.22C19.2 38.02 19.25 37.87 19.13 37.64C19.1 37.58 19.04 37.51 18.98 37.45C19.18 37.45 19.31 37.45 19.33 37.45C19.48 37.43 19.44 37.24 19.44 37.12C19.44 36.66 19.5 36.72 18.96 36.72C18.94 36.61 18.96 34.13 18.96 33.85C18.96 33.56 18.9 33.2901 18.81 33.0401C18.65 32.5801 18.36 32.16 18.04 31.89C17.76 31.65 17.47 31.48 17.13 31.36C17.04 31.33 16.78 31.27 16.75 31.25C16.71 31.03 16.52 30.85 16.27 30.85C16.02 30.85 15.83 31.03 15.79 31.25L15.42 31.36C14.38 31.7 13.61 32.7 13.58 33.83C13.57 34.43 13.58 35.14 13.58 35.75C13.58 35.9 13.58 36.63 13.58 36.72C13.49 36.72 13.39 36.72 13.3 36.72C13.2 36.72 13.12 36.7201 13.1 36.8201C13.09 36.9001 13.09 37.33 13.11 37.39C13.11 37.42 13.32 37.4301 13.59 37.4401C13.45 37.5501 13.33 37.75 13.35 37.99C13.38 38.28 13.62 38.5401 13.94 38.5401C14.26 38.5401 14.53 38.29 14.56 38.01C14.58 37.75 14.47 37.56 14.34 37.45C14.8 37.45 15.25 37.45 15.39 37.45C15.65 37.45 17.14 37.45 18.22 37.45C18.01 37.61 17.94 37.9001 18.04 38.1601C18.14 38.4001 18.42 38.57 18.68 38.53C18.94 38.53 19.16 38.18 19.14 38.21L19.13 38.22ZM13.82 36.72C13.8 36.63 13.82 34.25 13.82 34.03C13.82 33.7 13.84 33.51 13.91 33.23C14.04 32.73 14.42 32.2201 14.84 31.9201C14.93 31.8501 15.01 31.81 15.12 31.75C15.24 31.69 15.67 31.5 15.77 31.52C15.79 31.82 15.71 31.84 16.13 31.83V32.08C16.04 32.08 15.52 32.06 15.46 32.1C15.38 32.15 15.35 32.33 15.56 32.33H16.94C17.15 32.33 17.13 32.15 17.04 32.1C16.98 32.06 16.46 32.08 16.37 32.08V31.8101C16.51 31.8101 16.62 31.8101 16.64 31.8001C16.76 31.7701 16.72 31.71 16.73 31.52C16.83 31.52 17 31.59 17.09 31.62C17.37 31.72 17.71 31.93 17.92 32.13C18.48 32.7 18.69 33.2201 18.69 34.0401C18.69 34.2501 18.7 36.62 18.69 36.71H13.82V36.72ZM27.4 34.1601C27.17 33.8601 26.96 33.58 26.73 33.28L26.05 32.4101C25.96 32.3001 25.87 32.1701 25.78 32.0401V31.36C25.91 31.47 25.98 31.63 26.09 31.75L26.75 32.6C26.86 32.77 27.35 33.3901 27.75 33.9301V33.4401L26.08 31.25C25.93 31.06 25.84 30.98 25.78 30.89V29.13L27.75 31.61V28.96C27.28 28.97 26.83 28.98 26.48 28.99H25.62V34.6701H25.69C24.75 34.7101 23.45 34.6701 22.45 34.6701V3.31008C23.72 3.11008 26.5 2.38008 28.01 2.06008C28.64 1.93008 33.39 0.809977 33.58 0.829977C33.58 14.12 33.58 23.29 33.59 34.64C33.23 34.73 30.88 34.6801 30.28 34.6601V28.98V28.9401C30.07 28.9001 29.11 28.9201 28.13 28.9401V32.09C28.69 32.85 29.66 34.0001 30.11 34.6901H28.71L28.13 33.9201V34.4301C28.21 34.5401 28.26 34.6301 28.3 34.6901H27.81H27.76V34.63C27.69 34.54 27.59 34.3901 27.4 34.1601ZM6.05 27.98L6.03 26.0601C7.15 25.9201 8.39 25.8901 9.52 25.8001C10.33 25.7401 19.74 25.04 20.14 25.08C20.14 25.33 20.18 27.0901 20.12 27.1801C20.05 27.2901 14.5 27.5301 14.11 27.5501L6.05 27.98Z" fill="white"/>
</g>
</mask>
<g mask="url(#mask0_202_151)">
<g id="Group">
<path id="Vector_2" d="M49.98 0.820068H-0.0200195V39.99H49.98V0.820068Z" fill="url(#paint0_linear_202_151)"/>
</g>
</g>
</g>
<defs>
<linearGradient id="paint0_linear_202_151" x1="5.50998" y1="32.62" x2="48.6199" y2="5.57998" gradientUnits="userSpaceOnUse">
<stop stop-color="#312E6A"/>
<stop offset="1" stop-color="#57BDDD"/>
</linearGradient>
</defs>
</svg>
