<svg width="50" height="31" viewBox="0 0 50 31" fill="none" xmlns="http://www.w3.org/2000/svg">
<g id="Clip path group">
<mask id="mask0_202_159" style="mask-type:luminance" maskUnits="userSpaceOnUse" x="-1" y="0" width="52" height="31">
<g id="clippath-157">
<path id="Vector" d="M4.54512 21.8731C4.54512 21.8731 4.62513 21.8331 4.64513 21.6131C4.64513 21.5431 4.64513 21.3831 4.64513 21.3131C4.63513 20.1631 4.72511 20.303 3.80511 20.303C0.945115 20.303 1.29513 20.0431 1.28513 21.3131C1.28513 21.7131 1.22513 21.933 1.67513 21.933C2.12513 21.933 4.26512 22.0131 4.54512 21.8731ZM47.1951 25.9731H48.2451L48.1551 25.3531H47.2151L47.2051 25.9731H47.1951ZM42.5451 25.9831H43.5551V25.3631L42.5651 25.3431L42.5451 25.9731V25.9831ZM46.0451 25.9631L47.0451 25.9831V25.3531H46.0551V25.9631H46.0451ZM33.5851 21.2231C33.6651 21.4231 33.7451 21.5231 33.8051 21.7531L36.3851 22.013L36.3551 21.5731L33.5751 21.2231H33.5851ZM17.8351 20.303C17.3751 20.213 16.2351 20.263 15.6751 20.263C14.4651 20.263 14.3151 19.9431 14.3151 21.1231C14.3151 21.5731 14.1951 21.873 14.6451 21.903L17.6751 21.8831C18.0751 21.7831 17.9251 20.593 17.8451 20.303H17.8351ZM41.4051 25.7531L42.3851 25.9731L42.4051 25.6931V25.6331L42.3951 25.3631H41.7551C41.3751 25.3531 41.3351 25.3631 41.4051 25.7531ZM44.8951 25.9531L45.9051 25.9731V25.3731L44.8951 25.3431V25.9531ZM43.6851 25.9731H44.7551V25.3631L43.7051 25.3431L43.6851 25.9831V25.9731ZM45.1251 16.663C45.0051 16.893 44.4151 17.053 44.1751 17.143C43.9251 17.243 43.4251 17.483 43.2351 17.533L50.0051 17.553V16.7031C50.0051 16.7031 49.9551 16.693 49.9351 16.683C49.6051 16.623 48.2051 17.3731 47.7151 17.4831C47.7651 15.0631 47.6951 12.653 47.7151 10.263C47.7151 9.603 47.6351 9.74306 46.7151 8.82306C46.2251 8.33306 45.6251 7.663 45.1251 7.263V16.663ZM45.5751 7.89301C45.9351 8.13301 46.6851 8.97307 47.0551 9.33307C47.4051 9.68307 47.5651 9.64306 47.5551 10.3231C47.5351 12.1331 47.6351 16.153 47.5351 17.523C47.0051 17.313 46.1051 16.8731 45.5651 16.7331V7.89301H45.5751ZM1.21512 18.423H18.0251C18.2951 14.483 18.3451 10.493 18.5951 6.55304C18.6551 5.66304 18.8151 4.53306 18.8151 3.69306C18.8151 3.09306 18.5151 3.08301 17.9751 3.02301C17.4851 2.97301 16.9951 2.94303 16.5051 2.91303C12.8551 2.72303 8.10512 2.60308 4.52512 3.09308C2.91512 3.31308 2.83513 3.35308 2.53513 4.21308C2.25513 5.02308 2.09512 5.86311 1.95512 6.74311C1.52512 9.43311 1.39513 12.613 1.28513 15.393C1.24513 16.313 1.15512 17.543 1.21512 18.433V18.423ZM20.7051 25.1131C15.1251 25.1831 9.39513 25.1131 3.78513 25.1131C2.72513 25.1131 1.41511 25.3331 0.945114 24.6131C0.345114 23.6931 0.595122 19.7131 0.625122 18.3631C0.705122 14.6531 0.925126 6.36308 2.14513 2.96308C2.48513 2.03308 2.73513 1.95308 4.25513 1.71308C6.20513 1.39308 8.52512 1.32303 10.5451 1.29303C12.7551 1.26303 14.9851 1.29304 17.1851 1.42304C20.0851 1.60304 20.1951 1.53309 22.5251 2.85309C23.4551 3.38309 24.3951 3.89301 25.3451 4.39301C25.4751 4.36301 25.6151 4.35309 25.7551 4.35309H26.5451L25.7751 3.93305C24.9251 3.49305 24.1651 3.02307 23.3451 2.58307C22.5351 2.15307 21.7351 1.643 20.9451 1.263C18.5851 0.403003 17.8051 0.55311 10.6351 0.62311C9.73512 0.44311 4.13512 0.933056 2.62512 1.44306C2.05512 1.63306 1.91512 1.75303 1.70512 2.29303C0.805124 4.64303 0.485125 9.01303 0.315125 11.543C0.255125 12.443 0.0951172 18.0531 -0.00488281 18.3231V22.903C0.245117 23.733 -0.204874 24.563 1.03513 25.803C1.98513 26.753 3.01512 26.0331 4.41512 26.3131C4.45512 26.8431 4.53512 27.393 4.74512 27.803H-0.00488281V30.7531H49.9951V29.4531H0.925125C5.84513 29.3431 10.8551 29.183 15.7751 29.023C20.7051 28.863 25.6551 28.7531 30.5751 28.6231C37.0451 28.4531 43.5151 28.4331 49.9951 28.4431V18.1331H38.7851V17.553H43.0651C42.9051 17.433 41.0651 16.653 40.8851 16.673C40.7251 16.693 38.8951 17.4731 38.7051 17.5831V18.1131C39.1451 18.3331 41.1151 18.883 41.3251 19.163V25.0631C40.5551 25.0631 40.7951 25.2931 40.5651 25.3431H38.4551C38.1451 25.3931 38.1251 25.6531 38.1051 25.6031C38.1051 25.5931 38.0851 25.633 38.0751 25.643C37.6251 25.643 37.1851 25.643 36.7351 25.643C36.3851 25.643 35.8351 25.533 35.6251 25.803C35.5151 26.043 35.5251 27.103 35.6751 27.283C35.8651 27.503 36.5151 27.563 36.6651 27.513C36.8251 27.463 36.7451 27.493 36.8651 27.303C36.8651 27.613 36.9251 27.613 37.0451 27.793H33.2351C33.3351 27.623 33.3851 27.653 33.4951 27.433C33.6751 27.053 33.7451 26.333 33.8051 25.923C35.5051 25.553 36.7051 25.3131 37.4651 24.1031C38.0651 23.1431 37.8451 20.3231 37.8451 18.9831V15.3831H37.4951C37.4951 17.4531 37.4951 19.5331 37.4951 21.6031C37.4951 22.7931 37.5051 23.583 36.7251 24.153C36.0451 24.643 34.9751 24.783 33.9751 24.783C33.9651 24.243 33.8551 21.2231 33.1351 21.2031C32.2651 21.4731 32.3651 24.1531 32.2651 25.1231H22.7651C22.6951 24.0831 22.8351 19.2631 21.7351 19.2431C20.6351 19.2231 20.7251 24.1231 20.6951 25.1231L20.7051 25.1131ZM42.4751 20.1331C42.4751 19.8631 42.4951 19.8231 42.7751 19.8231H45.2751C45.7751 19.8231 45.6051 20.4331 45.4451 20.4931L43.2651 20.513C42.7151 20.513 42.4751 20.6631 42.4751 20.1331ZM21.9351 26.7131C21.2651 26.3631 21.5551 22.1131 21.8451 21.4631C22.1851 21.6131 22.1751 22.2331 22.2051 22.5831C22.2951 23.4631 22.3751 26.1931 21.9351 26.7131ZM32.6751 24.6931C32.6751 24.1231 32.6251 22.7831 33.2151 22.6931C33.5751 23.0531 33.5951 23.9931 33.5951 24.6331C33.5951 25.1331 33.6451 26.6831 33.0851 26.8131C32.6651 26.5231 32.6751 25.3131 32.6751 24.6931ZM38.1451 25.7131C37.9751 26.1031 38.0151 25.563 37.9451 26.033C37.9251 26.303 38.0051 26.2731 38.0351 26.3231C38.1551 26.5131 38.0451 26.1931 38.1251 26.4731C38.1551 26.5831 38.1251 26.8031 38.1451 26.9431C38.2151 27.4431 38.3551 27.2431 38.6351 27.4431H37.8251C37.6551 27.4131 37.5851 27.1431 37.5751 27.1331C37.5051 27.0431 37.3851 26.9531 37.2151 26.9531C37.0351 26.9531 36.9251 27.0331 36.8551 27.1231C36.7751 27.2231 36.7851 27.2531 36.7451 27.3131C36.5151 27.6331 35.8951 27.3431 35.6851 27.2131C35.6151 26.8931 35.6251 26.0631 35.6751 25.7131H38.1451ZM38.7651 25.903C38.7451 25.443 38.7751 25.573 39.6651 25.553V26.1331L38.7651 25.903ZM39.8251 25.5631L40.6851 25.5831V26.1331H39.8151L39.8351 25.5631H39.8251ZM40.8151 25.2131C40.9951 25.0931 45.7151 25.143 46.6751 25.143C47.4851 25.143 48.4551 25.003 48.7751 25.393C49.0951 25.783 49.2251 26.8131 49.0151 27.3431H48.3151C48.0851 27.3131 48.2151 26.7131 47.5851 26.7131C47.0651 26.7131 47.1351 27.0231 46.9151 27.3431H43.3951C43.1451 26.4731 42.5251 26.653 42.2851 26.933C42.1451 27.093 42.2051 27.1431 42.1051 27.3331C41.6551 27.3531 40.9351 27.323 40.7951 26.903C40.7151 26.653 40.7651 25.4531 40.8151 25.2031V25.2131ZM7.62512 27.783C7.82512 27.283 7.89512 26.883 7.95512 26.263L18.9051 26.283C19.0751 26.863 18.9651 27.213 19.2551 27.783H7.62512ZM22.0951 27.773C22.2951 27.383 22.3851 26.803 22.4251 26.263H28.8451C28.8951 26.903 29.0351 27.453 29.3751 27.783H22.0951V27.773ZM19.2751 17.783C19.7951 17.513 20.6251 16.073 20.8951 15.403C21.3051 14.383 21.5451 13.3331 21.6351 12.1331L21.6651 4.02301C21.6251 3.84301 21.2951 3.77301 20.9851 3.64301C19.9251 3.20301 19.9651 4.09312 19.8451 5.50312C19.5251 9.10312 19.2651 14.273 19.2751 17.783ZM22.2051 11.163L23.9151 11.673C23.9151 11.673 23.9151 11.573 23.9151 11.533C23.9151 11.243 23.9351 10.983 24.1551 10.763C24.4651 10.453 24.7551 10.5731 24.8851 10.4631C25.1451 10.2531 25.1751 9.82307 24.9451 9.58307C24.9251 9.56307 24.8751 9.533 24.8451 9.513C24.7051 9.473 24.5851 9.50304 24.4051 9.42304C23.8651 9.18304 23.9051 8.67306 23.9051 8.19306V6.63312C23.9051 6.22312 23.8951 5.913 24.0351 5.513C24.0851 5.383 24.1451 5.25301 24.2151 5.14301L22.2151 4.14301V11.153L22.2051 11.163ZM22.7951 19.803L23.0151 20.553L32.5251 21.553C32.6151 21.343 32.7051 21.2431 32.7951 21.0631L22.7951 19.793V19.803ZM11.5851 22.663C11.2951 22.533 9.43512 22.6131 8.96512 22.6131C6.80512 22.6131 6.97511 22.443 6.97511 23.273C6.97511 23.983 6.97512 23.8831 7.68512 23.8831C8.40512 23.8831 11.3651 23.9931 11.5651 23.8131C11.7651 23.6331 11.7151 22.883 11.5851 22.663ZM19.2351 20.183L20.5351 20.303C20.6151 20.093 20.7551 19.683 20.7551 19.523L19.2051 19.3231C19.1651 19.5931 19.1451 19.943 19.2351 20.183ZM37.0451 26.3231H37.8451V25.8231H37.0451V26.3231ZM8.69511 18.033L2.87512 10.3831C2.55512 9.96312 2.15512 9.61302 2.02512 9.40302L2.39513 5.89301L7.11513 11.8531C8.26513 13.5231 10.7051 16.373 11.8051 18.033H8.69511ZM5.78513 16.8431C5.27513 16.1831 4.79511 15.553 4.30511 14.893L2.80511 12.9631C2.61511 12.7131 2.02511 12.0031 1.83511 11.7231V10.2031C2.11511 10.4431 2.64512 11.2131 2.90512 11.4831L4.35512 13.3731C4.74512 13.9931 7.32512 17.183 7.76512 18.023H6.67513C6.50513 17.833 6.28512 17.4831 5.77512 16.8331L5.78513 16.8431ZM46.5651 10.2031L46.5451 10.6031C46.5451 10.7331 46.5251 10.8431 46.5251 10.9731V10.9931H46.5551H46.5851L46.8151 10.9531L47.1151 10.913L46.8151 10.8731L46.5751 10.8431V10.6131L46.5451 10.2131L46.5651 10.2031ZM25.0851 6.263C25.0851 6.423 25.0551 8.28308 25.0951 8.34308C25.1251 8.37308 25.0951 8.34311 25.1451 8.37311L25.3451 8.44306C25.7451 8.61306 26.0251 9.00302 26.1751 9.40302C26.4551 10.173 26.1051 11.2231 25.2851 11.5631C25.0851 11.6431 25.0851 11.5431 25.0851 11.8431V13.403C25.0851 13.743 25.2151 14.0031 25.4951 14.1231C25.6151 14.1731 25.7151 14.153 25.8451 14.153C30.0151 14.153 34.2351 14.233 38.3951 14.153V13.893C38.6051 13.893 38.8151 13.893 39.0251 13.893C39.0251 13.983 39.0251 14.063 39.0351 14.143C40.5251 14.133 42.2951 14.2131 42.3851 13.7531C42.4851 13.5031 42.4751 11.7031 42.4351 11.6331L42.1851 11.523C41.9451 11.403 41.7751 11.263 41.6251 11.053C41.0151 10.243 41.2451 9.01302 42.0251 8.53302C42.4151 8.29302 42.4551 8.4431 42.4551 8.2331C42.4551 7.6731 42.4551 7.11304 42.4551 6.55304C42.4551 6.20304 42.4951 5.81307 42.1751 5.58307C41.9851 5.44307 41.9051 5.47309 41.6551 5.47309H39.1351H39.0451V6.05304H38.3251V5.4831L38.1251 5.46308H26.0151C25.7151 5.46308 25.5151 5.4231 25.3251 5.6131C25.1751 5.7631 25.1051 5.9531 25.1051 6.2331L25.0851 6.263ZM38.4051 7.19306H39.0351C39.0551 7.29306 39.0551 8.21305 39.0351 8.31305H38.3951V7.19306H38.4051ZM28.2551 8.20307C28.4151 7.95307 28.6351 7.93305 28.9751 7.93305H34.8751C35.1951 7.93305 35.5351 7.93305 35.8551 7.93305C36.1551 7.93305 36.3851 8.10301 36.5051 8.27301C36.7451 8.60301 36.8851 9.29308 37.0251 9.71308C37.2051 10.2631 37.3551 10.7531 37.0651 11.3231C36.7651 11.9031 36.2551 11.9231 35.6451 11.8631C35.6451 11.6831 35.6551 11.573 35.5951 11.413C35.3251 10.733 34.4951 10.6531 34.0851 11.1231C33.8751 11.3631 33.8851 11.4831 33.8651 11.8631C33.5551 11.8631 31.6851 11.8931 31.5551 11.8531C31.5551 11.8531 31.5551 11.8431 31.5551 11.8331C31.5551 11.8331 31.5551 11.8231 31.5551 11.8131C31.5551 11.7131 31.5551 11.893 31.5551 11.783C31.5551 11.763 31.5551 11.7431 31.5551 11.7231C31.5551 10.8431 30.4951 10.5431 29.9851 11.1231C29.7751 11.3631 29.7951 11.4831 29.7651 11.8631C29.4351 11.8631 29.0851 11.8731 28.7551 11.8631C28.3151 11.8831 28.1751 11.713 28.1851 11.423C28.2151 10.343 28.2451 9.26306 28.2651 8.19306L28.2551 8.20307ZM38.3951 9.42304H39.0251C39.0451 9.53304 39.0451 10.443 39.0251 10.543H38.3951V9.42304ZM30.5251 11.1231C31.0551 11.0131 31.4651 11.6331 31.1251 12.0931C30.8151 12.5131 30.1351 12.3631 30.0351 11.8331C29.9651 11.4631 30.2351 11.1731 30.5251 11.1231ZM34.6451 11.1231C35.0151 11.0631 35.2851 11.3231 35.3451 11.6231C35.4251 11.9931 35.1251 12.2731 34.8451 12.3331C34.4851 12.4031 34.1851 12.1231 34.1351 11.8231C34.0751 11.4531 34.3451 11.1631 34.6451 11.1231ZM31.5351 9.93305H33.1551V8.20307H31.5351V9.93305ZM29.6251 9.93305H31.2451V8.20307H29.6251V9.93305ZM33.4351 9.93305C33.9551 9.93305 34.4251 9.93305 35.0651 9.93305V8.21308H33.4451V9.94306L33.4351 9.93305ZM35.3451 9.95307C35.4451 9.99307 35.9351 10.0531 36.0851 10.0831C36.2351 10.1131 36.7451 10.2231 36.8351 10.1931L36.4451 8.85309C36.2051 8.14309 35.9751 8.20307 35.3451 8.20307V9.95307ZM28.4251 9.93305H29.3251V8.20307C28.7451 8.14307 28.4251 8.24303 28.4251 8.54303C28.4251 9.00303 28.4251 9.47305 28.4251 9.93305ZM25.7051 5.14301C25.3751 5.14301 25.1351 5.293 24.9651 5.513C24.7751 5.753 24.7251 6.00301 24.7251 6.39301C24.7251 6.68301 24.7051 8.51312 24.7351 8.63312C24.9551 8.66312 25.0451 8.663 25.2351 8.763C26.1451 9.263 26.1251 10.7331 25.2351 11.2131C25.0351 11.3231 24.9651 11.3031 24.7351 11.3531C24.7151 11.5331 24.7351 13.1331 24.7351 13.4431C24.7351 13.9731 25.1351 14.4931 25.6951 14.4931C25.7851 14.4931 25.8751 14.4931 25.9551 14.4931C30.7751 14.4931 35.5451 14.4931 40.3451 14.4931H41.9151C42.0151 14.4631 42.7751 14.3431 42.7751 13.3631C42.7751 13.0431 42.7951 11.5131 42.7751 11.3431C42.4451 11.2831 42.2151 11.263 41.9351 10.933C41.4851 10.413 41.4951 9.57304 41.9251 9.05304C42.1251 8.80304 42.3351 8.68312 42.7751 8.63312C42.8051 8.52312 42.7851 7.14303 42.7851 6.91303C42.7851 6.25303 42.8551 5.86307 42.4951 5.45307C42.1551 5.06307 41.6651 5.15302 41.0751 5.15302C35.9651 5.15302 30.8551 5.15302 25.7351 5.15302L25.7051 5.14301ZM41.5651 4.82306C41.9551 4.82306 42.1751 4.823 42.4751 5.013C42.6751 5.143 42.8651 5.37312 42.9751 5.63312C43.1551 6.06312 43.0851 7.20308 43.0851 7.71308C43.0851 7.91308 43.1151 8.63301 43.0551 8.77301C43.0251 8.82301 42.9851 8.87303 42.9251 8.91303C42.8151 8.98303 42.0351 8.88308 41.9151 9.84308C41.8551 10.2731 42.0651 10.733 42.4351 10.923C42.6251 11.023 42.7451 10.973 42.8851 11.033C43.1551 11.143 43.0851 11.5431 43.0851 11.9531C43.0851 12.5131 43.1551 13.603 42.9551 14.023C42.7851 14.383 42.5051 14.673 41.9251 14.793C36.7951 14.793 31.6751 14.793 26.5451 14.793C26.2551 14.793 25.9451 14.8131 25.6251 14.8131C25.0851 14.7831 24.6751 14.4431 24.4951 13.9531C24.3251 13.5031 24.3951 12.043 24.3951 11.513C24.3951 11.353 24.3951 11.2031 24.4751 11.1231C24.6451 10.9531 24.8751 11.0931 25.1651 10.8631C25.6951 10.4431 25.6951 9.64307 25.2751 9.20307C25.2251 9.14307 25.0851 9.053 24.9851 9.013C24.8551 8.963 24.6551 8.97305 24.5751 8.93305C24.3251 8.82305 24.3851 8.46305 24.3851 8.18305V6.62311C24.3851 6.24311 24.3651 6.00305 24.4851 5.68305C24.6651 5.16305 25.1251 4.83307 25.7151 4.83307C30.9951 4.83307 36.2851 4.83307 41.5551 4.83307L41.5651 4.82306ZM38.3651 11.663H39.0151V12.773H38.3651V11.663ZM45.6751 11.0631C45.8351 12.0931 47.6051 11.9031 47.3651 10.7031C47.1651 9.69307 45.4851 9.88305 45.6751 11.0631Z" fill="white"/>
</g>
</mask>
<g mask="url(#mask0_202_159)">
<g id="Group">
<path id="Vector_2" d="M50.0252 0.413086H-0.174805V30.7631H50.0252V0.413086Z" fill="url(#paint0_linear_202_159)"/>
</g>
</g>
</g>
<defs>
<linearGradient id="paint0_linear_202_159" x1="8.6252" y1="28.8431" x2="44.7652" y2="-0.55694" gradientUnits="userSpaceOnUse">
<stop stop-color="#312E6A"/>
<stop offset="1" stop-color="#57BDDD"/>
</linearGradient>
</defs>
</svg>
