<svg width="50" height="36" viewBox="0 0 50 36" fill="none" xmlns="http://www.w3.org/2000/svg">
<g id="Clip path group">
<mask id="mask0_202_167" style="mask-type:luminance" maskUnits="userSpaceOnUse" x="-1" y="0" width="52" height="36">
<g id="clippath-158">
<path id="Vector" d="M13.3551 5.90991C13.3551 5.70991 13.5251 5.48991 13.6251 5.40991C13.7551 5.30991 13.9251 5.22986 14.1651 5.22986H21.9651C22.5151 5.22986 22.8551 5.55985 22.8551 6.09985C22.8551 6.67985 22.7051 7.1698 21.9651 7.1698H14.6251C14.2051 7.1698 13.3551 7.18987 13.3551 6.48987V5.90991ZM34.5151 17.1499C34.7151 17.2599 34.7551 17.3198 34.9151 17.4498L35.0051 17.5199C35.0051 17.5199 35.0251 17.5298 35.0251 17.5398C35.1951 17.6798 35.3651 17.7998 35.5351 17.9198L36.5651 18.6299V19.0099C36.5451 20.2599 36.5651 20.6099 36.5651 22.4999C36.3351 22.4699 35.7451 22.1998 35.4951 22.0798L34.5051 21.6399V17.3499V17.1599L34.5151 17.1499ZM33.4351 21.0798C33.2751 21.0698 33.1451 20.9599 33.0151 20.8899L31.3651 19.9598C31.3651 19.9598 31.3151 19.9299 31.2651 19.9099C31.0251 19.7599 31.1451 19.1398 31.1451 18.5498C31.1451 17.8598 31.0651 14.0799 31.1751 13.7399L33.3251 16.1199C33.4051 16.1899 33.4051 16.1599 33.4251 16.2799V21.0999L33.4351 21.0798ZM11.7551 21.2799C12.2051 21.1599 12.7451 21.3698 13.0051 21.5598C13.5251 21.9698 13.7851 22.5999 13.6151 23.2699C13.1251 25.1699 9.96513 24.7398 10.4751 22.4398C10.6151 21.8198 11.1251 21.4299 11.7551 21.2699V21.2799ZM24.0251 21.2699C24.9551 21.1399 25.7351 21.8199 25.8651 22.6099C25.9451 23.1199 25.7551 23.5899 25.5351 23.8899C24.7151 24.9999 22.8251 24.5299 22.6351 23.1399C22.5051 22.1399 23.1951 21.3899 24.0151 21.2699H24.0251ZM41.2651 20.0698L40.6051 19.7699C40.0651 19.4999 39.1551 18.9998 38.6551 18.6698C38.3451 18.4698 38.0451 18.2698 37.7551 18.0598C37.0951 17.5698 36.2351 16.9298 35.6451 16.3398C35.5151 16.2098 35.3751 16.1098 35.2351 15.9698L34.1151 14.8098L32.6651 13.0099C31.9151 12.0499 31.2551 10.9399 30.6651 9.86987C30.3551 9.29987 29.6751 7.89989 29.4451 7.25989C29.3051 6.85989 28.9451 5.84988 28.7951 5.62988C28.3751 5.00988 27.7951 4.57982 26.9351 4.43982C26.3351 4.33982 21.8651 4.3999 20.8751 4.3999C17.4551 4.3999 15.4351 4.3999 12.3751 4.3999C10.3951 4.3999 8.22511 3.96981 7.30511 5.92981C7.08511 6.39981 7.04512 6.73983 7.04512 7.32983V22.1599C7.04512 23.1199 6.96512 24.5498 7.09512 25.4398C7.14512 25.7998 7.39512 26.2998 7.62512 26.5698C8.69512 27.8198 9.80512 27.5698 11.5651 27.5698C19.8751 27.5698 25.3051 27.5698 31.5951 27.5598C31.5951 27.0998 31.5851 26.5899 31.8851 26.2299C32.3151 25.7099 32.8251 25.6999 33.4451 25.7399H34.9951V25.7098C34.9951 25.4798 34.9951 25.2399 34.9951 25.0099C35.0051 24.1599 35.7251 23.3599 36.5951 23.3599H38.7151C38.9251 23.3599 39.1551 23.4199 39.3551 23.5099C38.9351 23.3599 37.8651 23.0599 37.6351 22.8999V19.2998C37.8051 19.3498 38.9551 20.0098 39.4151 20.1898V23.3599C39.4651 23.2599 39.5251 23.1598 39.6251 23.0598C39.8851 22.7998 40.1551 22.7399 40.4951 22.7399C40.4951 22.1699 40.5151 21.5499 40.5151 21.3599C40.5151 20.7199 40.2651 20.5799 41.2451 20.9799C41.2451 20.6799 41.2451 20.3698 41.2451 20.0698H41.2651ZM46.4151 22.4198C46.4151 22.1198 46.5051 21.8899 46.3951 21.6399C45.9951 21.5599 45.6151 21.4999 45.2351 21.3999C45.2351 21.6599 45.2351 21.9298 45.2351 22.1898V22.2098C45.5751 22.2798 46.0351 22.3198 46.4251 22.4198H46.4151ZM39.9751 6.43982C41.7751 6.43982 43.2351 7.89983 43.2351 9.69983C43.2351 11.4998 41.7751 12.9598 39.9751 12.9598C38.1751 12.9598 36.7251 11.4998 36.7251 9.69983C36.7251 7.89983 38.1851 6.43982 39.9751 6.43982ZM40.1451 12.7599C40.1251 12.6599 40.2551 11.4699 40.2751 11.2499C40.2951 10.9799 40.3151 10.7298 40.3351 10.4598C40.3351 10.3798 40.3651 10.1699 40.3951 10.1099C40.4451 10.0199 40.5451 9.99987 40.5951 9.86987L42.2851 9.68982C41.8251 9.58982 40.9151 9.52986 40.7151 9.47986C40.4551 9.40986 40.5251 9.16981 40.1551 9.17981C39.6751 9.18981 39.5951 9.73984 39.7851 9.95984C39.9051 10.0998 39.9451 10.0099 39.9651 10.2299C40.0351 10.8399 40.0451 12.2299 40.1451 12.7499V12.7599ZM41.8051 6.07983C43.1251 6.74983 44.0351 8.11983 44.0351 9.69983C44.0351 11.9398 42.2151 13.7599 39.9751 13.7599C37.7351 13.7599 35.9151 11.9398 35.9151 9.69983C35.9151 8.11983 36.8251 6.74983 38.1451 6.07983C38.2051 5.42983 38.8251 4.89991 39.6251 4.77991V4.23987L38.7651 4.12988L37.0251 3.90991L36.1551 3.7998L34.4251 3.58984L34.3151 1.93982L35.8951 2.13989L37.4451 2.24988L40.5451 2.46985L43.6451 2.69983L44.4051 2.74988L45.9451 2.85986L46.7451 2.90991L46.6951 2.88989L46.5151 2.86987L46.2651 2.84985L44.8051 2.69983L42.8451 2.49988L41.8551 2.40991L40.8651 2.31982L35.9651 1.82983L34.9851 1.72986L34.7751 1.67981L34.0151 1.62988L33.0251 1.52991L31.0751 1.32983L31.0151 0.569824L48.4551 2.4198L48.9851 3.52991L49.8551 4.97986L50.0051 35.2499L48.2551 35.2098C48.2551 28.4398 48.2751 12.4298 48.2751 5.55981L48.2951 5.42981V5.36987L48.3051 5.31982C43.1451 4.67982 46.0651 5.05989 40.8351 4.38989L40.3851 4.32983V4.7998C41.1551 4.9398 41.7451 5.45984 41.8051 6.08984V6.07983ZM12.0451 29.5698L12.5451 29.1599L12.7651 28.9598L9.61513 28.9799L8.66512 29.4899L8.57512 29.5498L10.9351 29.6099L12.0551 29.5798L12.0451 29.5698ZM23.6851 28.9498L24.8351 29.6099L27.8151 29.5898L26.0751 28.9598H23.6851V28.9498ZM14.9651 29.5999H21.4751L21.0351 28.9498H15.3451L14.9651 29.5999ZM25.0651 30.1299L26.4951 31.2198H30.7551L30.6851 31.1499L28.4251 30.1199H25.0651V30.1299ZM5.53513 31.1998L8.99512 31.2299H9.97513L11.3151 30.1499H7.56512L5.53513 31.2098V31.1998ZM14.6751 30.1299C14.5351 30.1999 14.0551 31.0598 13.9951 31.2198L22.4751 31.1998C22.4151 31.0898 22.3851 31.0399 22.3051 30.9099C22.2151 30.7599 21.8551 30.1499 21.7751 30.1199H14.6651L14.6751 30.1299ZM27.4451 32.1698L28.8651 33.3899L30.0451 34.2499H31.6551C31.6451 34.1599 31.6151 34.0799 31.6151 33.9799C31.6151 33.7499 31.6151 33.5099 31.6151 33.2799V32.1599H27.4451V32.1698ZM8.97513 32.1998L8.55511 32.1798L3.85512 32.1599C2.60512 32.7699 1.42512 33.4298 0.205124 34.0898L-0.00488281 34.2098L4.35512 34.2399L6.51512 34.2098L8.98512 32.1798L8.97513 32.1998ZM10.0451 35.2399L10.3051 34.8799C11.7551 32.9299 13.2051 30.9799 14.6451 29.0199L14.8051 28.7898L15.0951 28.3599H14.0251L13.8551 28.5398L13.1951 29.1898C12.7351 29.6498 12.2551 30.0798 11.8051 30.5498L11.6151 30.7399L10.9551 31.3599L10.7451 31.5698L10.4151 31.8899L10.0951 32.2299L9.77512 32.5598L9.44511 32.8499C8.74511 33.5799 7.99512 34.2498 7.26512 34.9598L7.08513 35.2098L10.0451 35.2299V35.2399ZM21.2851 28.3699L21.6651 28.9099L23.3151 31.0498L23.7051 31.5798L25.4151 33.8098L25.4351 33.8298L26.4751 35.1798L29.4451 35.2098L29.3451 35.0498L29.2251 34.9398L28.0251 33.7799L26.5851 32.3999L25.6351 31.4899L25.3851 31.2399L22.5051 28.4698L22.3251 28.3398L21.2651 28.3599L21.2851 28.3699ZM46.6551 33.6998C46.7651 33.5198 46.7351 33.3198 46.7351 33.0898C46.7351 32.3598 46.7551 23.8498 46.7251 23.7198C46.6051 23.2298 46.0951 23.3198 45.6351 23.3198C45.3051 23.3198 44.9651 23.3198 44.6351 23.3198C44.5951 23.1898 44.6251 21.3598 44.6251 21.0798C44.6251 20.7198 44.6451 18.9399 44.6251 18.7499H41.8651C41.8451 19.1599 41.8651 19.6298 41.8651 20.0498C41.8651 20.3198 41.8751 23.2598 41.8651 23.2898C41.8351 23.3298 40.7251 23.3098 40.5951 23.3098C40.3551 23.3098 40.2251 23.3098 40.0851 23.4598C39.9451 23.5998 39.9351 23.7298 39.9351 23.9698V33.1099C39.9351 33.3299 39.9051 33.5098 40.0251 33.6898C40.2251 33.9998 40.6651 33.9198 41.1151 33.9198C41.4551 33.9198 46.4551 34.0498 46.6751 33.6898L46.6551 33.6998ZM35.6051 25.7098C35.6051 25.8098 35.6051 26.2598 35.5851 26.3198H33.8351C33.7051 26.9298 33.8251 32.8799 33.8351 34.7599H40.4751V34.2699C39.9351 34.2499 39.5851 33.9199 39.5851 33.4099C39.5851 30.4999 39.5751 27.5599 39.5851 24.6599C39.5851 24.4499 39.5851 24.3798 39.3051 24.1798C39.1851 24.0898 38.9451 23.9698 38.7351 23.9698H36.6151C36.1551 23.9698 35.6151 24.4199 35.6051 25.0299C35.6051 25.2599 35.6051 25.4898 35.6051 25.7198V25.7098ZM36.1251 25.0898C36.1251 24.7198 36.3551 24.4999 36.7151 24.4999H38.5751C39.0251 24.4999 39.2151 24.7399 39.2051 25.1599C39.2051 25.3799 39.2051 25.5998 39.2051 25.8198C39.2051 26.3398 39.2551 26.3298 39.0851 26.3298H36.1351C36.0951 26.2298 36.1151 25.3698 36.1151 25.0898H36.1251ZM33.4251 34.7499C33.3951 31.9599 33.4251 29.1298 33.4251 26.3398C32.8851 26.3098 32.6051 26.3099 32.3451 26.6199C32.1351 26.8699 32.1951 27.4298 32.1951 27.8398V33.2898C32.1951 33.5098 32.1951 33.7498 32.1951 33.9698C32.1951 34.0499 32.2351 34.1399 32.2451 34.2499C32.2751 34.5099 32.4951 34.6899 32.7551 34.7599C32.8451 34.7799 33.3451 34.7899 33.4251 34.7599V34.7499ZM40.7451 34.3799C40.7451 34.7099 40.6951 34.9999 40.9151 35.1599C41.0351 35.2499 41.2051 35.2698 41.3551 35.1998C41.6751 35.0498 41.6051 34.6699 41.6051 34.2699H40.7451V34.3699V34.3799ZM44.7751 34.3599C44.7751 34.5999 44.7451 34.7898 44.8851 34.9498C45.1051 35.2098 45.6351 35.1399 45.6351 34.6199V34.2699H44.7751V34.3599ZM44.2051 23.3298C43.7251 23.3698 43.1851 23.3298 42.7051 23.3298C42.1551 23.3298 42.2551 23.4199 42.2551 23.0199C42.2551 21.7499 42.2751 20.4298 42.2551 19.1798H44.2051V23.3198V23.3298ZM18.9751 8.11987V17.5398C20.4751 17.5698 24.3551 17.5398 24.8551 17.5398C25.4851 17.5398 25.9851 17.2499 26.2451 16.8799C26.6351 16.3199 26.5751 15.9499 26.5751 15.1399V9.84985C26.5751 8.81985 25.8151 8.11987 24.8551 8.11987C22.8951 8.11987 20.9651 8.11987 18.9751 8.11987ZM17.3551 8.11987C17.9651 8.11987 9.61513 7.43982 9.78513 9.18982C9.58513 9.69982 9.67513 12.2799 9.67513 13.0199C9.67513 13.5299 9.64511 15.8299 9.69511 16.1299C9.82511 16.9599 10.4951 17.5398 11.4451 17.5398C13.3151 17.5398 15.4751 17.5098 17.3551 17.5398V8.12988V8.11987ZM13.5951 17.2599L10.3751 13.0199C10.1951 12.7899 10.0751 12.6898 10.0051 12.5698V10.4099L12.7151 13.8298C13.3551 14.7498 14.7051 16.3299 15.3051 17.2499H13.5851L13.5951 17.2599ZM11.9851 16.5999C11.7051 16.2299 11.4351 15.8799 11.1651 15.5199L10.3351 14.4498C10.2251 14.3098 10.1051 14.1499 10.0051 13.9899V13.1499C10.1551 13.2799 10.2451 13.4799 10.3851 13.6299L11.1851 14.6698C11.3951 15.0098 12.8251 16.7799 13.0751 17.2399H12.4751C12.3851 17.1399 12.2551 16.9398 11.9751 16.5798L11.9851 16.5999ZM13.0451 32.6998C12.9351 32.8698 12.1451 34.0899 12.1551 34.2499H24.3251C24.3251 34.0799 23.1551 32.3098 23.0651 32.1698H13.3651L13.0351 32.7098L13.0451 32.6998Z" fill="white"/>
</g>
</mask>
<g mask="url(#mask0_202_167)">
<g id="Group">
<path id="Vector_2" d="M49.9951 0.559814H-0.00488281V35.2599H49.9951V0.559814Z" fill="url(#paint0_linear_202_167)"/>
</g>
</g>
</g>
<defs>
<linearGradient id="paint0_linear_202_167" x1="6.94512" y1="30.6999" x2="46.9452" y2="2.3699" gradientUnits="userSpaceOnUse">
<stop stop-color="#312E6A"/>
<stop offset="1" stop-color="#57BDDD"/>
</linearGradient>
</defs>
</svg>
