<svg width="52" height="51" viewBox="0 0 52 51" fill="none" xmlns="http://www.w3.org/2000/svg">
<g id="Clip path group">
<mask id="mask0_202_175" style="mask-type:luminance" maskUnits="userSpaceOnUse" x="0" y="0" width="52" height="51">
<g id="clippath-159">
<path id="Vector" d="M1.0551 17.0248L8.43509 13.5848C9.61509 13.0048 10.8851 12.4247 12.1251 11.8647L15.6751 10.2148C15.7751 10.1548 15.7651 10.1549 15.8251 10.1049C15.2851 10.2149 14.4951 10.6048 13.9451 10.8248C13.2951 11.0848 12.7351 11.3248 12.1151 11.5548C10.8851 12.0248 9.62509 12.5448 8.40509 13.0348C7.28509 13.4948 2.0851 15.6449 1.0551 15.9849V17.0348V17.0248ZM1.0551 14.8549C1.4151 14.7849 3.81509 13.7648 4.34509 13.5448C5.46509 13.0948 6.4851 12.6949 7.6151 12.2349L14.1451 9.59485C13.4951 9.68485 1.9151 13.5348 1.0551 13.7948V14.8549ZM37.7251 7.68481C34.5051 7.68481 35.2151 8.39483 36.1051 13.5748C36.3251 14.8548 36.5551 16.1748 36.7851 17.4648C37.0551 18.9448 36.9051 20.1248 38.5551 20.1648C38.5551 21.9048 38.3951 23.3348 40.2151 23.4948V48.4648H38.5551V38.8948C38.5551 35.0948 38.7551 33.6747 36.7651 31.1147C35.5851 29.6047 32.9151 28.1048 29.9151 28.5848C27.6351 28.9448 25.0751 30.7248 24.4151 32.6448C18.0851 32.7348 11.5451 32.6448 5.1651 32.6448C4.0551 32.6448 2.48509 32.4148 1.70509 33.0348C1.03509 33.5748 0.945101 35.1448 1.1351 36.2648C1.3451 37.4548 2.29509 37.6448 3.59509 37.6448V48.4648H1.09509V50.1248H51.0251V48.4648H45.2051V23.4948C47.0251 23.3348 46.8651 21.9048 46.8651 20.1648C48.5351 20.1248 48.3851 18.8848 48.6451 17.3748C48.8651 16.1148 49.0951 14.8248 49.3151 13.5748C50.2251 8.44483 50.8751 7.68481 47.6951 7.68481C47.6951 5.25481 47.8251 4.35486 45.1951 4.35486V0.194824H43.5351V4.35486H41.8751V2.69482H40.2151V4.35486C37.5751 4.35486 37.7151 5.24481 37.7151 7.68481H37.7251ZM39.3851 6.02478H46.0451V7.68481H39.3851V6.02478ZM37.0551 9.35486H48.3751L48.0951 11.0148L37.3251 10.9948L37.0551 9.34485V9.35486ZM44.6651 15.1548C44.1451 15.2048 43.3351 15.2148 42.8051 15.1948C42.1551 15.1748 42.0551 14.8248 41.7251 14.5048C41.1051 13.8848 40.5351 13.3048 39.9251 12.7148C42.6951 12.5948 42.0351 12.4948 44.6651 15.1648V15.1548ZM47.2851 15.1648C46.7151 15.0948 45.4451 13.3648 44.6151 12.7148H47.7751C47.6951 13.2848 47.5351 14.7548 47.2751 15.1648H47.2851ZM37.7151 12.9148L39.9551 15.1748L38.0451 15.1548L37.7051 12.9148H37.7151ZM40.2051 20.1748H45.1951V21.8348H40.2051V20.1748ZM15.2251 37.6448H18.5651V40.1448H15.2351V37.6448H15.2251ZM20.2151 37.6448H23.5451V40.1448H20.2151V37.6448ZM15.2051 41.8048H18.5451V44.3048H15.2151V41.8048H15.2051ZM20.1951 41.8048H23.5251V44.3048H20.1951V41.8048ZM13.5351 45.9648V48.4648H5.21509V45.9648V44.3048V41.8048V40.1448V37.6448H13.5351V40.1448V41.8048V44.3048V45.9648ZM15.1951 45.9648H18.5251V48.4648H15.1951V45.9648ZM20.2051 45.9648H23.5251V48.4648H20.1951V45.9648H20.2051ZM25.1951 37.6448H36.8451V48.4648H25.1951V37.6448ZM3.6151 3.40479C1.2151 3.48479 0.525088 5.67477 1.32509 7.13477C2.25509 8.83477 4.55509 8.39478 6.82509 8.39478C9.09509 8.39478 11.3351 8.82482 12.2851 7.19482C12.7751 6.35482 12.7651 5.43485 12.2851 4.59485C11.8751 3.87485 11.1851 3.44478 10.0351 3.39478C9.2351 0.104775 4.41509 0.144775 3.62509 3.39478L3.6151 3.40479ZM27.2351 9.10486C25.5551 9.16486 25.0751 10.6948 25.6351 11.7148C26.2851 12.8948 27.8851 12.5948 29.4751 12.5948C31.0651 12.5948 32.6251 12.8948 33.2851 11.7548C33.6251 11.1748 33.6251 10.5248 33.2851 9.94482C32.9951 9.44482 32.5151 9.14486 31.7151 9.10486C31.1551 6.80486 27.7951 6.83486 27.2351 9.10486ZM26.8551 42.6348H35.1751V40.9749H26.8551V42.6348ZM26.8551 45.9648H35.1751V44.3048H26.8551V45.9648ZM21.3251 22.0248C21.0551 21.9748 20.9951 21.8649 20.9051 21.6049C20.8351 21.4249 20.7451 21.1649 20.7051 20.9749C21.1851 21.1449 21.2651 21.4748 21.3251 22.0248ZM17.5751 21.8348C17.5951 21.6748 17.6751 21.4948 17.7251 21.3348C17.8251 21.0648 17.8051 21.0048 17.9351 20.9148C18.0851 20.8148 18.8451 20.7748 19.0751 20.7748V21.5948C18.6451 21.5948 17.8751 21.6948 17.5651 21.8248L17.5751 21.8348ZM19.2851 20.8048C19.7151 20.7448 20.1351 20.8448 20.5151 20.9248C20.6051 21.3048 20.7851 21.5347 20.8451 21.8647C20.2651 21.7047 19.9151 21.6948 19.2851 21.5848V20.8048ZM8.60509 25.5948C8.52509 24.8648 9.1351 24.2748 9.7851 24.2048C10.5751 24.1248 11.1951 24.6847 11.2651 25.3647C11.4351 27.0147 8.80509 27.3048 8.60509 25.5948ZM17.3651 21.9148L17.1051 22.0448C17.0451 21.9548 17.0351 22.2048 17.0551 21.8948C17.1651 21.4348 17.2351 21.0949 17.6751 20.9749C17.6051 21.2949 17.4051 21.6148 17.3651 21.9148ZM28.2451 24.5548C26.9151 24.8748 27.3651 26.6248 28.6851 26.4048C29.9551 26.1848 29.5451 24.2448 28.2451 24.5548ZM28.3751 25.8248C27.9651 25.5548 28.1051 25.0948 28.4951 25.1448C28.8251 25.1748 29.0051 25.7748 28.3751 25.8248ZM9.7251 24.5648C9.2251 24.6948 8.82509 25.0348 8.96509 25.7048C9.05509 26.1548 9.59509 26.5248 10.2051 26.3848C11.4451 26.1148 11.0051 24.2148 9.7251 24.5548V24.5648ZM10.1051 25.1448C10.7651 26.0248 9.1351 26.0448 9.7751 25.1448H10.1051ZM8.87509 23.9849C8.96509 24.0649 8.76509 24.0148 9.06509 24.0848C7.70509 24.9948 8.13509 26.8348 9.74509 27.0748C10.5551 27.1948 11.2151 26.6548 11.4551 26.1848C11.9451 25.2148 11.3351 24.6448 11.0851 24.2548L15.7151 24.7148C16.3751 24.7848 16.4851 24.6949 16.7251 24.9749C17.9251 26.4049 19.8051 26.6348 21.0951 25.5748C22.1051 24.7448 21.2951 24.8448 22.7551 24.7148C24.2351 24.5848 25.8651 24.3248 27.3051 24.2648C27.1251 24.5148 26.8951 24.7149 26.8151 25.1049C26.7251 25.5149 26.7851 25.9149 26.9651 26.2349C27.2251 26.7049 27.8951 27.2048 28.7151 27.0648C30.1451 26.8348 30.5651 25.2248 29.6751 24.3448L29.3251 24.0548L36.2751 23.3549C37.1251 23.2649 37.3951 22.3249 37.4051 21.9849C36.7551 22.0349 36.9651 22.7048 36.1951 22.8448C35.8451 22.9048 34.6551 22.9248 34.2451 22.9248C31.1651 22.9248 27.5551 23.2748 24.3151 23.3148C23.7651 23.3148 22.8651 23.3148 22.3651 23.3948L22.3951 22.2249L26.9251 21.4849C27.2551 21.4349 27.3251 21.4848 27.3451 21.1848L22.2551 21.7349C21.8851 20.4149 21.0251 19.5648 19.5651 19.3048C19.5651 18.6148 19.5051 15.1448 19.3051 14.8248C18.8951 14.8148 18.9351 14.9648 18.9351 15.7048C18.9351 16.8048 18.8051 18.0448 18.8051 19.3048C17.4651 19.5048 16.3751 20.5149 16.0851 21.7349C15.1951 21.6349 14.3451 21.5348 13.4851 21.4548C13.0851 21.4148 11.2051 21.1248 10.9651 21.2748C11.0751 21.4948 11.1851 21.4449 11.4951 21.4849L15.9551 22.2148L15.9751 23.2249V23.3848L9.35509 23.1049H8.71509C7.30509 23.0649 5.8551 22.9448 4.4451 22.9148C3.7551 22.8948 2.97509 22.8948 2.29509 22.8448C1.39509 22.7748 1.6751 22.0649 0.975098 21.9749C0.975098 22.2949 1.2251 23.2548 2.1151 23.3448C3.2551 23.4548 8.47509 24.0348 8.85509 23.9648L8.87509 23.9849ZM27.1351 25.6448C26.9951 24.9048 27.6651 24.2848 28.2651 24.2048C29.0451 24.0948 29.6851 24.6448 29.7751 25.2748C30.0051 26.9948 27.4451 27.3048 27.1351 25.6548V25.6448ZM7.6651 47.5948C7.3451 47.1848 7.0551 46.8048 6.7551 46.3948L5.8351 45.2148C5.7151 45.0648 5.58509 44.8848 5.46509 44.7048V43.7748C5.63509 43.9248 5.7351 44.1348 5.8951 44.3048L6.7851 45.4648C7.02509 45.8448 8.6051 47.8048 8.8851 48.3248H8.21509C8.11509 48.2148 7.9751 47.9949 7.6651 47.5948ZM9.45509 48.3248L5.87509 43.6248C5.67509 43.3648 5.54509 43.2548 5.46509 43.1248V40.7249L8.4751 44.5248C9.1851 45.5448 10.6751 47.2948 11.3551 48.3248H9.4451H9.45509ZM22.5551 7.26477C22.7051 7.37477 22.7551 7.45482 22.8751 7.56482L23.2651 8.15479C23.7951 7.97479 23.9751 7.35482 24.3051 6.69482C24.5551 6.20482 24.5151 6.34485 24.9751 6.09485C25.6451 5.72485 27.5351 4.8648 27.5551 4.2948C27.5751 3.7348 26.2251 4.01481 26.0951 4.05481C23.9751 4.75481 24.2351 5.13477 22.1351 5.13477L18.3751 5.05481C18.0351 5.07481 17.7351 5.30476 17.5351 5.50476L21.0951 6.18481C20.7251 6.55481 19.2151 7.08484 18.7451 7.46484H18.3851L16.5551 6.58484C16.2251 6.54484 15.9351 6.81483 15.9251 6.82483C15.9251 6.82483 15.8951 6.84475 15.8851 6.86475C16.1051 7.27475 16.6851 8.00478 16.7551 8.39478C16.4951 8.30478 16.3351 8.39486 16.0551 8.60486L15.8651 8.76477C17.3451 8.78477 17.1951 8.94479 17.4951 9.40479L17.9051 9.1748L17.9251 8.82483H18.1751C19.0851 8.65483 21.8251 7.83477 22.5551 7.26477Z" fill="white"/>
</g>
</mask>
<g mask="url(#mask0_202_175)">
<g id="Group">
<path id="Vector_2" d="M51.0452 0.114746H0.575195V50.1248H51.0452V0.114746Z" fill="url(#paint0_linear_202_175)"/>
</g>
</g>
</g>
<defs>
<linearGradient id="paint0_linear_202_175" x1="4.1352" y1="35.7748" x2="52.5052" y2="11.9848" gradientUnits="userSpaceOnUse">
<stop stop-color="#312E6A"/>
<stop offset="1" stop-color="#57BDDD"/>
</linearGradient>
</defs>
</svg>
