<svg width="51" height="33" viewBox="0 0 51 33" fill="none" xmlns="http://www.w3.org/2000/svg">
<g id="Clip path group">
<mask id="mask0_202_183" style="mask-type:luminance" maskUnits="userSpaceOnUse" x="-1" y="0" width="52" height="33">
<g id="clippath-156">
<path id="Vector" d="M36.6802 16.0598H35.4302C35.3202 16.0598 35.2402 16.1498 35.2402 16.2498V25.9299C35.2402 26.0399 35.3302 26.1199 35.4302 26.1199H36.6802C36.7902 26.1199 36.8702 26.0299 36.8702 25.9299V16.2498C36.8702 16.1398 36.7802 16.0598 36.6802 16.0598ZM25.9202 10.45C26.2002 10.45 26.3302 10.3797 26.5102 10.2397C26.8402 9.99975 27.2002 9.62982 27.4902 9.31982C27.5902 9.21982 27.6002 9.23978 27.7602 9.26978C27.7602 9.35978 27.6902 9.37975 27.7702 9.48975C27.7902 9.51975 27.8202 9.53982 27.8402 9.56982C27.8802 9.59982 27.8902 9.60986 27.9502 9.60986C28.0602 9.60986 28.0902 9.54976 28.1402 9.49976C28.2102 9.42976 28.5702 9.0998 28.6002 9.03979C28.6502 8.94979 28.6002 8.86982 28.5602 8.81982C28.4902 8.73982 28.4702 8.72998 28.3302 8.72998C28.2502 8.58998 27.7402 8.13977 27.6002 8.00977C27.3102 7.73977 27.0202 7.49977 26.4302 7.00977C26.3002 6.89977 26.2602 6.90995 26.3102 6.69995C26.3402 6.58995 26.3902 6.37978 26.4002 6.26978C26.4002 6.13978 26.3002 6.0898 26.2202 6.03979C26.1302 5.98979 26.0302 5.93989 25.9402 5.88989C25.7502 5.79989 25.5702 5.71987 25.3802 5.61987C25.1902 5.52987 25.0002 5.43985 24.8202 5.34985C24.7202 5.29985 24.6302 5.25996 24.5402 5.20996C24.3802 5.12996 24.3502 5.17977 24.2402 5.25977L23.2702 5.92993C23.1502 6.00993 23.1502 6.01977 22.9502 6.00977C22.8902 6.00977 22.8002 5.9898 22.7902 6.0498L22.7202 6.61987C22.7202 6.68987 22.6602 6.94976 22.6902 6.99976C22.7002 7.02976 22.7602 7.07986 22.7802 7.10986C22.9802 7.35986 23.3102 7.73976 23.5402 7.99976C23.5702 8.03976 23.6002 8.06986 23.6402 8.10986C23.7102 8.18986 23.7702 8.25983 23.8402 8.32983C23.9202 8.40983 23.9702 8.46979 24.0502 8.53979C24.1702 8.6498 24.2302 8.54989 24.3702 8.63989C24.4302 8.67989 24.5302 8.78984 24.5702 8.83984C24.8702 9.25984 25.4902 10.4099 25.9102 10.4099L25.9202 10.45ZM20.6602 9.68994C20.6402 9.56994 20.6102 9.47987 20.5602 9.36987C20.5202 9.27987 20.4702 9.18985 20.4202 9.09985C20.2202 8.73985 20.0202 8.33992 19.9502 7.91992C19.9302 7.80992 19.9002 7.68983 19.8702 7.57983C19.8402 7.64983 19.8302 7.73988 19.7802 7.87988C19.6302 8.37988 19.5502 8.57978 19.2702 9.01978C19.0802 9.30978 18.9402 9.53994 18.9502 9.93994C18.9502 10.1999 19.0302 10.3898 19.1502 10.5398C19.2502 10.6598 19.4502 10.8199 19.6602 10.8499C20.3602 10.9399 20.8502 10.2499 20.6702 9.67993L20.6602 9.68994ZM22.5602 6.82983L22.6302 6.28979C22.3302 6.24979 22.0202 6.24996 21.7202 6.20996C21.5802 6.18996 21.4102 6.17992 21.2702 6.16992C21.0802 6.15992 21.0202 6.13997 20.8702 6.21997L19.9002 6.68994C19.7802 6.74994 19.6502 6.79996 19.6702 6.95996C19.6802 7.03996 19.7902 7.21976 19.8602 7.24976C19.9602 7.28976 20.1302 7.1899 20.2102 7.1499C20.4302 7.0399 20.6402 6.93984 20.8502 6.83984C21.0002 6.76984 21.0502 6.70997 21.1802 6.71997L22.0902 6.78979C22.2302 6.78979 22.4202 6.83983 22.5502 6.82983H22.5602ZM25.4802 7.62988C25.3302 7.65988 25.2802 7.67977 25.1502 7.75977C24.5502 8.08977 24.9202 8.18989 25.0502 8.13989C25.2502 8.05989 25.3702 7.90989 25.7602 8.13989C25.9602 8.25989 26.0302 8.32993 26.1802 8.42993L26.4502 8.62988C26.5302 8.68988 26.9702 8.98976 27.0302 8.99976C27.1102 8.99976 27.1102 8.90985 27.0902 8.84985C27.0602 8.72985 26.9402 8.67985 26.8602 8.59985L26.0702 7.96997C25.8502 7.80997 25.7002 7.57988 25.4702 7.62988H25.4802ZM19.8402 10.5098C19.7402 10.4598 19.5502 10.4698 19.4102 10.2698C19.0402 9.74977 19.5602 9.14979 19.6902 8.78979L19.5302 9.00977C19.3602 9.22977 19.1802 9.45976 19.1202 9.74976C19.0302 10.2098 19.3402 10.5698 19.8402 10.4998V10.5098ZM27.1302 21.0698C27.1302 21.3198 27.1502 21.5698 27.1802 21.8098C27.7902 21.8198 29.1002 21.8098 29.3802 21.8098C29.5602 21.8098 29.6902 21.8297 29.8202 21.7397C30.0302 21.5997 30.0602 21.2599 29.7902 21.1099C29.6202 21.0099 29.0502 21.0598 28.8202 21.0598H27.1202L27.1302 21.0698ZM27.4402 12.9897C27.9802 10.8497 28.7602 9.92998 28.1502 9.72998C28.2802 9.60998 28.5602 9.2799 28.6902 9.1499C30.1702 9.5999 28.1202 13.0699 27.9102 14.9399C27.6302 16.0199 27.5102 16.9698 27.3402 18.0598C27.2502 18.6398 27.1702 19.29 27.1402 19.96C27.7302 19.96 28.6202 19.96 28.9102 19.96C29.6102 19.96 30.2902 19.8399 30.7702 20.3999C31.0802 20.5999 31.1702 22.7799 31.1802 24.9399C31.1902 24.9199 31.2102 24.8899 31.2202 24.8699C31.5002 24.2699 31.7302 22.6499 31.7402 21.9399C31.7602 20.7199 31.8402 21.0298 31.8402 19.3198C31.8402 18.8098 31.8402 18.3098 31.8402 17.7998C31.8402 16.7798 31.8402 15.75 31.8202 14.73C31.8002 13.74 31.7702 12.74 31.7802 11.73C31.7802 10.92 31.8102 10.5198 32.6602 10.2998C32.8202 10.2598 33.1202 10.1999 33.2702 10.1299C33.2702 7.60988 33.2702 5.09983 33.2702 2.57983C33.2702 2.12983 33.1802 1.47987 33.4702 1.11987C33.7902 0.739873 34.0602 0.719971 34.7002 0.719971C35.7902 0.719971 36.8802 0.719971 37.9602 0.719971C43.5102 0.719971 39.7902 0.739971 47.1002 0.719971C48.3102 0.719971 48.2802 1.58988 48.2802 2.37988V28.7998C48.2802 29.4898 48.2802 29.8699 47.8602 30.1799C47.4602 30.4699 46.8102 30.3799 46.2902 30.3799H35.4702C35.0202 30.3799 34.1602 30.4598 33.7902 30.2598C33.2802 29.9798 33.2602 29.5298 33.2602 28.9998V16.6299C33.2602 16.0699 33.3002 11.5599 33.2602 11.1199C33.0902 11.0999 32.8302 11.1898 32.7202 11.2898C32.6502 12.1398 32.7002 13.1798 32.7202 14.0498C32.7202 15.1198 32.9502 23.0699 32.1202 25.0999C31.9402 25.5599 31.6002 25.9399 31.1702 26.1899C31.1602 27.8899 31.1002 29.3199 31.0802 29.3599C31.0802 29.5599 31.0802 29.6598 31.0102 29.8298C30.8202 30.3098 30.3302 30.4099 29.8302 30.4099H23.9602C23.5402 30.4099 23.3002 30.3399 23.1002 30.1099C22.8102 29.6399 22.8602 27.2298 22.8602 26.5298C22.8602 25.7698 22.8602 25.0097 22.8602 24.2397C22.8602 23.8297 22.8202 23.5598 23.0302 23.2698C23.1202 23.1398 23.1902 23.09 23.3002 22.97C23.4002 22.87 23.4902 22.7699 23.5902 22.6799L25.8802 20.3899C25.9802 20.2899 26.0702 20.1899 26.1802 20.1199C26.2102 19.5199 26.2702 18.9299 26.3402 18.3599C26.5102 16.9799 26.9202 14.7699 27.2902 13.4299C27.3302 13.2799 27.3702 13.13 27.4102 12.98L27.4402 12.9897ZM24.7402 8.22998C24.7002 8.03998 24.7802 7.85976 24.8702 7.74976C25.2102 7.32976 25.7102 7.23984 26.1402 7.58984L26.4502 7.88989C26.5102 7.93989 26.5502 7.99979 26.6002 8.03979C27.0102 8.4398 27.4502 8.78985 26.9102 9.34985C26.6002 9.66985 26.1302 10.0699 25.7202 9.68994C25.6202 9.59994 25.2902 9.14977 25.1802 9.00977C25.0302 8.80977 24.8202 8.52998 24.7502 8.22998H24.7402ZM39.8702 11.4897L36.4302 6.95996C36.2402 6.70996 36.1102 6.59998 36.0402 6.47998V4.16992L38.9402 7.82983C39.6202 8.81983 41.0602 10.5 41.7102 11.48H39.8702V11.4897ZM38.1502 10.7898C37.8502 10.3998 37.5702 10.0299 37.2702 9.63989L36.3802 8.49976C36.2702 8.34976 36.1402 8.17977 36.0302 8.00977V7.10986C36.2002 7.24986 36.2902 7.45987 36.4402 7.61987L37.3002 8.73975C37.5302 9.10975 39.0502 10.9897 39.3202 11.4897H38.6802C38.5802 11.3797 38.4502 11.1698 38.1502 10.7898ZM44.8302 3.60986H36.6302C36.1402 3.60986 35.7302 4.00977 35.7302 4.50977V10.8999C35.7302 11.3899 36.1302 11.7998 36.6302 11.7998H44.8302C45.3202 11.7998 45.7302 11.3999 45.7302 10.8999V4.50977C45.7302 4.01977 45.3302 3.60986 44.8302 3.60986ZM12.8402 19.4199C12.2902 19.4199 11.7602 19.39 11.3402 19.2C10.3202 18.73 10.1402 17.6398 10.4602 17.3198C11.3902 16.3998 13.2302 15.4799 14.4102 14.9299C14.6102 14.8399 14.7802 14.7499 14.9602 14.6499L16.1102 14.1499C16.4802 14.0299 17.0302 13.7999 17.5002 13.8699C17.8602 13.9199 18.1902 14.3798 18.2902 14.7698C18.4102 15.2498 18.3902 15.7798 18.2902 16.2898C17.8702 18.4398 15.2402 19.4199 12.8302 19.4199H12.8402ZM13.0502 24.1699C13.8502 24.1699 14.5002 24.7898 14.5002 25.5498C14.5002 26.3098 13.8502 26.9299 13.0502 26.9299C12.2502 26.9299 11.6002 26.3098 11.6002 25.5498C11.6002 24.7898 12.2502 24.1699 13.0502 24.1699ZM0.000244141 9.56982H10.4302C11.2402 9.56982 12.5102 9.41993 13.0902 8.92993C13.3602 8.69993 13.1602 8.40991 13.0302 8.15991C12.2202 6.54991 10.2102 3.2098 9.01024 1.7998C8.34024 1.0098 1.56023 1.05977 -0.00976562 1.00977V9.57983L0.000244141 9.56982ZM15.6302 10.2698C16.3302 10.0498 16.2002 10.0699 16.9802 9.8999C17.4702 9.7999 17.9402 9.78982 18.3602 9.56982C18.8502 9.30982 18.8702 8.62987 18.7702 8.36987C18.5202 7.67987 17.2402 7.34979 16.5102 7.27979C15.6102 7.19979 15.5502 7.38991 15.4502 7.90991C15.3602 8.35991 15.2202 8.82979 15.1202 9.27979C15.0502 9.60979 14.9702 9.63986 15.2102 9.85986C15.3302 9.96986 15.5402 10.1398 15.6302 10.2698ZM8.47025 19.0198C9.12024 19.8198 9.02024 24.71 8.62024 25.46C8.36024 25.94 7.49024 26.1698 6.86024 26.3298C5.42024 26.7098 3.57024 26.71 1.95024 26.71C1.30024 26.71 0.650239 26.71 0.0102386 26.71V27.22C3.67024 27.19 7.35024 27.0398 11.0402 26.7598C11.5702 27.0998 11.8802 27.3597 11.7902 27.4897C7.87024 27.7297 3.95024 27.8799 0.0102386 27.9099V28.71C0.440239 28.71 0.860233 28.71 1.27023 28.71C5.95023 28.71 8.00024 28.8499 12.0902 28.4399C13.5502 28.2899 14.9602 28.38 16.4002 27.96C17.8802 27.53 18.2602 26.6798 18.5502 25.3098C18.6902 24.6298 18.7802 23.9598 18.8702 23.2498C19.2602 20.1698 19.5402 17.12 18.4202 14.21C17.8702 12.77 17.3902 12.6199 16.6902 11.8999C15.6502 10.8199 14.8802 10.4597 14.2402 8.98975C14.1002 8.65975 13.9602 8.38984 13.8102 8.08984C12.5502 5.55984 10.3902 3.25978 10.3902 3.26978C10.2902 3.37978 11.8102 5.44982 12.0502 5.81982C12.5702 6.62982 13.1002 7.54993 13.5202 8.42993C13.6802 8.76993 13.9002 9.03986 13.5502 9.35986C13.3402 9.54986 12.9802 9.70982 12.6602 9.81982C11.9602 10.0598 11.0802 10.0698 10.2502 10.0698H0.0102386V18.7598H0.410233C3.58023 18.8698 7.95024 18.6198 8.48024 19.0398L8.47025 19.0198ZM37.3102 32.0898H0.0102386V30.7598H13.5302C13.4102 30.6798 13.2902 30.5798 13.2202 30.4998C13.0402 30.3098 12.6102 29.6898 12.6802 29.2798C12.7402 28.9598 13.7802 28.9299 14.1102 28.9099C15.0002 28.8399 16.6202 28.82 17.2602 28.47C18.5802 27.75 19.1902 25.1898 19.3202 23.3398C19.4402 23.5598 19.2602 26.3198 19.2202 26.7598C19.1902 27.0498 19.2202 27.3199 19.1802 27.6099C19.0702 28.5799 18.9802 30.1698 18.1002 30.7698H33.1402C33.2402 30.6998 33.3402 30.6699 33.4702 30.6699C38.1202 30.6999 42.8402 30.6699 47.4902 30.6699C48.2602 30.6699 48.2302 30.5799 48.5902 30.8899C48.8002 31.0699 49.9702 31.9799 50.0102 32.0999H37.3102V32.0898ZM0.160233 21.2498H5.96024C6.04024 21.2498 6.11024 21.3199 6.11024 21.3999V23.8799C6.11024 23.9599 6.04024 24.0298 5.96024 24.0298H0.160233C0.0802325 24.0298 0.0102386 23.9599 0.0102386 23.8799V21.3999C0.0102386 21.3199 0.0802325 21.2498 0.160233 21.2498ZM24.8902 20.8198C24.9702 20.6598 24.8102 20.5499 24.6502 20.3999C24.4102 20.1599 24.2502 19.8998 24.0502 20.0898C23.7102 20.4098 23.2002 20.9398 22.8502 21.2898C22.0402 22.1098 22.0102 21.9899 22.4202 22.3999C22.6502 22.6299 22.8302 22.9 23.0202 22.71L24.8902 20.8298V20.8198Z" fill="white"/>
</g>
</mask>
<g mask="url(#mask0_202_183)">
<g id="Group">
<path id="Vector_2" d="M49.9902 0.719971H-0.00976562V32.0898H49.9902V0.719971Z" fill="url(#paint0_linear_202_183)"/>
</g>
</g>
</g>
<defs>
<linearGradient id="paint0_linear_202_183" x1="8.17023" y1="29.5799" x2="45.4101" y2="0.419827" gradientUnits="userSpaceOnUse">
<stop stop-color="#312E6A"/>
<stop offset="1" stop-color="#57BDDD"/>
</linearGradient>
</defs>
</svg>
