<svg width="50" height="27" viewBox="0 0 50 27" fill="none" xmlns="http://www.w3.org/2000/svg">
<g id="Clip path group">
<mask id="mask0_202_205" style="mask-type:luminance" maskUnits="userSpaceOnUse" x="0" y="0" width="50" height="27">
<g id="clippath-161">
<path id="Vector" d="M3.43832 4.84786C3.92832 4.22786 3.6283 3.21783 5.9183 2.93783L13.8582 1.92782C15.2582 1.74782 16.5483 1.53782 17.9183 1.42782C17.7483 2.47782 17.5982 3.60785 17.7382 4.70785C17.9782 4.19785 18.0283 3.13789 19.0483 2.49789C20.1183 1.82789 20.7182 2.27783 21.7282 2.68783C23.4282 3.37783 25.1883 4.05786 26.8883 4.71786C30.3083 6.05786 33.7483 7.40778 37.1583 8.76778C38.8283 9.43778 40.5783 10.1378 42.2583 10.7878C42.6483 10.9378 43.1783 11.0978 43.5383 11.2678L44.8382 11.7978C48.2582 13.1878 47.9883 12.4978 47.9983 15.7678C47.9983 16.9678 47.9983 18.1679 47.9983 19.3679C47.9983 23.6979 48.2483 23.4578 44.8883 23.3978C44.8283 23.1178 44.9483 22.4578 44.9283 22.0778C44.8883 21.0178 44.3882 19.5878 43.2182 19.5078C41.5282 19.3978 41.2982 21.8078 41.3582 23.3978L25.4782 23.3679C25.6382 22.0479 25.8083 21.0279 25.3983 19.7479C24.5783 17.1479 21.9882 17.0678 21.2082 19.6678C20.8282 20.9578 20.9382 21.9979 20.9682 23.3579H16.3783L16.2983 22.1678C15.4183 22.1678 14.5183 22.2478 13.6383 22.2778C12.0983 22.3378 12.4482 22.1178 11.8582 23.2078C9.94825 23.3778 7.07828 23.2079 5.26828 22.8479C4.84828 22.1979 5.18829 22.3278 4.27829 22.1478C3.80829 22.0578 3.33825 21.9578 2.86825 21.8878C2.86825 22.3278 3.02823 22.9478 3.21823 23.2778C3.48823 23.7378 3.84828 23.6878 4.51828 23.8178C4.64828 24.0378 4.66829 24.2178 4.77829 24.4278C4.90829 24.6878 5.04823 24.7579 5.09823 24.9779H2.05832V26.2179H49.9582L49.9983 24.9979L43.9682 24.9779C44.0782 24.7279 44.3582 24.4378 44.5882 24.4078C45.3482 24.2978 47.0283 24.6378 47.9383 24.0778C49.0983 23.3578 48.8783 21.6479 48.8783 20.1079C48.8783 19.0279 48.9682 13.7378 48.7182 12.9178C48.5382 12.3478 47.8883 12.0378 47.3183 11.8178C44.9883 10.9178 42.6383 9.95777 40.2883 9.00777C40.0283 8.89777 38.6783 8.40781 38.5583 8.29781C38.3683 8.12781 38.3083 7.76784 38.0483 7.57784C37.8783 7.44784 37.3783 7.26781 37.1683 7.16781C33.8383 5.61781 30.3282 4.14785 26.9582 2.58785C25.1482 1.74785 24.7583 2.81784 22.6383 1.94784C18.7383 0.357836 18.9883 0.347802 14.4383 1.0378L5.72824 2.21786C5.00824 2.31786 4.42824 2.63779 4.10824 3.02779C3.78824 3.41779 3.37831 4.09784 3.42831 4.82784M23.7983 21.9278C23.3483 24.5178 21.6883 23.0778 22.0283 20.8078C22.1283 20.1378 22.6082 18.9678 23.3282 19.6578C23.7982 20.1078 23.9383 21.1678 23.8083 21.9378L23.7983 21.9278ZM42.1783 22.5378C42.0383 20.4078 43.4182 20.1378 43.5782 21.9278C43.6282 22.4778 43.4782 23.4778 43.1082 23.6478C42.4882 23.9378 42.2083 23.0778 42.1783 22.5378ZM8.90829 24.3479C9.80829 24.3179 10.8782 24.4278 11.8282 24.4378L19.2082 24.4078C19.4382 24.4378 19.4983 24.5278 19.6883 24.6478C19.8783 24.7678 20.0283 24.7979 20.1283 24.9679H8.54831C8.59831 24.7479 8.76829 24.5179 8.90829 24.3479ZM14.9782 6.22787C15.5882 6.27787 15.8083 6.27783 15.7683 6.93783C15.7383 7.38783 15.6783 7.84781 15.6483 8.29781C15.5983 8.98781 15.7482 10.6078 14.8382 10.4578C14.0682 10.3278 14.2383 8.89785 14.1983 8.08785C14.1583 7.16785 13.9283 6.12781 14.5183 5.54781C15.3283 4.75781 16.5483 5.10781 16.8783 4.91781C17.1283 4.77781 16.8282 4.06783 16.5882 3.93783C16.2182 3.72783 15.7283 3.8478 15.3183 3.9078C11.8683 4.4178 8.17832 4.67778 4.80832 5.26778C2.43832 5.67778 3.72823 6.04778 2.59823 6.01778C1.69823 5.99778 0.728215 6.17784 0.328215 6.69784C-0.181785 7.34784 0.0482251 8.37782 0.0882251 9.30782C0.118225 10.0878 -0.0517847 11.5378 0.828215 11.5178C1.56822 11.4978 1.45827 9.92788 1.50827 9.23788C1.65827 7.06788 1.82823 7.61778 0.838225 7.26778C0.878225 6.57778 2.02827 6.52789 2.75827 6.62789C2.81827 7.02789 2.46829 9.90785 2.40829 10.5879C2.28829 11.9279 2.16822 13.2679 2.07822 14.6179C1.95822 16.3379 1.63823 17.2178 3.09823 17.8278C5.80824 18.9678 12.1083 18.1478 14.7483 17.4378C15.5983 17.2078 16.0782 17.0378 16.3582 16.2678C16.7382 15.2178 16.6782 12.3478 16.7382 11.0478C16.8082 9.32781 16.9583 7.26784 16.9083 5.57784C16.2783 5.50784 14.9682 5.49785 14.9882 6.20785L14.9782 6.22787ZM11.0283 17.3178C10.8083 17.4678 10.2282 17.4779 9.95822 17.4979C9.11822 17.5779 8.76826 17.7278 8.49826 17.3878L3.76828 11.1279C3.16828 10.3579 3.16828 10.6178 3.26828 9.43783C3.28828 9.15783 3.34831 7.6178 3.54831 7.4078L7.2883 12.3479C8.2483 13.7379 10.1083 15.9278 11.0283 17.3078V17.3178ZM6.18832 16.5078C5.75832 15.9578 5.36822 15.4278 4.95822 14.8878L3.70822 13.2878C3.51822 13.0378 3.29825 12.7378 3.11825 12.4578C2.93825 12.1678 3.05825 11.6078 3.11825 11.2678C3.41825 11.4578 3.55831 11.7978 3.79831 12.0578L5.00827 13.6279C5.35827 14.1879 7.88828 17.2978 7.89828 17.6378C6.83828 17.6378 7.26832 17.8878 6.18832 16.5078ZM34.1583 14.9679L40.5982 16.1179L40.7683 11.8178L33.8983 9.26778L34.1483 14.9779L34.1583 14.9679ZM47.0283 17.2778C47.0483 13.9978 47.3082 14.2378 45.2082 13.5178L43.7082 12.9178C42.7982 12.6078 41.8882 12.1879 41.2282 11.9879C41.1482 12.5079 41.2683 14.0278 41.3083 14.6378C41.4183 16.5778 41.0283 16.2178 42.2883 16.4378C43.0683 16.5778 46.5383 17.2478 47.0383 17.2678L47.0283 17.2778ZM21.4283 17.2279C21.9083 16.4279 22.5883 15.8478 23.6383 15.9478C24.6883 16.0478 25.7583 16.1978 26.8183 16.3178L42.4782 18.1578C43.0582 18.2278 45.2183 18.6278 45.5383 18.4078C45.2683 18.2278 34.0383 16.6578 32.6683 16.4478C31.8283 16.3178 23.3583 14.9979 22.8983 15.0879C22.1483 15.2279 21.4683 16.2979 21.4383 17.2279H21.4283ZM12.5882 21.7878C12.8582 21.8878 15.6283 21.7279 16.0583 21.6179C16.3883 21.5379 16.4382 21.4378 16.4682 21.0578C16.4882 20.7578 16.4682 20.4079 16.4682 20.0979C16.4682 19.7679 16.4983 18.5279 16.3783 18.3379C16.1783 18.0079 13.8682 18.4279 13.4882 18.9679C13.3882 19.1079 12.4882 21.3278 12.5882 21.7778V21.7878ZM4.67831 21.6279C4.77831 21.2379 4.41832 20.2378 4.30832 19.8278C4.09832 19.0578 4.01829 18.9378 3.27829 18.6878C2.52829 18.4278 2.00829 18.1978 2.15829 19.2678C2.23829 19.8778 2.3083 20.5578 2.4183 21.1678C2.8783 21.2678 4.2983 21.6979 4.6683 21.6279H4.67831ZM22.9483 13.2678C23.3783 13.1978 23.6782 13.2079 24.1082 13.2279C24.4382 13.2379 24.8783 13.3378 25.1383 13.3178V11.9378L25.3883 6.05782C25.1283 5.86782 23.5482 5.33781 23.0982 5.16781C22.3382 4.86781 21.5282 4.49785 20.5882 4.58785C19.6082 4.67785 19.0083 5.12777 18.6483 5.75777C18.1883 6.55777 18.2483 7.44783 18.1983 8.43783C18.0483 11.2578 17.6882 17.9479 17.9582 20.4879C20.9982 20.8279 20.0082 19.4778 20.8582 15.7078C21.1782 14.3078 21.7283 13.6078 22.9483 13.2678ZM26.6383 13.5979C28.8183 14.0279 31.0182 14.4078 33.2082 14.7878L33.4483 9.06783L25.9383 6.25777C25.9383 7.51777 26.0382 8.86778 26.0882 10.1378L26.2382 13.0578C26.2382 13.5378 26.1383 13.5479 26.6383 13.5979ZM22.5483 22.6179C23.7983 23.8179 24.0282 19.3679 22.6082 20.0879C22.7082 20.3579 23.1082 20.4878 23.0982 21.3978C23.0982 21.6478 23.0383 21.9179 22.9383 22.1279C22.8683 22.2679 22.8282 22.3178 22.7382 22.4078L22.5383 22.6179H22.5483ZM40.7282 24.9779H24.5683C24.5683 24.9779 24.9482 24.4778 25.0882 24.4278L39.1683 24.4078C39.5083 24.4078 39.9083 24.3579 40.1383 24.4979C40.2483 24.5679 40.6582 24.8779 40.7383 24.9779H40.7282Z" fill="white"/>
</g>
</mask>
<g mask="url(#mask0_202_205)">
<g id="Group">
<path id="Vector_2" d="M50.0082 0.35791H-0.171875V26.2379H50.0082V0.35791Z" fill="url(#paint0_linear_202_205)"/>
</g>
</g>
</g>
<defs>
<linearGradient id="paint0_linear_202_205" x1="10.7681" y1="26.8679" x2="42.0681" y2="-3.14212" gradientUnits="userSpaceOnUse">
<stop stop-color="#312E6A"/>
<stop offset="1" stop-color="#57BDDD"/>
</linearGradient>
</defs>
</svg>
