<svg width="50" height="27" viewBox="0 0 50 27" fill="none" xmlns="http://www.w3.org/2000/svg">
<g id="Clip path group">
<mask id="mask0_202_213" style="mask-type:luminance" maskUnits="userSpaceOnUse" x="0" y="0" width="50" height="27">
<g id="clippath-162">
<path id="Vector" d="M2.1698 17.4862C2.1698 17.4862 6.4397 17.5863 6.9397 17.5863C8.5897 17.5963 10.2498 17.5863 11.8998 17.5663C11.8498 17.7663 11.7598 17.8962 11.6698 18.0262C10.9698 18.1162 10.0697 18.0763 9.34973 18.0763L4.57971 18.0262C4.11971 18.0262 2.63978 17.9963 2.26978 17.9263C2.19978 17.8163 2.1298 17.6463 2.1698 17.4763M2.33972 18.3163C3.10972 18.3163 3.78971 18.3962 4.57971 18.4062C5.33971 18.4062 6.09974 18.4363 6.85974 18.4363C8.39974 18.4363 9.92973 18.4162 11.4697 18.4062C11.4397 18.6162 11.3597 18.7162 11.2397 18.8962C10.0697 19.0462 3.71972 18.8163 2.45972 18.7963C2.40972 18.6363 2.33972 18.5463 2.33972 18.3263V18.3163ZM16.0298 19.7762C17.0298 19.9062 17.3998 21.0663 16.1798 21.4663C15.6998 21.6263 15.1897 21.6163 14.7297 21.4263C14.3197 21.2563 13.8798 20.7763 14.1298 20.4263L14.2097 20.5563C14.6797 21.5163 16.7598 21.0962 16.3898 20.1462C16.3498 20.0362 16.2298 19.9362 16.1598 19.8762L16.0398 19.7662L16.0298 19.7762ZM26.2397 23.9763C26.7797 23.9563 26.3898 23.9763 27.1498 24.6863C27.4998 25.0163 27.7198 25.1063 28.1198 25.3163C28.0798 25.3463 28.1398 25.3262 28.0198 25.3562H27.5997C27.3997 25.3662 27.2098 25.3562 27.0098 25.3562C26.6298 25.3562 26.2498 25.3563 25.8698 25.3463C25.0298 25.3363 25.2298 25.7962 24.1198 25.9062C24.2598 25.7762 24.1998 25.8262 24.3898 25.7462C24.6298 25.6462 24.9498 25.4063 25.1398 25.2263C25.0098 25.2563 23.5998 26.3162 22.3898 25.4962C21.7198 25.0462 22.0198 25.4863 21.6198 25.1663C21.0698 24.7363 20.8197 24.4062 20.4797 23.7762C19.5097 21.9862 19.8798 19.5163 21.0498 18.1763C22.4698 16.5363 24.5597 16.6863 25.8597 18.3163C26.7497 19.4263 27.0797 21.2662 26.7197 22.6262C26.6497 22.8762 26.5998 23.0663 26.5198 23.3163C26.4398 23.5563 26.3097 23.7163 26.2397 23.9763ZM4.33972 23.3063L5.1698 23.2762C5.4298 23.2762 5.66981 23.3263 5.92981 23.3363C6.48981 23.3563 7.05975 23.3362 7.61975 23.3662L14.2898 23.5262C14.8698 23.5262 15.3498 23.5763 15.8898 23.5863C16.4198 23.5963 17.1298 23.5562 17.6198 23.6162C17.6698 23.6962 17.7498 23.9563 17.7898 24.0663C17.8598 24.2363 17.9198 24.3662 18.0098 24.5262C18.1798 24.8262 18.3298 25.0562 18.5298 25.2762C14.9298 25.2562 12.9697 25.2563 9.30969 25.2163C9.33969 25.1063 9.43977 25.0963 9.63977 24.9663C9.76977 24.8863 9.88976 24.7863 9.99976 24.6963L10.4397 24.2462C10.5297 24.1362 10.5297 24.1562 10.5597 24.0362C10.0897 24.0362 9.36981 23.9963 8.92981 23.9363C8.39981 23.8663 7.8497 23.8763 7.3197 23.8063C6.4897 23.6963 5.9198 23.6562 5.0498 23.5062L4.39978 23.3463L4.36975 23.3363C4.36975 23.3363 4.34972 23.3363 4.33972 23.3263V23.3063ZM48.7898 16.0262C48.6998 14.8262 48.4797 13.5563 48.1997 12.4163L47.8597 11.2063C47.8197 11.0663 47.7997 10.9363 47.7097 10.8363C47.7297 11.1563 47.8097 11.3663 47.8597 11.6863C47.9797 12.4563 48.1897 13.3362 48.2297 14.1362C48.3597 16.6362 47.7498 16.2962 46.6298 16.2562C44.2098 16.1562 41.7998 15.9962 39.3998 15.8862C36.9998 15.7662 34.5398 15.6762 32.1398 15.5262C30.9198 15.4462 29.7298 15.4362 28.4998 15.3562L25.8297 15.1963C25.6597 15.1663 25.1297 15.1163 24.9797 15.1963C25.3697 15.4463 25.2898 15.2963 25.5098 15.2963C25.6198 15.5163 25.4298 15.4063 25.7898 15.6763C25.8198 15.6963 25.8798 15.7362 25.9098 15.7662C26.3798 16.1262 26.8197 16.7063 27.0697 17.2263C27.4697 18.0363 27.6797 18.9663 27.7197 20.0863C28.2297 20.1363 42.1097 20.0463 42.1897 20.0463C42.6097 18.8863 43.2597 16.9863 44.8497 16.7963C46.7397 16.5763 47.4597 18.3562 47.4897 19.9862H48.7297L48.8397 18.8562C48.6597 18.7862 48.3698 18.7663 48.4298 18.4263C48.4698 18.2063 48.6798 18.0762 48.8698 18.0062C48.8698 17.3562 48.8497 16.7162 48.8097 16.0362L48.7898 16.0262ZM34.2698 11.2263L41.0997 11.6963C41.1497 11.3763 41.0097 10.3363 40.8197 9.2163C40.7797 9.2163 40.7397 9.2163 40.6897 9.2163H40.0797C39.2097 9.1963 38.3397 9.2163 37.4697 9.2163C37.2397 9.2163 37.0798 9.17629 36.8798 9.07629C36.5398 8.91629 36.2497 8.52624 36.1997 8.15624C36.1197 7.54624 36.1598 7.73626 36.3898 7.17626V7.15624C36.6498 6.58624 36.9098 6.01628 37.1698 5.44628C37.1998 5.36628 37.2697 5.21625 37.3497 5.03625C35.8097 4.80625 33.7798 4.51622 33.2698 4.50622C33.2698 4.67622 33.3798 5.10626 33.4198 5.29626C33.7698 6.87626 34.1798 9.6562 34.2798 11.2362L34.2698 11.2263ZM26.1097 8.90624C26.4497 9.01624 26.3797 8.81626 26.7197 8.17626C26.8997 7.84626 27.0298 7.56625 27.5098 7.53625C27.9798 7.49625 28.4298 7.46621 28.9098 7.49621C29.5198 7.52621 29.6398 7.56628 29.7798 8.06628C29.8798 8.42628 29.8697 9.04628 29.8397 9.44628C29.7897 10.3963 27.6298 9.90625 26.2498 10.1663L26.2998 10.9563C26.7398 11.0163 27.5398 10.9563 28.0198 10.9563C28.5998 10.9563 29.1298 10.9862 29.6698 11.0162C30.7798 11.0862 31.9098 11.1063 32.9998 11.1663C33.0198 10.1963 32.6298 7.01622 32.4198 6.00622L32.1097 4.3662C31.6597 4.3362 31.2897 4.25621 30.8397 4.24621C30.4197 4.23621 29.9598 4.18625 29.5298 4.16625C29.2998 4.15625 29.0897 4.15627 28.8597 4.18627C28.5997 4.21627 28.5397 4.25622 28.3597 4.38622C27.6497 4.88622 26.9797 5.92627 26.4797 6.68627C25.6697 7.89627 26.0497 7.56625 26.0997 8.91625L26.1097 8.90624ZM28.5198 5.56628C28.5198 5.56628 28.4797 5.52625 28.5597 5.41625C28.5897 5.36625 28.6298 5.32624 28.6798 5.27624C29.4098 4.53624 30.3597 4.83631 31.5997 4.97631C31.6897 5.23631 31.7397 5.5263 31.7397 5.8363L30.1298 5.68627C29.6998 5.60627 28.8698 5.65628 28.5198 5.56628ZM42.2798 11.7862L46.3998 12.0463C46.5598 12.0463 46.8597 12.0962 46.9597 11.9862L46.9897 11.6863C46.9597 11.4563 46.5898 10.0463 46.2698 8.8363C46.1798 8.9263 46.0797 8.99628 45.9697 9.06628C45.7297 9.19628 45.5398 9.2163 45.2698 9.2163C44.4398 9.2163 43.6198 9.2163 42.7898 9.2163C42.4798 9.2163 42.1798 9.2163 41.8698 9.2163C41.9298 9.5363 41.9898 9.85625 42.0498 10.1663C42.1598 10.7063 42.1798 11.2462 42.2898 11.7762L42.2798 11.7862ZM20.3698 2.7362C19.0398 2.8662 17.6798 3.11631 16.4098 3.34631L18.5198 3.20629C21.6398 3.06629 24.4797 2.91622 27.0697 3.00622C27.5097 3.04622 28.0097 3.0962 28.4697 3.1162C29.3297 3.1462 31.9797 3.61622 33.1997 3.75622L35.1997 4.06628C35.4297 4.10628 35.6698 4.11624 35.8798 4.15624C37.4698 4.47624 37.0998 3.76621 36.1498 3.62621C35.2498 3.49621 34.0798 3.2263 33.1398 3.0863C30.1998 2.6563 29.8697 2.48628 26.6897 2.44628C24.9797 2.49628 21.9697 2.58621 20.3497 2.74621L20.3698 2.7362ZM2.9198 14.1462C2.8598 14.2762 2.78969 14.5563 2.80969 14.7163C3.73969 14.7563 11.9497 14.8363 12.0897 14.7163C11.9797 14.5063 11.7497 14.3362 12.0897 14.1162L2.92981 14.1462H2.9198ZM21.0298 21.0062C21.0298 21.0062 21.0398 20.9663 21.0498 20.9663L21.2397 20.4163C21.2797 20.3263 21.3198 20.2563 21.3698 20.1663C21.4098 20.0963 21.4097 20.0962 21.4497 20.0362C21.5097 19.9462 21.4798 19.9862 21.5298 19.9062C22.9698 17.9362 25.4998 19.2462 25.3998 22.0062C25.3798 22.6462 25.1098 23.2662 24.7698 23.7362L24.3798 24.1763C25.0598 24.0063 25.6698 22.7463 25.7798 21.9563C26.1998 18.8963 23.0697 17.0063 21.4797 19.5963C21.2597 19.9563 21.0398 20.5462 21.0398 21.0162L21.0298 21.0062ZM43.7998 21.1262C43.9198 20.7462 44.1097 20.3262 44.4797 20.1162C45.0697 19.7862 45.4898 20.4362 45.6398 20.7562C45.9198 21.3562 45.9398 21.6463 45.9298 22.4163C45.9298 22.7963 45.8897 22.9562 45.8097 23.2662C45.7097 23.6662 45.5698 23.8162 45.5398 23.9862C45.8598 23.8062 46.1598 22.7662 46.1798 22.2462C46.2098 21.4862 46.1097 20.7862 45.8297 20.2362C44.9697 18.5362 43.7197 20.0763 43.7197 21.3463L43.7998 21.1262ZM12.7998 13.6562C12.6598 13.7062 12.5498 13.7563 12.5198 13.8263C11.4598 13.8563 9.0397 13.8762 7.5697 13.8862C6.0897 13.8862 4.44974 13.9462 2.97974 13.8662C2.97974 13.6862 3.04979 13.7362 3.02979 13.5262L2.24976 13.3562C2.06976 13.6062 1.88973 14.8362 1.96973 15.2562L2.36975 15.3363C2.43975 15.2463 2.52974 15.1162 2.60974 15.0362C2.74974 14.8862 2.75976 14.9363 2.99976 14.9563C4.13976 15.0163 5.28981 14.9862 6.42981 14.9862C7.78981 15.0062 11.2597 15.0263 12.1097 14.9663C12.2997 14.9563 12.4697 15.0963 12.5797 15.1663C12.9597 15.3563 13.1898 15.2862 13.6198 15.2662C14.3698 15.2462 15.1398 15.1862 15.8798 15.1262C16.4998 15.0762 18.0498 15.1062 18.5098 14.7562C18.8698 14.4862 19.0397 13.8062 18.9797 13.3762C16.8197 13.5462 14.9398 13.6562 12.7998 13.6562ZM13.0897 13.1562C14.8097 13.1562 16.4698 12.9963 18.1798 12.9563L19.7097 12.8363C19.7097 13.6863 19.5597 14.6862 19.0997 15.1062C18.8597 15.3362 18.3597 15.3863 17.9697 15.4163C17.5397 15.4463 17.0998 15.5262 16.6598 15.5362C15.8198 15.5562 14.8598 15.6563 13.9098 15.6663C12.9498 15.6663 12.0497 15.7762 11.0597 15.7462C10.8497 15.6762 4.30976 15.8562 3.12976 15.7462C2.70976 15.7462 2.2497 15.6363 2.0697 15.9563C1.9597 16.1563 1.80975 16.6863 1.98975 16.9663C2.78975 17.4063 19.3797 16.7263 19.8097 16.7163C19.7697 16.9263 19.5998 17.2263 19.5198 17.4463C19.4398 17.6563 19.3397 18.0563 19.3097 18.2963C19.2397 19.1163 19.2597 19.4562 19.3097 20.2562L19.3898 20.0663C19.4098 20.0063 19.4098 19.9262 19.4298 19.8562C19.4998 19.4362 19.6597 18.9862 19.8297 18.6062C20.4897 17.0662 21.8398 15.8563 23.6198 15.9463C24.8598 16.0063 25.7997 16.6962 26.3497 17.5162C26.9497 18.4162 27.2497 19.5863 27.2197 20.9663C32.4897 20.9663 36.7597 20.9162 42.3397 20.8562C42.5997 19.5962 43.1797 17.6763 44.7097 17.5563C46.0797 17.4463 46.7898 18.2063 47.1598 19.3163C47.2598 19.6163 47.3197 20.2363 47.3197 20.5863C47.6097 20.5863 48.8097 20.5262 48.9897 20.6162C49.2897 20.7662 48.9598 21.7862 48.8898 22.0162C48.8198 22.2562 48.7498 22.4362 48.6698 22.6362C48.5498 22.9262 48.5998 22.9563 48.2698 23.0763C47.8498 23.2263 47.2797 23.2662 46.8397 23.3662C46.8397 23.0962 47.0197 22.5462 46.9697 21.5162C46.9197 20.5462 46.6098 19.2362 45.7898 18.6362C44.7598 17.8762 43.8098 18.7263 43.3898 19.7263C42.9598 20.7563 42.8398 22.1262 43.1198 23.2362C43.2397 24.0262 44.2797 26.4462 45.9797 24.9862C45.9197 25.1462 45.9098 25.1362 45.7998 25.2562C45.6998 25.3662 45.5898 25.4262 45.5498 25.5362L49.9897 25.5863V26.5763C38.3597 26.5763 33.7597 26.5763 18.8597 26.5763C11.9397 26.5763 13.3198 26.5763 8.75977 26.5763C5.84977 26.5763 2.91977 26.5263 0.00976562 26.5763V25.1462L4.94971 25.1863C4.24971 24.6863 3.71976 24.4762 3.24976 23.6562C3.00976 23.2362 3.1797 23.1862 2.6897 23.1162C2.2197 23.0562 1.4398 22.7862 1.1698 22.4862C0.9198 22.2162 0.959717 22.0363 0.959717 21.5963C0.959717 21.2363 0.959736 20.8762 0.979736 20.5162C1.06974 20.4362 1.11972 20.4062 1.20972 20.3762C1.15972 20.2462 1.08979 20.1662 1.02979 20.0362C0.889785 19.7362 0.959717 18.8662 0.959717 18.5062C0.959717 17.6962 0.739785 16.2863 1.27979 15.6663C1.62979 15.2663 1.4997 15.4662 1.5697 14.8862C1.6497 14.2462 1.68979 13.6562 1.90979 13.1262C1.98979 12.9362 2.09975 12.8163 2.23975 12.7063C2.89975 12.1763 3.6598 11.8263 4.4198 11.4263C4.9098 11.1663 5.34971 10.9463 5.82971 10.7163C6.60971 10.3463 7.95975 9.57623 8.73975 9.39623L9.53979 9.14623C10.1498 8.24623 11.1397 7.1662 12.0697 6.2362C12.2897 5.9362 12.9098 5.3462 13.0298 5.2362C13.3698 4.9262 13.6398 4.6363 14.0298 4.4663C14.1298 4.4263 14.2397 4.3862 14.3597 4.3662C14.9497 4.2462 15.5697 4.07623 16.1997 4.01623C17.6497 3.87623 18.5897 3.66623 20.2197 3.64623C21.3897 3.62623 26.1597 3.47627 26.7297 3.68627C26.7097 3.77627 26.7297 3.71624 26.6897 3.77624C25.3397 5.65624 23.9898 7.54626 22.6398 9.42626C21.6998 9.39626 20.7598 9.30625 19.7898 9.28625C19.3098 9.27625 18.8798 9.21629 18.3998 9.20629H13.9597C13.0097 9.21629 12.0597 9.3263 11.0897 9.3363C9.39972 9.3563 6.14974 11.1263 4.72974 11.8463C4.25974 12.0863 3.7398 12.3562 3.2998 12.6562C3.1198 12.7762 2.99981 12.8663 2.92981 13.0563C3.12981 13.3363 3.72971 13.2662 4.07971 13.2662L12.9497 13.1763C13.0097 13.1763 13.0597 13.1763 13.0997 13.1763L13.0897 13.1562ZM16.3097 8.93627C15.4697 7.83627 14.6398 6.73622 13.7998 5.63622C13.6598 5.45622 13.4498 5.21621 13.3998 5.12621C13.6398 4.74621 13.9297 4.60621 14.2197 4.49621L15.6298 6.27624C16.1298 6.99624 17.1798 8.22628 17.6498 8.94628H16.3097V8.93627ZM15.0498 8.42626C14.8298 8.14626 14.6198 7.8663 14.4098 7.5863L13.7598 6.75622C13.6798 6.64622 12.9998 5.7362 12.9198 5.6162C12.9998 5.4962 13.0998 5.42627 13.1798 5.30627C13.2998 5.40627 13.6898 5.9962 13.7998 6.1162L14.4298 6.92626C14.5998 7.19626 15.7098 8.56627 15.8998 8.93627H15.4298C15.3598 8.85627 15.2598 8.70626 15.0398 8.42626H15.0498ZM41.1598 0.246208C40.8998 0.296208 40.7898 0.296242 40.5298 0.406242L40.2898 0.526237C40.2898 0.526237 40.2698 0.526247 40.2698 0.536247L40.0797 0.666252C40.0797 0.666252 40.0797 0.666271 40.0597 0.686271C39.7397 0.936271 39.5098 1.24621 39.3698 1.62621C39.3298 1.73621 39.2598 1.99623 39.2498 2.14623C39.2198 2.79623 39.3298 3.14622 39.6498 3.63622C39.9398 4.08622 40.2698 4.58625 40.5498 5.03625C40.5598 5.05625 40.5697 5.0563 40.5797 5.0863L41.1398 5.9663C41.1798 6.0263 41.1998 6.09622 41.2898 6.13622C41.4798 6.21622 41.5698 6.02624 41.6498 5.90624L42.8898 3.9663C42.8898 3.9663 42.9297 3.9062 42.9497 3.8662L43.2598 3.37621C43.5098 2.89621 43.5798 2.30626 43.4198 1.79626C43.3598 1.61626 43.2798 1.40621 43.1698 1.24621L43.0398 1.05627C42.8098 0.776267 42.5797 0.586262 42.2397 0.426262C42.1197 0.366262 41.9098 0.296237 41.7498 0.276237C41.5998 0.256237 41.3098 0.226218 41.1498 0.256218L41.1598 0.246208ZM40.2998 7.40624C40.2998 7.44624 40.3998 8.20619 40.4098 8.35619C40.4198 8.45619 40.4497 8.57626 40.4497 8.67626C40.5197 8.69626 44.9998 8.67626 45.2598 8.67626C45.4598 8.67626 45.5597 8.6763 45.7097 8.5863C45.9197 8.4763 46.1098 8.23625 46.1198 7.91625C46.1198 7.73625 46.0698 7.6162 46.0098 7.4862L45.6398 6.65624L45.6298 6.63622L45.5597 6.4663C45.5597 6.4663 45.5498 6.43626 45.5398 6.42626L45.5198 6.39623L45.1897 6.45629C45.0897 6.46629 44.9697 6.49623 44.8698 6.51623C44.7197 6.54623 44.0798 6.67629 43.8998 6.70629L42.9198 6.89623C42.8198 6.91623 42.7097 6.93629 42.5997 6.95629L42.2698 7.01623C42.1598 7.03623 42.0497 7.05629 41.9397 7.07629L41.6097 7.13622C41.5097 7.15622 41.3998 7.17628 41.2898 7.19628C41.0198 7.26628 40.5597 7.31621 40.3097 7.37621L40.2998 7.40624ZM36.8798 7.37621C36.8398 7.47621 36.7397 7.65631 36.7397 7.72631C37.5597 7.56631 37.9698 7.5162 38.6598 7.3662C38.8798 7.3162 39.1898 7.27631 39.3998 7.22631C39.5398 7.19631 39.7798 7.16621 39.8898 7.12621C39.8898 7.10621 39.8198 6.45622 39.7998 6.38622C39.7598 6.14622 39.7397 5.88622 39.7097 5.63622C39.6897 5.51622 39.6898 5.38623 39.6698 5.26623L39.5298 4.13622C39.2598 4.09622 38.4098 4.1962 38.2498 4.3662C38.2098 4.4062 37.1198 6.81622 36.8698 7.38622L36.8798 7.37621ZM42.5198 5.28625C42.7098 5.72625 42.8898 6.08623 43.0398 6.51623C43.1798 6.51623 44.2797 6.27621 44.4897 6.24621L45.3597 6.06628L45.1097 5.4862C45.0897 5.4362 45.0698 5.38631 45.0498 5.34631L44.8597 4.90624C44.7897 4.93624 44.6497 4.93629 44.5697 4.95629C44.3597 4.99629 44.1997 5.00626 43.9897 5.04626C43.8997 5.06626 43.7897 5.0763 43.6897 5.0863C43.4397 5.1363 42.7098 5.22624 42.5198 5.27624V5.28625ZM36.7297 8.09631C36.7597 8.3063 36.9598 8.53619 37.1198 8.60619C37.2397 8.66619 37.3197 8.69628 37.4797 8.69628C38.4297 8.69628 39.4897 8.69628 40.0997 8.69628L40.0198 8.0863C39.9998 7.9863 39.9598 7.51631 39.9298 7.47631L38.2898 7.78625C37.8898 7.84625 37.1697 7.9963 36.7197 8.0863L36.7297 8.09631ZM42.6897 6.5863C42.6897 6.5863 42.6698 6.53622 42.6598 6.50622C42.5398 6.22622 42.4598 6.0462 42.2798 5.6162C42.2498 5.6462 42.2397 5.66628 42.2197 5.69628L42.0398 5.97631C41.9998 6.03631 41.9598 6.09624 41.9198 6.15624C41.8798 6.21624 41.8398 6.2863 41.7898 6.3363C41.5498 6.5763 41.1098 6.57629 40.8798 6.20629L39.9797 4.80627C39.9797 4.86627 40.0398 5.27625 40.0498 5.41625L40.1298 6.01623C40.1698 6.30623 40.1997 6.62625 40.2397 6.91625C40.2697 7.12625 40.1397 7.04625 40.9797 6.91625C41.1697 6.88625 41.3598 6.83627 41.5498 6.80627L42.6897 6.5863ZM42.7297 4.89623C42.8797 4.87623 43.0797 4.83628 43.2197 4.81628C43.3897 4.79628 43.5497 4.7662 43.7197 4.7362C43.9397 4.6962 44.2197 4.6662 44.4597 4.6162C44.5397 4.6062 44.6397 4.58629 44.7097 4.57629C44.6797 4.43629 44.4597 4.24627 44.3097 4.18627C44.0897 4.09627 43.8397 4.12621 43.5697 4.12621C43.4997 4.12621 43.2297 4.10623 43.1997 4.14623L43.1198 4.26623C43.0698 4.33623 42.7397 4.84622 42.7297 4.88622V4.89623ZM42.7698 2.50622C42.7698 2.56622 42.7698 2.59624 42.7498 2.65624C42.6698 2.99624 42.4897 3.31622 42.1997 3.50622C42.1697 3.52622 42.1297 3.55629 42.0897 3.57629C41.6497 3.82629 41.1198 3.85631 40.6798 3.59631C40.3798 3.42631 40.1698 3.17619 40.0498 2.85619C39.8698 2.37619 39.9698 1.89621 40.2698 1.49621C40.3298 1.41621 40.4697 1.28631 40.5597 1.22631C40.6597 1.15631 40.8297 1.06625 40.9497 1.03625C40.9797 1.03625 40.9898 1.02623 41.0198 1.01623C41.3398 0.916227 41.7798 0.986223 42.0498 1.13622L42.1798 1.2163C42.2698 1.2763 42.3697 1.37629 42.4397 1.45629C42.4897 1.50629 42.5497 1.59624 42.5897 1.65624C42.7297 1.88624 42.8198 2.22622 42.7798 2.50622H42.7698ZM28.6798 23.9463C28.9898 23.7963 31.1997 23.8663 31.7397 23.8463C33.2097 23.7863 39.8598 23.5562 40.9098 23.6162C40.9498 24.2662 41.0898 24.8362 41.6698 25.4062C40.5698 25.4262 39.4697 25.4463 38.3698 25.4663L30.8297 25.3562C30.8297 25.3562 30.8098 25.3463 30.7998 25.3363C31.3698 25.1363 31.8397 24.6262 32.1897 24.1362C32.0797 24.0762 31.8898 24.0863 31.7498 24.0863C31.4198 24.0663 28.8898 24.0663 28.6798 23.9563V23.9463Z" fill="white"/>
</g>
</mask>
<g mask="url(#mask0_202_213)">
<g id="Group">
<path id="Vector_2" d="M49.9897 0.226318H-0.0102539V26.5663H49.9897V0.226318Z" fill="url(#paint0_linear_202_213)"/>
</g>
</g>
</g>
<defs>
<linearGradient id="paint0_linear_202_213" x1="10.4797" y1="26.9363" x2="42.5897" y2="-3.02372" gradientUnits="userSpaceOnUse">
<stop stop-color="#312E6A"/>
<stop offset="1" stop-color="#57BDDD"/>
</linearGradient>
</defs>
</svg>
