<svg width="50" height="34" viewBox="0 0 50 34" fill="none" xmlns="http://www.w3.org/2000/svg">
<g id="Clip path group">
<mask id="mask0_202_221" style="mask-type:luminance" maskUnits="userSpaceOnUse" x="-1" y="0" width="52" height="35">
<g id="clippath-163">
<path id="Vector" d="M4.92956 16.4899C4.86956 16.1699 5.10959 15.0498 5.20959 14.6898L15.7596 14.7198C15.9096 14.9698 15.9296 15.3299 15.9696 15.6299C15.9996 15.7899 16.0296 15.9499 16.0596 16.1099C16.0996 16.3599 16.1397 16.3699 16.0297 16.5399C15.8897 16.6799 5.80956 16.5699 4.92956 16.4899ZM19.0496 16.9999C19.2796 16.5499 19.4396 16.4198 20.0896 16.4498L20.0696 17.2899L19.0496 16.9999ZM20.0796 25.0898C18.7996 25.1298 18.7896 25.2699 18.7696 24.8099L18.7396 18.6799C18.8196 18.3599 19.0196 18.5699 18.8596 17.5499L19.9296 17.9099C19.5096 18.0899 19.4096 17.7998 19.3796 18.4498C19.3396 19.2098 19.3096 19.9498 19.3796 20.7098C19.4196 21.1398 19.6095 21.0999 20.0395 21.0999C20.1395 21.5199 20.1096 24.4998 20.0696 25.0898H20.0796ZM20.4296 16.4799L23.0896 16.7198C23.1796 17.1198 23.1896 24.4499 23.0996 24.9799L20.4196 25.0599V21.1399C20.8896 20.9599 20.9096 21.1899 20.9396 20.5399C20.9696 19.9099 20.9996 18.9999 20.9396 18.3799C20.8696 17.7299 20.5896 18.1898 20.4296 17.8198V16.4799ZM25.6396 16.9299L29.4496 17.2799V20.2499L25.6497 20.0798V19.6599V17.6099V16.9398L25.6396 16.9299ZM33.8096 20.4598C33.6896 20.0398 33.7696 18.1999 33.7696 17.6199L37.1296 17.8999V20.6199L33.8096 20.4598ZM40.5696 18.2098L43.2496 18.4398V20.9199L40.5596 20.7899V18.2098H40.5696ZM43.5196 18.4498L46.2596 18.7098C46.3496 19.1698 46.5096 24.5298 46.4296 24.9498C45.9296 25.0898 44.1596 24.9999 43.5196 25.0099V18.4598V18.4498ZM23.4596 16.7999C23.7596 16.6999 24.9996 16.8399 25.3596 16.9199V24.9899L23.4596 24.9598V16.7899V16.7999ZM25.6497 20.3398L29.4596 20.5299V24.9799H25.6497V20.3298V20.3398ZM29.7496 17.2799L33.4896 17.6199V24.9899H29.7496V17.2699V17.2799ZM33.7895 20.7198L37.1396 20.8699L37.1096 24.9899H33.7696L33.7895 20.7198ZM37.4296 17.9398L40.3096 18.2198V18.6599V24.9899H37.4296V17.9398ZM40.5796 21.0399L43.2496 21.1699C43.2796 21.7499 43.3096 24.4699 43.2496 24.9899H40.6096L40.5896 21.4899V21.0399H40.5796ZM43.7196 28.3799C43.7496 28.7899 43.7696 28.7099 43.3796 28.7399C43.3796 28.3499 43.3396 28.3799 43.7196 28.3799ZM34.0395 28.6299L34.4396 28.5999L34.4097 28.9799L34.0395 28.9999V28.6299ZM30.0796 28.9099H30.5196V29.3198H30.0896V28.9099H30.0796ZM2.68957 28.2699L4.05957 28.3198C4.32957 28.5398 4.46963 29.0398 4.37963 29.4498C4.05963 29.5698 3.11956 29.4899 2.67956 29.4799V28.2699H2.68957ZM39.8596 27.1199C40.5396 26.8699 40.8496 28.1099 40.8896 28.7699C40.9296 29.4399 40.7496 30.6799 40.1996 30.8799C38.9896 31.3299 38.7296 27.5399 39.8596 27.1199ZM22.1096 29.2399L22.0896 29.7098L21.6296 29.7299L21.6497 29.2499L22.0996 29.2299L22.1096 29.2399ZM18.1996 29.8398C17.9696 29.9898 17.3597 29.9299 16.9097 29.9299C16.4597 29.9299 16.0196 29.9299 15.5696 29.9299C14.7096 29.9299 14.5596 30.0199 14.6296 29.6199C14.6596 29.4299 14.8396 28.7899 14.9396 28.6499C15.4596 28.5699 16.6096 28.6599 17.1996 28.6799C17.6096 28.6899 17.9196 28.6498 18.0996 28.9398C18.2296 29.1498 18.2796 29.6298 18.2096 29.8398H18.1996ZM30.7396 10.6199C30.7996 10.5999 31.0596 10.5399 31.0996 10.5199C31.4896 10.3599 31.1396 10.3298 31.5096 10.0898L35.0696 8.27991C38.4796 6.51991 42.7096 4.62984 45.8496 2.45984C46.4196 2.06984 47.7397 1.32994 47.0196 0.809937C46.8297 1.10994 46.9496 1.20993 46.7096 1.54993C46.4596 1.90993 45.3296 2.57986 44.9196 2.85986C42.8196 4.28986 36.6096 7.31983 34.1096 8.57983C33.6396 8.81983 33.1996 9.04991 32.7596 9.27991C32.4096 9.45991 31.7596 9.82985 31.3896 9.96985C30.8996 10.1598 31.4595 9.7399 30.0395 10.5199C29.5495 10.7899 29.7296 10.6399 29.2296 10.6499C28.9396 10.6499 28.6396 10.6799 28.2996 10.6799C25.6396 10.6299 26.8296 10.6899 25.9496 11.3099C25.6496 11.5299 25.6296 11.3698 25.0896 11.4398L25.0496 11.9299L21.9496 11.9598C22.4496 12.2098 26.6396 12.4699 27.2096 12.6399C27.4196 12.7099 27.8596 13.3199 27.8896 13.4099L27.9097 13.6499L40.3396 15.2499C40.3296 14.7399 40.0796 14.4599 39.5596 14.3899L32.0196 13.5199C31.3897 13.3399 30.7696 13.3099 30.0596 13.2499C30.2396 12.5399 32.7996 11.1598 33.5896 10.8198C34.3496 10.4798 33.9396 10.6899 34.1696 10.3999C34.3296 10.1999 39.4096 7.66986 40.0196 7.35986C42.7796 5.96986 46.4296 4.22993 48.9396 2.42993C49.1496 2.27993 49.2796 2.16989 49.5096 2.00989C49.7096 1.86989 49.8196 1.74985 49.9996 1.59985C49.9996 1.28985 50.0496 1.21989 49.8496 1.00989C49.7596 1.07989 49.7996 0.899854 49.6796 1.34985C49.5096 1.98985 48.5797 2.50993 47.8997 2.92993C47.0997 3.41993 46.3796 3.87986 45.5096 4.35986C42.3996 6.05986 38.5896 7.87982 35.3196 9.56982C34.9496 9.75982 34.3797 10.1299 34.0196 10.1799C33.4496 10.2599 33.7896 10.1998 33.3196 10.4598C33.0996 10.5798 32.9196 10.6499 32.6996 10.7599C31.9296 11.1399 30.8896 11.7999 30.1396 12.0599L30.0896 11.3398C30.4196 11.3298 30.8095 11.3699 31.0395 11.2399C31.0995 10.9999 31.1396 11.0198 31.0096 10.8198C30.9296 10.6998 30.9496 10.7999 30.7596 10.6299L30.7396 10.6199ZM17.1296 11.7799C16.2996 11.7799 15.4596 11.8098 14.6296 11.8398C13.4596 11.8898 13.1396 11.7899 12.6296 12.3699H15.7196C19.5496 12.3699 18.8896 12.2898 23.3296 12.8198C24.7496 12.9898 26.1896 13.1498 27.6196 13.3298C27.3096 12.7798 27.3896 12.7698 26.6796 12.6898C23.6696 12.3598 20.0996 11.7799 17.1996 11.7699H17.1296V11.7799ZM25.1396 31.5299C25.6696 30.9099 25.6496 29.2399 25.1396 28.6299C24.5396 28.6499 24.4896 29.4799 24.4796 30.0399C24.4796 30.6299 24.5196 31.4999 25.1396 31.5299ZM40.2396 30.3599C40.9296 30.0099 40.8496 28.0699 40.3296 27.6399C39.6196 27.7699 39.6896 29.1999 39.8296 29.7499C39.9096 30.0999 39.9496 30.2599 40.2396 30.3699V30.3599ZM12.3896 32.7399H22.0297C21.8497 32.4999 21.6996 32.2099 21.5796 31.8899C20.1496 31.9499 18.9396 32.0198 17.4896 31.9598C16.4296 31.9198 14.0996 31.7299 13.1796 31.8599C12.8996 32.2399 12.7796 32.5199 12.3896 32.7399ZM6.48962 24.4899C6.55962 24.5899 6.60964 24.6699 6.63964 24.7299H6.04956C6.04956 24.7299 6.01964 24.6999 6.00964 24.6799C5.93964 24.7199 5.87958 24.7599 5.81958 24.7999L13.3096 24.9199C12.7796 24.4599 11.7596 23.9598 10.9896 23.9598L8.25964 23.9398C8.32964 24.0298 8.38958 24.1098 8.44958 24.1998L10.1396 24.1599C10.4296 24.1599 10.7597 24.0899 10.9097 24.2399C10.2497 24.3699 9.38955 24.3298 8.53955 24.3198C8.64955 24.4698 8.73959 24.5999 8.82959 24.7299H7.13964L6.88964 24.3999C6.74964 24.4199 6.61962 24.4499 6.48962 24.4899ZM5.55957 24.0798C5.27957 23.7198 5.01964 23.3799 4.75964 23.0199L3.94958 21.9698C3.84958 21.8298 3.49964 21.1999 3.38964 21.0499C3.38964 20.8099 3.40955 20.5698 3.41955 20.3298C3.56955 20.4598 3.85963 21.0199 3.99963 21.1699L4.78955 22.1898C4.95955 22.4598 5.89964 23.6398 6.38964 24.3198H6.41955C6.53955 24.2698 6.65966 24.2499 6.77966 24.2399L3.97961 20.5599C3.79961 20.3299 3.52959 19.9999 3.45959 19.8899C3.50959 19.2599 3.56962 18.6299 3.61962 17.9999L6.28955 21.3599C6.73955 22.0099 7.55958 22.9998 8.19958 23.8398C9.04958 23.8198 9.95955 23.8499 10.7895 23.8499C12.2195 23.8499 12.1996 23.9998 13.1996 24.5698C13.7096 24.8598 13.6896 24.9199 14.3896 24.9299C16.8396 24.9599 17.9796 25.4099 17.9796 23.8799C17.9796 22.8499 18.1996 18.5199 17.8596 17.9299C17.5396 17.3699 16.1097 17.5499 15.1597 17.5599L5.75964 17.5299C2.97964 17.5299 3.35957 17.0299 3.05957 21.0999C2.98957 22.0999 2.91956 23.0898 2.92956 24.0898C2.92956 24.8698 3.07955 24.7499 3.78955 24.7599C5.82955 24.7799 5.11964 24.7999 5.88964 24.4899C5.80964 24.3799 5.70958 24.2498 5.56958 24.0698L5.55957 24.0798ZM37.6896 31.7399L27.8196 32.7399H25.5796C25.7996 32.4899 25.9397 32.1299 26.1597 31.5999C26.6397 31.5899 27.1196 31.5499 27.5896 31.5199C28.7696 31.4399 28.2696 31.5999 28.9296 31.6599C30.3896 31.7799 30.3396 31.3998 30.8396 31.3198L37.1196 30.9498C37.3496 31.2298 37.4296 31.5199 37.6796 31.7399H37.6896ZM48.4996 32.7399L48.3896 30.6699L40.8096 31.4299C40.9096 31.2699 40.9697 31.0999 41.1597 30.8999C41.7597 30.8299 42.6896 30.8699 43.2196 30.7399C44.8696 30.3299 44.3796 30.3998 44.6196 30.0698C45.1496 30.0298 45.4396 29.8199 45.8096 29.5999C46.0096 29.4799 46.7396 29.0698 46.8096 28.9698C47.0996 28.5598 46.9197 19.5999 46.7696 18.7599C46.6596 18.1499 46.6596 18.0399 46.6396 17.3799C46.6096 15.8899 45.7997 16.0798 43.8997 15.8298C39.0397 15.1698 33.3197 14.4598 28.3997 13.9598C27.1697 13.8298 28.1096 13.5798 27.4396 13.4398C27.0896 13.3698 26.5596 13.3399 26.1696 13.2899C23.8596 13.0099 20.3696 12.5099 18.2596 12.5099C16.3696 12.5099 14.3096 12.5899 12.4496 12.4999L12.4296 13.0399C9.66956 13.0599 6.75964 12.7099 4.63964 14.1499C4.22964 14.4299 4.3996 14.7899 4.0896 15.2299C3.6596 15.8599 3.27956 16.5599 3.17956 17.5499C3.39956 17.3599 0.879605 15.9798 0.0996052 18.2198C-0.0603948 18.8898 -0.0503997 19.8499 0.2196 20.5999C0.3396 20.9399 0.529586 20.8399 0.829586 20.7999C1.04959 20.6099 1.7996 17.0599 0.7196 17.7499C0.6796 17.4399 2.25961 16.8798 2.84961 17.9698C2.85961 18.5898 3.0796 18.1099 3.0896 18.6699C3.0896 18.7199 3.04955 18.9799 3.03955 19.0499C2.77955 20.9999 2.54957 25.4299 2.68957 27.6099C3.20957 27.6599 3.81961 27.6399 4.34961 27.6399C5.4896 27.6599 5.23966 27.6199 5.52966 28.0599C6.57966 28.0599 13.6496 28.3999 13.9796 28.2299C14.2696 28.0799 13.8796 27.9599 14.8696 27.9799C17.5696 28.0399 18.8697 27.6598 18.7797 29.4698C18.7597 29.8898 18.7796 31.2199 18.6796 31.5099L18.6096 31.3099C18.4296 30.0299 19.3396 28.2999 17.6296 28.1699C17.3196 28.1499 14.5396 28.0299 14.2996 28.1099C13.8796 28.2499 14.2996 28.4199 13.5196 28.3899C12.0596 28.3399 10.5996 28.3099 9.13964 28.2699L5.80957 28.1799C5.35957 28.1599 5.39956 28.0199 5.17956 27.7699C4.63956 27.7299 3.02956 27.6699 2.54956 27.7699C2.50956 28.2199 2.47957 29.9298 2.55957 30.3198C2.71957 31.0998 3.6396 30.9499 4.4696 30.9799C6.0396 31.0499 7.73956 31.1699 9.29956 31.1699C9.40956 31.5699 9.62959 32.0599 9.82959 32.3799C9.91959 32.5299 10.0096 32.6499 10.1296 32.7499H0.0895954V34.0099H48.4696V32.7499L48.4996 32.7399ZM25.7096 30.5299C25.4296 33.2399 23.5296 32.2499 23.8696 29.5499C24.1996 26.9199 25.9796 27.9099 25.7096 30.5299Z" fill="white"/>
</g>
</mask>
<g mask="url(#mask0_202_221)">
<g id="Group">
<path id="Vector_2" d="M50.0195 0.809937H-0.0805664V33.9999H50.0195V0.809937Z" fill="url(#paint0_linear_202_221)"/>
</g>
</g>
</g>
<defs>
<linearGradient id="paint0_linear_202_221" x1="7.43945" y1="30.3699" x2="46.2494" y2="1.6598" gradientUnits="userSpaceOnUse">
<stop stop-color="#312E6A"/>
<stop offset="1" stop-color="#57BDDD"/>
</linearGradient>
</defs>
</svg>
