<svg width="50" height="33" viewBox="0 0 50 33" fill="none" xmlns="http://www.w3.org/2000/svg">
<g id="Clip path group">
<mask id="mask0_202_229" style="mask-type:luminance" maskUnits="userSpaceOnUse" x="0" y="0" width="50" height="33">
<g id="clippath-164">
<path id="Vector" d="M22.6151 12.1842L19.6552 8.21416C19.4952 8.00416 18.6751 6.9942 18.6151 6.8842L19.4152 5.98417L21.7651 8.94426C22.3351 9.77426 23.8952 11.6642 24.4352 12.4942L22.6251 12.1842H22.6151ZM15.4152 10.9042C15.6052 10.4842 18.2751 7.06414 18.6451 6.57414C18.9751 6.14414 19.0551 5.8642 19.7151 5.7642C21.0651 5.5542 27.3551 5.6342 28.8151 5.8842C29.4851 5.9942 29.7751 6.05418 29.6051 6.86418C29.3251 8.19418 26.9951 12.4243 26.3751 13.0643L15.4252 10.9142L15.4152 10.9042ZM41.1151 6.48417C42.6051 7.05417 43.8652 8.3742 44.5452 9.5142L44.3951 9.58415C44.3951 9.58415 44.3451 9.60418 44.3151 9.61418C43.6551 9.84418 42.1751 10.0042 41.2251 10.2742L41.1251 6.48417H41.1151ZM36.0552 6.12419C37.5252 6.03419 39.0152 6.09416 40.4352 6.34416L40.6552 10.4342C39.8952 10.6142 38.9851 10.7342 38.2251 10.9142C37.5851 11.0642 36.7851 11.3342 36.2151 11.3542L36.0651 6.12419H36.0552ZM29.7251 12.6142C29.5051 12.2742 29.4151 12.3342 29.4451 11.7142C29.4751 11.0342 30.1051 9.94418 30.5051 9.36418C30.9751 8.68418 32.0352 7.18414 32.5452 6.82414C33.0252 6.48414 33.6451 6.38423 34.3251 6.29423C36.1151 6.05423 34.6451 6.00417 35.4551 11.4842C34.3951 11.7142 30.5151 12.6342 29.7251 12.6042V12.6142ZM4.55518 14.6842C5.54518 14.2842 5.87508 16.4742 4.95508 16.8442C3.91508 17.2642 3.63514 15.3342 4.26514 14.8342C4.48514 14.6542 4.20518 14.8242 4.55518 14.6842ZM6.77515 15.7742C7.34515 15.7942 13.0151 17.1142 13.3551 17.2942L13.1051 20.5643C12.4951 20.4743 7.96517 18.2543 6.79517 17.8143V15.7742H6.77515ZM33.1852 14.7942L33.3651 16.5643L34.9152 16.0942L34.7952 14.4342L33.1951 14.7942H33.1852ZM35.3451 16.0042L35.4751 17.5242L36.8951 17.0942V15.6142L35.3351 16.0042H35.3451ZM36.9252 14.0741L36.9851 15.3742L38.2051 15.1142L38.1852 13.7742L36.9252 14.0741ZM38.6251 15.0342L38.6552 16.1642L39.6652 15.8241L39.6351 14.8241L38.6351 15.0342H38.6251ZM39.8951 13.6142L39.9651 14.6142L40.8451 14.4443L40.8251 13.4742L39.8951 13.6142ZM22.5352 4.34416C24.3752 3.95416 31.0051 3.81421 33.2551 4.02421C34.2151 4.11421 35.7051 4.48422 36.6151 4.40422C36.9151 3.12422 35.4451 1.39421 34.7751 0.894209C33.8751 0.224209 31.0452 0.694189 29.9252 0.874189C28.3552 1.12419 26.7752 1.28422 25.2952 1.65422C23.4652 2.10422 22.4852 2.06415 22.5452 4.33415L22.5352 4.34416ZM29.4551 1.41423H30.3151V2.55424H29.4551V1.41423ZM28.5751 2.61418H29.2852V3.6342H28.5751V2.61418ZM26.9551 2.74418H27.5651V3.6342H26.9551V2.74418ZM27.7351 1.74418H28.4052V2.57414H27.7351V1.74418ZM26.2651 2.0142H26.7952V2.56425H26.2651V2.0142ZM33.7751 3.40422C33.7751 3.16422 34.1052 0.694199 35.0352 1.6342C35.5252 2.1342 35.8951 3.24424 36.1451 3.92424C35.7051 3.92424 34.1551 3.53422 33.7751 3.40422ZM16.5251 17.1943C17.3051 16.9543 17.9051 17.9942 17.9651 18.8042C18.0251 19.6142 17.7352 20.6742 16.9352 20.9142C15.4152 21.3842 14.5751 17.7943 16.5251 17.1943ZM27.5151 25.2041L45.4451 16.9242C44.8051 17.0142 44.2852 16.6742 43.7952 16.4142C43.2252 16.1142 43.2452 16.0243 42.5452 16.3143C38.1752 17.9643 33.8251 19.5042 29.4451 21.1442L29.1351 21.2642C29.2551 22.8442 28.7951 24.2242 27.5051 25.2142L27.5151 25.2041ZM14.6951 31.1242L25.8751 25.9642L25.4252 26.0542C23.8752 25.9642 21.3651 24.4442 21.0251 24.1042C19.7751 24.1942 18.4551 25.5742 15.8651 24.7142C12.5451 23.6142 9.76516 22.2843 6.78516 20.8143C3.57516 19.2243 3.70517 19.7043 3.42517 17.6943C3.16517 15.7843 2.54516 13.3642 4.28516 12.6642C6.40516 11.8142 10.0851 11.2942 12.4951 11.0842C15.5351 10.8242 14.5451 11.1142 16.3251 8.43425C17.0151 7.39425 18.0952 5.38422 19.4052 5.03422C20.2652 4.80422 21.3251 4.72424 22.2651 4.67424C25.4951 4.50424 40.1452 3.91422 42.7952 6.53422C43.6152 7.34422 43.7452 7.88418 44.1552 8.36418C44.5252 8.80418 46.1351 8.75418 46.8151 8.98417C48.7851 9.63417 49.7252 8.95417 48.9352 12.7342C48.8652 13.0842 48.7651 13.7442 48.5751 13.9742C48.4451 14.1342 48.6151 14.0042 48.3351 14.1442C46.5551 15.0642 48.1152 13.7742 47.0352 15.8342C46.8052 16.1042 46.5751 16.3242 46.3651 16.4842L49.5951 14.9942L49.9851 15.7742L17.2651 32.2742L14.6752 31.1142L14.6951 31.1242ZM3.6051 20.8842L20.1151 27.9242L17.6451 28.9742L2.51514 21.2242L3.6051 20.8842ZM1.7251 21.5842L17.0951 29.3042L14.0951 30.7742L0.0151367 22.1542L1.73511 21.5842H1.7251ZM21.1051 11.4342C20.8551 11.1042 20.6151 10.7942 20.3751 10.4642L19.6351 9.50419C19.5451 9.38419 18.1751 7.75417 18.0751 7.60417L18.3651 7.16423C18.5051 7.28423 19.5552 8.6342 19.6852 8.7642L20.4052 9.70415C20.5952 10.0141 21.9751 11.7242 22.1951 12.1442L21.5552 12.0142C21.4752 11.9242 21.3551 11.7442 21.1051 11.4242V11.4342Z" fill="white"/>
</g>
</mask>
<g mask="url(#mask0_202_229)">
<g id="Group">
<path id="Vector_2" d="M49.9951 0.224121H-0.00488281V32.2742H49.9951V0.224121Z" fill="url(#paint0_linear_202_229)"/>
</g>
</g>
</g>
<defs>
<linearGradient id="paint0_linear_202_229" x1="7.95512" y1="29.4342" x2="45.5152" y2="0.354176" gradientUnits="userSpaceOnUse">
<stop stop-color="#312E6A"/>
<stop offset="1" stop-color="#57BDDD"/>
</linearGradient>
</defs>
</svg>
