<svg width="44" height="51" viewBox="0 0 44 51" fill="none" xmlns="http://www.w3.org/2000/svg">
<g id="Clip path group">
<mask id="mask0_202_237" style="mask-type:luminance" maskUnits="userSpaceOnUse" x="0" y="0" width="44" height="51">
<g id="clippath-165">
<path id="Vector" d="M4.39014 21.6199C4.67014 21.7099 5.84021 22.0999 5.59021 21.4399C5.37021 20.8799 3.78013 20.3199 3.01013 21.1199L4.39014 21.6099V21.6199ZM2.84021 21.3398C2.69021 21.6798 2.54021 21.7699 2.46021 22.2599C2.32021 23.1199 2.2501 24.9498 2.2301 25.8298L4.92017 21.9698L2.8302 21.3298L2.84021 21.3398ZM33.7002 36.2698C34.5302 36.3898 34.4302 36.2699 34.4202 35.5999V28.2599C34.3902 27.3199 34.5401 26.04 34.2701 26.2C34.1601 26.15 33.8002 26.1099 33.6702 26.1199L33.7002 36.2798V36.2698ZM32.7902 25.95V36.3198H33.5302L33.5101 26.0798L32.7902 25.95ZM36.0902 43.0498C36.2002 42.9398 36.1702 42.8798 36.0902 42.8298C36.0502 42.8198 36.0002 42.9399 35.9202 42.8899C35.8602 42.7699 35.8302 42.5599 35.7102 42.6199C35.6002 42.9299 35.7502 43.1498 36.0802 43.0498H36.0902ZM37.5702 43.0798C37.5702 43.0798 37.5301 43.0398 37.5201 43.0598L36.4202 43.0398V43.3899L37.3102 43.22C37.5002 43.16 37.3102 43.2299 37.4202 43.1799C37.5202 43.1399 37.5202 43.1198 37.5702 43.0898V43.0798ZM25.3601 22.3298C25.3501 22.0598 25.1601 21.8399 24.9901 21.6699C24.7601 21.4499 23.2302 20.7399 22.9302 21.7999C23.6402 22.1099 23.2901 21.9798 24.1501 22.0798C24.4701 22.1198 25.0601 22.2598 25.3601 22.3298ZM25.5402 23.5699C25.6002 22.5199 25.1802 22.4799 24.8202 22.4399C24.4502 22.3999 23.7901 22.1599 23.5001 22.1899L23.9402 23.4799L25.5302 23.5599L25.5402 23.5699ZM42.3501 26.1099C41.8401 25.8599 38.9702 25.3399 38.1702 25.1799L29.8402 23.4299C29.1502 23.2699 28.4501 23.1399 27.7601 22.9899C27.1201 22.8599 26.3102 22.6399 25.6702 22.5599L25.8202 23.5599L42.3501 26.8599V26.0999V26.1099ZM30.1201 22.3699L24.3601 21.1299L24.8102 21.3298C25.1002 21.4798 25.4802 21.9799 25.5602 22.3599L42.1401 25.8199C42.1001 25.3499 42.3302 25.1898 41.1602 24.8398L36.3901 23.7799C35.7301 23.6299 30.2501 22.4699 30.1201 22.3599V22.3699ZM24.8801 6.52991C24.7101 6.18991 23.0401 6.03989 22.7501 6.00989C22.9401 6.17989 24.7601 6.93986 24.8901 6.97986V6.52991H24.8801ZM24.1802 6.99988C23.8702 6.79988 23.0602 6.49984 22.6702 6.33984C21.8302 5.98984 21.9701 5.92995 20.9001 5.94995C20.0001 5.95995 17.9601 6.26988 17.2601 6.62988C18.1601 7.14988 18.8302 7.0199 19.9602 7.0199H24.1702L24.1802 6.99988ZM27.4102 8.09985C27.3702 7.50985 27.1601 7.08984 26.7601 6.95984C26.9101 7.27984 26.9802 7.47994 27.0302 7.93994L27.4102 8.09985ZM26.6602 7.74988C26.5502 7.04988 26.1102 6.67991 25.4402 6.52991C25.3902 6.94991 25.4702 7.2199 25.7902 7.3999C25.9102 7.4699 26.5202 7.72989 26.6702 7.75989L26.6602 7.74988ZM22.9001 8.93994C23.1101 8.81994 24.3202 7.64995 24.4202 7.44995H19.4102C19.6502 7.68995 22.3401 8.59994 22.9001 8.93994ZM22.7601 9.08984C21.9201 8.75984 21.1101 8.42985 20.2501 8.09985C19.1001 7.66985 18.9201 7.40984 17.4801 7.45984C17.5701 7.87984 17.8502 8.17991 18.0902 8.52991L20.1902 11.6099L22.7701 9.08984H22.7601ZM23.7102 9.24988C23.8602 9.30988 24.0001 9.34993 24.1301 9.42993C24.2701 9.20993 24.6902 7.92987 24.7102 7.61987L23.2802 9.02991C23.2802 9.02991 23.3202 9.06987 23.4102 9.11987L23.7202 9.24988H23.7102ZM24.7802 8.43994C24.5402 8.81994 24.4602 9.50989 24.4602 9.50989C24.4602 9.50989 24.4602 9.53983 24.4602 9.57983L24.7102 9.65991L24.7701 8.43994H24.7802ZM19.9702 11.9199C19.8802 11.5699 19.2201 10.6999 18.9901 10.3599L18.0902 9.02991C18.0902 9.02991 18.0602 8.99987 18.0502 8.98987C18.0402 8.97987 18.0201 8.95995 18.0101 8.94995C18.0101 8.93995 17.9702 8.92991 17.9702 8.90991C17.9702 8.87991 17.9402 8.87987 17.9302 8.86987C18.1202 9.65987 18.5801 10.8799 18.8501 11.7399C18.9101 11.9099 18.9501 12.0599 19.0001 12.2299C19.0201 12.2999 19.0502 12.3799 19.0702 12.4399C19.1202 12.5599 19.0201 12.3499 19.1201 12.5399L19.1802 12.6399C19.4602 12.3999 19.6702 12.1199 19.9702 11.9199ZM23.0602 9.23987C22.6602 9.58987 20.5801 11.5599 20.3701 11.8999C20.5401 12.2099 22.2702 14.7699 22.4302 14.8899L24.0702 9.59985L23.0602 9.22986V9.23987ZM24.4502 15.2098C24.4502 14.2498 24.5402 13.2199 24.5902 12.2599C24.6202 11.7799 24.6402 11.3099 24.6602 10.8199C24.7202 9.68995 24.8402 9.86986 24.3402 9.72986L22.6201 15.2098H24.4402H24.4502ZM22.4202 15.5999C22.4202 15.5999 22.4001 15.5599 22.3901 15.5399C22.3901 15.5299 22.3701 15.4999 22.3601 15.4799L22.3002 15.3199C22.0902 14.8099 20.4302 12.6298 20.2002 12.0898C19.9102 12.2698 19.7702 12.4699 19.5402 12.6899C19.1702 13.0299 19.3202 12.8499 19.3302 13.4999H18.1001C18.2301 14.1799 18.7601 15.4499 19.0201 16.1599C19.2001 16.6799 19.7302 18.3099 19.9702 18.7699C22.3102 18.7899 21.7402 19.16 22.5502 17.2C22.7102 16.82 23.1602 15.8899 23.2102 15.5699H22.4202V15.5999ZM18.9602 12.9999C18.3602 11.2399 17.8402 9.2899 17.1902 7.6499C17.1202 7.7499 17.1601 7.64995 17.1201 7.81995L16.9402 12.9899H18.9602V12.9999ZM32.5302 25.3199V34.2798L28.1101 34.3499V24.4999L32.5302 25.3099V25.3199ZM32.4202 32.9999C32.4202 31.8299 32.5401 32.0098 31.9901 31.3398L30.6301 29.6799C30.5301 29.5799 30.5402 29.5999 30.4602 29.5299C30.5402 29.9999 30.8702 31.6999 31.0502 31.9799L32.4202 33.6399V32.9899V32.9999ZM31.9602 34.0498C31.8902 33.8198 31.4601 33.3399 31.2601 33.1499C31.2801 33.3299 31.3101 33.4399 31.3501 33.6299L31.5001 34.0298L31.9602 34.0498ZM28.3202 43.96C27.8402 44.36 28.5101 45.2398 28.7401 44.2798C28.2401 44.6798 28.4402 44.25 28.3202 43.96ZM25.6201 44.48C25.8701 45.34 25.2202 44.69 25.3002 44.51C25.2702 44.57 25.2001 44.5798 25.2601 44.8398C25.5501 45.6398 26.1401 44.75 25.6201 44.48ZM27.9102 44.26C27.9102 44.13 27.7701 44.1098 27.7301 44.3398C27.6201 44.9598 28.5002 45.55 28.7002 44.72C28.3102 44.99 28.1002 44.68 27.9202 44.26H27.9102ZM27.8701 45.0898C27.6401 44.9998 27.1801 45.0898 26.8801 45.0698C26.3601 45.0198 26.5202 44.8199 26.2002 44.6799L26.2202 45.5398C26.5402 45.4898 26.8201 45.4098 27.1201 45.3298L27.7501 45.1699C27.8801 45.1199 27.8201 45.1398 27.8801 45.0898H27.8701ZM25.7002 45.1899C25.4902 45.6299 25.0901 45.43 24.9801 44.97C24.9101 44.67 24.9402 44.5899 24.7802 44.5999C24.4602 44.6199 24.6801 45.26 24.7501 45.48C25.2101 46.84 26.0502 45.1199 25.6902 45.1899H25.7002ZM36.3202 32.0798C36.1702 28.9598 36.6901 30.7299 34.9801 28.4199L34.6101 28.0299V29.8298C34.6201 30.2098 35.0801 30.6199 35.4001 31.0199C35.6201 31.2899 36.0102 31.9298 36.3202 32.0798ZM33.7601 26.2999C33.7801 26.8699 33.7402 26.9699 34.1702 27.4299C34.2802 27.5499 34.1902 27.4699 34.3202 27.5599L34.3002 26.3799L33.7601 26.2899V26.2999ZM34.3102 34.1299C34.3102 33.5599 34.4202 29.9099 34.1902 29.5599C33.6802 28.7999 34.0002 28.8998 33.7802 28.4598V33.1399C33.7802 33.5599 33.9602 33.9099 34.3202 34.1299H34.3102ZM32.8601 31.7699C32.8601 32.2799 32.7902 32.5298 33.4102 33.0898C33.4502 30.9098 33.2802 28.2399 33.4102 26.2299L32.8501 26.1499V31.7599L32.8601 31.7699ZM19.4602 44.6399C21.3102 45.1199 21.2602 44.85 23.0602 44.7C23.3102 44.49 27.5502 44.04 28.1802 43.71C28.3702 40.13 28.1102 40.3499 30.0302 40.1599C30.5402 40.1099 31.1101 40.0298 31.6101 40.0398C31.8801 40.7298 31.8302 42.2298 31.7902 43.0898L33.9102 42.7L38.2002 41.8098L38.4001 41.6399L38.5001 39.22C38.8601 39.1 40.0902 38.99 40.5602 38.99C40.7202 39.74 40.6602 40.65 40.6602 41.47L41.3501 41.3599L41.2601 41.24L41.2401 37.8799L38.0502 38.1099C37.9902 39.0799 38.0602 40.3999 38.0502 41.4099C38.0502 41.7499 38.1102 41.6798 37.9302 41.8198L36.5602 42.0498C36.3702 41.8498 36.4502 41.8699 36.4602 41.1899V38.23L34.4602 38.3699L34.3901 42.3499L32.6602 42.6399V38.51L27.9302 38.8398L27.9001 43.45C27.5601 43.54 26.5201 43.7199 26.2401 43.6699V38.96C23.6501 39.2 24.4702 39.1299 21.9602 39.8899C21.2902 40.0899 20.6801 40.29 19.9901 40.51C19.4701 40.68 18.1201 40.9599 17.6501 40.6499L17.6201 40.75C17.6201 40.99 17.6202 40.7999 17.7202 41.1599C17.7702 41.3399 17.8002 41.57 17.8402 41.76C18.4402 44.48 19.2202 44.2499 19.4202 44.6299L19.4602 44.6399ZM22.2601 47.0698C22.2601 47.0698 22.2302 47.0799 22.2202 47.1099C22.2102 47.1299 22.1802 47.1399 22.1702 47.1399C22.0302 47.1799 22.0802 47.1699 21.9102 47.1899L15.4001 48.7798L8.69019 50.4099L8.7301 50.3398L12.6201 49.0398C12.7101 49.0098 12.7901 49 12.8901 48.95L13.0902 48.8398C13.0902 48.8398 13.1201 48.8198 13.1401 48.8098C12.7201 48.7198 12.2502 48.5299 11.8002 48.4099C9.23017 47.7399 6.50021 47.6399 3.84021 47.7L0.640137 47.8098L6.1001 46.5298C8.0301 46.2698 9.98017 45.98 11.9202 45.74C11.7602 45.37 11.4101 44.5798 11.3601 44.5298C11.2601 44.5298 5.48013 44.55 5.26013 44.22C5.14013 43.97 5.49013 22.7199 5.51013 21.9299C4.90013 21.9699 4.99011 22.3199 4.24011 23.4199C4.02011 23.7499 2.18018 26.2999 2.18018 26.3499C2.17018 26.6799 2.1602 27.1899 2.2002 27.5099C2.4102 27.5999 2.41013 27.5099 2.63013 27.6499L2.54016 30.3099C2.52016 30.4199 2.54012 30.3799 2.50012 30.4799C2.37012 30.8199 1.67021 30.6999 1.47021 30.6299L1.57019 27.9999C1.60019 27.5699 1.65011 27.6399 1.99011 27.4999C2.14011 25.9399 1.9402 23.3499 2.3302 21.9299C2.5102 21.2899 3.12017 20.5198 3.80017 20.4698C4.03017 20.4498 4.76011 20.6099 4.99011 20.6799C5.51011 20.8399 5.52017 21.0099 5.80017 21.3499C6.22017 21.0299 6.2501 20.8899 6.8501 20.6299C7.2801 20.4399 7.89015 20.4499 8.40015 20.3999C9.19015 20.3199 11.0201 20.2498 11.6301 20.0798C12.7601 19.6698 12.8301 19.7699 14.1501 19.7999C15.0601 19.8199 15.9701 19.8699 16.8801 19.8699C17.4101 19.1699 17.4202 19.1799 18.9302 19.3099C18.9502 18.1499 18.6301 17.5899 18.3501 16.5199C18.1001 15.5599 17.8902 14.3699 17.5802 13.4799H16.4602C16.4602 13.0899 16.4502 13.1599 16.5402 12.9899C16.5402 12.9799 16.5602 12.96 16.5702 12.95C16.5702 12.94 16.5901 12.9199 16.6001 12.9099C16.7201 12.6799 16.6702 12.4299 16.6802 12.1599L16.8202 7.45984L16.3302 7.43994L16.3601 6.81995C14.4901 7.04995 15.4102 8.88988 15.4702 9.49988L15.2002 9.58984L15.0302 9.24988C14.9102 8.87988 14.8202 8.31993 14.8402 7.92993C14.8802 7.21993 15.1902 6.95991 15.5502 6.65991C14.1402 6.84991 14.3901 8.17991 14.7401 9.27991L14.4202 9.43994C13.9702 8.51994 13.6602 6.53994 15.5302 6.30994C15.3602 6.15994 12.5601 5.03991 12.2701 4.90991L2.72021 0.699951C3.27021 0.809951 6.94021 2.42994 7.96021 2.80994C10.0802 3.60994 13.2202 4.94986 15.4202 5.85986C16.5102 6.30986 15.9902 6.07995 17.7202 5.69995C18.6902 5.47995 19.4102 5.48988 20.4202 5.37988C19.1202 4.69988 16.6602 3.71994 15.1702 2.93994C13.9002 2.27994 12.5002 1.70995 11.2102 1.06995L9.8501 0.409912C10.1601 0.439912 11.7201 1.14995 12.1101 1.31995C12.8301 1.62995 13.6301 1.97995 14.3501 2.31995C16.5001 3.31995 18.8702 4.27991 21.0302 5.27991C21.4402 5.46991 21.8601 5.42988 22.3901 5.49988C23.2601 5.60988 25.7502 6.14987 26.4202 6.36987C26.8302 6.50987 27.2101 6.75986 27.3901 6.97986C27.8101 7.50986 27.6002 7.67986 27.7802 8.22986C28.2102 8.54986 29.9302 9.19987 30.5602 9.48987L39.0302 13.2899C38.5802 13.1699 38.0501 12.8998 37.6201 12.7198L29.1602 9.08984C28.7502 8.90984 28.1202 8.59987 27.6902 8.48987L27.3601 9.3999L27.0902 9.28992L27.3901 8.30994L27.0001 8.16992C26.9101 8.52992 26.8401 8.95986 26.6401 9.22986L26.3701 9.1499L26.6802 8.00989C26.2702 7.86989 25.4701 7.36988 25.1201 7.49988L24.9801 9.73987L33.1501 13.1099C33.2601 13.1799 33.2302 13.1598 33.3002 13.2198L24.9602 9.95984L24.6902 15.5898H23.6902L22.5902 19.5898C22.9802 19.7498 24.0201 19.8999 24.2601 20.1099C24.4901 20.3199 24.0001 20.2298 25.0001 20.4598L29.3501 21.5099C29.6501 21.5699 29.9202 21.6398 30.2202 21.7198C30.8502 21.8798 30.4502 21.6699 30.9102 21.5499C31.6302 21.3699 33.8301 21.2899 34.6101 21.8499C34.8001 21.9899 34.8502 22.3398 34.9502 22.5898C35.1102 22.9998 35.1302 22.9199 35.5902 23.0199C36.6802 23.2599 39.7702 23.9699 40.7102 24.3799C41.1802 24.5899 41.8302 24.8999 42.2802 25.0299C42.2802 25.2099 42.2802 25.3799 42.3002 25.5199C42.4002 26.2899 42.5502 25.2799 42.5402 26.9999C42.4002 27.0999 42.5802 27.0499 42.3202 27.0699C42.3902 29.4599 42.2502 31.8998 42.3402 34.2698C42.3702 35.0298 42.4002 40.9798 42.3002 41.3098C42.3002 41.3298 42.2802 41.3499 42.2802 41.3699C42.2802 41.3899 42.2601 41.4099 42.2501 41.4299C42.0401 41.4599 41.8602 41.4998 41.6702 41.5298C41.5602 41.5498 41.4501 41.5598 41.3701 41.5798C40.3401 41.9598 43.2301 41.8399 43.3601 41.8499C41.3501 42.4199 38.5501 43.1499 36.6001 43.6499C36.1301 43.7699 35.6401 43.9 35.1401 43.98C34.6901 44.19 22.4701 47.0798 22.2601 47.0598V47.0698ZM21.5702 44.8098C20.4802 44.8098 19.6402 44.6999 19.0502 44.1199C18.8602 43.9299 18.5101 43.4198 18.7701 43.0298C19.0301 42.6298 19.1602 43.2999 19.7902 42.6599C20.3802 44.3599 20.9702 44.3698 21.5702 44.8098ZM34.6301 32.0599C34.8601 32.2499 36.1202 33.8298 36.1802 34.0298C36.6502 33.7598 36.1001 34.3099 36.2601 33.9099C36.3601 33.6499 36.3602 33.2599 36.2102 33.0199L34.6201 31.1299L34.6401 32.0599H34.6301ZM36.3601 33.99C36.3401 34.11 36.3101 34.2198 36.2501 34.2898L36.3601 33.99ZM36.2501 34.2898L34.5902 34.3398V32.0499L34.5702 25.6299L36.3202 25.9598C36.4102 26.2798 36.3501 31.9999 36.3501 33.2699C36.3501 33.4399 36.3801 33.7099 36.3601 33.9399L36.2501 34.2798V34.2898ZM16.9602 38.2698C16.8602 38.2998 15.0502 38.41 14.9202 38.23C14.8302 37.94 14.8302 37.2699 14.9202 36.9399C15.3002 36.8499 16.6201 36.85 17.0001 36.95C17.0001 37.36 17.0802 37.94 16.9502 38.26L16.9602 38.2698ZM9.9502 36.7798C10.0902 37.0298 10.0302 37.4099 10.0302 37.6799C10.0302 38.2199 10.1302 38.1599 9.46021 38.1599H7.97021C7.87021 37.5899 7.88017 37.3998 7.92017 36.8098L9.9502 36.7798ZM7.7301 37.96H6.91016V36.96H7.74011V37.96H7.7301ZM26.0302 34.0798V34.3098L25.2701 34.2998C23.9301 34.3398 23.8102 34.6099 22.4102 35.1499C21.5702 35.4799 20.5201 36.02 19.6501 36.26C19.7401 32.61 19.7902 29.7699 20.5402 26.2299C20.7602 25.1899 21.0602 24.3098 21.3302 23.3398L23.4402 23.45C23.3802 23.13 23.4202 22.4499 23.1802 22.2599C23.0502 22.1499 22.9902 22.0099 22.8402 21.9799C22.6902 22.3299 22.7602 22.6899 22.5502 22.9099C22.3702 22.6299 22.7101 21.6299 22.8801 21.3799C23.2901 20.7699 23.6602 21.1399 24.3402 21.1199C24.3102 21.0999 24.3902 21.1199 24.2002 21.0499L23.6902 20.9099C20.9502 20.2799 21.3701 20.2699 18.2301 20.1699C17.1101 20.1299 15.9502 20.1099 14.8302 20.0699C14.2602 20.0499 13.6901 20.0499 13.1201 20.0299C12.0801 19.9999 12.2202 20.2698 11.5402 20.3298C10.7302 20.3698 9.68017 20.5399 8.80017 20.6099C7.71017 20.6999 7.06017 20.6498 6.30017 21.2098C5.48017 21.8098 6.05012 22.0099 5.87012 22.7699C5.84012 22.8899 5.81017 22.9099 5.80017 22.9399L5.75012 23.0399C5.66012 23.2899 5.53016 34.5098 5.54016 35.8098C5.54016 36.6298 5.82016 37.64 5.91016 38.47C8.51016 38.47 11.1501 38.5799 13.7601 38.6299C14.6301 38.6499 18.9202 38.8699 19.5402 38.6299C19.9302 38.4799 20.6301 38.1499 21.0001 38.1499C21.2001 37.9199 22.9601 37.3299 23.4001 37.1699C25.6101 36.3499 24.9501 36.9499 26.2501 36.6399V35.3198C26.3901 35.4598 26.4202 35.36 26.4102 35.95C26.4102 36.17 26.4102 36.3598 26.4202 36.5798L27.7601 36.5498L27.7401 25.1399L26.4001 24.8599C26.4501 26.1099 26.5201 34.7898 26.3501 35.3398C26.2001 35.0698 26.2501 34.9999 26.2601 34.6599V29.9099C26.2501 29.0599 26.2001 25.0299 26.2701 24.5299L27.9102 24.8999V36.6299L28.4202 36.5798H28.6802L32.6702 36.3699V25.6599L34.4302 26.0199C34.5402 26.6099 34.4301 30.1199 34.4801 31.1299C34.5301 32.7499 34.5301 34.6698 34.4801 36.2898L36.4102 36.1699L36.5001 25.9899L41.0302 26.8298C41.2702 26.9198 41.1702 26.9199 41.1702 27.6799V34.2798L40.5402 34.3098H40.2102H39.8102H38.1001V36.1099L41.2601 35.97V27.1599L41.9801 27.2499L41.9602 27.4598L42.0201 27.2499L42.0702 26.8799L26.0101 23.8799V34.0798H26.0302ZM9.03015 34.8899H8.63013L8.25012 34.8999H7.74011H7.47021C7.20021 34.8499 7.20017 34.87 7.05017 34.73C6.72017 34.6 6.51017 34.1998 6.42017 33.8398C6.30017 33.3698 6.39017 32.7799 6.42017 32.2799C6.46017 31.2299 6.42016 30.2399 6.41016 29.1899C6.37016 27.1999 6.19019 25.1499 6.32019 23.1499C6.32019 22.5199 6.47015 22.0199 6.78015 21.6499C7.22015 21.1199 7.42015 21.1298 8.28015 21.0798C9.93015 20.9898 19.3102 20.7199 20.1802 21.3999C21.0802 22.0999 20.4302 23.4299 20.2002 24.5599C19.7102 26.9699 19.3001 29.3599 19.1401 31.8599C19.0601 33.0499 19.2802 34.43 18.0802 34.96C15.4702 35.04 12.9801 34.9099 10.3801 34.9199H9.93018L9.43018 34.9099H9.05017L9.03015 34.8899ZM18.1101 38.1399L17.2202 38.1599L17.1902 37.1299L18.0902 37.0898L18.1101 38.1299V38.1399ZM26.6001 35.5698V35.1399V34.9399V25.0898L27.6602 25.3099V36.2898L26.6501 36.3398L26.6201 35.76V35.5698H26.6001ZM12.3402 34.4199L18.1001 26.8398C18.4201 26.4198 19.1702 25.7999 19.3002 25.5999C20.0702 23.0199 19.7801 22.0999 19.1001 21.9299C15.9501 25.7899 11.9601 30.3199 9.26013 34.4099H12.3402V34.4199ZM15.2202 33.2499C15.7302 32.5999 16.2002 31.9699 16.6902 31.3199L18.1702 29.4099C18.3602 29.1599 18.5701 28.8799 18.7601 28.5999L19.1201 26.7299C18.8401 26.9599 18.3202 27.6699 18.0702 27.9399L16.6301 29.8099C16.2501 30.4299 13.6901 33.5799 13.2501 34.4199H14.3302C14.5002 34.2399 14.7202 33.8899 15.2202 33.2499ZM36.0702 43.1699C35.6302 43.6299 35.6001 42.4799 35.3801 42.6899L35.3302 42.8098C35.1502 43.9698 36.3102 43.7699 36.0702 43.1799V43.1699Z" fill="white"/>
</g>
</mask>
<g mask="url(#mask0_202_237)">
<g id="Group">
<path id="Vector_2" d="M43.3999 0.429932H0.669922V50.4299H43.3999V0.429932Z" fill="url(#paint0_linear_202_237)"/>
</g>
</g>
</g>
<defs>
<linearGradient id="paint0_linear_202_237" x1="2.32992" y1="33.6999" x2="45.9699" y2="15.3899" gradientUnits="userSpaceOnUse">
<stop stop-color="#312E6A"/>
<stop offset="1" stop-color="#57BDDD"/>
</linearGradient>
</defs>
</svg>
