<svg width="50" height="29" viewBox="0 0 50 29" fill="none" xmlns="http://www.w3.org/2000/svg">
<g id="Clip path group">
<mask id="mask0_202_245" style="mask-type:luminance" maskUnits="userSpaceOnUse" x="0" y="0" width="50" height="29">
<g id="clippath-160">
<path id="Vector" d="M0.116803 0.679932C0.0168025 1.01993 -0.063217 27.3399 0.096783 28.1399L49.9068 28.1199C50.0768 27.3499 49.9469 24.3101 49.9469 23.3101C49.9469 21.6901 49.9469 20.07 49.9469 18.45C49.9469 17.79 50.1268 16.5799 49.7568 16.1699C49.3768 15.7499 48.9569 15.39 48.5469 14.99L44.8968 11.3899C44.4668 10.9699 44.0969 10.61 43.6869 10.21C42.8569 9.39996 42.0568 8.63005 41.2268 7.80005C39.6968 6.27005 37.7968 4.50001 36.3868 3.01001L33.8868 0.679932H4.82676H0.096783H0.116803ZM0.696881 1.32007H33.4068L33.3768 4.17993H31.8668L33.2568 5.41992C33.5168 5.62992 33.8469 5.9699 34.0669 6.1499C34.0669 6.1499 34.0768 6.14991 34.0868 6.15991L37.7868 9.44995C37.7868 9.44995 37.8268 9.48 37.8468 9.5C37.8468 9.5 37.8568 9.50001 37.8668 9.51001L38.7969 10.3301C39.0469 10.5501 39.0668 10.61 39.2868 10.77C39.3668 10.83 39.4568 10.92 39.5268 10.98L41.7768 12.96C42.9168 13.98 44.1668 15.03 45.2668 16.04C45.3168 16.08 45.3368 16.0999 45.3868 16.1399L46.2568 16.9099C46.3468 16.9899 46.7068 17.2699 46.7568 17.3699C46.6568 17.3299 46.5668 17.2399 46.4868 17.1699C46.4168 17.1099 46.2868 17.02 46.2168 16.96C46.0368 16.81 45.8869 16.68 45.6969 16.53C45.5169 16.38 45.3569 16.2599 45.1769 16.1099L44.6368 15.6799C43.8968 15.0999 43.2668 14.56 42.5368 13.98C42.1968 13.71 41.8268 13.4199 41.4968 13.1399C40.8068 12.5599 40.0668 11.9999 39.4068 11.4399C38.7468 10.8799 37.5168 9.91007 36.7868 9.32007L30.7768 4.43994C30.6768 4.33994 30.6169 4.2499 30.5669 4.1499H28.0368L28.3368 4.36987L28.5368 4.51001L28.6769 4.61987C28.6969 4.62987 28.7068 4.63991 28.7268 4.65991L29.0569 4.8999C29.0569 4.8999 29.0868 4.90994 29.1168 4.93994L29.2668 5.05005C29.4168 5.13005 29.8968 5.50009 30.0168 5.59009C30.0368 5.61009 30.0568 5.61989 30.0868 5.63989L30.5669 5.98999C30.6469 6.04999 30.7269 6.10992 30.8069 6.16992L33.1168 7.88989C33.3768 8.08989 33.6168 8.25997 33.8968 8.46997C34.3868 8.82997 34.9369 9.23987 35.4369 9.61987C35.9569 10.0099 36.4568 10.38 36.9768 10.77C37.2368 10.96 37.4768 11.1401 37.7368 11.3401L38.1268 11.6299C39.0268 12.2999 39.9068 12.9799 40.8368 13.6499C41.9668 14.4599 43.4969 15.92 40.6869 13.96L32.3368 8.27002C32.0668 8.09002 31.8269 7.93 31.5669 7.75C31.3269 7.58 31.0869 7.41999 30.8169 7.23999L30.2768 6.86987L29.4968 6.34009C29.4968 6.34009 29.4868 6.34008 29.4868 6.33008L29.3069 6.20996C29.0669 6.07996 28.7769 5.84994 28.5469 5.68994C28.4369 5.61994 28.3268 5.53997 28.2268 5.46997L26.5868 4.35986L26.3368 4.18994H23.6969L26.6268 6.1499C26.7968 6.2599 26.9268 6.34996 27.0868 6.45996L29.3568 7.97998C29.3968 8.04998 29.3768 7.97006 29.3768 8.06006C28.6968 7.72006 27.9569 7.31995 27.2969 6.94995C26.0069 6.21995 24.4669 5.43995 23.1669 4.69995C22.8669 4.52995 22.5368 4.35994 22.2268 4.18994H0.686871L0.706768 1.34009L0.696881 1.32007ZM34.6869 2.30005C35.0769 2.42005 35.3869 2.87995 35.6869 3.19995C36.0169 3.53995 36.3068 3.78988 36.6368 4.12988L48.6669 15.98C48.7769 16.09 48.8069 16.12 48.9269 16.23C48.9769 16.28 49.1468 16.4299 49.1468 16.4399C49.3668 16.7099 49.2969 16.83 49.2969 17.2C48.9469 17.07 45.9568 14.36 45.5868 14.03L34.6869 4.5V2.31006V2.30005ZM15.1468 5.81006C16.0668 5.36006 18.4968 4.70993 19.4668 4.92993V5.86987C18.8568 5.99987 18.1968 5.97988 17.5168 6.12988C16.7768 6.28988 16.4769 6.3899 15.8169 6.6499C13.7969 7.4499 12.2169 8.97004 11.1769 10.79C10.7269 11.57 10.1568 12.9799 10.1168 14.1299C9.9568 13.9099 9.95677 13.77 9.95677 13.5C9.95677 11.04 9.69687 11.07 10.9369 9.27002C12.5969 7.53002 12.9468 6.88006 15.1468 5.81006ZM44.9568 22.1799C45.2668 22.3699 47.7968 23.07 48.2268 23.02C48.2568 22.44 48.1668 22.43 47.7168 22.21C47.1568 21.93 45.3169 21.02 44.9169 20.98L44.9568 22.1699V22.1799ZM48.4068 24.76H47.5268C47.5868 24.69 47.6268 24.59 47.6268 24.47C47.6268 24.25 47.4869 24.0701 47.3169 24.0701C47.1469 24.0701 47.0068 24.25 47.0068 24.47C47.0068 24.59 47.0468 24.69 47.1068 24.76H46.7969H46.7168C46.7968 24.68 46.8468 24.5499 46.8468 24.4099C46.8468 24.1599 46.6868 23.95 46.4968 23.95C46.3068 23.95 46.1468 24.1599 46.1468 24.4099C46.1468 24.5499 46.1968 24.68 46.2768 24.76H46.1769H42.7068V24.79H41.5068C41.6368 24.65 41.7268 24.45 41.7268 24.21C41.7268 23.82 41.4869 23.51 41.1969 23.51C40.9069 23.51 40.6669 23.82 40.6669 24.21C40.6669 24.44 40.7468 24.64 40.8768 24.77H40.1168C40.2668 24.62 40.3768 24.3799 40.3768 24.1099C40.3768 23.6699 40.1068 23.3101 39.7668 23.3101C39.4268 23.3101 39.1568 23.6699 39.1568 24.1099C39.1568 24.3799 39.2568 24.61 39.4068 24.76H39.2969H39.0768H35.8368C34.3768 24.76 32.9268 24.76 31.4668 24.76C31.7568 24.57 31.9568 24.17 31.9568 23.71C31.9568 23.06 31.5569 22.53 31.0569 22.53C30.5569 22.53 30.1568 23.06 30.1568 23.71C30.1568 24.16 30.3468 24.55 30.6268 24.75V24.77H29.3069C29.6269 24.56 29.8568 24.1299 29.8568 23.6299C29.8568 22.9299 29.4268 22.3599 28.8868 22.3599C28.3468 22.3599 27.9169 22.9299 27.9169 23.6299C27.9169 24.0899 28.1068 24.5 28.3868 24.72L28.4068 24.78H23.0768H17.7768C17.6368 24.78 17.4568 24.78 17.2468 24.78C16.4468 24.78 15.6568 24.78 14.8568 24.78C12.6668 24.78 1.28685 24.6701 0.786846 24.8201C0.756846 24.8901 0.756788 24.78 0.726788 25.03C0.706788 25.19 0.726788 25.1801 0.726788 25.3301L15.5168 25.3499H21.2768C21.3968 25.3199 21.5568 25.3499 22.0168 25.3499H25.6168H34.8868C39.6468 25.3499 44.5769 25.2299 49.3169 25.3499V24.75H48.9668H48.4469L48.4068 24.76ZM41.2868 23.3499L48.5968 24.0801L49.0068 24.1199C49.0068 21.6499 49.3668 22.5401 46.3568 20.5801C43.9568 19.0201 41.1768 17.4199 38.7668 15.8799L36.2468 14.3201L35.8968 14.1099C35.6368 13.9599 35.4568 13.89 35.3368 13.76L34.6268 13.3201C34.5768 13.2901 34.4968 13.2399 34.3968 13.1799L34.3668 13.1599L32.8768 12.24C32.6068 12.1 32.1868 11.8499 31.5268 11.4099C31.4368 11.3499 31.3468 11.29 31.2468 11.22L29.8268 10.4199C27.2168 9.22992 23.7768 10.33 21.9068 12.5C21.2868 13.22 20.5068 14.06 19.8468 14.79C19.2068 15.51 18.3868 16.3799 17.7768 17.1499C16.9368 18.1999 16.8368 19.09 17.2668 20.5C17.4068 20.96 17.7568 21.69 17.7768 22.2C17.8068 22.94 17.4469 23.4801 17.4169 24.0701H17.7268H18.7068H19.4469H23.0268H27.3169C27.4769 23.4701 27.3968 22.8499 27.7768 22.3999C28.2168 21.8799 28.8169 22.0799 29.5569 22.1399L39.0268 23.1299L41.2668 23.3599L41.2868 23.3499ZM19.0868 16.6499C20.7868 16.6599 20.7068 16.3999 23.1468 16.6899C23.6368 16.7499 24.0768 16.8899 24.4868 16.9099C24.6468 16.5499 28.0968 12.14 28.0868 11.96C28.0668 11.73 27.7468 11.7899 26.9868 11.6799C26.5968 11.6199 25.9768 11.5999 25.5768 11.6099C24.9968 11.6199 23.5069 11.72 23.1669 12.03L22.4868 12.8C21.9568 13.4 19.2668 16.3399 19.0968 16.6599L19.0868 16.6499ZM34.2568 18.9399L32.3968 16.4199C32.2968 16.2899 32.2269 16.2399 32.1969 16.1699V14.98L33.6969 16.8699C34.0469 17.3799 35.0869 18.73 35.4269 19.23L34.2668 18.9399H34.2568ZM33.2868 18.3999C33.1268 18.1999 32.9868 18 32.8368 17.8L32.3768 17.21C32.3168 17.13 32.2569 17.05 32.1969 16.96V16.5C32.2869 16.57 32.3368 16.68 32.4068 16.76L32.8468 17.3401C32.9668 17.5301 33.8568 18.6199 33.9868 18.8799L33.5569 18.76C33.5069 18.7 33.4368 18.5999 33.2868 18.3999ZM38.4668 20.1699C38.5168 19.7999 38.5669 18.1099 38.4169 17.8799C38.3169 17.7299 35.3068 16.2699 33.9768 15.6899L32.8069 15.1299C32.7569 15.0899 32.6868 15.07 32.5768 15.01C32.3768 14.91 32.3168 14.8699 32.0868 14.9099C31.9968 15.6999 32.0669 16.93 32.0569 17.77C32.0569 18.52 32.0068 18.3799 33.8668 18.9199C34.6068 19.1399 35.4169 19.3499 36.1769 19.5999C36.5269 19.7199 38.1468 20.2699 38.4568 20.1699H38.4668ZM40.4968 20.8301L39.3069 19.2C39.2469 19.12 39.2069 19.08 39.1769 19.05V18.3L40.1168 19.48C40.3368 19.8 41.0368 20.73 41.2468 21.05L40.4868 20.8301H40.4968ZM39.8668 20.4299C39.7668 20.2999 39.6768 20.1801 39.5868 20.0601L39.2969 19.6899C39.2969 19.6899 39.2169 19.59 39.1869 19.53V19.24C39.2369 19.29 39.2669 19.3499 39.3169 19.4099L39.5968 19.77C39.6668 19.89 40.2568 20.63 40.3368 20.79L40.0368 20.6599C40.0368 20.6599 39.9568 20.5599 39.8668 20.4299ZM44.3968 22.02V20.6799L39.7768 18.47C39.4768 18.33 39.4068 18.19 39.0768 18.25C39.0268 18.66 38.9568 20.1699 39.1268 20.4099C39.2768 20.6299 44.0568 22.02 44.3868 22.03L44.3968 22.02ZM20.8468 18.5999C20.4468 18.2599 20.0668 18.2101 19.3368 18.3101C18.7968 18.3801 18.0568 20.26 20.3568 19.97C21.0568 19.87 21.1068 19.1099 20.8568 18.5999H20.8468ZM5.87681 4.84009L6.50682 6.91992L7.15684 4.84009H5.87681ZM7.92686 4.84009V8.88989H7.27684V5.87988L7.31688 6.07007L6.68687 8.12988H6.31688L5.68687 6.12988L5.74681 5.87988V8.88989H5.07676V4.84009H4.87681C4.88681 5.70009 4.98687 10.39 4.80687 10.73C4.13687 9.49998 3.97677 9.22998 3.08677 8.22998C2.65677 7.74998 1.30682 6.49988 0.636822 6.37988C0.636822 8.04988 0.456866 7.14991 1.80687 8.40991C2.99687 9.52991 3.77681 10.6701 4.37681 12.3201C5.29681 14.8301 4.60687 20.0899 4.93687 20.4099C5.49687 20.6299 7.27685 20.47 8.03685 20.48L8.05687 4.84009H7.90684H7.92686ZM3.96678 23.6399H0.686871L0.646832 21.24L2.34678 21.22C5.02678 21.22 11.2968 21.11 13.5868 21.25C13.5268 24.16 14.1269 23.6299 11.8169 23.6299C10.9369 23.6299 10.0569 23.6299 9.17686 23.6299C7.44686 23.6299 5.70679 23.6299 3.97679 23.6299L3.96678 23.6399Z" fill="white"/>
</g>
</mask>
<g mask="url(#mask0_202_245)">
<g id="Group">
<path id="Vector_2" d="M50.147 0.669922H-0.0629883V28.1399H50.147V0.669922Z" fill="url(#paint0_linear_202_245)"/>
</g>
</g>
</g>
<defs>
<linearGradient id="paint0_linear_202_245" x1="9.947" y1="27.8999" x2="43.337" y2="-1.94009" gradientUnits="userSpaceOnUse">
<stop stop-color="#312E6A"/>
<stop offset="1" stop-color="#57BDDD"/>
</linearGradient>
</defs>
</svg>
