<svg width="37" height="37" viewBox="0 0 37 37" fill="none" xmlns="http://www.w3.org/2000/svg">
<g id="vuesax/outline/calendar">
<g id="calendar">
<path id="Vector" d="M12.5 9.125C11.885 9.125 11.375 8.615 11.375 8V3.5C11.375 2.885 11.885 2.375 12.5 2.375C13.115 2.375 13.625 2.885 13.625 3.5V8C13.625 8.615 13.115 9.125 12.5 9.125Z" fill="white"/>
<path id="Vector_2" d="M24.5 9.125C23.885 9.125 23.375 8.615 23.375 8V3.5C23.375 2.885 23.885 2.375 24.5 2.375C25.115 2.375 25.625 2.885 25.625 3.5V8C25.625 8.615 25.115 9.125 24.5 9.125Z" fill="white"/>
<path id="Vector_3" d="M13.25 22.2502C13.055 22.2502 12.86 22.2052 12.68 22.1302C12.485 22.0552 12.335 21.9502 12.185 21.8152C11.915 21.5302 11.75 21.1552 11.75 20.7502C11.75 20.5552 11.795 20.3602 11.87 20.1802C11.945 20.0002 12.05 19.8352 12.185 19.6852C12.335 19.5502 12.485 19.4452 12.68 19.3702C13.22 19.1452 13.895 19.2652 14.315 19.6852C14.585 19.9702 14.75 20.3602 14.75 20.7502C14.75 20.8402 14.735 20.9452 14.72 21.0502C14.705 21.1402 14.675 21.2302 14.63 21.3202C14.6 21.4102 14.555 21.5002 14.495 21.5902C14.45 21.6652 14.375 21.7402 14.315 21.8152C14.03 22.0852 13.64 22.2502 13.25 22.2502Z" fill="white"/>
<path id="Vector_4" d="M18.5 22.2501C18.305 22.2501 18.11 22.2051 17.93 22.1301C17.735 22.0551 17.585 21.95 17.435 21.815C17.165 21.53 17 21.1551 17 20.7501C17 20.5551 17.045 20.36 17.12 20.18C17.195 20 17.3 19.8351 17.435 19.6851C17.585 19.5501 17.735 19.445 17.93 19.37C18.47 19.13 19.145 19.2651 19.565 19.6851C19.835 19.9701 20 20.3601 20 20.7501C20 20.8401 19.985 20.9451 19.97 21.0501C19.955 21.1401 19.925 21.2301 19.88 21.3201C19.85 21.4101 19.805 21.5001 19.745 21.5901C19.7 21.6651 19.625 21.74 19.565 21.815C19.28 22.085 18.89 22.2501 18.5 22.2501Z" fill="white"/>
<path id="Vector_5" d="M23.75 22.2501C23.555 22.2501 23.36 22.2051 23.18 22.1301C22.985 22.0551 22.835 21.95 22.685 21.815C22.625 21.74 22.565 21.6651 22.505 21.5901C22.445 21.5001 22.4 21.4101 22.37 21.3201C22.325 21.2301 22.295 21.1401 22.28 21.0501C22.265 20.9451 22.25 20.8401 22.25 20.7501C22.25 20.3601 22.415 19.9701 22.685 19.6851C22.835 19.5501 22.985 19.445 23.18 19.37C23.735 19.13 24.395 19.2651 24.815 19.6851C25.085 19.9701 25.25 20.3601 25.25 20.7501C25.25 20.8401 25.235 20.9451 25.22 21.0501C25.205 21.1401 25.175 21.2301 25.13 21.3201C25.1 21.4101 25.055 21.5001 24.995 21.5901C24.95 21.6651 24.875 21.74 24.815 21.815C24.53 22.085 24.14 22.2501 23.75 22.2501Z" fill="white"/>
<path id="Vector_6" d="M13.25 27.5C13.055 27.5 12.86 27.4551 12.68 27.3801C12.5 27.3051 12.335 27.2 12.185 27.065C11.915 26.78 11.75 26.39 11.75 26C11.75 25.805 11.795 25.61 11.87 25.43C11.945 25.235 12.05 25.07 12.185 24.935C12.74 24.38 13.76 24.38 14.315 24.935C14.585 25.22 14.75 25.61 14.75 26C14.75 26.39 14.585 26.78 14.315 27.065C14.03 27.335 13.64 27.5 13.25 27.5Z" fill="white"/>
<path id="Vector_7" d="M18.5 27.5C18.11 27.5 17.72 27.335 17.435 27.065C17.165 26.78 17 26.39 17 26C17 25.805 17.045 25.61 17.12 25.43C17.195 25.235 17.3 25.07 17.435 24.935C17.99 24.38 19.01 24.38 19.565 24.935C19.7 25.07 19.805 25.235 19.88 25.43C19.955 25.61 20 25.805 20 26C20 26.39 19.835 26.78 19.565 27.065C19.28 27.335 18.89 27.5 18.5 27.5Z" fill="white"/>
<path id="Vector_8" d="M23.75 27.5001C23.36 27.5001 22.97 27.3351 22.685 27.0651C22.55 26.9301 22.445 26.7651 22.37 26.5701C22.295 26.3901 22.25 26.1951 22.25 26.0001C22.25 25.8051 22.295 25.6101 22.37 25.4301C22.445 25.2351 22.55 25.0701 22.685 24.9351C23.03 24.5901 23.555 24.4251 24.035 24.5301C24.14 24.5451 24.23 24.5751 24.32 24.6201C24.41 24.6501 24.5 24.6951 24.59 24.7551C24.665 24.8001 24.74 24.8751 24.815 24.9351C25.085 25.2201 25.25 25.6101 25.25 26.0001C25.25 26.3901 25.085 26.7801 24.815 27.0651C24.53 27.3351 24.14 27.5001 23.75 27.5001Z" fill="white"/>
<path id="Vector_9" d="M31.25 15.26H5.75C5.135 15.26 4.625 14.75 4.625 14.135C4.625 13.52 5.135 13.01 5.75 13.01H31.25C31.865 13.01 32.375 13.52 32.375 14.135C32.375 14.75 31.865 15.26 31.25 15.26Z" fill="white"/>
<path id="Vector_10" d="M24.5 34.625H12.5C7.025 34.625 3.875 31.475 3.875 26V13.25C3.875 7.775 7.025 4.625 12.5 4.625H24.5C29.975 4.625 33.125 7.775 33.125 13.25V26C33.125 31.475 29.975 34.625 24.5 34.625ZM12.5 6.875C8.21 6.875 6.125 8.96 6.125 13.25V26C6.125 30.29 8.21 32.375 12.5 32.375H24.5C28.79 32.375 30.875 30.29 30.875 26V13.25C30.875 8.96 28.79 6.875 24.5 6.875H12.5Z" fill="white"/>
</g>
</g>
</svg>
