<svg width="37" height="37" viewBox="0 0 37 37" fill="none" xmlns="http://www.w3.org/2000/svg">
<g id="vuesax/outline/clock">
<g id="clock">
<path id="Vector" d="M18.5 34.625C9.605 34.625 2.375 27.395 2.375 18.5C2.375 9.605 9.605 2.375 18.5 2.375C27.395 2.375 34.625 9.605 34.625 18.5C34.625 27.395 27.395 34.625 18.5 34.625ZM18.5 4.625C10.85 4.625 4.625 10.85 4.625 18.5C4.625 26.15 10.85 32.375 18.5 32.375C26.15 32.375 32.375 26.15 32.375 18.5C32.375 10.85 26.15 4.625 18.5 4.625Z" fill="white"/>
<path id="Vector_2" d="M24.065 24.3949C23.87 24.3949 23.675 24.3499 23.495 24.2299L18.845 21.4549C17.69 20.7649 16.835 19.2499 16.835 17.9149V11.7649C16.835 11.1499 17.345 10.6399 17.96 10.6399C18.575 10.6399 19.085 11.1499 19.085 11.7649V17.9149C19.085 18.4549 19.535 19.2499 20 19.5199L24.65 22.2949C25.19 22.6099 25.355 23.2999 25.04 23.8399C24.815 24.1999 24.44 24.3949 24.065 24.3949Z" fill="white"/>
</g>
</g>
</svg>
