<svg width="37" height="37" viewBox="0 0 37 37" fill="none" xmlns="http://www.w3.org/2000/svg">
<g id="vuesax/outline/video-play">
<g id="video-play">
<path id="Vector" d="M23 34.625H14C5.855 34.625 2.375 31.145 2.375 23V14C2.375 5.855 5.855 2.375 14 2.375H23C31.145 2.375 34.625 5.855 34.625 14V23C34.625 31.145 31.145 34.625 23 34.625ZM14 4.625C7.085 4.625 4.625 7.085 4.625 14V23C4.625 29.915 7.085 32.375 14 32.375H23C29.915 32.375 32.375 29.915 32.375 23V14C32.375 7.085 29.915 4.625 23 4.625H14Z" fill="white"/>
<path id="Vector_2" d="M32.7203 12.29H4.28027C3.66527 12.29 3.15527 11.78 3.15527 11.165C3.15527 10.55 3.65027 10.04 4.28027 10.04H32.7203C33.3353 10.04 33.8453 10.55 33.8453 11.165C33.8453 11.78 33.3503 12.29 32.7203 12.29Z" fill="white"/>
<path id="Vector_3" d="M13.2803 12.08C12.6653 12.08 12.1553 11.57 12.1553 10.955V3.66504C12.1553 3.05004 12.6653 2.54004 13.2803 2.54004C13.8953 2.54004 14.4053 3.05004 14.4053 3.66504V10.955C14.4053 11.57 13.8953 12.08 13.2803 12.08Z" fill="white"/>
<path id="Vector_4" d="M23.7197 11.405C23.1047 11.405 22.5947 10.895 22.5947 10.28V3.66504C22.5947 3.05004 23.1047 2.54004 23.7197 2.54004C24.3347 2.54004 24.8447 3.05004 24.8447 3.66504V10.28C24.8447 10.91 24.3497 11.405 23.7197 11.405Z" fill="white"/>
<path id="Vector_5" d="M17.135 27.6801C16.595 27.6801 16.085 27.5451 15.62 27.2901C14.6 26.6901 14 25.4901 14 23.9751V20.3751C14 18.8601 14.6 17.6451 15.635 17.0451C16.67 16.4451 18.02 16.5351 19.325 17.3001L22.445 19.1001C23.75 19.8501 24.515 20.9751 24.515 22.1751C24.515 23.3751 23.75 24.5001 22.43 25.2501L19.31 27.0501C18.59 27.4701 17.84 27.6801 17.135 27.6801ZM17.15 18.9051C17 18.9051 16.865 18.9351 16.76 18.9951C16.445 19.1751 16.25 19.6851 16.25 20.3751V23.9751C16.25 24.6501 16.445 25.1601 16.76 25.3551C17.075 25.5351 17.615 25.4451 18.2 25.1001L21.32 23.3001C21.905 22.9551 22.265 22.5351 22.265 22.1751C22.265 21.8151 21.92 21.3951 21.32 21.0501L18.2 19.2501C17.81 19.0251 17.435 18.9051 17.15 18.9051Z" fill="white"/>
</g>
</g>
</svg>
