<svg width="151" height="150" viewBox="0 0 151 150" fill="none" xmlns="http://www.w3.org/2000/svg">
<mask id="mask0_140_974" style="mask-type:luminance" maskUnits="userSpaceOnUse" x="0" y="36" width="151" height="78">
<path d="M10.815 49.3137C12.285 47.4537 11.3849 44.4236 18.2549 43.5836L42.0747 40.5536C46.2747 40.0136 50.1449 39.3836 54.2549 39.0536C53.7449 42.2036 53.2947 45.5937 53.7147 48.8937C54.4347 47.3637 54.5849 44.1838 57.6449 42.2638C60.8549 40.2538 62.6547 41.6036 65.6847 42.8336C70.7847 44.9036 76.0648 46.9437 81.1648 48.9237C91.4248 52.9437 101.745 56.9935 111.975 61.0735C116.985 63.0835 122.235 65.1835 127.275 67.1335C128.445 67.5835 130.035 68.0635 131.115 68.5735L135.015 70.1636C145.275 74.3336 144.465 72.2635 144.495 82.0735C144.495 85.6735 144.495 89.2738 144.495 92.8738C144.495 105.864 145.245 105.144 135.165 104.964C134.985 104.124 135.345 102.144 135.285 101.004C135.165 97.8237 133.665 93.5335 130.155 93.2935C125.085 92.9635 124.395 100.194 124.575 104.964L76.9347 104.874C77.4147 100.914 77.9249 97.8538 76.6948 94.0138C74.2348 86.2138 66.4647 85.9736 64.1247 93.7736C62.9847 97.6436 63.3147 100.764 63.4047 104.844H49.6348L49.3949 101.274C46.7549 101.274 44.0548 101.514 41.4148 101.604C36.7948 101.784 37.8447 101.124 36.0747 104.394C30.3447 104.904 21.7348 104.394 16.3048 103.314C15.0448 101.364 16.0649 101.754 13.3349 101.214C11.9249 100.944 10.5148 100.643 9.10476 100.433C9.10476 101.753 9.58469 103.614 10.1547 104.604C10.9647 105.984 12.0448 105.834 14.0548 106.224C14.4448 106.884 14.5049 107.424 14.8349 108.054C15.2249 108.834 15.6447 109.044 15.7947 109.704H6.67495V113.424H150.375L150.495 109.764L132.405 109.704C132.735 108.954 133.575 108.084 134.265 107.994C136.545 107.664 141.585 108.684 144.315 107.004C147.795 104.844 147.135 99.7138 147.135 95.0938C147.135 91.8538 147.405 75.9836 146.655 73.5236C146.115 71.8136 144.165 70.8836 142.455 70.2236C135.465 67.5236 128.415 64.6435 121.365 61.7935C120.585 61.4635 116.535 59.9936 116.175 59.6636C115.605 59.1536 115.425 58.0737 114.645 57.5037C114.135 57.1137 112.635 56.5736 112.005 56.2736C102.015 51.6236 91.4847 47.2137 81.3747 42.5337C75.9447 40.0137 74.7748 43.2237 68.4148 40.6137C56.7148 35.8437 57.465 35.8135 43.815 37.8835L17.6847 41.4237C15.5247 41.7237 13.7847 42.6835 12.8247 43.8535C11.8647 45.0235 10.6349 47.0637 10.7849 49.2537M71.8949 100.554C70.5449 108.324 65.5649 104.004 66.5849 97.1936C66.8849 95.1836 68.3246 91.6735 70.4846 93.7435C71.8946 95.0935 72.3149 98.2736 71.9249 100.584L71.8949 100.554ZM127.035 102.384C126.615 95.9935 130.755 95.1836 131.235 100.554C131.385 102.204 130.935 105.204 129.825 105.714C127.965 106.584 127.125 104.004 127.035 102.384ZM27.2249 107.814C29.9249 107.724 33.1346 108.054 35.9846 108.084L58.1247 107.994C58.8147 108.084 58.995 108.354 59.565 108.714C60.135 109.074 60.5848 109.164 60.8848 109.674H26.1449C26.2949 109.014 26.8049 108.324 27.2249 107.814ZM45.4347 53.4537C47.2647 53.6037 47.9248 53.6036 47.8048 55.5836C47.7148 56.9336 47.5349 58.3136 47.4449 59.6636C47.2949 61.7336 47.7447 66.5937 45.0147 66.1437C42.7047 65.7537 43.215 61.4637 43.095 59.0337C42.975 56.2737 42.2848 53.1536 44.0548 51.4136C46.4848 49.0436 50.1448 50.0936 51.1348 49.5236C51.8848 49.1036 50.9847 46.9736 50.2647 46.5836C49.1547 45.9536 47.685 46.3135 46.455 46.4935C36.105 48.0235 25.035 48.8035 14.925 50.5735C7.81495 51.8035 11.6847 52.9135 8.2947 52.8235C5.5947 52.7635 2.68465 53.3036 1.48465 54.8637C-0.0453541 56.8137 0.644675 59.9036 0.764675 62.6936C0.854675 65.0336 0.344646 69.3835 2.98465 69.3235C5.20465 69.2635 4.87481 64.5538 5.02481 62.4838C5.47481 55.9738 5.98468 57.6235 3.01468 56.5735C3.13468 54.5035 6.58481 54.3538 8.77481 54.6538C8.95481 55.8538 7.90488 64.4937 7.72488 66.5337C7.36488 70.5537 7.00465 74.5738 6.73465 78.6238C6.37465 83.7838 5.4147 86.4237 9.7947 88.2537C17.9247 91.6737 36.8248 89.2136 44.7448 87.0836C47.2948 86.3936 48.7347 85.8835 49.5747 83.5735C50.7147 80.4235 50.5347 71.8136 50.7147 67.9136C50.9247 62.7536 51.3749 56.5737 51.2249 51.5037C49.3349 51.2937 45.4048 51.2637 45.4647 53.3937L45.4347 53.4537ZM33.5849 86.7236C32.9249 87.1736 31.1847 87.2038 30.3747 87.2638C27.8547 87.5038 26.8048 87.9535 25.9948 86.9335L11.8048 68.1538C10.0048 65.8438 10.0048 66.6236 10.3048 63.0836C10.3648 62.2436 10.5449 57.6235 11.1449 56.9935L22.3649 71.8137C25.2449 75.9837 30.8249 82.5536 33.5849 86.6936V86.7236ZM19.065 84.2935C17.775 82.6435 16.6047 81.0535 15.3747 79.4335L11.6247 74.6335C11.0547 73.8835 10.3948 72.9837 9.85476 72.1437C9.31476 71.2737 9.67476 69.5935 9.85476 68.5735C10.7548 69.1435 11.1749 70.1636 11.8949 70.9436L15.5248 75.6538C16.5748 77.3338 24.1649 86.6635 24.1949 87.6835C21.0149 87.6835 22.305 88.4335 19.065 84.2935ZM102.975 79.6737L122.295 83.1238L122.805 70.2236L102.195 62.5735L102.945 79.7037L102.975 79.6737ZM141.585 86.6035C141.645 76.7635 142.425 77.4835 136.125 75.3235L131.625 73.5236C128.895 72.5936 126.165 71.3338 124.185 70.7338C123.945 72.2938 124.305 76.8535 124.425 78.6835C124.755 84.5035 123.585 83.4236 127.365 84.0836C129.705 84.5036 140.115 86.5135 141.615 86.5735L141.585 86.6035ZM64.7849 86.4537C66.2249 84.0537 68.2648 82.3137 71.4148 82.6137C74.5648 82.9137 77.775 83.3636 80.955 83.7236L127.935 89.2435C129.675 89.4535 136.155 90.6535 137.115 89.9935C136.305 89.4535 102.615 84.7437 98.5049 84.1137C95.9849 83.7237 70.5749 79.7637 69.1948 80.0337C66.9448 80.4537 64.905 83.6637 64.815 86.4537H64.7849ZM38.2647 100.134C39.0747 100.434 47.385 99.9538 48.6749 99.6238C49.665 99.3838 49.8147 99.0836 49.9047 97.9436C49.9647 97.0436 49.9047 95.9937 49.9047 95.0637C49.9047 94.0737 49.9948 90.3537 49.6348 89.7837C49.0348 88.7937 42.1047 90.0537 40.9647 91.6737C40.6647 92.0937 37.9647 98.7535 38.2647 100.104V100.134ZM14.5349 99.6538C14.8349 98.4838 13.755 95.4837 13.425 94.2537C12.795 91.9437 12.5549 91.5836 10.3349 90.8336C8.08487 90.0536 6.52488 89.3635 6.97488 92.5735C7.21488 94.4035 7.42491 96.4436 7.75491 98.2736C9.13491 98.5736 13.3949 99.8638 14.5049 99.6538H14.5349ZM69.345 74.5735C70.635 74.3635 71.5347 74.3937 72.8247 74.4537C73.8147 74.4837 75.1348 74.7836 75.9148 74.7236V70.5836L76.6648 52.9436C75.8848 52.3736 71.1447 50.7836 69.7947 50.2736C67.5147 49.3736 65.0847 48.2637 62.2647 48.5337C59.3247 48.8037 57.5248 50.1535 56.4448 52.0435C55.0648 54.4435 55.245 57.1136 55.095 60.0836C54.645 68.5436 53.5647 88.6138 54.3747 96.2338C63.4947 97.2538 60.5247 93.2037 63.0747 81.8937C64.0347 77.6937 65.685 75.5935 69.345 74.5735ZM80.4148 75.5637C86.9548 76.8537 93.5547 77.9935 100.125 79.1335L100.845 61.9736L78.315 53.5435C78.315 57.3235 78.6147 61.3735 78.7647 65.1835L79.2147 73.9436C79.2147 75.3836 78.9148 75.4137 80.4148 75.5637ZM68.1449 102.624C71.8949 106.224 72.5847 92.8737 68.3247 95.0337C68.6247 95.8437 69.8247 96.2335 69.7947 98.9635C69.7947 99.7135 69.615 100.524 69.315 101.154C69.105 101.574 68.9847 101.724 68.7147 101.994L68.1149 102.624H68.1449ZM122.685 109.704H74.205C74.205 109.704 75.3447 108.204 75.7647 108.054L118.005 107.994C119.025 107.994 120.225 107.844 120.915 108.264C121.245 108.474 122.475 109.404 122.715 109.704H122.685Z" fill="white"/>
</mask>
<g mask="url(#mask0_140_974)">
<path d="M150.525 35.8439H-0.015625V113.484H150.525V35.8439Z" fill="url(#paint0_linear_140_974)"/>
</g>
<defs>
<linearGradient id="paint0_linear_140_974" x1="32.8044" y1="115.374" x2="126.704" y2="25.3438" gradientUnits="userSpaceOnUse">
<stop stop-color="#312E6A"/>
<stop offset="1" stop-color="#57BDDD"/>
</linearGradient>
</defs>
</svg>
