<svg width="150" height="150" viewBox="0 0 150 150" fill="none" xmlns="http://www.w3.org/2000/svg">
<mask id="mask0_67_3" style="mask-type:luminance" maskUnits="userSpaceOnUse" x="0" y="19" width="150" height="112">
<path d="M41.25 80.0548L33.3 69.5848C32.85 69.0148 32.55 68.7449 32.4 68.4748V63.1348L39.12 71.595C40.71 73.875 44.04 77.7748 45.54 80.0548H41.28H41.25ZM76.77 79.7248L68.82 69.2549C68.37 68.6849 68.07 68.4149 67.92 68.1449V62.8048L74.64 71.265C76.23 73.545 79.56 77.4448 81.06 79.7248H76.8H76.77ZM72.78 78.1047C72.09 77.2047 71.43 76.3351 70.74 75.4351L68.7 72.795C68.43 72.465 68.13 72.0751 67.89 71.6851V69.6149C68.28 69.9449 68.49 70.4249 68.85 70.7849L70.83 73.3649C71.37 74.2049 74.88 78.5849 75.51 79.7248H74.01C73.77 79.4848 73.47 79.0047 72.78 78.1047ZM59.61 103.905L51.66 93.4351C51.21 92.8651 50.91 92.5951 50.76 92.3251V86.985L57.48 95.4448C59.07 97.7248 62.4 101.625 63.9 103.905H59.64H59.61ZM55.62 102.285C54.93 101.385 54.27 100.515 53.58 99.6149L51.54 96.9748C51.27 96.6148 50.97 96.2548 50.73 95.8348V93.765C51.12 94.095 51.33 94.5751 51.69 94.9351L53.67 97.515C54.21 98.355 57.72 102.735 58.35 103.875H56.85C56.61 103.635 56.31 103.155 55.62 102.255V102.285ZM94.02 103.995L86.07 93.5248C85.62 92.9548 85.32 92.6848 85.17 92.4148V87.0751L91.89 95.5349C93.48 97.8149 96.81 101.715 98.31 103.995H94.05H94.02ZM90.03 102.375C89.34 101.475 88.68 100.605 87.99 99.7049L85.95 97.0649C85.68 96.7049 85.38 96.3449 85.14 95.9249V93.8547C85.53 94.1847 85.74 94.6648 86.1 95.0248L88.08 97.6047C88.62 98.4447 92.13 102.825 92.76 103.965H91.26C91.02 103.725 90.72 103.245 90.03 102.345V102.375ZM31.68 57.735L48.21 57.795L48.12 80.7147L31.71 80.8048V57.735H31.68ZM49.83 57.735L65.52 57.8251L65.61 80.3251H49.8L49.83 57.735ZM67.17 57.735H82.92L82.98 58.7549V71.205V80.3251H78.18H68.49H67.2V57.735H67.17ZM84.54 57.735H85.11H98.28H98.85H99.42H100.29L100.35 79.845V80.295H84.54V57.705V57.735ZM118.41 80.9249H103.5L101.88 80.0248L101.94 57.735H118.44V80.9249H118.41ZM99.78 104.295H84.6V82.9647H99.72L99.78 104.295ZM50.28 100.245V82.9647H65.52L65.61 104.235C60.51 104.355 55.47 104.265 50.37 104.235L50.25 100.275L50.28 100.245ZM67.2 82.9351H82.92V104.265L67.23 104.325V82.9647L67.2 82.9351ZM136.02 109.215V113.595H14.07V108.615C14.07 108.285 14.34 107.985 14.7 107.985H135.39C135.72 107.985 136.02 108.255 136.02 108.615V109.245V109.215ZM141.63 117.645V122.025H8.45998V117.045C8.45998 116.715 8.73 116.415 9.09 116.415H141C141.33 116.415 141.63 116.685 141.63 117.045V117.675V117.645ZM66.21 23.265C66.21 23.265 67.14 23.3547 67.32 23.3547C67.38 23.3547 68.34 23.4449 68.4 23.5049L68.61 24.345C68.76 24.855 68.94 25.5749 69.06 26.1149C69.15 26.4149 69.21 26.715 69.3 27.015C69.45 27.615 69.63 28.2149 69.75 28.8149C70.17 30.4049 70.2 30.735 70.56 31.905C70.68 32.265 70.74 32.625 70.83 32.985C70.92 33.345 71.01 33.6749 71.1 34.0349C71.25 34.6949 72.66 34.7249 74.13 34.7549H82.86C83.25 34.7549 83.52 34.815 83.76 34.545C83.97 34.335 84 33.975 83.85 33.705C83.67 33.375 83.37 33.375 83.07 33.375C79.41 33.375 76.38 33.375 72.33 33.375C72.27 33.225 72.24 33.0149 72.21 32.8649C72.18 32.7149 72.09 32.5051 72.09 32.3251C74.85 32.3551 77.67 32.3251 80.43 32.3251C80.88 32.3251 81.36 32.3251 81.81 32.3251C82.17 32.3251 82.86 32.385 83.1 32.235C83.25 32.145 83.34 32.0249 83.37 31.8149C83.4 31.6349 83.46 31.4548 83.52 31.2748L84.72 26.9249C84.84 26.5049 84.99 26.175 84.66 25.875C84.54 25.755 84.42 25.6648 84.18 25.6648L83.55 25.6047L70.05 24.5548C70.02 24.3748 69.96 24.165 69.9 23.985L69.6 22.845C69.48 22.365 69.42 22.4248 69.39 22.3348L69.27 22.2448C69.27 22.2448 69 22.155 68.85 22.125C68.67 22.125 68.43 22.0649 68.22 22.0649C67.8 22.0349 67.38 21.9748 66.96 21.9148C66.63 21.8848 66.33 21.855 66 21.795C65.64 21.765 65.4 21.7949 65.25 22.0649C65.07 22.4249 65.25 22.9649 65.67 23.1149C65.79 23.1449 65.88 23.1449 66 23.1749C66.09 23.1749 66.09 23.175 66.12 23.205L66.21 23.265ZM74.28 26.265L74.46 28.545L72.87 28.485C72.33 28.485 71.82 28.4249 71.31 28.4249C71.1 28.4249 71.16 28.5148 71.01 27.9148C70.95 27.7048 70.89 27.4949 70.83 27.2549C70.77 26.9549 70.53 26.1747 70.5 25.9647L74.31 26.265H74.28ZM83.4 26.985L82.89 28.875L79.53 28.7549L79.83 26.7147L83.43 26.985H83.4ZM74.7 26.295C75.09 26.325 75.51 26.3548 75.9 26.3848C76.26 26.4148 79.32 26.6551 79.38 26.6851C79.38 26.8351 79.26 27.495 79.23 27.705C79.23 27.765 79.11 28.6649 79.08 28.7249C78.99 28.7849 76.2 28.6347 75.81 28.6047C75.51 28.6047 75.24 28.6047 74.97 28.6047C74.88 28.6047 74.88 28.605 74.88 28.485L74.7 26.3251V26.295ZM71.22 28.875C71.22 28.875 74.16 28.9648 74.49 28.9948C74.52 29.1147 74.52 29.3549 74.55 29.5049C74.55 29.7149 74.67 30.9449 74.67 31.0049C74.58 31.0349 71.94 31.0349 71.76 31.0049L71.22 28.905V28.875ZM74.91 29.0248C75.18 29.0248 76.56 29.0848 76.98 29.0848C77.31 29.0848 77.64 29.1149 77.97 29.1449C78.33 29.1449 78.66 29.1449 79.02 29.1749C79.02 29.2349 78.78 30.9449 78.75 31.0049H75.15C75.15 31.0049 75.12 30.945 75.09 30.705C75.03 30.165 75 29.5048 74.94 28.9948L74.91 29.0248ZM73.53 35.6851C72.96 35.7451 72.42 36.3149 72.51 37.0049C72.6 37.6049 73.14 38.0847 73.83 37.9947C74.46 37.9047 74.91 37.2749 74.82 36.6749C74.73 36.0749 74.22 35.6251 73.53 35.6851ZM81.66 35.6851C81.09 35.7451 80.55 36.3149 80.64 37.0049C80.73 37.6049 81.27 38.0847 81.96 37.9947C82.59 37.9047 83.04 37.2749 82.95 36.6749C82.86 36.0749 82.35 35.6251 81.66 35.6851ZM82.14 31.0349C81.21 31.0349 80.1 31.0349 79.17 31.0349C79.17 30.9749 79.38 29.445 79.41 29.205C79.59 29.175 80.76 29.235 81.06 29.265C81.63 29.265 82.17 29.3251 82.71 29.3251C82.71 29.4451 82.35 30.6748 82.29 30.9148C82.26 31.0648 82.29 31.0349 82.11 31.0349H82.14ZM56.13 19.515H94.05C94.62 19.515 95.1 19.9949 95.1 20.5649V39.3149C95.1 39.8849 94.62 40.3649 94.05 40.3649H56.13C55.56 40.3649 55.08 39.8849 55.08 39.3149V20.5649C55.08 19.9949 55.56 19.515 56.13 19.515ZM106.14 104.505C106.14 104.505 106.35 104.745 106.53 104.805C106.77 104.895 107.52 104.835 107.85 104.835H112.74C113.1 104.835 113.4 104.865 113.64 104.655C113.88 104.445 113.91 104.265 113.94 103.875L114.09 102.945C114.18 102.525 114.21 101.985 114.3 101.535C114.3 101.385 114.36 101.205 114.36 101.085L114.48 100.125C111.54 100.125 108.3 100.005 105.45 100.125C105.45 100.125 105.36 100.065 105.45 100.515C105.51 100.935 105.57 101.385 105.63 101.805C105.69 102.135 106.05 104.415 106.08 104.475L106.14 104.505ZM107.4 101.295C107.4 101.145 107.43 101.055 107.55 100.995C107.67 100.935 107.79 100.995 107.88 101.055C107.97 101.175 107.97 101.715 107.97 101.925C107.97 102.195 107.97 102.525 108 102.795C108 103.095 108 103.425 108 103.725C108 104.145 107.64 104.115 107.52 103.965C107.43 103.815 107.46 103.335 107.46 103.095C107.4 102.525 107.46 101.895 107.4 101.325V101.295ZM112.47 103.395C112.47 103.395 112.47 103.755 112.47 103.875C112.38 104.175 111.96 104.145 111.96 103.815C111.96 103.665 111.96 103.485 111.96 103.335C111.96 103.185 111.96 103.005 111.96 102.855C111.96 102.435 111.99 101.895 112.02 101.475C112.02 101.325 112.02 101.175 112.08 101.085C112.17 100.995 112.32 100.965 112.41 101.055C112.74 101.265 112.35 102.705 112.44 103.425L112.47 103.395ZM109.47 103.875C109.41 104.145 109.02 104.145 108.96 103.875C108.96 103.785 108.96 102.315 108.96 102.075C108.96 101.925 108.96 101.265 108.96 101.175C109.02 100.935 109.41 100.905 109.47 101.175C109.47 101.295 109.47 102.705 109.47 102.975C109.47 103.215 109.47 103.665 109.47 103.875ZM113.1 95.3848C113.1 95.3848 112.11 96.285 111.96 96.4351C111.87 96.5251 111.78 96.615 111.66 96.7049C111.57 96.795 111.45 96.8848 111.36 96.9748C111.3 97.0048 111.27 97.065 111.21 97.095L110.79 97.485C110.58 97.665 110.16 98.055 109.92 98.265C109.83 98.355 109.71 98.4449 109.62 98.5349C109.29 98.8049 109.2 98.8948 109.47 99.1648C109.56 99.2548 109.65 99.3447 109.74 99.4647C109.83 99.5247 109.92 99.7049 110.07 99.6749C110.16 99.6749 110.79 99.0449 110.94 98.8949C111 98.8649 111.03 98.8048 111.09 98.7748C111.48 98.4448 112.02 97.9051 112.38 97.5751C112.47 97.4851 112.56 97.3948 112.68 97.3048L113.82 96.2549C113.91 96.1049 113.73 95.9849 113.67 95.8949L113.28 95.4748C113.28 95.4748 113.16 95.3848 113.07 95.4148L113.1 95.3848ZM109.98 98.7447C109.98 98.7447 110.22 98.7449 110.28 98.8949C110.34 99.0449 110.22 99.1348 110.13 99.1948C109.89 99.2848 109.68 98.8648 109.98 98.7748V98.7447ZM105.27 99.7049H109.53C109.53 99.7049 109.17 99.3148 109.08 99.1948C108.93 98.9248 109.02 98.7149 109.17 98.5349C108.15 98.5349 107.07 98.5349 106.05 98.5349C105.54 98.5349 105.03 98.4448 104.79 98.8348C104.61 99.1048 104.7 99.4649 104.97 99.6449C105.03 99.7049 105.15 99.735 105.27 99.735V99.7049ZM110.61 99.7049C110.61 99.7049 114.6 99.7049 114.75 99.7049C114.99 99.7049 115.23 99.4648 115.26 99.1948C115.32 98.8948 115.11 98.6549 114.87 98.5649C114.78 98.5349 111.99 98.4749 111.9 98.5649L111.18 99.2248C111.18 99.2248 111.03 99.345 111 99.405C110.94 99.465 110.67 99.705 110.64 99.765L110.61 99.7049ZM110.97 103.905C110.85 104.145 110.49 104.115 110.46 103.815C110.46 103.545 110.46 103.185 110.46 102.915C110.46 102.675 110.46 101.235 110.46 101.115C110.58 100.875 110.94 100.935 110.97 101.205C110.97 101.475 110.97 101.835 110.97 102.105C110.97 102.345 111 103.785 110.97 103.905ZM31.59 98.595H35.82V98.4748H31.59V98.595ZM43.53 88.3048V90.045C43.53 90.045 43.53 90.0451 43.53 90.0751V90.5548C43.53 90.9748 43.53 91.3949 43.53 91.8149V92.5649C43.53 92.9549 43.56 93.2547 43.29 93.4647C43.05 93.6747 42.72 93.6149 42.33 93.6149C40.83 93.6149 39.33 93.6149 37.83 93.6149C37.77 93.8849 37.86 96.1049 37.83 96.2549C37.77 96.2549 35.91 96.2549 35.85 96.2549C35.79 96.1049 35.85 93.9149 35.85 93.6149C34.47 93.6149 33.03 93.6149 31.65 93.6149V96.4351C31.98 96.4351 32.37 96.4351 32.58 96.4351H42.36C42.75 96.4351 42.99 96.6448 43.11 96.9148C43.2 97.1548 43.17 97.7848 43.17 98.0848C44.34 98.0848 44.37 97.9648 44.37 98.4748C44.37 98.6248 44.4 98.865 44.34 98.985C44.31 98.715 44.28 98.4148 43.8 98.4148H39.75H39.69H37.86V98.5349C39.84 98.5349 41.82 98.5349 43.83 98.5349C43.98 98.5349 44.1 98.6247 44.16 98.7447C44.19 98.8347 44.19 99.4049 44.16 100.065C43.95 99.8549 44.22 100.005 41.94 99.9748H40.26C39.9 99.9748 39.66 100.215 39.66 100.605V104.805C39.66 104.955 39.72 105.045 39.75 105.165H31.62V106.065H20.19C19.98 104.625 20.13 49.125 20.13 45.735C20.13 42.345 19.83 42.5548 22.08 42.5548C64.29 42.7648 103.56 42.5548 125.79 42.5548C131.07 42.5548 130.11 41.8649 130.11 46.4249C130.11 53.4449 130.29 104.415 130.05 105.975C129.24 106.125 119.13 106.125 118.44 105.975V82.485L102.39 82.545L102.33 106.095L47.82 105.915L47.7 105.585V82.455H31.62V85.3348C33.06 85.3348 34.53 85.3348 36 85.3348H41.88C42.21 85.3348 42.54 85.3348 42.87 85.3348C43.14 85.3348 43.35 85.5148 43.47 85.7248C43.56 85.9649 43.53 87.2849 43.53 87.6449V88.2147V88.3048ZM42.39 91.0349C42.39 91.0349 42.39 91.065 42.39 91.095V91.2447C42.39 91.2447 42.39 91.2448 42.39 91.2748C42.39 91.3648 42.39 91.455 42.39 91.515C42.39 92.565 42.51 92.4148 41.73 92.4148H35.46C35.13 92.4148 32.49 92.4148 31.59 92.4148V86.655C31.59 86.655 31.68 86.655 31.71 86.655H42.15C42.39 86.655 42.39 86.715 42.39 86.9549C42.39 87.1349 42.39 87.3147 42.39 87.4647C42.39 87.7347 42.39 88.0048 42.39 88.3048V90.345C42.39 90.345 42.39 90.4948 42.39 90.5848V91.0349ZM39.87 104.895C39.87 105.045 40.02 105.165 40.17 105.195H43.62C43.95 105.195 44.13 105.195 44.16 104.835C44.16 103.845 44.16 102.675 44.16 101.685C44.16 101.505 44.16 100.635 44.16 100.545C44.31 100.035 40.95 100.275 40.44 100.305C39.9 100.305 39.9 100.425 39.9 100.905V104.925L39.87 104.895ZM43.11 101.385C43.29 101.385 43.41 101.385 43.5 101.505C43.5 101.625 43.5 101.715 43.38 101.805C42.39 101.805 41.19 101.895 40.59 101.805C40.44 101.685 40.5 101.505 40.65 101.445C40.71 101.445 41.13 101.445 41.25 101.445C42.78 101.445 41.22 101.445 43.14 101.445L43.11 101.385ZM40.41 102.885H43.86V103.605H40.44V102.885H40.41ZM41.22 103.065H40.92V103.425C41.43 103.425 41.22 103.425 41.31 103.515C41.55 103.515 41.46 103.545 41.46 103.005C41.43 103.005 41.34 103.005 41.31 103.005C41.25 103.005 41.31 103.065 41.22 103.095V103.065ZM42.81 103.515C42.99 103.515 42.99 103.515 42.99 103.425H43.35V103.065H42.99C42.99 102.975 43.02 102.975 42.84 102.975C42.81 103.065 42.84 103.395 42.84 103.485L42.81 103.515ZM40.11 91.2147C40.11 91.2147 40.32 91.185 40.41 91.095C40.5 91.005 40.53 90.915 40.53 90.795C40.53 90.675 40.5 90.5547 40.41 90.4947C40.32 90.4047 40.23 90.375 40.11 90.375C39.99 90.375 39.9 90.4047 39.81 90.4947C39.72 90.5847 39.69 90.675 39.69 90.795C39.69 90.915 39.72 91.035 39.81 91.095C39.9 91.185 39.99 91.2147 40.11 91.2147ZM40.83 91.515C40.62 91.725 40.38 91.8149 40.11 91.8149C39.84 91.8149 39.57 91.725 39.39 91.515C39.18 91.305 39.09 91.065 39.09 90.795C39.09 90.525 39.18 90.2551 39.39 90.0751C39.6 89.8651 39.84 89.7748 40.11 89.7748C40.38 89.7748 40.65 89.8651 40.83 90.0751C41.04 90.2851 41.13 90.525 41.13 90.795C41.13 91.065 41.04 91.335 40.83 91.515ZM37.17 88.6948C37.17 88.6948 37.35 88.8149 37.47 88.8149C37.59 88.8149 37.68 88.7848 37.77 88.6948C37.86 88.6048 37.89 88.5149 37.89 88.3649C37.89 88.2149 37.86 88.1249 37.77 88.0349C37.68 87.9449 37.59 87.9148 37.47 87.9148C37.35 87.9148 37.26 87.9449 37.17 88.0349C37.08 88.1249 37.05 88.2449 37.05 88.3649C37.05 88.4849 37.08 88.6048 37.17 88.6948ZM37.2 91.6948C37.38 91.5448 37.53 91.365 37.65 91.095L39.15 88.0649C39.27 87.8249 39.36 87.6451 39.42 87.4351H40.32C40.32 87.4351 40.08 87.7348 39.96 87.9748L38.37 91.2447C38.28 91.4547 38.22 91.6048 38.16 91.6948H37.23H37.2ZM38.19 89.0848C37.98 89.2948 37.74 89.3848 37.47 89.3848C37.2 89.3848 36.93 89.2948 36.75 89.0848C36.54 88.8748 36.45 88.6349 36.45 88.3649C36.45 88.0949 36.54 87.8249 36.75 87.6449C36.96 87.4349 37.2 87.345 37.47 87.345C37.74 87.345 38.01 87.4349 38.19 87.6449C38.4 87.8549 38.49 88.0949 38.49 88.3649C38.49 88.6349 38.4 88.9048 38.19 89.0848ZM31.56 97.0049C32.13 97.0049 33.18 97.0049 33.33 97.0049H40.26C40.47 97.0049 42.3 97.0049 42.42 97.0049C42.51 97.0349 42.6 97.1248 42.6 97.2748C42.6 97.5448 42.6 97.8449 42.6 98.1149C42.3 98.1449 41.01 98.1149 40.32 98.1149H37.83C37.83 98.1149 37.83 97.215 37.83 97.1851C37.74 97.1851 35.94 97.1851 35.85 97.1851C35.85 97.1851 35.85 97.3049 35.85 97.4249V98.1149C35.67 98.1449 34.89 98.1149 34.65 98.1149C34.41 98.1149 32.58 98.1149 31.62 98.1149V96.9748L31.56 97.0049ZM0 130.485H150V125.505C150 125.175 149.73 124.875 149.37 124.875H0.629974C0.299974 124.875 0 125.145 0 125.505V130.485ZM37.14 78.5248C36.45 77.6248 35.79 76.7547 35.1 75.8547L33.06 73.2147C32.79 72.8547 32.49 72.4951 32.25 72.0751V70.0049C32.64 70.3349 32.85 70.8149 33.21 71.1749L35.19 73.7549C35.73 74.5949 39.24 78.9749 39.87 80.1149H38.37C38.13 79.8749 37.83 79.3947 37.14 78.4947V78.5248Z" fill="white"/>
</mask>
<g mask="url(#mask0_67_3)">
<path d="M150.12 19.455H0.120117V130.395H150.12V19.455Z" fill="url(#paint0_linear_67_3)"/>
</g>
<defs>
<linearGradient id="paint0_linear_67_3" x1="18.6601" y1="112.425" x2="143.7" y2="29.3849" gradientUnits="userSpaceOnUse">
<stop stop-color="#312E6A"/>
<stop offset="1" stop-color="#57BDDD"/>
</linearGradient>
</defs>
</svg>
