<svg width="685" height="46" viewBox="0 0 685 46" fill="none" xmlns="http://www.w3.org/2000/svg">
<path d="M22.0882 37.3287V42.4419C22.0882 43.6109 21.7009 44.3209 20.2093 44.3209H1.87893C0.387257 44.3209 0 43.6109 0 42.4419V37.3287C0 36.1597 0.387257 35.4497 1.87893 35.4497H5.95951V10.7081H2.00801C0.516339 10.7081 0.129082 9.99809 0.129082 8.82914V3.58677C0.129082 2.41782 0.516339 1.7078 2.00801 1.7078H20.0085C21.5001 1.7078 21.8874 2.41782 21.8874 3.58677V8.82914C21.8874 9.99809 21.5001 10.7081 20.0085 10.7081H16.1215V35.4497H20.2021C21.6938 35.4497 22.081 36.1597 22.081 37.3287H22.0882ZM65.024 3.58677V42.4419C65.024 43.6109 64.6367 44.3209 63.145 44.3209H57.25C55.6293 44.3209 55.1775 43.4172 54.3384 42.1192L40.6122 19.9091V42.4419C40.6122 43.9336 39.9022 44.3209 38.7333 44.3209H32.3219C31.153 44.3209 30.443 43.9336 30.443 42.4419V3.58677C30.443 2.41782 30.8303 1.7078 32.3219 1.7078H38.4105C40.0313 1.7078 40.4831 2.61141 41.3222 3.90945L55.0484 26.055V3.58677C55.0484 2.0951 55.7584 1.7078 56.9274 1.7078H63.145C64.314 1.7078 65.024 2.0951 65.024 3.58677ZM108.419 16.2803V29.7484C108.419 39.9176 98.7013 44.3209 90.9991 44.3209H76.4912C74.9995 44.3209 74.6123 43.6109 74.6123 42.4419V3.58677C74.6123 2.41782 74.9995 1.7078 76.4912 1.7078H90.9991C98.7085 1.7078 108.419 6.17565 108.419 16.2803ZM98.2495 17.1839C98.2495 13.1033 95.2734 10.7081 90.9991 10.7081H84.7814V35.3135H90.9991C95.2734 35.3135 98.2495 32.9827 98.2495 28.8376V17.1839ZM150.186 30.652C150.186 40.8857 140.468 45.289 132.766 45.289C125.064 45.289 115.475 40.8857 115.475 30.652V15.3695C115.475 5.13581 125.057 0.732486 132.766 0.732486C140.475 0.732486 150.186 5.13581 150.186 15.3695V30.652ZM140.016 16.2732C140.016 12.128 137.04 9.73271 132.766 9.73271C128.492 9.73271 125.58 12.128 125.58 16.2732V29.7412C125.58 33.8863 128.556 36.2816 132.766 36.2816C136.976 36.2816 140.016 33.8863 140.016 29.7412V16.2732ZM191.959 30.652C191.959 40.8857 182.242 45.289 174.54 45.289C166.838 45.289 157.249 40.8857 157.249 30.652V15.3695C157.249 5.13581 166.831 0.732486 174.54 0.732486C182.249 0.732486 191.959 5.13581 191.959 15.3695V30.652ZM181.79 16.2732C181.79 12.128 178.814 9.73271 174.54 9.73271C170.266 9.73271 167.354 12.128 167.354 16.2732V29.7412C167.354 33.8863 170.33 36.2816 174.54 36.2816C178.75 36.2816 181.79 33.8863 181.79 29.7412V16.2732ZM234.185 44.3137H226.54C224.984 44.3137 224.21 43.7328 223.299 42.3702L216.307 31.8783C215.726 31.1038 215.597 30.3866 215.597 28.5722V23.3944C215.597 22.2255 215.984 21.5155 217.476 21.5155H218.774C221.944 21.5155 224.927 19.3139 224.927 16.2732C224.927 12.9025 222.338 10.7654 218.967 10.7654H210.354V42.4348C210.354 43.9264 209.644 44.3137 208.475 44.3137H202.064C200.895 44.3137 200.25 43.9264 200.25 42.4348V3.57959C200.25 2.41064 200.572 1.70066 202.064 1.70066H218.386C225.443 1.70066 228.556 3.12777 231.274 5.84577C233.669 8.1765 235.031 11.8698 235.031 16.0149C235.031 22.8135 230.047 27.5396 226.031 28.9022L235.161 42.2411C235.741 43.1447 235.419 44.3137 234.192 44.3137H234.185ZM301.024 3.57959V42.4348C301.024 43.9264 300.314 44.3137 299.145 44.3137H292.927C291.758 44.3137 291.048 43.9264 291.048 42.4348V20.4828L284.572 31.8138C284.249 32.3301 283.669 33.1763 282.693 33.1763H279.452C278.484 33.1763 277.96 32.3373 277.637 31.8138L271.097 20.4828V42.4348C271.097 43.9264 270.387 44.3137 269.218 44.3137H262.807C261.638 44.3137 260.928 43.9264 260.928 42.4348V3.57959C260.928 2.41064 261.315 1.70066 262.807 1.70066H269.218C271.42 1.70066 271.678 3.1278 272.194 3.90232L281.065 19.8302L290.001 3.90232C290.453 3.1278 290.776 1.70066 292.913 1.70066H299.13C300.622 1.70066 301.009 2.41064 301.009 3.57959H301.024ZM343.378 37.1278V42.4348C343.378 43.6037 342.991 44.3137 341.5 44.3137H312.484C310.992 44.3137 310.605 43.6037 310.605 42.4348V3.57959C310.605 2.41064 310.992 1.70066 312.484 1.70066H340.395C341.887 1.70066 342.274 2.41064 342.274 3.57959V8.95104C342.274 10.12 341.887 10.83 340.395 10.83H320.838V17.8867H338.193C339.685 17.8867 340.072 18.5967 340.072 19.7657V24.8144C340.072 25.9833 339.685 26.6933 338.193 26.6933H320.838V35.2417H341.5C342.991 35.2417 343.378 35.9517 343.378 37.1207V37.1278ZM385.023 16.2732V29.7412C385.023 39.9104 375.306 44.3137 367.604 44.3137H353.096C351.604 44.3137 351.217 43.6037 351.217 42.4348V3.57959C351.217 2.41064 351.604 1.70066 353.096 1.70066H367.604C375.313 1.70066 385.023 6.16851 385.023 16.2732ZM374.854 17.1767C374.854 13.0961 371.878 10.7009 367.604 10.7009H361.386V35.3063H367.604C371.878 35.3063 374.854 32.9755 374.854 28.8304V17.1767ZM413.709 37.3143V42.4276C413.709 43.5965 413.322 44.3065 411.83 44.3065H393.5C392.008 44.3065 391.621 43.5965 391.621 42.4276V37.3143C391.621 36.1454 392.008 35.4354 393.5 35.4354H397.581V10.6937H393.629C392.138 10.6937 391.75 9.98373 391.75 8.81478V3.57242C391.75 2.40346 392.138 1.69349 393.629 1.69349H411.63C413.121 1.69349 413.509 2.40346 413.509 3.57242V8.81478C413.509 9.98373 413.121 10.6937 411.63 10.6937H407.743V35.4354H411.823C413.315 35.4354 413.702 36.1454 413.702 37.3143H413.709ZM457.62 44.3065H450.822C449.395 44.3065 448.878 43.9193 448.362 42.3631L446.548 37.2498H430.684L428.87 42.3631C428.354 43.9193 427.837 44.3065 426.41 44.3065H419.612C418.184 44.3065 418.184 43.2738 418.507 42.4921L432.886 3.7015C433.402 2.33891 434.119 1.69349 435.539 1.69349H441.757C443.184 1.69349 443.83 2.33891 444.411 3.7015L458.725 42.4921C459.048 43.2666 459.048 44.3065 457.62 44.3065ZM443.5 28.1778L438.645 13.8635L433.79 28.1778H443.507H443.5ZM515.58 22.412V31.7994C515 41.1224 505.54 45.2675 498.161 45.2675C490.781 45.2675 480.741 41.3805 480.741 31.2114V15.2835C480.741 5.04976 490.523 0.710995 498.161 0.710995C506.258 0.710995 515.58 5.37245 515.58 14.05C515.58 15.6062 515.193 15.8644 513.702 15.8644H507.419C505.605 15.8644 505.863 14.5663 505.54 13.6627C504.83 11.6547 502.5 9.71122 498.161 9.71122C493.822 9.71122 491.04 12.5583 491.04 16.7034V29.7197C491.04 33.8648 493.887 36.2601 498.161 36.2601C502.435 36.2601 505.347 34.3166 505.347 29.3324H499.516C498.025 29.3324 497.637 28.6224 497.637 27.4535V22.4048C497.637 21.2358 498.025 20.5258 499.516 20.5258H513.702C515.193 20.5258 515.58 21.2358 515.58 22.4048V22.412ZM557.806 44.2993H550.161C548.605 44.2993 547.831 43.7185 546.92 42.3559L539.928 31.864C539.347 31.0895 539.218 30.3723 539.218 28.5579V23.3801C539.218 22.2111 539.605 21.5012 541.097 21.5012H542.395C545.565 21.5012 548.548 19.2995 548.548 16.2588C548.548 12.8882 545.959 10.7511 542.588 10.7511H533.975V42.4204C533.975 43.9121 533.265 44.2993 532.096 44.2993H525.685C524.516 44.2993 523.871 43.9121 523.871 42.4204V3.56524C523.871 2.39628 524.193 1.68631 525.685 1.68631H542.008C549.064 1.68631 552.177 3.11341 554.895 5.83141C557.29 8.16215 558.653 11.8555 558.653 16.0006C558.653 22.7992 553.668 27.5252 549.652 28.8878L558.782 42.2268C559.363 43.1304 559.04 44.2993 557.813 44.2993H557.806ZM600.484 30.6376C600.484 40.8714 590.766 45.2747 583.064 45.2747C575.362 45.2747 565.774 40.8714 565.774 30.6376V15.3552C565.774 5.12145 575.355 0.718173 583.064 0.718173C590.774 0.718173 600.484 5.12145 600.484 15.3552V30.6376ZM590.315 16.2588C590.315 12.1137 587.339 9.71839 583.064 9.71839C578.79 9.71839 575.878 12.1137 575.878 16.2588V29.7268C575.878 33.872 578.855 36.2673 583.064 36.2673C587.274 36.2673 590.315 33.872 590.315 29.7268V16.2588ZM642.516 3.56524V31.2831C642.516 41.4523 633.064 45.2747 625.355 45.2747C617.645 45.2747 608.258 41.4523 608.258 31.2831V3.56524C608.258 2.07357 608.968 1.68631 610.137 1.68631H616.548C617.717 1.68631 618.427 2.07357 618.427 3.56524V29.8559C618.427 33.9365 621.08 36.2673 625.355 36.2673C629.629 36.2673 632.347 33.9365 632.347 29.8559V3.56524C632.347 2.07357 633.057 1.68631 634.226 1.68631H640.637C641.806 1.68631 642.516 2.07357 642.516 3.56524ZM685 16.7106C685 25.7108 679.04 31.6703 667.968 31.6703H661.75V42.4204C661.75 43.9121 661.04 44.2993 659.871 44.2993H653.46C652.291 44.2993 651.581 43.9121 651.581 42.4204V3.56524C651.581 2.39628 651.968 1.68631 653.46 1.68631H668.032C679.17 1.68631 685 7.77492 685 16.7106ZM675.218 16.9042C675.218 13.5336 673.016 10.8156 667.968 10.8156H661.75V22.9283H667.968C673.016 22.9283 675.218 20.1457 675.218 16.9042Z" fill="url(#paint0_linear_196_149)"/>
<defs>
<linearGradient id="paint0_linear_196_149" x1="342.5" y1="45.289" x2="342.5" y2="0.710993" gradientUnits="userSpaceOnUse">
<stop stop-color="#312E6A"/>
<stop offset="1" stop-color="#57BDDD"/>
</linearGradient>
</defs>
</svg>
